<svg id="CONT_INST" xmlns="http://www.w3.org/2000/svg" width="25" height="25" viewBox="0 0 25 25">
  <path id="instagram-square-brands" d="M12.5,41.523A2.977,2.977,0,1,0,15.478,44.5,2.977,2.977,0,0,0,12.5,41.523Zm6.959-2.288a3.013,3.013,0,0,0-1.7-1.7c-1.172-.463-3.962-.359-5.262-.359s-4.088-.108-5.263.359a3.013,3.013,0,0,0-1.7,1.7c-.462,1.172-.359,3.965-.359,5.264s-.1,4.089.361,5.265a3.013,3.013,0,0,0,1.7,1.7c1.172.463,3.962.359,5.263.359s4.087.108,5.262-.359a3.013,3.013,0,0,0,1.7-1.7c.466-1.172.359-3.965.359-5.264s.107-4.088-.359-5.264ZM12.5,49.076a4.57,4.57,0,1,1,3.237-1.339A4.576,4.576,0,0,1,12.5,49.076ZM17.265,40.8a1.062,1.062,0,1,1,.757-.312,1.068,1.068,0,0,1-.757.312ZM22.321,32H2.679A2.679,2.679,0,0,0,0,34.679V54.321A2.679,2.679,0,0,0,2.679,57H22.321A2.679,2.679,0,0,0,25,54.321V34.679A2.679,2.679,0,0,0,22.321,32Zm-.955,16.183a5.31,5.31,0,0,1-1.443,3.739,5.312,5.312,0,0,1-3.739,1.443c-1.474.083-5.892.083-7.366,0A5.32,5.32,0,0,1,5.08,51.922a5.294,5.294,0,0,1-1.443-3.739c-.083-1.474-.083-5.893,0-7.366A5.292,5.292,0,0,1,5.08,37.078,5.322,5.322,0,0,1,8.819,35.64c1.474-.083,5.892-.083,7.366,0a5.313,5.313,0,0,1,3.739,1.443,5.313,5.313,0,0,1,1.443,3.742C21.449,42.292,21.449,46.708,21.366,48.183Z" transform="translate(0 -32)"/>
</svg>
