<svg id="CONT_CP_LOGO" xmlns="http://www.w3.org/2000/svg" width="24.794" height="25" viewBox="0 0 24.794 25">
  <path id="Path_97" data-name="Path 97" d="M133.538,154.166q-4.8,0-4.794-4.83a3.481,3.481,0,0,1,.71-2.274,2.2,2.2,0,0,1,1.79-.873,2.126,2.126,0,0,1,1.75.713,2.663,2.663,0,0,1,.578,1.784,1.7,1.7,0,0,1-.6,1.357,2.064,2.064,0,0,1-1.378.521,2.121,2.121,0,0,1-.687-.122l-.326-.239c-.107.029-.182.163-.22.4a2.009,2.009,0,0,0-.017.644A2.416,2.416,0,0,0,131.4,153a4.066,4.066,0,0,0,2.123.5v.655Z" transform="translate(-124.424 -140.598)"/>
  <path id="Path_98" data-name="Path 98" d="M148.62,160.659q-8.7,0-8.69-8.758a6.348,6.348,0,0,1,1.277-4.126,4.007,4.007,0,0,1,3.251-1.569,3.9,3.9,0,0,1,3.177,1.264,4.845,4.845,0,0,1,1.063,3.2,3.068,3.068,0,0,1-1.1,2.455,3.735,3.735,0,0,1-2.481.943,4.117,4.117,0,0,1-1.245-.218l-.577-.434c-.194.049-.326.291-.4.713a3.882,3.882,0,0,0-.041,1.164,4.442,4.442,0,0,0,1.955,3.174,7.358,7.358,0,0,0,3.809.937v1.24Z" transform="translate(-130.198 -140.609)"/>
  <path id="Path_99" data-name="Path 99" d="M132.221,135.969a11.178,11.178,0,1,1-11.083,11.181,11.132,11.132,0,0,1,11.083-11.181m0-1.325a12.5,12.5,0,1,0,12.394,12.5v-.006a12.448,12.448,0,0,0-12.394-12.5" transform="translate(-119.821 -134.645)"/>
</svg>
