<svg id="CONT_TWT" xmlns="http://www.w3.org/2000/svg" width="25.001" height="25" viewBox="0 0 25.001 25">
  <path id="Subtraction_13" data-name="Subtraction 13" d="M-5266.679,1295h-19.643a2.682,2.682,0,0,1-2.679-2.679v-19.644a2.682,2.682,0,0,1,2.679-2.679h19.643a2.682,2.682,0,0,1,2.68,2.679v19.644A2.682,2.682,0,0,1-5266.679,1295Zm-12.82-19.884h-5.169l6.176,8.077-5.854,6.69h2.506l4.518-5.161h0l3.948,5.161h5.04l-6.437-8.511,5.473-6.256h-2.5l-4.128,4.719Zm8.206,13.267h-1.388l-9.061-11.845h1.489l8.958,11.844Z" transform="translate(5289 -1269.999)"/>
</svg>
