<svg id="CONT_LINKEDIN" xmlns="http://www.w3.org/2000/svg" width="25" height="25" viewBox="0 0 25 25">
  <path id="icons8-linkedin" d="M26.727,4H6.273A2.272,2.272,0,0,0,4,6.273V26.727A2.272,2.272,0,0,0,6.273,29H26.727A2.272,2.272,0,0,0,29,26.727V6.273A2.272,2.272,0,0,0,26.727,4ZM11.9,24.455H8.55V13.668H11.9Zm-1.71-12.328a1.954,1.954,0,1,1,1.953-1.955A1.954,1.954,0,0,1,10.192,12.126ZM24.459,24.455h-3.35V19.209c0-1.251-.023-2.86-1.742-2.86-1.744,0-2.013,1.362-2.013,2.769v5.336H14V13.668H17.22v1.474h.045A3.523,3.523,0,0,1,20.437,13.4c3.394,0,4.022,2.234,4.022,5.139v5.916Z" transform="translate(-4 -4)"/>
</svg>
