<svg id="CONT_MEDIUM" xmlns="http://www.w3.org/2000/svg" width="25" height="25" viewBox="0 0 25 25">
  <path id="icons8-medium-monogram-120" d="M26.727,4H6.273A2.272,2.272,0,0,0,4,6.273V26.727A2.272,2.272,0,0,0,6.273,29H26.727A2.272,2.272,0,0,0,29,26.727V6.273A2.272,2.272,0,0,0,26.727,4ZM25.07,23.318h-6.74V22.94l1.578-1.389V13.625l-3.876,9.693h-.606L11.1,13.549v6.917L13.08,22.94v.378H7.93V22.94l2.044-2.474v-8.23L8.157,9.965V9.687H13.13l3.863,8.356,3.332-8.356h4.72v.277l-1.726,1.451V21.551L25.07,22.94Z" transform="translate(-4 -4)"/>
</svg>
