<svg id="CONT_TIKTOK" xmlns="http://www.w3.org/2000/svg" width="25" height="25" viewBox="0 0 25 25">
  <path id="Exclusion_2" data-name="Exclusion 2" d="M22.322,25H2.678A2.681,2.681,0,0,1,0,22.322V2.678A2.681,2.681,0,0,1,2.678,0H22.322A2.681,2.681,0,0,1,25,2.678V22.322A2.681,2.681,0,0,1,22.322,25ZM10.469,10.206a5.337,5.337,0,1,0,5.339,5.339V9.677a6.855,6.855,0,0,0,4.014,1.289h.017V8.1a3.98,3.98,0,0,1-2.2-.661A4.028,4.028,0,0,1,15.869,4.8a4.039,4.039,0,0,1-.061-.728H12.919V15.545A2.45,2.45,0,1,1,11.2,13.208V10.256A5.371,5.371,0,0,0,10.469,10.206Z" transform="translate(0 0)" fill="#1c0d16"/>
</svg>
