<svg xmlns="http://www.w3.org/2000/svg" width="99.836" height="39.039" viewBox="0 0 99.836 39.039">
  <g id="CROWD360_LOGO" transform="translate(0.003)">
    <g id="Layer_1" data-name="Layer 1" transform="translate(-0.003 0)">
      <path id="Path_11139" data-name="Path 11139" d="M40.091,38.66l-.781,1.155a2.342,2.342,0,0,0-.882-.476,3.716,3.716,0,0,0-1.241-.219,2.6,2.6,0,0,0-2.108.929A3.825,3.825,0,0,0,34.3,42.6a3.474,3.474,0,0,0,.781,2.459A2.9,2.9,0,0,0,37.3,45.9a3.661,3.661,0,0,0,2.209-.851l.648,1.374a5.9,5.9,0,0,1-3.263.89,4.122,4.122,0,0,1-3.123-1.265,4.684,4.684,0,0,1-1.21-3.419,4.887,4.887,0,0,1,1.28-3.529,4.59,4.59,0,0,1,3.482-1.327,4.684,4.684,0,0,1,1.561.3,4.528,4.528,0,0,1,1.21.585Z" transform="translate(-7.138 -8.285)" fill="#ff6b00"/>
      <path id="Path_11140" data-name="Path 11140" d="M49.5,39.513a1.85,1.85,0,0,0-1.077-.367,1.9,1.9,0,0,0-1.507.781,2.92,2.92,0,0,0-.648,1.928v5.269H44.64V37.952h1.632v1.468a2.849,2.849,0,0,1,2.646-1.639,7.744,7.744,0,0,1,1.265.156Z" transform="translate(-9.79 -8.287)" fill="#ff6b00"/>
      <path id="Path_11141" data-name="Path 11141" d="M52.448,42.478A5.035,5.035,0,0,1,53.6,39.043,4.239,4.239,0,0,1,59.669,39a5.137,5.137,0,0,1,1.093,3.482,5.16,5.16,0,0,1-1.116,3.505,4.239,4.239,0,0,1-6.1,0,5.23,5.23,0,0,1-1.1-3.505Zm1.717,0c0,2.342.781,3.458,2.443,3.458a2.061,2.061,0,0,0,1.788-.921,4.411,4.411,0,0,0,.648-2.537q0-3.411-2.436-3.411a2.1,2.1,0,0,0-1.78.913A4.13,4.13,0,0,0,54.165,42.478Z" transform="translate(-11.501 -8.278)" fill="#ff6b00"/>
      <path id="Path_11142" data-name="Path 11142" d="M73.5,47.368h-.429l-2.693-6.245-2.685,6.245h-.429L63.98,38h1.741l1.959,6.027L70.124,38h.429l2.522,6.027L75.182,38H76.79Z" transform="translate(-14.032 -8.335)" fill="#ff6b00"/>
      <path id="Path_11143" data-name="Path 11143" d="M87.717,46.075V45.4a3.372,3.372,0,0,1-2.475.843,3.521,3.521,0,0,1-2.795-1.233,4.824,4.824,0,0,1-1.069-3.294,5.269,5.269,0,0,1,1.265-3.529,3.724,3.724,0,0,1,2.943-1.46,3.123,3.123,0,0,1,2.162.671V33.14h1.624V46.075Zm0-7.026a1.936,1.936,0,0,0-1.694-.921A2.623,2.623,0,0,0,83.9,39.1a3.778,3.778,0,0,0-.781,2.49q0,3.318,3.021,3.318a2.342,2.342,0,0,0,.929-.25,1.351,1.351,0,0,0,.679-.515Z" transform="translate(-17.847 -7.269)" fill="#ff6b00"/>
      <path id="Path_11144" data-name="Path 11144" d="M94.29,45.242l.781-1.319a2.764,2.764,0,0,0,2.131.929,2.109,2.109,0,0,0,2.381-2.342,2.272,2.272,0,0,0-.695-1.725,2.545,2.545,0,0,0-1.8-.679h-.141V38.731h.078q2.178,0,2.178-1.92A1.788,1.788,0,0,0,97.186,34.8a2.256,2.256,0,0,0-1.78.781l-.781-1.171a3.185,3.185,0,0,1,2.67-1.038,4.02,4.02,0,0,1,2.685.882,2.8,2.8,0,0,1,1.038,2.248,3.123,3.123,0,0,1-.578,1.858,2.849,2.849,0,0,1-1.358,1.077,3.443,3.443,0,0,1,1.717,1.194,3.349,3.349,0,0,1,.64,2.053,3.4,3.4,0,0,1-1.132,2.67,4.637,4.637,0,0,1-3.123.991,4.481,4.481,0,0,1-1.647-.32A3.732,3.732,0,0,1,94.29,45.242Z" transform="translate(-20.68 -7.318)" fill="#ff6b00"/>
      <path id="Path_11145" data-name="Path 11145" d="M110.853,33.34l.835.921a7.143,7.143,0,0,0-2.186,2.03,6.776,6.776,0,0,0-1.561,2.662,2.732,2.732,0,0,1,1.983-.687,3.529,3.529,0,0,1,2.646,1.054,4.091,4.091,0,0,1,1,2.927,4.223,4.223,0,0,1-1.03,2.966,3.372,3.372,0,0,1-2.592,1.132q-4.137,0-4.137-5.465a8.33,8.33,0,0,1,1.616-4.684A6.5,6.5,0,0,1,110.853,33.34Zm-3.24,8.86c0,1.8.734,2.685,2.2,2.685a1.764,1.764,0,0,0,1.468-.695,3.5,3.5,0,0,0,0-3.755,1.788,1.788,0,0,0-1.46-.71c-1.483,0-2.209.827-2.209,2.475Z" transform="translate(-23.207 -7.313)" fill="#ff6b00"/>
      <path id="Path_11146" data-name="Path 11146" d="M117.388,39.466a8.025,8.025,0,0,1,1.1-4.418,3.458,3.458,0,0,1,3.123-1.71,3.372,3.372,0,0,1,2.966,1.429c.656.945.991,2.607.991,4.973a9.5,9.5,0,0,1-1.038,4.809,3.326,3.326,0,0,1-3.076,1.8,3.529,3.529,0,0,1-3.037-1.421Q117.388,43.471,117.388,39.466Zm1.717.156q0,5.223,2.225,5.223a1.983,1.983,0,0,0,1.881-1.163,9.625,9.625,0,0,0,.6-4.052,13.271,13.271,0,0,0-.234-2.935,2.74,2.74,0,0,0-.742-1.413,1.842,1.842,0,0,0-1.3-.484C119.909,34.8,119.105,36.406,119.105,39.622Z" transform="translate(-25.745 -7.311)" fill="#ff6b00"/>
      <rect id="Rectangle_5379" data-name="Rectangle 5379" width="7.369" height="9.501" rx="0.36" transform="translate(10.876 29.321)" fill="#ff6b00"/>
      <path id="Path_11147" data-name="Path 11147" d="M15.067,19.193q-3.318,0-3.318-3.318a2.342,2.342,0,0,1,.492-1.561,1.514,1.514,0,0,1,1.265-.585,1.507,1.507,0,0,1,1.218.476,1.842,1.842,0,0,1,.4,1.218,1.171,1.171,0,0,1-.414.929,1.46,1.46,0,0,1-.952.359,1.608,1.608,0,0,1-.476-.086l-.226-.164c-.07,0-.125.109-.156.273a1.421,1.421,0,0,0,0,.445,1.694,1.694,0,0,0,.781,1.2,2.873,2.873,0,0,0,1.468.343v.468Z" transform="translate(-2.574 -3.011)" fill="#ff6b00"/>
      <path id="Path_11148" data-name="Path 11148" d="M22.572,23.634q-6.011,0-6-6a4.348,4.348,0,0,1,.882-2.834A2.787,2.787,0,0,1,19.7,13.728a2.717,2.717,0,0,1,2.194.867,3.318,3.318,0,0,1,.726,2.209,2.092,2.092,0,0,1-.781,1.678,2.607,2.607,0,0,1-1.725.648,2.646,2.646,0,0,1-.859-.148l-.406-.3c-.133,0-.226.2-.281.5a2.779,2.779,0,0,0,0,.781,3.029,3.029,0,0,0,1.351,2.178,5.16,5.16,0,0,0,2.654.625v.851Z" transform="translate(-3.631 -3.01)" fill="#ff6b00"/>
      <path id="Path_11149" data-name="Path 11149" d="M7.665,28.143a15.035,15.035,0,1,1,22.4-13.107,14.832,14.832,0,0,1-3.076,9.1l-.671-.507A14.189,14.189,0,1,0,8.079,27.409Z" transform="translate(0.003 0)" fill="#ff6b00"/>
      <path id="Path_11150" data-name="Path 11150" d="M16.478,28.12l-.047-.82a11.5,11.5,0,1,0-11.96-9.438l-.827.148A12.342,12.342,0,1,1,16.478,28.12Z" transform="translate(-0.753 -0.758)" fill="#ff6b00"/>
    </g>
  </g>
</svg>
