<svg id="contact_phone" xmlns="http://www.w3.org/2000/svg" width="30" height="30" viewBox="0 0 30 30">
  <rect id="Rectangle_5561" data-name="Rectangle 5561" width="30" height="30" fill="#fff" opacity="0"/>
  <g id="Group_12306" data-name="Group 12306" transform="translate(2 2.105)">
    <path id="Path_11118" data-name="Path 11118" d="M-97.2-147.667h0l.547-.3a5.459,5.459,0,0,0,2.367-7.058h0A3.374,3.374,0,0,0-97.362-157h0a3.374,3.374,0,0,0-2.386.988l-2.341,2.341a6.449,6.449,0,0,0-1.826,5.608A21.016,21.016,0,0,0-86.7-130.847a6.449,6.449,0,0,0,5.608-1.826l2.341-2.341a3.374,3.374,0,0,0,.988-2.386h0a3.374,3.374,0,0,0-1.978-3.072h0A5.459,5.459,0,0,0-86.8-138.1l-.3.547h0A19.916,19.916,0,0,1-97.2-147.667Z" transform="translate(104 157)" fill="none" stroke="#000" stroke-linecap="round" stroke-linejoin="round" stroke-width="1.5"/>
  </g>
</svg>
