<svg id="chatbot_crowdapps_branding2020_outlined" data-name="chatbot_crowdapps branding2020_outlined" xmlns="http://www.w3.org/2000/svg" width="154.468" height="154.468" viewBox="0 0 154.468 154.468">
  <ellipse id="Ellipse_386" data-name="Ellipse 386" cx="44.532" cy="44.871" rx="44.532" ry="44.871" transform="translate(0 0)" fill="#5591cd"/>
  <ellipse id="Ellipse_387" data-name="Ellipse 387" cx="64.01" cy="64.537" rx="64.01" ry="64.537" transform="translate(26.448 25.393)" fill="none"/>
  <g id="Group_12550" data-name="Group 12550" transform="translate(32.777 51.766)">
    <path id="Path_12005" data-name="Path 12005" d="M106.09,90.409H26.671A17.992,17.992,0,0,1,8.7,72.438V31.711A17.992,17.992,0,0,1,26.671,13.74H106.09a17.992,17.992,0,0,1,17.971,17.971V72.438A17.992,17.992,0,0,1,106.09,90.409ZM26.671,19.73A11.947,11.947,0,0,0,14.728,31.673V72.4A11.947,11.947,0,0,0,26.671,84.343H106.09A11.947,11.947,0,0,0,118.033,72.4V31.673A11.947,11.947,0,0,0,106.09,19.73H26.671Z" transform="translate(-8.7 -13.74)" fill="#5a595c"/>
    <path id="Path_12006" data-name="Path 12006" d="M77.81,50.31,17.53,38.443,18.1,32.49H82.218L77.81,50.31ZM48.951,38.518,73.364,43.3l1.206-4.785Z" transform="translate(15.737 38.151)" fill="#5a595c"/>
    <g id="Group_12549" data-name="Group 12549" transform="translate(23.811 29.65)">
      <path id="Path_12007" data-name="Path 12007" d="M23.648,38.941a8.665,8.665,0,1,1,8.628-8.665,8.659,8.659,0,0,1-8.628,8.665Zm0-11.3a2.638,2.638,0,1,0,2.6,2.637A2.613,2.613,0,0,0,23.648,27.638Z" transform="translate(-15.02 -21.61)" fill="#5a595c"/>
      <path id="Path_12008" data-name="Path 12008" d="M30.348,38.941a8.665,8.665,0,1,1,8.628-8.665,8.659,8.659,0,0,1-8.628,8.665Zm0-11.3a2.638,2.638,0,1,0,2.6,2.637A2.613,2.613,0,0,0,30.348,27.638Z" transform="translate(3.522 -21.61)" fill="#5a595c"/>
      <path id="Path_12009" data-name="Path 12009" d="M37.048,38.941a8.665,8.665,0,1,1,8.628-8.665A8.659,8.659,0,0,1,37.048,38.941Zm0-11.3a2.638,2.638,0,1,0,2.6,2.637A2.613,2.613,0,0,0,37.048,27.638Z" transform="translate(22.065 -21.61)" fill="#5a595c"/>
    </g>
  </g>
</svg>
