<svg id="egov_crowdapps_branding2020_outlined" data-name="egov_crowdapps branding2020_outlined" xmlns="http://www.w3.org/2000/svg" width="154.468" height="154.468" viewBox="0 0 154.468 154.468">
  <ellipse id="Ellipse_420" data-name="Ellipse 420" cx="44.532" cy="44.871" rx="44.532" ry="44.871" transform="translate(0 0)" fill="#5591cd"/>
  <g id="Group_12582" data-name="Group 12582" transform="translate(36.469 31.044)">
    <rect id="Rectangle_5517" data-name="Rectangle 5517" width="5.99" height="53.235" transform="translate(20.458 35.452)" fill="#5a595c"/>
    <rect id="Rectangle_5518" data-name="Rectangle 5518" width="5.99" height="53.235" transform="translate(40.538 35.452)" fill="#5a595c"/>
    <rect id="Rectangle_5519" data-name="Rectangle 5519" width="5.99" height="53.235" transform="translate(61.523 35.452)" fill="#5a595c"/>
    <rect id="Rectangle_5520" data-name="Rectangle 5520" width="5.99" height="53.235" transform="translate(81.642 35.452)" fill="#5a595c"/>
    <path id="Path_12097" data-name="Path 12097" d="M101.955,45.608H12.1V30.99h89.817V45.608Zm-83.827-5.99H95.965v-2.6H18.128v2.6Z" transform="translate(-2.983 54.721)" fill="#5a595c"/>
    <path id="Path_12098" data-name="Path 12098" d="M118.146,45.689H9.68L62.161,8.24l55.947,37.449ZM28.48,39.7H98.367L62.312,15.549Z" transform="translate(-9.68 -8.24)" fill="#5a595c"/>
  </g>
  <ellipse id="Ellipse_421" data-name="Ellipse 421" cx="64.01" cy="64.537" rx="64.01" ry="64.537" transform="translate(26.448 25.393)" fill="none"/>
</svg>
