<svg id="CITY_ON_PASS_LOGO" data-name="CITY ON PASS LOGO" xmlns="http://www.w3.org/2000/svg" xmlns:xlink="http://www.w3.org/1999/xlink" width="179.227" height="114.887" viewBox="0 0 179.227 114.887">
  <defs>
    <clipPath id="clip-path">
      <rect id="Rectangle_4797" data-name="Rectangle 4797" width="160.486" height="102.099" fill="none"/>
    </clipPath>
  </defs>
  <g id="Group_11565" data-name="Group 11565">
    <g id="Group_11563" data-name="Group 11563" clip-path="url(#clip-path)">
      <path id="Path_10407" data-name="Path 10407" d="M9.309,66.183a10.681,10.681,0,0,1,18.382-7.377L22.875,63.7a3.785,3.785,0,0,0-2.894-1.337,3.828,3.828,0,0,0,0,7.655,3.746,3.746,0,0,0,2.835-1.295l4.874,4.849a10.681,10.681,0,0,1-18.382-7.39" transform="translate(-3.96 -23.62)" fill="#fff"/>
      <rect id="Rectangle_4794" data-name="Rectangle 4794" width="6.92" height="20.69" transform="translate(25.651 32.25)" fill="#fff"/>
      <path id="Path_10408" data-name="Path 10408" d="M66.427,61.6H60.275V56.129h19.21V61.6H73.333V76.817H66.427Z" transform="translate(-25.639 -23.875)" fill="#fff"/>
      <path id="Path_10409" data-name="Path 10409" d="M103.533,69.189,94.487,56.123h8.393l3.988,6.687h.243l3.988-6.687h8.394l-9.041,13.064v7.626h-6.92Z" transform="translate(-40.192 -23.873)" fill="#fff"/>
      <path id="Path_10410" data-name="Path 10410" d="M83.539,102.643h6.906l8.246,10.76h.193v-10.76h6.928v20.689H98.884L90.7,112.917h-.249v10.416H83.539Z" transform="translate(-35.535 -43.661)" fill="#fff"/>
      <path id="Path_10411" data-name="Path 10411" d="M40.59,103.322H25.114a10.084,10.084,0,0,0-.328,20.165c.109,0,.219,0,.328,0H40.59a10.084,10.084,0,0,0,0-20.165m-.133,17.528a7.444,7.444,0,1,1,.016,0h-.016" transform="translate(-6.324 -43.95)" fill="#fff"/>
      <path id="Path_10412" data-name="Path 10412" d="M217.288,129.72H143.409a1.132,1.132,0,0,1-1.132-1.132v-12.6a1.132,1.132,0,0,1,2.263,0v11.464h72.748a1.132,1.132,0,0,1,0,2.263Z" transform="translate(-60.521 -48.859)" fill="#fff"/>
      <path id="Path_10413" data-name="Path 10413" d="M150.065,126.324h9.493v-9.493h-9.493Zm7.048-2.445h-4.6v-4.6h4.6Z" transform="translate(-63.833 -49.697)" fill="#fff"/>
      <rect id="Rectangle_4795" data-name="Rectangle 4795" width="2.771" height="2.771" transform="translate(89.594 70.494)" fill="#fff"/>
      <path id="Path_10414" data-name="Path 10414" d="M217.138,71.507a1.132,1.132,0,0,1-1.132-1.132v-25.2H186.742a7.139,7.139,0,0,1-8.655,3.862,7.134,7.134,0,0,1-4.35-3.862h-29.2V56.635a1.132,1.132,0,1,1-2.263,0v-12.6a1.132,1.132,0,0,1,1.132-1.132h30.955a1.132,1.132,0,0,1,.826.358l.236.252a1.132,1.132,0,0,1,.237.385,4.873,4.873,0,0,0,9.223-.2,1.132,1.132,0,0,1,1.079-.791h31.174a1.132,1.132,0,0,1,1.132,1.132V70.375A1.132,1.132,0,0,1,217.138,71.507Z" transform="translate(-60.52 -18.252)" fill="#fff"/>
      <path id="Path_10415" data-name="Path 10415" d="M259.71,50.277h-9.493V59.77h9.493Zm-7.048,2.445h4.6v4.6h-4.6Z" transform="translate(-106.435 -21.386)" fill="#fff"/>
      <rect id="Rectangle_4796" data-name="Rectangle 4796" width="2.771" height="2.771" transform="translate(147.144 32.25)" fill="#fff"/>
      <path id="Path_10416" data-name="Path 10416" d="M210.766,87.313a10.813,10.813,0,0,0,.984,1.153,6.124,6.124,0,0,0,1.07.877,4.78,4.78,0,0,0,1.254.559,5.515,5.515,0,0,0,1.5.2,4.278,4.278,0,0,0,.971-.1,2,2,0,0,0,.7-.294,1.255,1.255,0,0,0,.423-.481,1.586,1.586,0,0,0,.141-.688,1.54,1.54,0,0,0-.1-.607,1.237,1.237,0,0,0-.356-.465,3.6,3.6,0,0,0-.674-.428c-.286-.15-.637-.307-1.07-.5l-2.217-.992a15.277,15.277,0,0,1-2.362-1.273,8.491,8.491,0,0,1-1.715-1.485,5.562,5.562,0,0,1-1.391-3.76,6.127,6.127,0,0,1,.561-2.616,5.856,5.856,0,0,1,1.565-2.014,7.209,7.209,0,0,1,2.407-1.3,9.81,9.81,0,0,1,3.036-.46,9.677,9.677,0,0,1,2.48.307,7.794,7.794,0,0,1,2.07.875,7.322,7.322,0,0,1,1.64,1.375,8.016,8.016,0,0,1,1.206,1.8l-3.761,2.881a8.555,8.555,0,0,0-.783-1.022,4.408,4.408,0,0,0-.819-.714,3.222,3.222,0,0,0-.909-.42,3.848,3.848,0,0,0-1.07-.136,3.4,3.4,0,0,0-.8.086,1.843,1.843,0,0,0-.61.267,1.173,1.173,0,0,0-.388.43,1.3,1.3,0,0,0-.136.6,1.374,1.374,0,0,0,.094.535,1.258,1.258,0,0,0,.313.441,2.735,2.735,0,0,0,.575.4,8.3,8.3,0,0,0,.885.4l2.49,1.048a15.834,15.834,0,0,1,2.455,1.254,7.914,7.914,0,0,1,1.728,1.453,5.341,5.341,0,0,1,1.022,1.73,6.136,6.136,0,0,1,.334,2.084,6.541,6.541,0,0,1-.594,2.805,6.119,6.119,0,0,1-1.674,2.124,7.622,7.622,0,0,1-2.514,1.338,10.318,10.318,0,0,1-3.132.465,11.176,11.176,0,0,1-2.771-.34,9.684,9.684,0,0,1-2.408-.968,8.888,8.888,0,0,1-1.974-1.527,8.737,8.737,0,0,1-1.468-2.017Z" transform="translate(-88.037 -30.898)" fill="#fcb713"/>
      <path id="Path_10417" data-name="Path 10417" d="M242.414,87.313a10.812,10.812,0,0,0,.984,1.153,6.123,6.123,0,0,0,1.07.877,4.78,4.78,0,0,0,1.254.559,5.517,5.517,0,0,0,1.5.2,4.27,4.27,0,0,0,.971-.1,2,2,0,0,0,.7-.294,1.257,1.257,0,0,0,.425-.481,1.586,1.586,0,0,0,.141-.688,1.539,1.539,0,0,0-.1-.607,1.237,1.237,0,0,0-.356-.465,3.605,3.605,0,0,0-.674-.428c-.286-.15-.637-.307-1.07-.5l-2.217-.992a15.28,15.28,0,0,1-2.362-1.273,8.491,8.491,0,0,1-1.715-1.485,5.562,5.562,0,0,1-1.391-3.76,6.126,6.126,0,0,1,.561-2.616,5.857,5.857,0,0,1,1.565-2.014,7.208,7.208,0,0,1,2.407-1.3,9.809,9.809,0,0,1,3.036-.46,9.676,9.676,0,0,1,2.479.307,7.793,7.793,0,0,1,2.07.875,7.322,7.322,0,0,1,1.64,1.375A8.015,8.015,0,0,1,254.53,77l-3.76,2.881a8.611,8.611,0,0,0-.784-1.022,4.409,4.409,0,0,0-.819-.714,3.222,3.222,0,0,0-.909-.42,3.848,3.848,0,0,0-1.07-.136,3.4,3.4,0,0,0-.8.086,1.843,1.843,0,0,0-.61.267,1.174,1.174,0,0,0-.388.43,1.3,1.3,0,0,0-.136.6,1.375,1.375,0,0,0,.094.535,1.258,1.258,0,0,0,.313.441,2.734,2.734,0,0,0,.575.4,8.3,8.3,0,0,0,.885.4l2.49,1.048a15.834,15.834,0,0,1,2.455,1.254,7.917,7.917,0,0,1,1.728,1.453,5.342,5.342,0,0,1,1.022,1.73,6.137,6.137,0,0,1,.334,2.084,6.535,6.535,0,0,1-.6,2.805,6.113,6.113,0,0,1-1.674,2.124,7.616,7.616,0,0,1-2.514,1.338,10.315,10.315,0,0,1-3.132.465,11.175,11.175,0,0,1-2.771-.34,9.671,9.671,0,0,1-2.407-.968,8.891,8.891,0,0,1-1.974-1.527,8.757,8.757,0,0,1-1.465-2.017Z" transform="translate(-101.499 -30.898)" fill="#fcb713"/>
      <path id="Path_10418" data-name="Path 10418" d="M183.089,92.849h-7.757l-.786,1.8h-6.072l9.832-22.013h1.8l9.827,22.013h-6.061Zm-3.865-9.533-1.9,5.012h3.769Z" transform="translate(-71.664 -30.898)" fill="#fcb713"/>
      <path id="Path_10419" data-name="Path 10419" d="M142.073,73.318h8.49a10.285,10.285,0,0,1,3.336.535,7.9,7.9,0,0,1,2.645,1.5,6.786,6.786,0,0,1,1.744,2.346,7.413,7.413,0,0,1,.637,3.055,7.242,7.242,0,0,1-.642,3.033,7,7,0,0,1-1.765,2.37,8.1,8.1,0,0,1-2.651,1.53,9.9,9.9,0,0,1-3.3.535h-2.862v6.716h-5.636Zm8.522,9.99a3,3,0,0,0,1.07-.182A2.248,2.248,0,0,0,153,81.808a2.917,2.917,0,0,0,.182-1.049A2.873,2.873,0,0,0,153,79.716a2.22,2.22,0,0,0-.521-.8,2.3,2.3,0,0,0-.8-.506,3.094,3.094,0,0,0-1.07-.176h-2.9v5.082Z" transform="translate(-60.434 -31.187)" fill="#fcb713"/>
    </g>
  </g>
  <text id="Ψηφιακή_κάρτα_δημότη" data-name="Ψηφιακή κάρτα δημότη" transform="translate(92.227 111.887)" fill="#fff" font-size="15" font-family="CeraGR-Black" font-weight="800"><tspan x="-86" y="0">Ψηφιακή κάρτα δημότη</tspan></text>
</svg>
