<svg xmlns="http://www.w3.org/2000/svg" width="125.557" height="55.608" viewBox="0 0 125.557 55.608">
  <g id="CROWDAPPS_LOGO" transform="translate(33)">
    <g id="Layer_2-2" data-name="Layer 2-2" transform="translate(-33)">
      <path id="Path_10518" data-name="Path 10518" d="M159.423,221.391l-1.112,2.247a4.01,4.01,0,0,0-2.932-.908,3.788,3.788,0,0,0-3.144,1.605,6.543,6.543,0,0,0-1.22,4.056,6.071,6.071,0,0,0,1.134,3.889,3.659,3.659,0,0,0,3.025,1.442,4.078,4.078,0,0,0,3.392-1.546l1.268,2.2a6.4,6.4,0,0,1-4.875,1.768,6.158,6.158,0,0,1-4.99-2.106,8.723,8.723,0,0,1-1.783-5.772,8.333,8.333,0,0,1,1.969-5.676A6.411,6.411,0,0,1,155.2,220.3a7.4,7.4,0,0,1,4.215,1.083" transform="translate(-148.186 -180.549)" fill="#fff"/>
      <path id="Path_10519" data-name="Path 10519" d="M203.538,236.193l-4.078-6.324c-.408,0-.99-.037-1.724-.071v6.4H194.9V220.89c.148,0,.742-.022,1.768-.081s1.854-.082,2.48-.082q5.831,0,5.835,4.515a4.219,4.219,0,0,1-.808,2.477,4.36,4.36,0,0,1-2.02,1.583l4.527,6.9Zm-5.82-12.953v4.26c.5.048.886.059,1.153.059a5.01,5.01,0,0,0,2.491-.478,2,2,0,0,0,.79-1.854,1.628,1.628,0,0,0-.849-1.583,5.923,5.923,0,0,0-2.665-.456,6.307,6.307,0,0,0-.919.071" transform="translate(-181.058 -180.852)" fill="#fff"/>
      <path id="Path_10520" data-name="Path 10520" d="M236.512,228.127a8.7,8.7,0,0,1,1.787-5.539,5.79,5.79,0,0,1,4.793-2.258,6.277,6.277,0,0,1,5.049,2.046,8.627,8.627,0,0,1,1.746,5.75A8.819,8.819,0,0,1,248.06,234a6.394,6.394,0,0,1-5.19,2.176,5.643,5.643,0,0,1-4.738-2.15,9.422,9.422,0,0,1-1.639-5.9m2.818,0a8.011,8.011,0,0,0,.9,4.167,2.917,2.917,0,0,0,2.643,1.483,3.62,3.62,0,0,0,3.107-1.442,7.007,7.007,0,0,0,1.071-4.189c0-3.585-1.327-5.39-3.971-5.39a3.17,3.17,0,0,0-2.791,1.461,6.934,6.934,0,0,0-.971,3.922" transform="translate(-210.32 -180.571)" fill="#fff"/>
      <path id="Path_10521" data-name="Path 10521" d="M298.572,236.762h-1.12L294.1,227.1l-3.248,9.657h-1.127L284.7,221.239h2.84l2.873,9.238,3.107-9.238h1.186l3.118,9.238,2.866-9.238h2.84Z" transform="translate(-244.239 -181.213)" fill="#fff"/>
      <path id="Path_10522" data-name="Path 10522" d="M357.078,236.307h-3.4V221c2.165-.082,3.526-.115,4.078-.115a7.2,7.2,0,0,1,5.305,1.954,6.95,6.95,0,0,1,1.958,5.19q0,8.252-7.948,8.26m-.686-12.927v10.447a14.125,14.125,0,0,0,1.42.059,3.856,3.856,0,0,0,3.225-1.5,6.664,6.664,0,0,0,1.156-4.178c0-3.281-1.523-4.908-4.571-4.908a10.6,10.6,0,0,0-1.234.082" transform="translate(-292.776 -180.966)" fill="#fff"/>
      <path id="Path_10523" data-name="Path 10523" d="M418.647,236.144l-1.112-3.081H412.3l-1.068,3.081h-3l6.069-15.43h1.19l6.125,15.43Zm-3.729-10.773-1.835,5.62h3.659Z" transform="translate(-331.157 -180.843)" fill="#fff"/>
      <path id="Path_10524" data-name="Path 10524" d="M461.516,230.811v5.6h-2.7v-15.2c1.8-.074,2.854-.115,3.158-.111a9.717,9.717,0,0,1,5.275,1.112,3.871,3.871,0,0,1,1.668,3.455q0,5.238-6.172,5.238c-.3,0-.712-.026-1.227-.078m0-7.277v4.875c.371.041.719.067,1.082.074a4.626,4.626,0,0,0,2.7-.619,2.31,2.31,0,0,0,.853-2.013q0-2.369-3.811-2.369a6.644,6.644,0,0,0-.823.059Z" transform="translate(-366.748 -181.115)" fill="#fff"/>
      <path id="Path_10525" data-name="Path 10525" d="M503.633,230.811v5.6h-2.717v-15.2c1.8-.074,2.855-.115,3.158-.111a9.719,9.719,0,0,1,5.276,1.112,3.879,3.879,0,0,1,1.672,3.455q0,5.238-6.172,5.238c-.308,0-.719-.026-1.231-.078m0-7.277v4.875c.371.041.719.067,1.079.074a4.643,4.643,0,0,0,2.7-.619,2.33,2.33,0,0,0,.853-2.013q0-2.369-3.815-2.369a6.7,6.7,0,0,0-.819.059Z" transform="translate(-396.372 -181.115)" fill="#fff"/>
      <path id="Path_10526" data-name="Path 10526" d="M540.654,235.142l1-2.421a5.483,5.483,0,0,0,3.151,1.112q2.38,0,2.38-1.665a2.346,2.346,0,0,0-.567-1.483,7.134,7.134,0,0,0-2.31-1.583,11.205,11.205,0,0,1-2.361-1.446,3.83,3.83,0,0,1-.934-1.346,4.37,4.37,0,0,1-.322-1.724,3.765,3.765,0,0,1,1.294-2.932,4.8,4.8,0,0,1,3.336-1.164,6.191,6.191,0,0,1,3.878.986l-.823,2.332a5.042,5.042,0,0,0-3-1.02,2.04,2.04,0,0,0-1.449.486,1.708,1.708,0,0,0-.515,1.283q0,1.312,2.9,2.725a9.5,9.5,0,0,1,2.2,1.376,4.21,4.21,0,0,1,1.027,1.461,4.793,4.793,0,0,1,.352,1.854,3.751,3.751,0,0,1-1.461,3.044,5.97,5.97,0,0,1-3.911,1.2,6.963,6.963,0,0,1-3.848-1.112" transform="translate(-424.333 -180.683)" fill="#fff"/>
      <path id="Path_10527" data-name="Path 10527" d="M309.416,86.189a21.3,21.3,0,0,0-17.079,34.032h3.407a18.7,18.7,0,1,1,27.356,0h3.4a21.3,21.3,0,0,0-17.087-34.032" transform="translate(-246.642 -86.189)" fill="#fff"/>
      <path id="Path_10528" data-name="Path 10528" d="M348.726,129.7a4.447,4.447,0,0,0-3.44,1.416,5.19,5.19,0,0,0-1.3,3.678,5.432,5.432,0,0,0,1.246,3.741,3.963,3.963,0,0,0,1.642,1.112l-1.112,6.873h5.961l-1.134-6.881a4.03,4.03,0,0,0,1.62-1.082,6.2,6.2,0,0,0,.022-7.481,4.5,4.5,0,0,0-3.5-1.364" transform="translate(-285.952 -116.799)" fill="#fff"/>
    </g>
  </g>
</svg>
