<svg id="CROWDAPPS_LOGO_BLACK" xmlns="http://www.w3.org/2000/svg" width="181.555" height="80.409" viewBox="0 0 181.555 80.409">
  <path id="Path_10518" data-name="Path 10518" d="M164.434,221.88l-1.608,3.249a5.8,5.8,0,0,0-4.24-1.313,5.477,5.477,0,0,0-4.546,2.321A9.461,9.461,0,0,0,152.276,232a8.779,8.779,0,0,0,1.64,5.623,5.291,5.291,0,0,0,4.374,2.085,5.9,5.9,0,0,0,4.9-2.235l1.833,3.179q-2.413,2.549-7.05,2.557a8.9,8.9,0,0,1-7.215-3.045c-1.71-2.037-2.578-4.835-2.578-8.346a12.049,12.049,0,0,1,2.847-8.207,9.27,9.27,0,0,1,7.3-3.313,10.7,10.7,0,0,1,6.1,1.566" transform="translate(-148.186 -162.822)"/>
  <path id="Path_10519" data-name="Path 10519" d="M207.389,243.091l-5.9-9.145c-.589,0-1.431-.054-2.493-.1V243.1h-4.1V220.963c.214,0,1.072-.032,2.557-.118s2.68-.118,3.586-.118q8.432,0,8.438,6.529a6.1,6.1,0,0,1-1.169,3.581,6.3,6.3,0,0,1-2.922,2.289l6.546,9.981Zm-8.416-18.73v6.159c.723.069,1.281.086,1.667.086a7.245,7.245,0,0,0,3.6-.692,2.886,2.886,0,0,0,1.142-2.68,2.354,2.354,0,0,0-1.227-2.289,8.564,8.564,0,0,0-3.854-.659,9.116,9.116,0,0,0-1.329.1" transform="translate(-174.882 -163.068)"/>
  <path id="Path_10520" data-name="Path 10520" d="M236.52,231.605A12.576,12.576,0,0,1,239.1,223.6a8.373,8.373,0,0,1,6.931-3.264c3.179,0,5.629.992,7.3,2.959s2.525,4.744,2.525,8.314-.873,6.4-2.643,8.5a9.246,9.246,0,0,1-7.505,3.147,8.159,8.159,0,0,1-6.851-3.109c-1.6-2.064-2.37-4.926-2.37-8.534m4.074,0a11.584,11.584,0,0,0,1.308,6.026,4.218,4.218,0,0,0,3.822,2.144,5.234,5.234,0,0,0,4.492-2.085,10.132,10.132,0,0,0,1.549-6.057c0-5.184-1.919-7.794-5.742-7.794a4.583,4.583,0,0,0-4.036,2.112,10.027,10.027,0,0,0-1.4,5.672" transform="translate(-198.647 -162.839)"/>
  <path id="Path_10521" data-name="Path 10521" d="M304.759,243.684H303.14l-4.846-13.964-4.7,13.964h-1.63L284.7,221.239h4.106l4.155,13.359,4.492-13.359h1.715l4.508,13.359,4.144-13.359h4.106Z" transform="translate(-226.194 -163.361)"/>
  <path id="Path_10522" data-name="Path 10522" d="M358.593,243.184h-4.911V221.055c3.131-.118,5.1-.166,5.9-.166a10.41,10.41,0,0,1,7.671,2.825,10.05,10.05,0,0,1,2.831,7.5q0,11.933-11.493,11.943M357.6,224.47v15.106a20.431,20.431,0,0,0,2.053.086,5.575,5.575,0,0,0,4.664-2.171,9.636,9.636,0,0,0,1.672-6.042c0-4.744-2.2-7.1-6.609-7.1a15.331,15.331,0,0,0-1.785.118" transform="translate(-265.612 -163.161)"/>
  <path id="Path_10523" data-name="Path 10523" d="M423.293,243.025l-1.608-4.455h-7.569l-1.544,4.455H408.23l8.775-22.311h1.721l8.856,22.311ZM417.9,227.447l-2.654,8.127h5.291Z" transform="translate(-296.783 -163.061)"/>
  <path id="Path_10524" data-name="Path 10524" d="M462.721,235.141v8.1h-3.908V221.262c2.605-.107,4.127-.166,4.567-.161q5.221,0,7.628,1.608a5.6,5.6,0,0,1,2.412,5q0,7.574-8.925,7.575c-.44,0-1.03-.038-1.774-.113m0-10.523v7.049c.536.059,1.04.1,1.565.107a6.688,6.688,0,0,0,3.9-.9A3.34,3.34,0,0,0,469.422,228q0-3.425-5.511-3.425a9.609,9.609,0,0,0-1.19.086Z" transform="translate(-325.687 -163.282)"/>
  <path id="Path_10525" data-name="Path 10525" d="M504.845,235.141v8.1h-3.929V221.262c2.6-.107,4.128-.166,4.567-.161q5.221,0,7.629,1.608a5.609,5.609,0,0,1,2.417,5q0,7.574-8.925,7.575c-.445,0-1.04-.038-1.78-.113m0-10.523v7.049c.536.059,1.04.1,1.56.107a6.714,6.714,0,0,0,3.908-.9A3.37,3.37,0,0,0,511.524,228q0-3.425-5.516-3.425a9.689,9.689,0,0,0-1.184.086Z" transform="translate(-349.746 -163.282)"/>
  <path id="Path_10526" data-name="Path 10526" d="M540.654,241.679l1.442-3.5a7.928,7.928,0,0,0,4.556,1.608q3.441,0,3.441-2.407a3.392,3.392,0,0,0-.82-2.144,10.316,10.316,0,0,0-3.34-2.289,16.2,16.2,0,0,1-3.414-2.091,5.537,5.537,0,0,1-1.351-1.946,6.319,6.319,0,0,1-.466-2.493,5.445,5.445,0,0,1,1.871-4.24,6.936,6.936,0,0,1,4.824-1.683q3.822,0,5.607,1.426l-1.19,3.372a7.291,7.291,0,0,0-4.342-1.474,2.949,2.949,0,0,0-2.1.7,2.47,2.47,0,0,0-.745,1.855q0,1.9,4.2,3.94a13.745,13.745,0,0,1,3.184,1.989,6.089,6.089,0,0,1,1.484,2.112,6.93,6.93,0,0,1,.51,2.68,5.424,5.424,0,0,1-2.112,4.4,8.633,8.633,0,0,1-5.655,1.731,10.069,10.069,0,0,1-5.564-1.608" transform="translate(-372.454 -162.931)"/>
  <path id="Path_10527" data-name="Path 10527" d="M318.916,86.189a30.8,30.8,0,0,0-24.7,49.211h4.926a27.034,27.034,0,1,1,39.556,0h4.921a30.8,30.8,0,0,0-24.707-49.211" transform="translate(-228.145 -86.189)"/>
  <path id="Path_10528" data-name="Path 10528" d="M350.841,129.7a6.431,6.431,0,0,0-4.974,2.048,7.5,7.5,0,0,0-1.876,5.318,7.855,7.855,0,0,0,1.8,5.409,5.731,5.731,0,0,0,2.375,1.608l-1.608,9.939h8.62l-1.64-9.949a5.828,5.828,0,0,0,2.342-1.565,8.958,8.958,0,0,0,.032-10.818,6.5,6.5,0,0,0-5.055-1.973" transform="translate(-260.07 -111.048)"/>
</svg>
