<svg xmlns="http://www.w3.org/2000/svg" width="30" height="30" viewBox="0 0 30 30">
  <g id="to_dark_theme" transform="translate(-3393 3820)">
    <rect id="Rectangle_5589" data-name="Rectangle 5589" width="30" height="30" transform="translate(3393 -3820)" fill="none"/>
    <g id="Subtraction_12" data-name="Subtraction 12" transform="translate(3393 -3820)" fill="none" stroke-linejoin="bevel">
      <path d="M15,30A15,15,0,0,1,4.393,4.393,14.9,14.9,0,0,1,15,0a15.153,15.153,0,0,1,2.452.2A10.5,10.5,0,1,0,29.8,12.548,15.157,15.157,0,0,1,30,15,15,15,0,0,1,15,30Z" stroke="none"/>
      <path d="M 15.00030040740967 28.99970054626465 C 18.73950958251953 28.99970054626465 22.25502014160156 27.54346084594727 24.89924049377441 24.89924049377441 C 27.0103874206543 22.78809356689453 28.36429977416992 20.12131500244141 28.82437896728516 17.22895050048828 C 28.25927734375 18.01181602478027 27.59479331970215 18.72595596313477 26.84370040893555 19.34986114501953 C 24.78658103942871 21.05863952636719 22.17864036560059 21.99970054626465 19.50029945373535 21.99970054626465 C 16.42828941345215 21.99970054626465 13.54026031494141 20.80356979370117 11.36820983886719 18.63163948059082 C 9.196189880371094 16.45973968505859 8 13.57198047637939 8 10.50030040740967 C 8 7.821580410003662 8.94109058380127 5.213380336761475 10.64990997314453 3.156150341033936 C 11.27374076843262 2.405139684677124 11.98813247680664 1.740474820137024 12.77090549468994 1.175405621528625 C 9.878249168395996 1.635497212409973 7.21178150177002 2.989366769790649 5.100570201873779 5.100570201873779 C 2.45628023147583 7.744870185852051 1.000000238418579 11.26066017150879 1.000000238418579 15.00030040740967 C 1.000000238418579 18.73954010009766 2.456270217895508 22.25505065917969 5.100550174713135 24.89923095703125 C 7.744890213012695 27.54346084594727 11.26069068908691 28.99970054626465 15.00030040740967 28.99970054626465 M 15.00030040740967 29.99970054626465 C 10.99357986450195 29.99970054626465 7.226670265197754 28.43943977355957 4.393460273742676 25.60634994506836 C 1.560300230979919 22.77330017089844 2.731323149873788e-07 19.00666999816895 2.731323149873788e-07 15.00030040740967 C 2.731323149873788e-07 10.99353981018066 1.560300230979919 7.226630210876465 4.393460273742676 4.393460273742676 C 7.226630210876465 1.560300230979919 10.99353981018066 2.731323149873788e-07 15.00030040740967 2.731323149873788e-07 C 15.82258987426758 2.731323149873788e-07 16.64764022827148 0.06713027507066727 17.45252990722656 0.1995302736759186 C 15.1025505065918 0.6640802621841431 12.95983982086182 1.940320253372192 11.41915035247803 3.795120239257812 C 9.859140396118164 5.673190116882324 9 8.054470062255859 9 10.50030040740967 C 9 13.30485057830811 10.09216022491455 15.94149017333984 12.0753002166748 17.92451095581055 C 14.05848026275635 19.90757942199707 16.69540023803711 20.99970054626465 19.50029945373535 20.99970054626465 C 21.94575119018555 20.99970054626465 24.32675933837891 20.14059066772461 26.20473098754883 18.58062934875488 C 28.0585994720459 17.04068946838379 29.33547019958496 14.89818000793457 29.80014991760254 12.54779052734375 C 29.93321990966797 13.35688018798828 29.99970054626465 14.18202018737793 29.99970054626465 15.00030040740967 C 29.99970054626465 19.00662994384766 28.43943977355957 22.77326011657715 25.60634994506836 25.60634994506836 C 22.77326011657715 28.43943977355957 19.00662994384766 29.99970054626465 15.00030040740967 29.99970054626465 Z" stroke="none" fill="#000"/>
    </g>
  </g>
</svg>
