<svg xmlns="http://www.w3.org/2000/svg" width="30" height="30" viewBox="0 0 30 30">
  <g id="to_light_theme" transform="translate(-3427 3820)">
    <rect id="Rectangle_5590" data-name="Rectangle 5590" width="30" height="30" transform="translate(3427 -3820)" fill="none"/>
    <g id="Ellipse_436" data-name="Ellipse 436" transform="translate(3434 -3813)" fill="none" stroke="#fff" stroke-width="1">
      <circle cx="8" cy="8" r="8" stroke="none"/>
      <circle cx="8" cy="8" r="7.5" fill="none"/>
    </g>
    <g id="Polygon_7" data-name="Polygon 7" transform="translate(3427 -3820)" fill="none">
      <path d="M18.338,0l1.738,4.188,4.276-1.217-.206,4.547,4.368.806L26.406,12.33,30,15l-3.594,2.67,2.109,4.005-4.368.806.206,4.547-4.276-1.217L18.338,30,15,27l-3.338,3L9.924,25.812,5.648,27.029l.206-4.547-4.368-.806L3.594,17.67,0,15l3.594-2.67L1.485,8.324l4.368-.806L5.648,2.971,9.924,4.188,11.662,0,15,3Z" stroke="none"/>
      <path d="M 12.04434204101562 1.688022613525391 L 10.50632095336914 5.393909454345703 L 6.709358215332031 4.31292724609375 L 6.891580581665039 8.343349456787109 L 3.003442764282227 9.061063766479492 L 4.878019332885742 12.6217098236084 L 1.676820755004883 15.00000190734863 L 4.878019332885742 17.37828063964844 L 3.003440856933594 20.93892669677734 L 6.891580581665039 21.65665054321289 L 6.7093505859375 25.68707656860352 L 10.50632095336914 24.6060905456543 L 12.04433441162109 28.31197547912598 L 15 25.65544891357422 L 17.95567512512207 28.31197738647461 L 19.49369049072266 24.6060905456543 L 23.2906494140625 25.68706893920898 L 23.10841941833496 21.65665054321289 L 26.99655914306641 20.93892669677734 L 25.12198066711426 17.37828063964844 L 28.32318305969238 15 L 25.12198066711426 12.62171936035156 L 26.99656295776367 9.061065673828125 L 23.10841941833496 8.343349456787109 L 23.29064178466797 4.312931060791016 L 19.49367904663086 5.393909454345703 L 17.95566558837891 1.688026428222656 L 15.00000953674316 4.344560623168945 L 12.04434204101562 1.688022613525391 M 11.66220092773438 0 L 15.00000953674316 3 L 18.33781051635742 0 L 20.0760612487793 4.188369750976562 L 24.35234069824219 2.970939636230469 L 24.14674949645996 7.518119812011719 L 28.51453018188477 8.324369430541992 L 26.40580940246582 12.32975006103516 L 30 15 L 26.40580940246582 17.67024993896484 L 28.51453018188477 21.67562103271484 L 24.14674949645996 22.48188018798828 L 24.35235023498535 27.02906036376953 L 20.07606887817383 25.81163024902344 L 18.33782005310059 30 L 15 27 L 11.66218948364258 30 L 9.923940658569336 25.81163024902344 L 5.647649765014648 27.0290699005127 L 5.853250503540039 22.48188018798828 L 1.485469818115234 21.67562103271484 L 3.59419059753418 17.67024993896484 L 0 15 L 3.59419059753418 12.32974052429199 L 1.485469818115234 8.324369430541992 L 5.853250503540039 7.518119812011719 L 5.647659301757812 2.970930099487305 L 9.923940658569336 4.188369750976562 L 11.66220092773438 0 Z" stroke="none" fill="#fff"/>
    </g>
  </g>
</svg>
