<svg id="city-regio_plus_crowdapps_branding2020-24" data-name="city-regio plus_crowdapps branding2020-24" xmlns="http://www.w3.org/2000/svg" width="154.468" height="154.468" viewBox="0 0 154.468 154.468">
  <ellipse id="Ellipse_388" data-name="Ellipse 388" cx="44.532" cy="44.871" rx="44.532" ry="44.871" transform="translate(0 0)" fill="#f3807d"/>
  <ellipse id="Ellipse_389" data-name="Ellipse 389" cx="64.01" cy="64.537" rx="64.01" ry="64.537" transform="translate(26.448 25.393)" fill="none"/>
  <path id="Path_12010" data-name="Path 12010" d="M32.051,110.706a3.087,3.087,0,0,1-1.771-.565,3.056,3.056,0,0,1-1.168-3.127L37.1,73.294,10.991,50.727a3,3,0,0,1,1.7-5.275L46.933,42.7,60.119,10.716A2.961,2.961,0,0,1,62.907,8.87h0a3.037,3.037,0,0,1,2.788,1.846L78.881,42.7l34.247,2.75a3,3,0,0,1,1.7,5.275L88.714,73.294,96.7,107.014a3.056,3.056,0,0,1-1.168,3.127,2.958,2.958,0,0,1-3.315.113L62.907,92.207,33.6,110.254a2.965,2.965,0,0,1-1.582.452ZM62.945,85.689a3.063,3.063,0,0,1,1.582.452l24.715,15.221L82.5,72.918a3.054,3.054,0,0,1,.942-2.976l22.078-19.064L76.583,48.542A2.914,2.914,0,0,1,74.059,46.7L62.945,19.72,51.83,46.7a2.914,2.914,0,0,1-2.524,1.846L20.372,50.878,42.449,69.941a3.028,3.028,0,0,1,.942,2.976l-6.744,28.445L61.4,86.142a2.965,2.965,0,0,1,1.582-.452Z" transform="translate(27.513 24.548)" fill="#fff"/>
</svg>
