<svg id="crowd_participation_crowdapps_branding2020_outlined" data-name="crowd_participation_crowdapps branding2020_outlined" xmlns="http://www.w3.org/2000/svg" width="154.468" height="154.468" viewBox="0 0 154.468 154.468">
  <ellipse id="Ellipse_410" data-name="Ellipse 410" cx="44.532" cy="44.871" rx="44.532" ry="44.871" transform="translate(0 0)" fill="#f3807d"/>
  <ellipse id="Ellipse_411" data-name="Ellipse 411" cx="64.01" cy="64.537" rx="64.01" ry="64.537" transform="translate(26.448 25.393)" fill="none"/>
  <g id="Group_12574" data-name="Group 12574" transform="translate(51.615 35.904)">
    <path id="Path_12072" data-name="Path 12072" d="M79.556,76.855,75.374,72.56A33.564,33.564,0,0,0,85.433,48.712,32.872,32.872,0,1,0,28.921,71.732l-4.333,4.144a39.02,39.02,0,1,1,66.873-27.2A39.6,39.6,0,0,1,79.594,76.855Z" transform="translate(-13.7 -9.53)" fill="#fff"/>
    <path id="Path_12073" data-name="Path 12073" d="M35.163,38.033,19.98,22.737l4.257-4.257,10.926,11,10.926-11,4.257,4.257Z" transform="translate(3.68 15.239)" fill="#fff"/>
    <rect id="Rectangle_5508" data-name="Rectangle 5508" width="5.99" height="16.163" transform="translate(35.829 49.015)" fill="#fff"/>
    <path id="Path_12074" data-name="Path 12074" d="M50.411,47.607H19.97V30.05H26V41.616H44.383V30.05h6.028Z" transform="translate(3.652 47.259)" fill="#fff"/>
    <path id="Path_12075" data-name="Path 12075" d="M33.862,50.148A13.466,13.466,0,0,1,20.45,36.623V33.91h5.99v2.713a7.422,7.422,0,1,0,14.844,0V33.91h5.99v2.713a13.5,13.5,0,0,1-13.45,13.525Z" transform="translate(4.981 57.942)" fill="#fff"/>
  </g>
</svg>
