<svg id="crowd_budget_crowdapps_branding2020_outlined" data-name="crowd_budget_crowdapps branding2020_outlined" xmlns="http://www.w3.org/2000/svg" width="154.468" height="154.468" viewBox="0 0 154.468 154.468">
  <ellipse id="Ellipse_408" data-name="Ellipse 408" cx="44.532" cy="44.871" rx="44.532" ry="44.871" transform="translate(0 0)" fill="#f3807d"/>
  <path id="Path_12071" data-name="Path 12071" d="M70.725,98.314l-20.571-13.9c-.414,2.9-2.976,4.634-3.805,5.2-4.86,3.278-13.751.829-19.666-3.127-4.785-3.2-7.5-7.121-7.5-10.7a6.236,6.236,0,0,1,2.826-5.274,12.667,12.667,0,0,1,4.6-2L7.13,55.364l27.2-18.348a4.791,4.791,0,0,1,5.275,0,3.858,3.858,0,0,1,1.808,2.9,3.606,3.606,0,0,1-1.13,2.976,3.8,3.8,0,0,0-1.093,1.469A4.448,4.448,0,0,0,40.4,45.418c1.7,1.13,7.573.49,12.96-3.127,3.541-2.411,4.86-4.747,4.86-5.727-1.884-1.432-3.956-2.223-7.836-.414a4.9,4.9,0,0,1-4.672-.339,3.866,3.866,0,0,1-1.808-3.2,3.744,3.744,0,0,1,1.733-3.127L70.8,12.49,95.968,29.481a3.688,3.688,0,0,1,0,6.254,4.8,4.8,0,0,1-4.672.339c-3.881-1.808-5.953-1.017-7.648.113-.188,1.281,1.093,3.617,4.672,6.028,5.35,3.617,11.227,4.257,12.923,3.127a3.651,3.651,0,0,0,1.13-1.017h0a3.605,3.605,0,0,0-.829-1.206,3.7,3.7,0,0,1-.98-2.939,3.8,3.8,0,0,1,1.7-2.713,4.836,4.836,0,0,1,5.425-.113l26.674,18.009L114.843,68.55a12.528,12.528,0,0,1,4.709,2h0a6.2,6.2,0,0,1,2.826,5.275c0,3.579-2.75,7.5-7.5,10.7-5.877,3.994-14.806,6.442-19.666,3.127-2.3-1.545-3.541-3.315-3.805-5.312L70.725,98.314ZM46.689,75.822a4.5,4.5,0,0,1,2.6.791l21.4,14.467L92.5,76.349a4.791,4.791,0,0,1,5.275,0,3.9,3.9,0,0,1,1.771,2.863,3.606,3.606,0,0,1-1.13,2.976,3.8,3.8,0,0,0-1.093,1.469,4.543,4.543,0,0,0,1.168,1.055c1.7,1.13,7.573.49,12.96-3.127,3.541-2.411,4.86-4.747,4.86-5.727l1.507-2.788-1.7,2.487c-1.658-1.13-3.768-1.921-7.648-.113a4.9,4.9,0,0,1-4.672-.339,3.854,3.854,0,0,1-1.771-3.165,3.793,3.793,0,0,1,1.733-3.127L123.584,55.44l-15.3-10.323h0c-.226,2.034-1.469,3.768-3.73,5.275-4.9,3.278-13.751.829-19.666-3.127-4.747-3.2-7.5-7.121-7.5-10.7A6.236,6.236,0,0,1,80.22,31.29a12.667,12.667,0,0,1,4.6-2L70.688,19.761,56.522,29.331a12.438,12.438,0,0,1,4.747,2A6.2,6.2,0,0,1,64.095,36.6c0,3.579-2.75,7.5-7.5,10.7C50.72,51.3,41.791,53.744,36.931,50.429c-2.336-1.582-3.579-3.315-3.805-5.388L17.792,55.4,37.609,68.777a3.688,3.688,0,0,1,0,6.254,4.793,4.793,0,0,1-4.672.339c-3.881-1.808-5.953-1.017-7.648.113-.188,1.281,1.093,3.617,4.672,6.028,5.35,3.617,11.227,4.257,12.923,3.127a3.58,3.58,0,0,0,1.243-1.093,5.063,5.063,0,0,0-.9-1.168,3.632,3.632,0,0,1-1.055-2.939,3.867,3.867,0,0,1,1.7-2.75,4.9,4.9,0,0,1,2.75-.829Zm-.754,5.764Zm49.957-.3Zm-1.658-3.428Zm-58.208-39.3Zm57.718-7.987Z" transform="translate(19.732 34.566)" fill="#fff"/>
  <ellipse id="Ellipse_409" data-name="Ellipse 409" cx="64.01" cy="64.537" rx="64.01" ry="64.537" transform="translate(26.448 25.393)" fill="none"/>
</svg>
