<svg id="crowdfunding_crowdapps_branding2020_outlined" data-name="crowdfunding_crowdapps branding2020_outlined" xmlns="http://www.w3.org/2000/svg" width="154.468" height="154.468" viewBox="0 0 154.468 154.468">
  <ellipse id="Ellipse_415" data-name="Ellipse 415" cx="44.532" cy="44.871" rx="44.532" ry="44.871" transform="translate(0 0)" fill="#f3807d"/>
  <ellipse id="Ellipse_416" data-name="Ellipse 416" cx="64.01" cy="64.537" rx="64.01" ry="64.537" transform="translate(26.448 25.393)" fill="none"/>
  <g id="Group_12577" data-name="Group 12577" transform="translate(30.253 39.747)">
    <path id="Path_12087" data-name="Path 12087" d="M79.981,115.211a7.2,7.2,0,0,1-3.052-.678,7.494,7.494,0,0,1-3.918-4.182s-1.055-2.449-1.884-4.973v-.038c-.49,0-1.243.113-1.959.188a83.59,83.59,0,0,1-9.833.565,45.622,45.622,0,0,1-10.474-1.13c-.339-.075-.754-.151-1.093-.226,0,.075-.075.151-.113.264-.9,2.449-2.034,5.35-2.034,5.35a7.494,7.494,0,0,1-3.918,4.182,7.365,7.365,0,0,1-5.727.151l-8.364-3.2A7.523,7.523,0,0,1,23.28,101.8c.038-.113,1.507-3.654,2.3-6.1a.994.994,0,0,0,.075-.49c-.038,0-.3-.264-.49-.377-5.35-4.333-14.09-13.111-14.58-25.393C10.019,55.459,14.69,43.855,23.808,36.7c10.1-7.912,21.7-11.755,35.49-11.755a70.438,70.438,0,0,1,13.9,1.394c4.031-7.422,10.323-12.169,19.177-14.392l5.5-1.394L95.918,15.9c-2.562,7.008-3.805,11.152-3.994,16.05a29.231,29.231,0,0,1,17.557,21.965c.113,0,.3.038.527.038h4.22a7.154,7.154,0,0,1,5.086,2.11,7.023,7.023,0,0,1,2.11,5.161V73.995a7.268,7.268,0,0,1-7.234,7.271h-4.22c-.754,0-.942.075-1.507,1.319A34.113,34.113,0,0,1,94.109,97.994a.579.579,0,0,0-.226.151l1.394,3.692a7.537,7.537,0,0,1-4.333,9.682l-8.364,3.2a7.307,7.307,0,0,1-2.675.49ZM71.316,99.35c2.374,0,4.37.754,5.5,4.144.791,2.336,1.733,4.634,1.733,4.672a1.61,1.61,0,0,0,.829.942,1.417,1.417,0,0,0,1.13,0l8.364-3.2a1.539,1.539,0,0,0,.867-1.921l-1.281-3.428a5.77,5.77,0,0,1-.339-3.994,6.322,6.322,0,0,1,3.24-3.805,27.59,27.59,0,0,0,11.792-12.7,7.275,7.275,0,0,1,6.932-4.747h4.22a1.222,1.222,0,0,0,1.206-1.243V61.3a1.269,1.269,0,0,0-.377-.9,1.137,1.137,0,0,0-.829-.339h-4.22c-4.144,0-6.028-2.449-6.367-4.521a23.157,23.157,0,0,0-15.71-18.611l-1.959-.678V34.172a41.351,41.351,0,0,1,2.261-14.241A21.8,21.8,0,0,0,77.683,31.158l-1.017,2.3-2.449-.6a61.99,61.99,0,0,0-14.806-1.771c-12.4,0-22.793,3.428-31.76,10.474-7.535,5.915-11.416,15.786-10.926,27.767.414,9.909,7.8,17.293,12.169,20.834a6.318,6.318,0,0,1,2.524,7.535c-.867,2.713-2.374,6.329-2.449,6.48a1.49,1.49,0,0,0,.9,1.846l8.364,3.2a1.5,1.5,0,0,0,1.093,0,1.54,1.54,0,0,0,.791-.829s1.093-2.939,2-5.35c1.921-5.086,5.161-4.408,8.025-3.805a42.2,42.2,0,0,0,9.23.98,74.273,74.273,0,0,0,9.193-.527,24.749,24.749,0,0,1,2.788-.188Z" transform="translate(-1.09 -10.55)" fill="#fff"/>
    <path id="Path_12088" data-name="Path 12088" d="M20.312,41.8C16.055,40.822,8.03,36.565,8.03,27.523a12.167,12.167,0,0,1,6.895-11.3l2.411,5.5a6.112,6.112,0,0,0-3.315,5.764c0,6.48,7.309,8.326,7.648,8.4l-1.356,5.84Z" transform="translate(-8.03 5.142)" fill="#fff"/>
  </g>
</svg>
