<svg id="open_council_crowdapps_branding2020_outlined" data-name="open_council_crowdapps branding2020_outlined" xmlns="http://www.w3.org/2000/svg" width="154.468" height="154.468" viewBox="0 0 154.468 154.468">
  <ellipse id="Ellipse_426" data-name="Ellipse 426" cx="44.532" cy="44.871" rx="44.532" ry="44.871" transform="translate(0 0)" fill="#f3807d"/>
  <ellipse id="Ellipse_427" data-name="Ellipse 427" cx="64.01" cy="64.537" rx="64.01" ry="64.537" transform="translate(26.448 25.393)" fill="none"/>
  <g id="surface1" transform="translate(64.085 30.434)">
    <path id="Path_12117" data-name="Path 12117" d="M69.7,36.407h-5.99c0-8.741-5.124-11.717-20.345-11.717S23.02,27.629,23.02,36.407H17.03C17.03,18.7,34.172,18.7,43.4,18.7s26.373,0,26.373,17.707Z" transform="translate(-16.955 21.318)" fill="#fff"/>
    <path id="Path_12118" data-name="Path 12118" d="M57.812,84.735H28.953L25.9,51.581,17.01,45.628V23.4h6.028V42.426l8.59,5.764,2.826,30.517H52.312L55.1,48.19l8.628-5.764V23.4h6.028V45.628l-8.929,5.953Z" transform="translate(-17.01 34.325)" fill="#fff"/>
    <path id="Path_12119" data-name="Path 12119" d="M36.99,46.966A17.7,17.7,0,0,1,19.32,29.259V27.6c0-6.292,1.959-11.227,5.8-14.656C31.715,7.068,41.36,8.123,41.774,8.2l.867.113,2.788,2.261c7.949,2.261,9.532,12.508,9.193,18.348v.339A17.7,17.7,0,0,1,36.99,46.966ZM25.31,27.6v1.658a11.661,11.661,0,1,0,23.321,0v-.527c0-.264.452-11.3-5.2-12.47l-.716-.151-2.487-2c-2.034-.075-7.535.075-11.189,3.353-2.487,2.223-3.767,5.651-3.767,10.135Z" transform="translate(-10.617 -8.078)" fill="#fff"/>
  </g>
</svg>
