<svg id="postit_crowdapps_branding2020_outlined" data-name="postit_crowdapps branding2020_outlined" xmlns="http://www.w3.org/2000/svg" width="154.468" height="154.468" viewBox="0 0 154.468 154.468">
  <ellipse id="Ellipse_428" data-name="Ellipse 428" cx="44.532" cy="44.871" rx="44.532" ry="44.871" transform="translate(0 0)" fill="#f3807d"/>
  <g id="Group_12591" data-name="Group 12591" transform="translate(46.566 43.439)">
    <path id="Path_12121" data-name="Path 12121" d="M67.14,104.55H12.36V11.53H96.978l-.151,3.165c0,.414-2.185,43.1-2.185,52.632a71.882,71.882,0,0,0,5.275,26.862l1.243,2.75-2.713,1.243a82.954,82.954,0,0,1-31.195,6.4ZM18.35,98.559H67.14a78.537,78.537,0,0,0,26.071-4.822,79.874,79.874,0,0,1-4.634-26.41c0-8.251,1.545-39.6,2.034-49.769H18.388v81Z" transform="translate(-12.36 -11.53)" fill="#fff"/>
    <rect id="Rectangle_5530" data-name="Rectangle 5530" width="41.443" height="5.99" transform="translate(19.252 25.506)" fill="#fff"/>
    <rect id="Rectangle_5531" data-name="Rectangle 5531" width="25.77" height="5.99" transform="translate(19.252 45.361)" fill="#fff"/>
  </g>
  <ellipse id="Ellipse_429" data-name="Ellipse 429" cx="64.01" cy="64.537" rx="64.01" ry="64.537" transform="translate(26.448 25.393)" fill="none"/>
</svg>
