<svg xmlns="http://www.w3.org/2000/svg" xmlns:xlink="http://www.w3.org/1999/xlink" width="333" height="963" viewBox="0 0 333 963">
  <defs>
    <clipPath id="clip-path">
      <rect id="Rectangle_5565" data-name="Rectangle 5565" width="333" height="963" rx="30" transform="translate(30 8258)" fill="#d1ec57" stroke="#fff" stroke-width="1"/>
    </clipPath>
    <linearGradient id="linear-gradient" x1="1" y1="0.028" x2="-0.05" y2="1.054" gradientUnits="objectBoundingBox">
      <stop offset="0" stop-color="#fff" stop-opacity="0"/>
      <stop offset="1" stop-color="#fff"/>
    </linearGradient>
  </defs>
  <g id="BOTAKIS_BG_RESPONSIVE" transform="translate(-30 -8258)">
    <g id="Rectangle_5564" data-name="Rectangle 5564" transform="translate(30 8258)" fill="#d1ec57" stroke="#fff" stroke-width="1">
      <rect width="333" height="963" rx="30" stroke="none"/>
      <rect x="0.5" y="0.5" width="332" height="962" rx="29.5" fill="none"/>
    </g>
    <g id="Mask_Group_12175" data-name="Mask Group 12175" clip-path="url(#clip-path)">
      <path id="BOTAKIS_BG_LINES" d="M-676.88-2634.786-801.146-2780.7l-.746,1.73,91.479,144.182h-4.379l-88.871-140.072-2.3,5.325,58.09,134.747h-3.624l-56.277-130.543-56.277,130.543h-3.625l58.09-134.748-2.3-5.324-88.871,140.072h-4.38l91.479-144.182-.746-1.73-124.266,145.912h-5.309l127.791-150.051-13.113-30.418-24.373-38.415a4.261,4.261,0,0,1-.151-3.687c.3-.636.734-.942,1.161-.9a1.208,1.208,0,0,1,.861.635l13.217,20.83-30.089-69.794a4.487,4.487,0,0,1-.138-2.884l-452.364,197.188a.805.805,0,0,1-.327.071c-.647,0-1.243-.814-1.41-2.024-.2-1.41.265-2.825,1.029-3.158l471-205.309a.856.856,0,0,1,.922.166,2.861,2.861,0,0,1,.816,1.788c.195,1.409-.266,2.825-1.03,3.157l-16.588,7.231a2.392,2.392,0,0,1,.332.564l39.158,90.829,13.856,21.839a4,4,0,0,1,.2-.859c.25-.707.656-1.123,1.082-1.192a.972.972,0,0,1,.9.4l3.463,4.066,3.464-4.066a.973.973,0,0,1,.9-.4c.426.07.831.485,1.082,1.192a4,4,0,0,1,.2.859l13.854-21.835,39.159-90.834a2.4,2.4,0,0,1,.333-.564l-16.587-7.231c-.764-.332-1.224-1.749-1.03-3.157a2.855,2.855,0,0,1,.816-1.788.856.856,0,0,1,.922-.166l136.406,59.459v5.421l-118.482-51.647a4.491,4.491,0,0,1-.137,2.884l-30.089,69.794,13.217-20.83a1.21,1.21,0,0,1,.861-.635c.428-.042.86.264,1.16.9a4.257,4.257,0,0,1-.15,3.688l-24.373,38.415-13.114,30.419,127.79,150.05ZM-809.721-2778.26l1.949,4.521,1.95-4.521-1.949-3.072Zm4.139-6.523,1.531,2.413.5-1.154-1.621-1.9Zm-6.409,1.259.5,1.154,1.532-2.413-.409-.644Zm9.083-5.475,1.138,1.337,4.21-9.765Zm-10.867,1.337,1.138-1.337-5.35-8.432Zm5.914-.712.088.14.089-.139-.089-.1Zm-188.8,153.589,145.681-151.783a.919.919,0,0,1,.911-.315,1.775,1.775,0,0,1,1.047,1.3,3.971,3.971,0,0,1-.524,3.568l-141.315,147.234Zm-89.967,0,208.335-174.465a.853.853,0,0,1,.922-.164,2.075,2.075,0,0,1,.983,1.462,3.743,3.743,0,0,1-.687,3.468l-202.645,169.7Zm-76.728,0,285.078-205.953a.828.828,0,0,1,.926-.073,2.269,2.269,0,0,1,.94,1.554c.3,1.347-.052,2.866-.784,3.4l-278.327,201.077Zm-174.761-5.336c-.222-1.4.212-2.84.969-3.225l466.88-235.93a.836.836,0,0,1,.924.108,2.7,2.7,0,0,1,.849,1.731c.221,1.4-.213,2.84-.97,3.223l-466.88,235.93a.835.835,0,0,1-.377.093C-1337.349-2638.189-1337.932-2638.956-1338.116-2640.122ZM-766-2782.02a3.972,3.972,0,0,1-.525-3.568,1.779,1.779,0,0,1,1.048-1.3.917.917,0,0,1,.911.315l128.126,133.491q-.384.772-.784,1.521-.644,1.2-1.32,2.33Zm27.53-22.467a3.743,3.743,0,0,1-.687-3.468,2.071,2.071,0,0,1,.982-1.462.849.849,0,0,1,.922.164l108.995,91.275v5.784Zm.12-31.377c-.731-.529-1.083-2.048-.784-3.4a2.277,2.277,0,0,1,.941-1.556.83.83,0,0,1,.924.075l109.011,78.754v5.658Zm-618.457,45.681c-.142-1.434.371-2.786,1.145-3.016l477.507-143.356a.905.905,0,0,1,.913.287,3.141,3.141,0,0,1,.747,1.888c.143,1.433-.37,2.784-1.144,3.016l-477.507,143.354a.743.743,0,0,1-.229.034C-1356.06-2787.975-1356.676-2788.891-1356.805-2790.182Zm610.726-84.033c-.758-.383-1.192-1.826-.97-3.223a2.7,2.7,0,0,1,.848-1.731.842.842,0,0,1,.925-.108l117.02,59.134v5.469Zm-605.174,18.059c-.116-1.443.421-2.759,1.2-2.941l479.89-112.095a.938.938,0,0,1,.907.346,3.279,3.279,0,0,1,.711,1.935c.116,1.441-.421,2.759-1.2,2.939l-479.891,112.1a.814.814,0,0,1-.179.021C-1350.522-2853.854-1351.147-2854.826-1351.254-2856.156Zm613.348-75.207c-.775-.232-1.287-1.583-1.145-3.016a3.141,3.141,0,0,1,.747-1.888.9.9,0,0,1,.913-.287l109.134,32.764v5.345Zm-634.164-1.706c-.075-1.451.5-2.715,1.281-2.817l482.37-64.964a1,1,0,0,1,.9.433,3.512,3.512,0,0,1,.656,2c.075,1.449-.5,2.71-1.281,2.816l-482.37,64.965a.738.738,0,0,1-.1.007C-1371.36-2930.625-1372-2931.683-1372.07-2933.069Zm626.271-32.9c-.779-.18-1.316-1.5-1.2-2.939a3.28,3.28,0,0,1,.712-1.935.94.94,0,0,1,.907-.348l117.125,27.359v5.32Zm18.4-29.625c-.783-.107-1.356-1.367-1.281-2.816a3.521,3.521,0,0,1,.656-2,1,1,0,0,1,.9-.433l98.855,13.313q.013.844.013,1.692v3.6Zm-644.664,1.869c-.048-1.454.548-2.679,1.332-2.733L-887.44-3029.9a1.061,1.061,0,0,1,.888.492,3.66,3.66,0,0,1,.618,2.044c.048,1.455-.548,2.679-1.332,2.733l-483.287,33.437-.052,0C-1371.367-2991.189-1372.013-2992.306-1372.06-2993.728Zm643.782-30.9c-.784-.054-1.38-1.278-1.332-2.733a3.67,3.67,0,0,1,.618-2.044,1.061,1.061,0,0,1,.888-.492l92.293,6.385q1.217,2.6,2.252,5.438Z" transform="translate(1038.756 11855.44)" opacity="0.3" fill="url(#linear-gradient)"/>
    </g>
  </g>
</svg>
