<svg xmlns="http://www.w3.org/2000/svg" xmlns:xlink="http://www.w3.org/1999/xlink" width="1367" height="354" viewBox="0 0 1367 354">
  <defs>
    <clipPath id="clip-path">
      <rect id="Rectangle_213" data-name="Rectangle 213" width="1367" height="354" transform="translate(257)" fill="#fff"/>
    </clipPath>
  </defs>
  <g id="Mask_Group_28" data-name="Mask Group 28" transform="translate(-257)" clip-path="url(#clip-path)">
    <g id="Path_11137" data-name="Path 11137" transform="translate(257)" fill="#00afc5">
      <path d="M 1317 353.5 L 50 353.5 C 43.31733322143555 353.5 36.83483505249023 352.1913452148438 30.73250007629395 349.6101684570312 C 24.83816719055176 347.1171569824219 19.54433250427246 343.5480041503906 14.99816703796387 339.0018310546875 C 10.45199966430664 334.4556579589844 6.882833480834961 329.1618347167969 4.389833450317383 323.2674865722656 C 1.808666706085205 317.1651611328125 0.5 310.6826782226562 0.5 304 L 0.5 50 C 0.5 43.31733322143555 1.808666706085205 36.83483505249023 4.389833450317383 30.73250007629395 C 6.882833480834961 24.83816719055176 10.45199966430664 19.54433250427246 14.99816703796387 14.99816703796387 C 19.54433250427246 10.45199966430664 24.83816719055176 6.882833480834961 30.73250007629395 4.389833450317383 C 36.83483505249023 1.808666706085205 43.31733322143555 0.5 50 0.5 L 1317 0.5 C 1323.6826171875 0.5 1330.165161132812 1.808666706085205 1336.267456054688 4.389833450317383 C 1342.161865234375 6.882833480834961 1347.455688476562 10.45199966430664 1352.001831054688 14.99816703796387 C 1356.547973632812 19.54433250427246 1360.1171875 24.83816719055176 1362.6103515625 30.73250007629395 C 1365.191284179688 36.83483505249023 1366.5 43.31733322143555 1366.5 50 L 1366.5 304 C 1366.5 310.6826782226562 1365.191284179688 317.1651611328125 1362.6103515625 323.2674865722656 C 1360.1171875 329.1618347167969 1356.547973632812 334.4556579589844 1352.001831054688 339.0018310546875 C 1347.455688476562 343.5480041503906 1342.161865234375 347.1171569824219 1336.267456054688 349.6101684570312 C 1330.165161132812 352.1913452148438 1323.6826171875 353.5 1317 353.5 Z" stroke="none"/>
      <path d="M 50 1 C 43.384521484375 1 36.967529296875 2.295318603515625 30.9273681640625 4.850341796875 C 25.092529296875 7.31817626953125 19.8521728515625 10.851318359375 15.3516845703125 15.35183715820312 C 10.851318359375 19.8521728515625 7.318115234375 25.09249877929688 4.8502197265625 30.92733764648438 C 2.2952880859375 36.96768188476562 1 43.38467407226562 1 50 L 1 304 C 1 310.6153259277344 2.2952880859375 317.0323486328125 4.8502197265625 323.0726623535156 C 7.318115234375 328.9075012207031 10.851318359375 334.1478271484375 15.3516845703125 338.6481628417969 C 19.8521728515625 343.148681640625 25.092529296875 346.6818237304688 30.9273681640625 349.149658203125 C 36.967529296875 351.7046813964844 43.384521484375 353 50 353 L 1317 353 C 1323.615356445312 353 1330.032348632812 351.7046813964844 1336.072631835938 349.149658203125 C 1341.907470703125 346.6818237304688 1347.147827148438 343.148681640625 1351.648193359375 338.6481628417969 C 1356.148681640625 334.1478271484375 1359.681884765625 328.9075012207031 1362.149658203125 323.0726623535156 C 1364.704711914062 317.0323486328125 1366 310.6153259277344 1366 304 L 1366 50 C 1366 43.38467407226562 1364.704711914062 36.96768188476562 1362.149658203125 30.92733764648438 C 1359.681884765625 25.09249877929688 1356.148681640625 19.8521728515625 1351.648193359375 15.35183715820312 C 1347.147827148438 10.851318359375 1341.907470703125 7.31817626953125 1336.072631835938 4.850341796875 C 1330.032348632812 2.295318603515625 1323.615356445312 1 1317 1 L 50 1 M 50 0 L 1317 0 C 1344.614135742188 0 1367 22.38583374023438 1367 50 L 1367 304 C 1367 331.6141662597656 1344.614135742188 354 1317 354 L 50 354 C 22.3856201171875 354 0 331.6141662597656 0 304 L 0 50 C 0 22.38583374023438 22.3856201171875 0 50 0 Z" stroke="none" fill="#000"/>
    </g>
    <g id="Group_12098" data-name="Group 12098" transform="translate(435.925 -103.118)" opacity="0.127">
      <path id="Path_322" data-name="Path 322" d="M5405,975.394c0-85.435,69.54-154.975,155.473-154.975,85.434,0,154.973,69.54,154.973,154.975,0,85.931-69.539,155.471-154.973,155.471A155.386,155.386,0,0,1,5405,975.394Zm275.127-.79a119.017,119.017,0,0,0-119.36-119.361c-67.275,0-120.445,53.17-120.445,119.361,0,67.276,53.17,120.444,120.445,120.444C5626.954,1095.048,5680.124,1041.88,5680.124,974.6Z" transform="translate(-5404.997 -820.419)" fill="#eeedf2" stroke="#000" stroke-width="1"/>
    </g>
    <g id="Group_12100" data-name="Group 12100" transform="translate(1499.938 160.552) rotate(90)" opacity="0.127">
      <path id="Path_324" data-name="Path 324" d="M125.448,62.825A62.724,62.724,0,1,1,62.623,0,62.748,62.748,0,0,1,125.448,62.825Zm-84.9.2a22.18,22.18,0,1,0,22.08-22.28A22.016,22.016,0,0,0,40.544,63.026Z" transform="translate(0 226.947)" fill="#eeedf2" stroke="#000" stroke-width="1"/>
      <g id="Group_581" data-name="Group 581" transform="translate(15.758)">
        <path id="Path_271" data-name="Path 271" d="M0,236.242v-61.6L199.133,0h94.731L91.084,179.221l88.657,1.819,191.4-3.2v58.4Z" fill="#eeedf2" stroke="#000" stroke-width="1"/>
      </g>
    </g>
  </g>
</svg>
