<svg xmlns="http://www.w3.org/2000/svg" xmlns:xlink="http://www.w3.org/1999/xlink" width="1769" height="167" viewBox="0 0 1769 167">
  <defs>
    <clipPath id="clip-path">
      <rect id="Rectangle_5902" data-name="Rectangle 5902" width="1769" height="167" transform="translate(26 1375)" fill="#2a80d8"/>
    </clipPath>
    <linearGradient id="linear-gradient" x1="0.982" y1="0.539" x2="0.135" y2="0.483" gradientUnits="objectBoundingBox">
      <stop offset="0" stop-color="#8668a9"/>
      <stop offset="0.163" stop-color="#4180d2"/>
      <stop offset="0.261" stop-color="#52adde"/>
      <stop offset="0.424" stop-color="#67b364"/>
      <stop offset="0.562" stop-color="#9fcb5f"/>
      <stop offset="0.709" stop-color="#f7c549"/>
      <stop offset="0.852" stop-color="#e6953d"/>
      <stop offset="1" stop-color="#e27270"/>
    </linearGradient>
  </defs>
  <g id="Mask_Group_12188" data-name="Mask Group 12188" transform="translate(-26 -1375)" clip-path="url(#clip-path)">
    <g id="Group_12848" data-name="Group 12848" transform="translate(0 -128)">
      <g id="Group_12845" data-name="Group 12845" transform="translate(-21020.543 2316.386) rotate(3)" opacity="0.4">
        <g id="Rectangle_5900" data-name="Rectangle 5900" transform="translate(20952.482 -1902.562)" fill="none" stroke="#000" stroke-width="1">
          <rect width="1821.036" height="53.451" stroke="none"/>
          <rect x="0.5" y="0.5" width="1820.036" height="52.451" fill="none"/>
        </g>
        <g id="Group_12844" data-name="Group 12844" transform="translate(21121.482 -1896.562)">
          <path id="Path_12886" data-name="Path 12886" d="M2.4,0V-21.6H5.07V0ZM21.1,0V-8.115a11.614,11.614,0,0,0-.206-2.212,5.97,5.97,0,0,0-.709-1.916,3.727,3.727,0,0,0-1.35-1.346,4.17,4.17,0,0,0-2.13-.495,4.716,4.716,0,0,0-1.826.341,3.681,3.681,0,0,0-1.406,1.027,4.784,4.784,0,0,0-.9,1.729,8.424,8.424,0,0,0-.319,2.453L10.5-9.075a8.924,8.924,0,0,1,.847-4.039,6.12,6.12,0,0,1,2.385-2.6,7,7,0,0,1,3.622-.908,6.575,6.575,0,0,1,2.681.5,5.362,5.362,0,0,1,1.849,1.316,6.435,6.435,0,0,1,1.155,1.83,9.245,9.245,0,0,1,.593,2.055A12.132,12.132,0,0,1,23.8-8.955V0ZM9.555,0V-16.2h2.4v4.335h.3V0ZM39.24,0V-8.115a11.614,11.614,0,0,0-.206-2.212,5.97,5.97,0,0,0-.709-1.916,3.727,3.727,0,0,0-1.35-1.346,4.17,4.17,0,0,0-2.13-.495,4.716,4.716,0,0,0-1.826.341,3.681,3.681,0,0,0-1.406,1.027,4.784,4.784,0,0,0-.9,1.729,8.424,8.424,0,0,0-.319,2.453l-1.755-.54a8.924,8.924,0,0,1,.847-4.039,6.12,6.12,0,0,1,2.385-2.6,7,7,0,0,1,3.622-.908,6.575,6.575,0,0,1,2.681.5,5.362,5.362,0,0,1,1.849,1.316,6.435,6.435,0,0,1,1.155,1.83,9.245,9.245,0,0,1,.593,2.055,12.132,12.132,0,0,1,.172,1.969V0ZM27.69,0V-16.2h2.4v4.335h.3V0Zm24.9.45a7.693,7.693,0,0,1-4.17-1.1,7.219,7.219,0,0,1-2.689-3.026,10.021,10.021,0,0,1-.941-4.444,9.88,9.88,0,0,1,.96-4.466,7.2,7.2,0,0,1,2.711-3A7.749,7.749,0,0,1,52.59-16.65a7.747,7.747,0,0,1,4.181,1.091,7.2,7.2,0,0,1,2.692,3.015A9.955,9.955,0,0,1,60.4-8.115a10,10,0,0,1-.949,4.47,7.182,7.182,0,0,1-2.7,3.011A7.764,7.764,0,0,1,52.59.45Zm0-2.535a4.344,4.344,0,0,0,3.746-1.68,7.167,7.167,0,0,0,1.234-4.35,7.023,7.023,0,0,0-1.245-4.369,4.4,4.4,0,0,0-3.735-1.631,4.779,4.779,0,0,0-2.794.765,4.549,4.549,0,0,0-1.635,2.115,8.41,8.41,0,0,0-.536,3.12,7.029,7.029,0,0,0,1.26,4.384A4.378,4.378,0,0,0,52.59-2.085ZM67.485,0,61.6-16.2h2.7L68.85-3.4l4.53-12.8H76.1L70.215,0ZM82.5.45a6.327,6.327,0,0,1-3.041-.664,4.522,4.522,0,0,1-1.845-1.763,4.815,4.815,0,0,1-.619-2.4,4.742,4.742,0,0,1,.484-2.209,4.319,4.319,0,0,1,1.373-1.56,7.122,7.122,0,0,1,2.119-.986q1.155-.307,2.584-.544t2.9-.427q1.47-.191,2.753-.379l-.96.555a4.639,4.639,0,0,0-.866-3.191,3.974,3.974,0,0,0-3.124-1.039,4.868,4.868,0,0,0-2.576.671,3.6,3.6,0,0,0-1.549,2.164L77.6-12.09a5.881,5.881,0,0,1,2.261-3.345,7.4,7.4,0,0,1,4.429-1.215,8.4,8.4,0,0,1,3.78.787,4.692,4.692,0,0,1,2.28,2.378,5.115,5.115,0,0,1,.435,1.627,18.021,18.021,0,0,1,.09,1.838V0H88.5V-3.885l.555.36A6.625,6.625,0,0,1,86.494-.551,7.547,7.547,0,0,1,82.5.45Zm.4-2.235A5.659,5.659,0,0,0,85.4-2.3a4.629,4.629,0,0,0,1.7-1.365,4.443,4.443,0,0,0,.84-1.856,6.672,6.672,0,0,0,.244-1.669q.026-.919.026-1.421l.93.4q-1.305.188-2.569.352T84.188-7.5a17.874,17.874,0,0,0-2.018.439,6.1,6.1,0,0,0-1.241.544A2.811,2.811,0,0,0,80-5.67a2.212,2.212,0,0,0-.352,1.275,2.549,2.549,0,0,0,.334,1.264,2.471,2.471,0,0,0,1.05.971A4.035,4.035,0,0,0,82.9-1.785ZM103.815,0a12.05,12.05,0,0,1-2.846.24,6.365,6.365,0,0,1-2.5-.57A3.493,3.493,0,0,1,96.81-1.95a4.662,4.662,0,0,1-.518-1.935q-.038-.982-.037-2.235V-20.7h2.67V-6.24q0,1,.022,1.7a2.622,2.622,0,0,0,.308,1.211A2.19,2.19,0,0,0,100.972-2.2a10.084,10.084,0,0,0,2.842-.094ZM92.97-14v-2.2h10.845V-14Zm14.445-5.07v-2.76h2.67v2.76Zm0,19.065V-16.2h2.67V0Zm14.07.45a7.693,7.693,0,0,1-4.17-1.1,7.219,7.219,0,0,1-2.689-3.026,10.021,10.021,0,0,1-.941-4.444,9.88,9.88,0,0,1,.96-4.466,7.2,7.2,0,0,1,2.711-3,7.749,7.749,0,0,1,4.129-1.073,7.747,7.747,0,0,1,4.181,1.091,7.2,7.2,0,0,1,2.692,3.015,9.955,9.955,0,0,1,.941,4.429,10,10,0,0,1-.949,4.47,7.182,7.182,0,0,1-2.7,3.011A7.764,7.764,0,0,1,121.485.45Zm0-2.535a4.344,4.344,0,0,0,3.746-1.68,7.167,7.167,0,0,0,1.234-4.35,7.023,7.023,0,0,0-1.245-4.369,4.4,4.4,0,0,0-3.735-1.631,4.779,4.779,0,0,0-2.794.765,4.549,4.549,0,0,0-1.635,2.115,8.41,8.41,0,0,0-.536,3.12,7.029,7.029,0,0,0,1.26,4.384A4.378,4.378,0,0,0,121.485-2.085ZM144.135,0V-8.115a11.614,11.614,0,0,0-.206-2.212,5.97,5.97,0,0,0-.709-1.916,3.727,3.727,0,0,0-1.35-1.346,4.17,4.17,0,0,0-2.13-.495,4.716,4.716,0,0,0-1.826.341,3.681,3.681,0,0,0-1.406,1.027,4.784,4.784,0,0,0-.9,1.729,8.424,8.424,0,0,0-.319,2.453l-1.755-.54a8.924,8.924,0,0,1,.848-4.039,6.12,6.12,0,0,1,2.385-2.6,7,7,0,0,1,3.622-.908,6.575,6.575,0,0,1,2.681.5,5.362,5.362,0,0,1,1.849,1.316,6.435,6.435,0,0,1,1.155,1.83,9.245,9.245,0,0,1,.592,2.055,12.133,12.133,0,0,1,.172,1.969V0Zm-11.55,0V-16.2h2.4v4.335h.3V0Z" transform="translate(0 32)"/>
          <path id="Path_12890" data-name="Path 12890" d="M10.98,32.45A10.043,10.043,0,0,1,5.5,31.025a9.088,9.088,0,0,1-3.424-3.96A13.822,13.822,0,0,1,.9,21.2a13.822,13.822,0,0,1,1.174-5.865A9.088,9.088,0,0,1,5.5,11.375,10.043,10.043,0,0,1,10.98,9.95a9.655,9.655,0,0,1,6.169,1.909,9.754,9.754,0,0,1,3.341,5.126l-2.715.72a7.239,7.239,0,0,0-2.359-3.81,6.766,6.766,0,0,0-4.436-1.4,6.973,6.973,0,0,0-4.02,1.095,6.677,6.677,0,0,0-2.415,3.056A12.034,12.034,0,0,0,3.72,21.2a11.64,11.64,0,0,0,.795,4.545A6.667,6.667,0,0,0,6.945,28.8a7.028,7.028,0,0,0,4.035,1.1,6.742,6.742,0,0,0,4.436-1.4,7.276,7.276,0,0,0,2.359-3.8l2.715.72a9.754,9.754,0,0,1-3.341,5.126A9.655,9.655,0,0,1,10.98,32.45Zm19.71,0a7.693,7.693,0,0,1-4.17-1.1,7.219,7.219,0,0,1-2.689-3.026,10.021,10.021,0,0,1-.941-4.444,9.88,9.88,0,0,1,.96-4.466,7.2,7.2,0,0,1,2.711-3A7.749,7.749,0,0,1,30.69,15.35a7.747,7.747,0,0,1,4.181,1.091,7.2,7.2,0,0,1,2.693,3.015,9.955,9.955,0,0,1,.941,4.429,10,10,0,0,1-.949,4.47,7.182,7.182,0,0,1-2.7,3.011A7.764,7.764,0,0,1,30.69,32.45Zm0-2.535a4.344,4.344,0,0,0,3.746-1.68,7.167,7.167,0,0,0,1.234-4.35,7.023,7.023,0,0,0-1.245-4.369,4.4,4.4,0,0,0-3.735-1.631,4.779,4.779,0,0,0-2.794.765,4.549,4.549,0,0,0-1.635,2.115,8.41,8.41,0,0,0-.536,3.12,7.029,7.029,0,0,0,1.26,4.384A4.378,4.378,0,0,0,30.69,29.915ZM61.17,32l.015-10.365a3.972,3.972,0,0,0-.971-2.843,3.3,3.3,0,0,0-2.509-1.028,3.684,3.684,0,0,0-1.714.416,3.244,3.244,0,0,0-1.316,1.29,4.4,4.4,0,0,0-.51,2.239l-1.41-.57a5.721,5.721,0,0,1,.705-3.022A5.247,5.247,0,0,1,55.5,16.1a5.889,5.889,0,0,1,2.914-.72,5.223,5.223,0,0,1,3.99,1.541,5.769,5.769,0,0,1,1.455,4.129L63.84,32ZM41.79,32V15.8h2.385v4.335h.3V32ZM51.5,32l.015-10.26a4.183,4.183,0,0,0-.96-2.914,3.572,3.572,0,0,0-5.1.023,4.126,4.126,0,0,0-.971,2.861l-1.41-.84a5.338,5.338,0,0,1,.75-2.816,5.4,5.4,0,0,1,2.04-1.958,5.923,5.923,0,0,1,2.925-.716,5.629,5.629,0,0,1,2.846.694A4.724,4.724,0,0,1,53.5,18.05a6.545,6.545,0,0,1,.664,3.045L54.15,32ZM87.12,32l.015-10.365a3.972,3.972,0,0,0-.971-2.843,3.3,3.3,0,0,0-2.509-1.028,3.684,3.684,0,0,0-1.714.416,3.244,3.244,0,0,0-1.316,1.29,4.4,4.4,0,0,0-.51,2.239l-1.41-.57a5.721,5.721,0,0,1,.7-3.022A5.247,5.247,0,0,1,81.446,16.1a5.889,5.889,0,0,1,2.914-.72,5.223,5.223,0,0,1,3.99,1.541,5.769,5.769,0,0,1,1.455,4.129L89.79,32ZM67.74,32V15.8h2.385v4.335h.3V32Zm9.705,0,.015-10.26a4.183,4.183,0,0,0-.96-2.914,3.572,3.572,0,0,0-5.1.023,4.126,4.126,0,0,0-.971,2.861l-1.41-.84a5.338,5.338,0,0,1,.75-2.816,5.4,5.4,0,0,1,2.04-1.958,5.923,5.923,0,0,1,2.925-.716,5.629,5.629,0,0,1,2.846.694,4.724,4.724,0,0,1,1.875,1.976,6.545,6.545,0,0,1,.664,3.045L80.1,32Zm22.41.42a6.575,6.575,0,0,1-2.681-.495,5.362,5.362,0,0,1-1.849-1.316,6.435,6.435,0,0,1-1.155-1.83,9.244,9.244,0,0,1-.592-2.055,12.132,12.132,0,0,1-.173-1.969V15.8h2.7v8.115a11.632,11.632,0,0,0,.206,2.209,5.97,5.97,0,0,0,.709,1.92,3.727,3.727,0,0,0,1.35,1.346,4.17,4.17,0,0,0,2.13.5,4.716,4.716,0,0,0,1.826-.341,3.681,3.681,0,0,0,1.406-1.028,4.781,4.781,0,0,0,.9-1.733,8.433,8.433,0,0,0,.319-2.449l1.755.54a8.924,8.924,0,0,1-.848,4.039,6.12,6.12,0,0,1-2.385,2.6A7,7,0,0,1,99.855,32.42Zm5.4-.42V27.665h-.3V15.8h2.685V32Zm18.12,0V23.885a11.614,11.614,0,0,0-.206-2.212,5.97,5.97,0,0,0-.709-1.916,3.727,3.727,0,0,0-1.35-1.346,4.17,4.17,0,0,0-2.13-.495,4.716,4.716,0,0,0-1.826.341,3.681,3.681,0,0,0-1.406,1.027,4.784,4.784,0,0,0-.9,1.729,8.424,8.424,0,0,0-.319,2.452l-1.755-.54a8.924,8.924,0,0,1,.848-4.039,6.12,6.12,0,0,1,2.385-2.6,7,7,0,0,1,3.623-.907,6.575,6.575,0,0,1,2.681.5,5.362,5.362,0,0,1,1.849,1.316,6.435,6.435,0,0,1,1.155,1.83,9.245,9.245,0,0,1,.592,2.055,12.132,12.132,0,0,1,.173,1.969V32Zm-11.55,0V15.8h2.4v4.335h.3V32Zm18.45-19.065v-2.76h2.67v2.76Zm0,19.065V15.8h2.67V32Zm14,.45a7.587,7.587,0,0,1-4.185-1.1,7.062,7.062,0,0,1-2.618-3.034,10.567,10.567,0,0,1-.923-4.414,10.425,10.425,0,0,1,.945-4.455,7.075,7.075,0,0,1,2.647-3.011,8.437,8.437,0,0,1,8.573.176,6.109,6.109,0,0,1,2.49,3.45l-2.64.8a4.395,4.395,0,0,0-1.665-2.19,4.56,4.56,0,0,0-6.975,2.122,8.8,8.8,0,0,0-.54,3.112,7.252,7.252,0,0,0,1.249,4.361,4.245,4.245,0,0,0,3.641,1.654,4.193,4.193,0,0,0,4.23-2.835l2.7.7a6.975,6.975,0,0,1-2.632,3.465A7.522,7.522,0,0,1,144.27,32.45Zm14.46,0a6.327,6.327,0,0,1-3.041-.664,4.522,4.522,0,0,1-1.845-1.762,4.815,4.815,0,0,1-.619-2.4,4.742,4.742,0,0,1,.484-2.209,4.319,4.319,0,0,1,1.372-1.56,7.122,7.122,0,0,1,2.119-.986q1.155-.307,2.584-.544t2.9-.428q1.47-.191,2.753-.379l-.96.555a4.639,4.639,0,0,0-.866-3.191,3.974,3.974,0,0,0-3.124-1.039,4.868,4.868,0,0,0-2.576.671,3.6,3.6,0,0,0-1.549,2.164l-2.535-.765a5.881,5.881,0,0,1,2.261-3.345,7.4,7.4,0,0,1,4.429-1.215,8.4,8.4,0,0,1,3.78.788,4.692,4.692,0,0,1,2.28,2.377,5.114,5.114,0,0,1,.435,1.628,18.021,18.021,0,0,1,.09,1.837V32h-2.37V28.115l.555.36a6.625,6.625,0,0,1-2.561,2.974A7.547,7.547,0,0,1,158.73,32.45Zm.4-2.235a5.659,5.659,0,0,0,2.5-.514,4.629,4.629,0,0,0,1.7-1.365,4.443,4.443,0,0,0,.84-1.856,6.672,6.672,0,0,0,.244-1.669q.026-.919.026-1.421l.93.405q-1.305.188-2.569.352t-2.389.349a17.874,17.874,0,0,0-2.018.439,6.1,6.1,0,0,0-1.241.544,2.811,2.811,0,0,0-.926.851,2.212,2.212,0,0,0-.353,1.275,2.548,2.548,0,0,0,.334,1.264,2.471,2.471,0,0,0,1.05.971A4.035,4.035,0,0,0,159.135,30.215ZM180.045,32a12.05,12.05,0,0,1-2.846.24,6.365,6.365,0,0,1-2.5-.57,3.493,3.493,0,0,1-1.661-1.62,4.662,4.662,0,0,1-.518-1.935q-.037-.983-.037-2.235V11.3h2.67V25.76q0,1,.022,1.7a2.622,2.622,0,0,0,.308,1.211A2.19,2.19,0,0,0,177.2,29.8a10.084,10.084,0,0,0,2.842-.094ZM169.2,18V15.8h10.845V18Zm14.445-5.07v-2.76h2.67v2.76Zm0,19.065V15.8h2.67V32Zm14.07.45a7.693,7.693,0,0,1-4.17-1.1,7.219,7.219,0,0,1-2.689-3.026,10.021,10.021,0,0,1-.941-4.444,9.88,9.88,0,0,1,.96-4.466,7.2,7.2,0,0,1,2.711-3,8.52,8.52,0,0,1,8.31.019,7.2,7.2,0,0,1,2.693,3.015,9.955,9.955,0,0,1,.941,4.429,10,10,0,0,1-.949,4.47,7.182,7.182,0,0,1-2.7,3.011A7.764,7.764,0,0,1,197.715,32.45Zm0-2.535a4.344,4.344,0,0,0,3.746-1.68,7.167,7.167,0,0,0,1.234-4.35,7.023,7.023,0,0,0-1.245-4.369,4.4,4.4,0,0,0-3.735-1.631,4.779,4.779,0,0,0-2.794.765,4.549,4.549,0,0,0-1.635,2.115,8.41,8.41,0,0,0-.536,3.12,7.029,7.029,0,0,0,1.26,4.384A4.378,4.378,0,0,0,197.715,29.915ZM220.365,32V23.885a11.614,11.614,0,0,0-.206-2.212,5.97,5.97,0,0,0-.709-1.916,3.727,3.727,0,0,0-1.35-1.346,4.17,4.17,0,0,0-2.13-.495,4.716,4.716,0,0,0-1.826.341,3.681,3.681,0,0,0-1.406,1.027,4.784,4.784,0,0,0-.9,1.729,8.424,8.424,0,0,0-.319,2.452l-1.755-.54a8.924,8.924,0,0,1,.848-4.039,6.12,6.12,0,0,1,2.385-2.6,7,7,0,0,1,3.622-.907,6.575,6.575,0,0,1,2.681.5,5.362,5.362,0,0,1,1.849,1.316,6.435,6.435,0,0,1,1.155,1.83,9.245,9.245,0,0,1,.593,2.055,12.131,12.131,0,0,1,.173,1.969V32Zm-11.55,0V15.8h2.4v4.335h.3V32Z" transform="translate(978)"/>
          <path id="Path_12888" data-name="Path 12888" d="M2.1,0V-21.6h8.535q.315,0,.746.022a6.649,6.649,0,0,1,.844.1,6.213,6.213,0,0,1,2.94,1.2,5.843,5.843,0,0,1,1.8,2.351,7.921,7.921,0,0,1,.6,3.135,7.3,7.3,0,0,1-1.305,4.346,5.752,5.752,0,0,1-3.825,2.3l-1.02.165H4.77V0ZM14.955,0l-4.26-8.79,2.64-.81L18.015,0ZM4.77-10.515h5.775q.285,0,.649-.03a5.2,5.2,0,0,0,.7-.1,3.39,3.39,0,0,0,1.684-.874,3.917,3.917,0,0,0,.952-1.5,5.27,5.27,0,0,0,.3-1.762,5.27,5.27,0,0,0-.3-1.762,3.917,3.917,0,0,0-.952-1.5,3.39,3.39,0,0,0-1.684-.874,4.231,4.231,0,0,0-.7-.109q-.364-.026-.649-.026H4.77ZM28.335.45A8.025,8.025,0,0,1,24.165-.6,7.22,7.22,0,0,1,21.4-3.559a9.5,9.5,0,0,1-.986-4.436,10.169,10.169,0,0,1,.971-4.6,7.144,7.144,0,0,1,2.722-3,7.789,7.789,0,0,1,4.106-1.057,7.416,7.416,0,0,1,4.155,1.125,6.865,6.865,0,0,1,2.584,3.21,11.546,11.546,0,0,1,.739,4.965H33v-.96a7.3,7.3,0,0,0-1.215-4.462,4.17,4.17,0,0,0-3.48-1.477,4.562,4.562,0,0,0-3.769,1.59A7.092,7.092,0,0,0,23.25-8.1a6.843,6.843,0,0,0,1.286,4.44,4.478,4.478,0,0,0,3.679,1.575,5.185,5.185,0,0,0,2.79-.735,5,5,0,0,0,1.86-2.115l2.565.885A7.286,7.286,0,0,1,32.584-.728,7.882,7.882,0,0,1,28.335.45ZM22.35-7.35V-9.495H34.32V-7.35Zm23.235,15a8.171,8.171,0,0,1-2.49-.386A7.11,7.11,0,0,1,40.868,6.09,6.518,6.518,0,0,1,39.18,4.1l2.445-1.29a3.7,3.7,0,0,0,1.7,1.729A5.131,5.131,0,0,0,45.6,5.07a5.241,5.241,0,0,0,2.561-.562,3.445,3.445,0,0,0,1.507-1.673,6.673,6.673,0,0,0,.476-2.76V-4.35h.315V-16.2h2.37V.105q0,.668-.041,1.279a10.347,10.347,0,0,1-.154,1.211A6.053,6.053,0,0,1,51.39,5.438,5.591,5.591,0,0,1,48.99,7.1,9.729,9.729,0,0,1,45.585,7.65ZM45.39.45A6.642,6.642,0,0,1,41.5-.679,7.292,7.292,0,0,1,39-3.746a10.52,10.52,0,0,1-.874-4.369A10.468,10.468,0,0,1,39-12.476a7.247,7.247,0,0,1,2.5-3.052,6.648,6.648,0,0,1,3.874-1.121,6.468,6.468,0,0,1,3.851,1.114,6.877,6.877,0,0,1,2.366,3.045,11.314,11.314,0,0,1,.8,4.376,11.308,11.308,0,0,1-.8,4.361A7.008,7.008,0,0,1,49.23-.683,6.361,6.361,0,0,1,45.39.45ZM45.72-2A4.354,4.354,0,0,0,48.4-2.783a4.592,4.592,0,0,0,1.553-2.171,9.228,9.228,0,0,0,.5-3.161,9.15,9.15,0,0,0-.506-3.169,4.566,4.566,0,0,0-1.541-2.149A4.256,4.256,0,0,0,45.8-14.2a4.391,4.391,0,0,0-2.722.81,4.766,4.766,0,0,0-1.59,2.19,8.746,8.746,0,0,0-.517,3.09A8.74,8.74,0,0,0,41.49-5a4.868,4.868,0,0,0,1.579,2.2A4.223,4.223,0,0,0,45.72-2Zm11.61-17.07v-2.76H60v2.76ZM57.33,0V-16.2H60V0ZM71.4.45a7.693,7.693,0,0,1-4.17-1.1,7.219,7.219,0,0,1-2.689-3.026A10.021,10.021,0,0,1,63.6-8.115a9.88,9.88,0,0,1,.96-4.466,7.2,7.2,0,0,1,2.711-3A7.749,7.749,0,0,1,71.4-16.65a7.747,7.747,0,0,1,4.181,1.091,7.2,7.2,0,0,1,2.692,3.015,9.955,9.955,0,0,1,.941,4.429,10,10,0,0,1-.949,4.47,7.182,7.182,0,0,1-2.7,3.011A7.764,7.764,0,0,1,71.4.45Zm0-2.535a4.344,4.344,0,0,0,3.746-1.68,7.167,7.167,0,0,0,1.234-4.35,7.023,7.023,0,0,0-1.245-4.369A4.4,4.4,0,0,0,71.4-14.115a4.779,4.779,0,0,0-2.794.765,4.549,4.549,0,0,0-1.635,2.115,8.41,8.41,0,0,0-.536,3.12,7.029,7.029,0,0,0,1.26,4.384A4.378,4.378,0,0,0,71.4-2.085ZM94.05,0V-8.115a11.614,11.614,0,0,0-.206-2.212,5.97,5.97,0,0,0-.709-1.916,3.727,3.727,0,0,0-1.35-1.346,4.17,4.17,0,0,0-2.13-.495,4.716,4.716,0,0,0-1.826.341,3.681,3.681,0,0,0-1.406,1.027,4.784,4.784,0,0,0-.9,1.729A8.424,8.424,0,0,0,85.2-8.535l-1.755-.54a8.924,8.924,0,0,1,.848-4.039,6.12,6.12,0,0,1,2.385-2.6A7,7,0,0,1,90.3-16.62a6.575,6.575,0,0,1,2.681.5,5.362,5.362,0,0,1,1.849,1.316,6.435,6.435,0,0,1,1.155,1.83,9.245,9.245,0,0,1,.592,2.055,12.132,12.132,0,0,1,.173,1.969V0ZM82.5,0V-16.2h2.4v4.335h.3V0Z" transform="translate(555 32)"/>
          <path id="Path_12889" data-name="Path 12889" d="M10.845.45A10.289,10.289,0,0,1,6.787-.326,8.807,8.807,0,0,1,3.641-2.565,10.124,10.124,0,0,1,1.613-6.109,14.434,14.434,0,0,1,.9-10.8a13.494,13.494,0,0,1,1.226-5.962,9.158,9.158,0,0,1,3.461-3.9,9.825,9.825,0,0,1,5.258-1.376,9.4,9.4,0,0,1,5.85,1.691,8.6,8.6,0,0,1,3.06,4.609l-2.7.555a6.511,6.511,0,0,0-2.224-3.127,6.221,6.221,0,0,0-3.851-1.178,6.894,6.894,0,0,0-4.016,1.076,6.637,6.637,0,0,0-2.407,3.056A12.114,12.114,0,0,0,3.735-10.8a11.631,11.631,0,0,0,.791,4.538A6.658,6.658,0,0,0,6.949-3.214,7.091,7.091,0,0,0,10.98-2.1a6.911,6.911,0,0,0,3.506-.791,5.492,5.492,0,0,0,2.2-2.336A9.645,9.645,0,0,0,17.64-8.91H13.05v-2.2h7.41q.037.307.049.72t.011.555a12.221,12.221,0,0,1-1.1,5.291A8.484,8.484,0,0,1,16.159-.885,9.914,9.914,0,0,1,10.845.45ZM23.52,0V-16.2h2.385v3.915l-.39-.51a5.907,5.907,0,0,1,.743-1.38,4.488,4.488,0,0,1,1.028-1.035,4.571,4.571,0,0,1,1.421-.772,6.3,6.3,0,0,1,1.624-.323,5.557,5.557,0,0,1,1.545.1v2.505a5.2,5.2,0,0,0-1.849-.113,3.743,3.743,0,0,0-1.856.727,3.946,3.946,0,0,0-1.211,1.354,5.749,5.749,0,0,0-.589,1.714A10.671,10.671,0,0,0,26.2-8.13V0ZM41.325.45a7.693,7.693,0,0,1-4.17-1.1,7.219,7.219,0,0,1-2.689-3.026,10.021,10.021,0,0,1-.941-4.444,9.88,9.88,0,0,1,.96-4.466,7.2,7.2,0,0,1,2.711-3,7.749,7.749,0,0,1,4.129-1.073,7.747,7.747,0,0,1,4.181,1.091A7.2,7.2,0,0,1,48.2-12.544a9.955,9.955,0,0,1,.941,4.429,10,10,0,0,1-.949,4.47,7.182,7.182,0,0,1-2.7,3.011A7.764,7.764,0,0,1,41.325.45Zm0-2.535a4.344,4.344,0,0,0,3.746-1.68,7.167,7.167,0,0,0,1.234-4.35,7.023,7.023,0,0,0-1.245-4.369,4.4,4.4,0,0,0-3.735-1.631,4.779,4.779,0,0,0-2.794.765A4.549,4.549,0,0,0,36.9-11.235a8.41,8.41,0,0,0-.536,3.12,7.029,7.029,0,0,0,1.26,4.384A4.378,4.378,0,0,0,41.325-2.085ZM55.29,0,50.34-16.215,53-16.2,56.61-4.35,60.248-16.2H62.6L66.24-4.35,69.87-16.2h2.64L67.56,0H65.34L61.425-12.315,57.51,0ZM84.255,0a12.05,12.05,0,0,1-2.846.24,6.365,6.365,0,0,1-2.5-.57A3.493,3.493,0,0,1,77.25-1.95a4.662,4.662,0,0,1-.518-1.935q-.038-.982-.037-2.235V-20.7h2.67V-6.24q0,1,.022,1.7a2.622,2.622,0,0,0,.308,1.211A2.19,2.19,0,0,0,81.412-2.2,10.084,10.084,0,0,0,84.255-2.3ZM73.41-14v-2.2H84.255V-14ZM99.09,0V-8.115a11.614,11.614,0,0,0-.206-2.212,5.97,5.97,0,0,0-.709-1.916,3.727,3.727,0,0,0-1.35-1.346,4.17,4.17,0,0,0-2.13-.495,4.716,4.716,0,0,0-1.826.341,3.681,3.681,0,0,0-1.406,1.027,4.784,4.784,0,0,0-.9,1.729,8.424,8.424,0,0,0-.319,2.453l-1.755-.54a8.924,8.924,0,0,1,.848-4.039,6.12,6.12,0,0,1,2.385-2.6,7,7,0,0,1,3.623-.908,6.575,6.575,0,0,1,2.681.5,5.362,5.362,0,0,1,1.849,1.316,6.435,6.435,0,0,1,1.155,1.83,9.245,9.245,0,0,1,.592,2.055,12.132,12.132,0,0,1,.173,1.969V0ZM87.54,0V-21.6h2.4V-9.675h.3V0Z" transform="translate(764 32)"/>
          <path id="Path_12887" data-name="Path 12887" d="M2.1,0V-21.6h8.535q.315,0,.746.022a6.649,6.649,0,0,1,.844.1,6.213,6.213,0,0,1,2.94,1.2,5.843,5.843,0,0,1,1.8,2.351,7.921,7.921,0,0,1,.6,3.135,7.878,7.878,0,0,1-.608,3.135,5.874,5.874,0,0,1-1.8,2.351,6.206,6.206,0,0,1-2.932,1.2q-.413.06-.848.09t-.742.03H4.77V0ZM4.77-10.515h5.775q.285,0,.649-.03a5.2,5.2,0,0,0,.7-.1,3.39,3.39,0,0,0,1.684-.874,3.917,3.917,0,0,0,.952-1.5,5.27,5.27,0,0,0,.3-1.762,5.27,5.27,0,0,0-.3-1.762,3.917,3.917,0,0,0-.952-1.5,3.39,3.39,0,0,0-1.684-.874,4.231,4.231,0,0,0-.7-.109q-.364-.026-.649-.026H4.77ZM24.57.45a6.327,6.327,0,0,1-3.041-.664,4.522,4.522,0,0,1-1.845-1.763,4.815,4.815,0,0,1-.619-2.4,4.742,4.742,0,0,1,.484-2.209,4.319,4.319,0,0,1,1.372-1.56,7.122,7.122,0,0,1,2.119-.986q1.155-.307,2.584-.544t2.9-.427q1.47-.191,2.753-.379l-.96.555a4.639,4.639,0,0,0-.866-3.191,3.974,3.974,0,0,0-3.124-1.039,4.868,4.868,0,0,0-2.576.671A3.6,3.6,0,0,0,22.2-11.325l-2.535-.765a5.881,5.881,0,0,1,2.261-3.345,7.4,7.4,0,0,1,4.429-1.215,8.4,8.4,0,0,1,3.78.787,4.692,4.692,0,0,1,2.28,2.378,5.114,5.114,0,0,1,.435,1.627,18.02,18.02,0,0,1,.09,1.838V0H30.57V-3.885l.555.36A6.625,6.625,0,0,1,28.564-.551,7.547,7.547,0,0,1,24.57.45Zm.405-2.235a5.659,5.659,0,0,0,2.5-.514,4.629,4.629,0,0,0,1.7-1.365,4.443,4.443,0,0,0,.84-1.856,6.672,6.672,0,0,0,.244-1.669q.026-.919.026-1.421l.93.4q-1.305.188-2.569.352T26.257-7.5a17.874,17.874,0,0,0-2.017.439A6.1,6.1,0,0,0,23-6.521a2.811,2.811,0,0,0-.926.851,2.212,2.212,0,0,0-.353,1.275,2.548,2.548,0,0,0,.334,1.264,2.471,2.471,0,0,0,1.05.971A4.035,4.035,0,0,0,24.975-1.785ZM36.84,0V-16.2h2.385v3.915l-.39-.51a5.907,5.907,0,0,1,.742-1.38,4.488,4.488,0,0,1,1.028-1.035,4.571,4.571,0,0,1,1.421-.772,6.3,6.3,0,0,1,1.624-.323,5.557,5.557,0,0,1,1.545.1v2.505a5.2,5.2,0,0,0-1.849-.113,3.743,3.743,0,0,0-1.856.727,3.946,3.946,0,0,0-1.211,1.354,5.749,5.749,0,0,0-.589,1.714,10.671,10.671,0,0,0-.165,1.883V0ZM57.09,0a12.05,12.05,0,0,1-2.846.24,6.365,6.365,0,0,1-2.5-.57,3.493,3.493,0,0,1-1.661-1.62,4.661,4.661,0,0,1-.517-1.935q-.038-.982-.038-2.235V-20.7H52.2V-6.24q0,1,.022,1.7A2.622,2.622,0,0,0,52.53-3.33,2.19,2.19,0,0,0,54.247-2.2,10.084,10.084,0,0,0,57.09-2.3ZM46.245-14v-2.2H57.09V-14Zm14.445-5.07v-2.76h2.67v2.76ZM60.69,0V-16.2h2.67V0Zm14,.45A7.587,7.587,0,0,1,70.5-.652a7.062,7.062,0,0,1-2.618-3.034A10.567,10.567,0,0,1,66.96-8.1a10.426,10.426,0,0,1,.945-4.455,7.075,7.075,0,0,1,2.648-3.011,7.668,7.668,0,0,1,4.162-1.084,7.651,7.651,0,0,1,4.41,1.26,6.109,6.109,0,0,1,2.49,3.45l-2.64.8a4.395,4.395,0,0,0-1.665-2.19,4.559,4.559,0,0,0-2.625-.78,4.6,4.6,0,0,0-2.745.772,4.569,4.569,0,0,0-1.605,2.13,8.8,8.8,0,0,0-.54,3.112,7.253,7.253,0,0,0,1.249,4.361,4.245,4.245,0,0,0,3.641,1.654,4.515,4.515,0,0,0,2.632-.727,4.493,4.493,0,0,0,1.6-2.108l2.7.705A6.975,6.975,0,0,1,78.982-.75,7.522,7.522,0,0,1,74.685.45ZM84.54-19.065v-2.76h2.67v2.76ZM84.54,0V-16.2h2.67V0ZM99.15.45A6.362,6.362,0,0,1,95.31-.683a7.008,7.008,0,0,1-2.362-3.071,11.308,11.308,0,0,1-.8-4.361,11.314,11.314,0,0,1,.8-4.376,6.877,6.877,0,0,1,2.366-3.045,6.468,6.468,0,0,1,3.851-1.114,6.648,6.648,0,0,1,3.874,1.121,7.248,7.248,0,0,1,2.5,3.052,10.468,10.468,0,0,1,.874,4.361,10.52,10.52,0,0,1-.874,4.369,7.292,7.292,0,0,1-2.5,3.068A6.642,6.642,0,0,1,99.15.45ZM91.695,7.2V-16.2H94.08V-4.275h.3V7.2ZM98.82-2a4.223,4.223,0,0,0,2.651-.81A4.868,4.868,0,0,0,103.05-5a8.74,8.74,0,0,0,.525-3.112,8.69,8.69,0,0,0-.521-3.09,4.8,4.8,0,0,0-1.59-2.19,4.375,4.375,0,0,0-2.719-.81,4.256,4.256,0,0,0-2.618.773,4.566,4.566,0,0,0-1.541,2.149,9.15,9.15,0,0,0-.506,3.169,9.228,9.228,0,0,0,.5,3.161,4.592,4.592,0,0,0,1.552,2.171A4.354,4.354,0,0,0,98.82-2ZM114.315.45a6.327,6.327,0,0,1-3.041-.664,4.522,4.522,0,0,1-1.845-1.763,4.815,4.815,0,0,1-.619-2.4,4.742,4.742,0,0,1,.484-2.209,4.319,4.319,0,0,1,1.373-1.56,7.122,7.122,0,0,1,2.119-.986q1.155-.307,2.584-.544t2.9-.427q1.47-.191,2.753-.379l-.96.555a4.639,4.639,0,0,0-.866-3.191,3.974,3.974,0,0,0-3.124-1.039,4.868,4.868,0,0,0-2.576.671,3.6,3.6,0,0,0-1.549,2.164l-2.535-.765a5.881,5.881,0,0,1,2.261-3.345A7.4,7.4,0,0,1,116.1-16.65a8.4,8.4,0,0,1,3.78.787,4.692,4.692,0,0,1,2.28,2.378,5.115,5.115,0,0,1,.435,1.627,18.021,18.021,0,0,1,.09,1.838V0h-2.37V-3.885l.555.36a6.625,6.625,0,0,1-2.561,2.974A7.547,7.547,0,0,1,114.315.45Zm.4-2.235a5.659,5.659,0,0,0,2.5-.514,4.629,4.629,0,0,0,1.7-1.365,4.443,4.443,0,0,0,.84-1.856A6.672,6.672,0,0,0,120-7.189q.026-.919.026-1.421l.93.4q-1.305.188-2.569.352T116-7.5a17.874,17.874,0,0,0-2.018.439,6.1,6.1,0,0,0-1.241.544,2.811,2.811,0,0,0-.926.851,2.212,2.212,0,0,0-.352,1.275,2.549,2.549,0,0,0,.334,1.264,2.471,2.471,0,0,0,1.05.971A4.035,4.035,0,0,0,114.72-1.785ZM135.63,0a12.05,12.05,0,0,1-2.846.24,6.365,6.365,0,0,1-2.5-.57,3.493,3.493,0,0,1-1.661-1.62,4.662,4.662,0,0,1-.518-1.935q-.037-.982-.037-2.235V-20.7h2.67V-6.24q0,1,.022,1.7a2.622,2.622,0,0,0,.308,1.211A2.19,2.19,0,0,0,132.788-2.2,10.084,10.084,0,0,0,135.63-2.3ZM124.785-14v-2.2H135.63V-14Zm14.445-5.07v-2.76h2.67v2.76ZM139.23,0V-16.2h2.67V0ZM153.3.45a7.693,7.693,0,0,1-4.17-1.1,7.219,7.219,0,0,1-2.689-3.026,10.021,10.021,0,0,1-.941-4.444,9.88,9.88,0,0,1,.96-4.466,7.2,7.2,0,0,1,2.711-3A7.749,7.749,0,0,1,153.3-16.65a7.747,7.747,0,0,1,4.181,1.091,7.2,7.2,0,0,1,2.693,3.015,9.955,9.955,0,0,1,.941,4.429,10,10,0,0,1-.949,4.47,7.182,7.182,0,0,1-2.7,3.011A7.764,7.764,0,0,1,153.3.45Zm0-2.535a4.344,4.344,0,0,0,3.746-1.68,7.167,7.167,0,0,0,1.234-4.35,7.023,7.023,0,0,0-1.245-4.369,4.4,4.4,0,0,0-3.735-1.631,4.779,4.779,0,0,0-2.794.765,4.549,4.549,0,0,0-1.635,2.115,8.41,8.41,0,0,0-.536,3.12,7.029,7.029,0,0,0,1.26,4.384A4.378,4.378,0,0,0,153.3-2.085ZM175.95,0V-8.115a11.614,11.614,0,0,0-.206-2.212,5.97,5.97,0,0,0-.709-1.916,3.727,3.727,0,0,0-1.35-1.346,4.17,4.17,0,0,0-2.13-.495,4.716,4.716,0,0,0-1.826.341,3.681,3.681,0,0,0-1.406,1.027,4.784,4.784,0,0,0-.9,1.729,8.424,8.424,0,0,0-.319,2.453l-1.755-.54a8.924,8.924,0,0,1,.848-4.039,6.12,6.12,0,0,1,2.385-2.6,7,7,0,0,1,3.622-.908,6.575,6.575,0,0,1,2.681.5,5.362,5.362,0,0,1,1.849,1.316,6.435,6.435,0,0,1,1.155,1.83,9.245,9.245,0,0,1,.592,2.055,12.133,12.133,0,0,1,.172,1.969V0ZM164.4,0V-16.2h2.4v4.335h.3V0Z" transform="translate(265 32)"/>
          <path id="Path_12891" data-name="Path 12891" d="M2.1,32V10.4H4.53l8.16,17.2,8.115-17.2h2.46V31.985H20.73V16.265L13.4,32H11.97L4.635,16.265V32Zm31.515.42a6.575,6.575,0,0,1-2.681-.495,5.362,5.362,0,0,1-1.849-1.316,6.435,6.435,0,0,1-1.155-1.83,9.245,9.245,0,0,1-.593-2.055,12.132,12.132,0,0,1-.173-1.969V15.8h2.7v8.115a11.632,11.632,0,0,0,.206,2.209,5.97,5.97,0,0,0,.709,1.92,3.727,3.727,0,0,0,1.35,1.346,4.17,4.17,0,0,0,2.13.5,4.716,4.716,0,0,0,1.826-.341,3.681,3.681,0,0,0,1.406-1.028,4.781,4.781,0,0,0,.9-1.733,8.433,8.433,0,0,0,.319-2.449l1.755.54a8.924,8.924,0,0,1-.848,4.039,6.12,6.12,0,0,1-2.385,2.6A7,7,0,0,1,33.615,32.42Zm5.4-.42V27.665h-.3V15.8H41.4V32Zm18.12,0V23.885a11.614,11.614,0,0,0-.206-2.212,5.97,5.97,0,0,0-.709-1.916,3.727,3.727,0,0,0-1.35-1.346,4.17,4.17,0,0,0-2.13-.495,4.716,4.716,0,0,0-1.826.341,3.681,3.681,0,0,0-1.406,1.027,4.784,4.784,0,0,0-.9,1.729,8.424,8.424,0,0,0-.319,2.452l-1.755-.54a8.924,8.924,0,0,1,.847-4.039,6.12,6.12,0,0,1,2.385-2.6,7,7,0,0,1,3.622-.907,6.575,6.575,0,0,1,2.681.5,5.362,5.362,0,0,1,1.849,1.316,6.435,6.435,0,0,1,1.155,1.83,9.245,9.245,0,0,1,.592,2.055,12.132,12.132,0,0,1,.173,1.969V32Zm-11.55,0V15.8h2.4v4.335h.3V32Zm18.45-19.065v-2.76h2.67v2.76Zm0,19.065V15.8h2.67V32Zm14,.45a7.587,7.587,0,0,1-4.185-1.1,7.062,7.062,0,0,1-2.618-3.034,10.567,10.567,0,0,1-.923-4.414,10.426,10.426,0,0,1,.945-4.455A7.075,7.075,0,0,1,73.9,16.434a8.437,8.437,0,0,1,8.572.176,6.109,6.109,0,0,1,2.49,3.45l-2.64.8a4.395,4.395,0,0,0-1.665-2.19,4.56,4.56,0,0,0-6.975,2.122,8.8,8.8,0,0,0-.54,3.112,7.253,7.253,0,0,0,1.249,4.361,4.245,4.245,0,0,0,3.641,1.654,4.193,4.193,0,0,0,4.23-2.835l2.7.7a6.975,6.975,0,0,1-2.633,3.465A7.522,7.522,0,0,1,78.03,32.45Zm9.855-19.515v-2.76h2.67v2.76Zm0,19.065V15.8h2.67V32Zm14.61.45a6.362,6.362,0,0,1-3.84-1.133,7.008,7.008,0,0,1-2.362-3.071,11.308,11.308,0,0,1-.8-4.361,11.314,11.314,0,0,1,.8-4.376,6.877,6.877,0,0,1,2.366-3.045,6.468,6.468,0,0,1,3.851-1.114,6.648,6.648,0,0,1,3.874,1.121,7.248,7.248,0,0,1,2.5,3.052,10.468,10.468,0,0,1,.874,4.361,10.52,10.52,0,0,1-.874,4.369,7.292,7.292,0,0,1-2.5,3.068A6.642,6.642,0,0,1,102.5,32.45ZM95.04,39.2V15.8h2.385V27.725h.3V39.2Zm7.125-9.2a4.223,4.223,0,0,0,2.651-.81A4.868,4.868,0,0,0,106.4,27a8.74,8.74,0,0,0,.525-3.112,8.69,8.69,0,0,0-.521-3.09,4.8,4.8,0,0,0-1.59-2.19,4.375,4.375,0,0,0-2.719-.81,4.256,4.256,0,0,0-2.618.773,4.566,4.566,0,0,0-1.541,2.149,9.15,9.15,0,0,0-.506,3.169,9.228,9.228,0,0,0,.5,3.161,4.592,4.592,0,0,0,1.552,2.171A4.354,4.354,0,0,0,102.165,30Zm15.5,2.445a6.327,6.327,0,0,1-3.041-.664,4.522,4.522,0,0,1-1.845-1.762,4.815,4.815,0,0,1-.619-2.4,4.742,4.742,0,0,1,.484-2.209,4.319,4.319,0,0,1,1.373-1.56,7.122,7.122,0,0,1,2.119-.986q1.155-.307,2.584-.544t2.9-.428q1.47-.191,2.753-.379l-.96.555a4.639,4.639,0,0,0-.866-3.191,3.974,3.974,0,0,0-3.124-1.039,4.868,4.868,0,0,0-2.576.671,3.6,3.6,0,0,0-1.549,2.164l-2.535-.765a5.881,5.881,0,0,1,2.261-3.345,7.4,7.4,0,0,1,4.429-1.215,8.4,8.4,0,0,1,3.78.788,4.692,4.692,0,0,1,2.28,2.377,5.115,5.115,0,0,1,.435,1.628,18.021,18.021,0,0,1,.09,1.837V32h-2.37V28.115l.555.36a6.625,6.625,0,0,1-2.561,2.974A7.547,7.547,0,0,1,117.66,32.45Zm.4-2.235a5.659,5.659,0,0,0,2.5-.514,4.629,4.629,0,0,0,1.7-1.365,4.443,4.443,0,0,0,.84-1.856,6.672,6.672,0,0,0,.244-1.669q.026-.919.026-1.421l.93.405q-1.305.188-2.569.352t-2.389.349a17.874,17.874,0,0,0-2.018.439,6.1,6.1,0,0,0-1.241.544,2.811,2.811,0,0,0-.926.851,2.212,2.212,0,0,0-.352,1.275,2.549,2.549,0,0,0,.334,1.264,2.471,2.471,0,0,0,1.05.971A4.035,4.035,0,0,0,118.065,30.215ZM130.23,32V9.95h2.67V32Zm7.47-19.065v-2.76h2.67v2.76ZM137.7,32V15.8h2.67V32Zm16.215,0a12.05,12.05,0,0,1-2.846.24,6.365,6.365,0,0,1-2.5-.57,3.493,3.493,0,0,1-1.661-1.62,4.662,4.662,0,0,1-.518-1.935q-.037-.983-.037-2.235V11.3h2.67V25.76q0,1,.022,1.7a2.622,2.622,0,0,0,.308,1.211,2.19,2.19,0,0,0,1.717,1.129,10.084,10.084,0,0,0,2.842-.094ZM143.07,18V15.8h10.845V18Zm15.945,21.2,3.135-8.52.045,2.52-7.08-17.4h2.805l5.55,14h-.96l5.205-14h2.715l-8.82,23.4Z" transform="translate(1313)"/>
        </g>
      </g>
      <g id="Group_12847" data-name="Group 12847" transform="translate(-20819.555 4684.132) rotate(-3)">
        <rect id="Rectangle_5901" data-name="Rectangle 5901" width="1821.036" height="53.451" transform="translate(20952 -1982)" fill="url(#linear-gradient)"/>
        <g id="Group_12846" data-name="Group 12846" transform="translate(70.322 -155.562)">
          <path id="Path_12892" data-name="Path 12892" d="M2.4,0V-21.6H5.07V0ZM21.1,0V-8.115a11.614,11.614,0,0,0-.206-2.212,5.97,5.97,0,0,0-.709-1.916,3.727,3.727,0,0,0-1.35-1.346,4.17,4.17,0,0,0-2.13-.495,4.716,4.716,0,0,0-1.826.341,3.681,3.681,0,0,0-1.406,1.027,4.784,4.784,0,0,0-.9,1.729,8.424,8.424,0,0,0-.319,2.453L10.5-9.075a8.924,8.924,0,0,1,.847-4.039,6.12,6.12,0,0,1,2.385-2.6,7,7,0,0,1,3.622-.908,6.575,6.575,0,0,1,2.681.5,5.362,5.362,0,0,1,1.849,1.316,6.435,6.435,0,0,1,1.155,1.83,9.245,9.245,0,0,1,.593,2.055A12.132,12.132,0,0,1,23.8-8.955V0ZM9.555,0V-16.2h2.4v4.335h.3V0ZM39.24,0V-8.115a11.614,11.614,0,0,0-.206-2.212,5.97,5.97,0,0,0-.709-1.916,3.727,3.727,0,0,0-1.35-1.346,4.17,4.17,0,0,0-2.13-.495,4.716,4.716,0,0,0-1.826.341,3.681,3.681,0,0,0-1.406,1.027,4.784,4.784,0,0,0-.9,1.729,8.424,8.424,0,0,0-.319,2.453l-1.755-.54a8.924,8.924,0,0,1,.847-4.039,6.12,6.12,0,0,1,2.385-2.6,7,7,0,0,1,3.622-.908,6.575,6.575,0,0,1,2.681.5,5.362,5.362,0,0,1,1.849,1.316,6.435,6.435,0,0,1,1.155,1.83,9.245,9.245,0,0,1,.593,2.055,12.132,12.132,0,0,1,.172,1.969V0ZM27.69,0V-16.2h2.4v4.335h.3V0Zm24.9.45a7.693,7.693,0,0,1-4.17-1.1,7.219,7.219,0,0,1-2.689-3.026,10.021,10.021,0,0,1-.941-4.444,9.88,9.88,0,0,1,.96-4.466,7.2,7.2,0,0,1,2.711-3A7.749,7.749,0,0,1,52.59-16.65a7.747,7.747,0,0,1,4.181,1.091,7.2,7.2,0,0,1,2.692,3.015A9.955,9.955,0,0,1,60.4-8.115a10,10,0,0,1-.949,4.47,7.182,7.182,0,0,1-2.7,3.011A7.764,7.764,0,0,1,52.59.45Zm0-2.535a4.344,4.344,0,0,0,3.746-1.68,7.167,7.167,0,0,0,1.234-4.35,7.023,7.023,0,0,0-1.245-4.369,4.4,4.4,0,0,0-3.735-1.631,4.779,4.779,0,0,0-2.794.765,4.549,4.549,0,0,0-1.635,2.115,8.41,8.41,0,0,0-.536,3.12,7.029,7.029,0,0,0,1.26,4.384A4.378,4.378,0,0,0,52.59-2.085ZM67.485,0,61.6-16.2h2.7L68.85-3.4l4.53-12.8H76.1L70.215,0ZM82.5.45a6.327,6.327,0,0,1-3.041-.664,4.522,4.522,0,0,1-1.845-1.763,4.815,4.815,0,0,1-.619-2.4,4.742,4.742,0,0,1,.484-2.209,4.319,4.319,0,0,1,1.373-1.56,7.122,7.122,0,0,1,2.119-.986q1.155-.307,2.584-.544t2.9-.427q1.47-.191,2.753-.379l-.96.555a4.639,4.639,0,0,0-.866-3.191,3.974,3.974,0,0,0-3.124-1.039,4.868,4.868,0,0,0-2.576.671,3.6,3.6,0,0,0-1.549,2.164L77.6-12.09a5.881,5.881,0,0,1,2.261-3.345,7.4,7.4,0,0,1,4.429-1.215,8.4,8.4,0,0,1,3.78.787,4.692,4.692,0,0,1,2.28,2.378,5.115,5.115,0,0,1,.435,1.627,18.021,18.021,0,0,1,.09,1.838V0H88.5V-3.885l.555.36A6.625,6.625,0,0,1,86.494-.551,7.547,7.547,0,0,1,82.5.45Zm.4-2.235A5.659,5.659,0,0,0,85.4-2.3a4.629,4.629,0,0,0,1.7-1.365,4.443,4.443,0,0,0,.84-1.856,6.672,6.672,0,0,0,.244-1.669q.026-.919.026-1.421l.93.4q-1.305.188-2.569.352T84.188-7.5a17.874,17.874,0,0,0-2.018.439,6.1,6.1,0,0,0-1.241.544A2.811,2.811,0,0,0,80-5.67a2.212,2.212,0,0,0-.352,1.275,2.549,2.549,0,0,0,.334,1.264,2.471,2.471,0,0,0,1.05.971A4.035,4.035,0,0,0,82.9-1.785ZM103.815,0a12.05,12.05,0,0,1-2.846.24,6.365,6.365,0,0,1-2.5-.57A3.493,3.493,0,0,1,96.81-1.95a4.662,4.662,0,0,1-.518-1.935q-.038-.982-.037-2.235V-20.7h2.67V-6.24q0,1,.022,1.7a2.622,2.622,0,0,0,.308,1.211A2.19,2.19,0,0,0,100.972-2.2a10.084,10.084,0,0,0,2.842-.094ZM92.97-14v-2.2h10.845V-14Zm14.445-5.07v-2.76h2.67v2.76Zm0,19.065V-16.2h2.67V0Zm14.07.45a7.693,7.693,0,0,1-4.17-1.1,7.219,7.219,0,0,1-2.689-3.026,10.021,10.021,0,0,1-.941-4.444,9.88,9.88,0,0,1,.96-4.466,7.2,7.2,0,0,1,2.711-3,7.749,7.749,0,0,1,4.129-1.073,7.747,7.747,0,0,1,4.181,1.091,7.2,7.2,0,0,1,2.692,3.015,9.955,9.955,0,0,1,.941,4.429,10,10,0,0,1-.949,4.47,7.182,7.182,0,0,1-2.7,3.011A7.764,7.764,0,0,1,121.485.45Zm0-2.535a4.344,4.344,0,0,0,3.746-1.68,7.167,7.167,0,0,0,1.234-4.35,7.023,7.023,0,0,0-1.245-4.369,4.4,4.4,0,0,0-3.735-1.631,4.779,4.779,0,0,0-2.794.765,4.549,4.549,0,0,0-1.635,2.115,8.41,8.41,0,0,0-.536,3.12,7.029,7.029,0,0,0,1.26,4.384A4.378,4.378,0,0,0,121.485-2.085ZM144.135,0V-8.115a11.614,11.614,0,0,0-.206-2.212,5.97,5.97,0,0,0-.709-1.916,3.727,3.727,0,0,0-1.35-1.346,4.17,4.17,0,0,0-2.13-.495,4.716,4.716,0,0,0-1.826.341,3.681,3.681,0,0,0-1.406,1.027,4.784,4.784,0,0,0-.9,1.729,8.424,8.424,0,0,0-.319,2.453l-1.755-.54a8.924,8.924,0,0,1,.848-4.039,6.12,6.12,0,0,1,2.385-2.6,7,7,0,0,1,3.622-.908,6.575,6.575,0,0,1,2.681.5,5.362,5.362,0,0,1,1.849,1.316,6.435,6.435,0,0,1,1.155,1.83,9.245,9.245,0,0,1,.592,2.055,12.133,12.133,0,0,1,.172,1.969V0Zm-11.55,0V-16.2h2.4v4.335h.3V0Z" transform="translate(22379.678 -1788.438)" fill="#fff"/>
          <path id="Path_12896" data-name="Path 12896" d="M10.98,32.45A10.043,10.043,0,0,1,5.5,31.025a9.088,9.088,0,0,1-3.424-3.96A13.822,13.822,0,0,1,.9,21.2a13.822,13.822,0,0,1,1.174-5.865A9.088,9.088,0,0,1,5.5,11.375,10.043,10.043,0,0,1,10.98,9.95a9.655,9.655,0,0,1,6.169,1.909,9.754,9.754,0,0,1,3.341,5.126l-2.715.72a7.239,7.239,0,0,0-2.359-3.81,6.766,6.766,0,0,0-4.436-1.4,6.973,6.973,0,0,0-4.02,1.095,6.677,6.677,0,0,0-2.415,3.056A12.034,12.034,0,0,0,3.72,21.2a11.64,11.64,0,0,0,.795,4.545A6.667,6.667,0,0,0,6.945,28.8a7.028,7.028,0,0,0,4.035,1.1,6.742,6.742,0,0,0,4.436-1.4,7.276,7.276,0,0,0,2.359-3.8l2.715.72a9.754,9.754,0,0,1-3.341,5.126A9.655,9.655,0,0,1,10.98,32.45Zm19.71,0a7.693,7.693,0,0,1-4.17-1.1,7.219,7.219,0,0,1-2.689-3.026,10.021,10.021,0,0,1-.941-4.444,9.88,9.88,0,0,1,.96-4.466,7.2,7.2,0,0,1,2.711-3A7.749,7.749,0,0,1,30.69,15.35a7.747,7.747,0,0,1,4.181,1.091,7.2,7.2,0,0,1,2.693,3.015,9.955,9.955,0,0,1,.941,4.429,10,10,0,0,1-.949,4.47,7.182,7.182,0,0,1-2.7,3.011A7.764,7.764,0,0,1,30.69,32.45Zm0-2.535a4.344,4.344,0,0,0,3.746-1.68,7.167,7.167,0,0,0,1.234-4.35,7.023,7.023,0,0,0-1.245-4.369,4.4,4.4,0,0,0-3.735-1.631,4.779,4.779,0,0,0-2.794.765,4.549,4.549,0,0,0-1.635,2.115,8.41,8.41,0,0,0-.536,3.12,7.029,7.029,0,0,0,1.26,4.384A4.378,4.378,0,0,0,30.69,29.915ZM61.17,32l.015-10.365a3.972,3.972,0,0,0-.971-2.843,3.3,3.3,0,0,0-2.509-1.028,3.684,3.684,0,0,0-1.714.416,3.244,3.244,0,0,0-1.316,1.29,4.4,4.4,0,0,0-.51,2.239l-1.41-.57a5.721,5.721,0,0,1,.705-3.022A5.247,5.247,0,0,1,55.5,16.1a5.889,5.889,0,0,1,2.914-.72,5.223,5.223,0,0,1,3.99,1.541,5.769,5.769,0,0,1,1.455,4.129L63.84,32ZM41.79,32V15.8h2.385v4.335h.3V32ZM51.5,32l.015-10.26a4.183,4.183,0,0,0-.96-2.914,3.572,3.572,0,0,0-5.1.023,4.126,4.126,0,0,0-.971,2.861l-1.41-.84a5.338,5.338,0,0,1,.75-2.816,5.4,5.4,0,0,1,2.04-1.958,5.923,5.923,0,0,1,2.925-.716,5.629,5.629,0,0,1,2.846.694A4.724,4.724,0,0,1,53.5,18.05a6.545,6.545,0,0,1,.664,3.045L54.15,32ZM87.12,32l.015-10.365a3.972,3.972,0,0,0-.971-2.843,3.3,3.3,0,0,0-2.509-1.028,3.684,3.684,0,0,0-1.714.416,3.244,3.244,0,0,0-1.316,1.29,4.4,4.4,0,0,0-.51,2.239l-1.41-.57a5.721,5.721,0,0,1,.7-3.022A5.247,5.247,0,0,1,81.446,16.1a5.889,5.889,0,0,1,2.914-.72,5.223,5.223,0,0,1,3.99,1.541,5.769,5.769,0,0,1,1.455,4.129L89.79,32ZM67.74,32V15.8h2.385v4.335h.3V32Zm9.705,0,.015-10.26a4.183,4.183,0,0,0-.96-2.914,3.572,3.572,0,0,0-5.1.023,4.126,4.126,0,0,0-.971,2.861l-1.41-.84a5.338,5.338,0,0,1,.75-2.816,5.4,5.4,0,0,1,2.04-1.958,5.923,5.923,0,0,1,2.925-.716,5.629,5.629,0,0,1,2.846.694,4.724,4.724,0,0,1,1.875,1.976,6.545,6.545,0,0,1,.664,3.045L80.1,32Zm22.41.42a6.575,6.575,0,0,1-2.681-.495,5.362,5.362,0,0,1-1.849-1.316,6.435,6.435,0,0,1-1.155-1.83,9.244,9.244,0,0,1-.592-2.055,12.132,12.132,0,0,1-.173-1.969V15.8h2.7v8.115a11.632,11.632,0,0,0,.206,2.209,5.97,5.97,0,0,0,.709,1.92,3.727,3.727,0,0,0,1.35,1.346,4.17,4.17,0,0,0,2.13.5,4.716,4.716,0,0,0,1.826-.341,3.681,3.681,0,0,0,1.406-1.028,4.781,4.781,0,0,0,.9-1.733,8.433,8.433,0,0,0,.319-2.449l1.755.54a8.924,8.924,0,0,1-.848,4.039,6.12,6.12,0,0,1-2.385,2.6A7,7,0,0,1,99.855,32.42Zm5.4-.42V27.665h-.3V15.8h2.685V32Zm18.12,0V23.885a11.614,11.614,0,0,0-.206-2.212,5.97,5.97,0,0,0-.709-1.916,3.727,3.727,0,0,0-1.35-1.346,4.17,4.17,0,0,0-2.13-.495,4.716,4.716,0,0,0-1.826.341,3.681,3.681,0,0,0-1.406,1.027,4.784,4.784,0,0,0-.9,1.729,8.424,8.424,0,0,0-.319,2.452l-1.755-.54a8.924,8.924,0,0,1,.848-4.039,6.12,6.12,0,0,1,2.385-2.6,7,7,0,0,1,3.623-.907,6.575,6.575,0,0,1,2.681.5,5.362,5.362,0,0,1,1.849,1.316,6.435,6.435,0,0,1,1.155,1.83,9.245,9.245,0,0,1,.592,2.055,12.132,12.132,0,0,1,.173,1.969V32Zm-11.55,0V15.8h2.4v4.335h.3V32Zm18.45-19.065v-2.76h2.67v2.76Zm0,19.065V15.8h2.67V32Zm14,.45a7.587,7.587,0,0,1-4.185-1.1,7.062,7.062,0,0,1-2.618-3.034,10.567,10.567,0,0,1-.923-4.414,10.425,10.425,0,0,1,.945-4.455,7.075,7.075,0,0,1,2.647-3.011,8.437,8.437,0,0,1,8.573.176,6.109,6.109,0,0,1,2.49,3.45l-2.64.8a4.395,4.395,0,0,0-1.665-2.19,4.56,4.56,0,0,0-6.975,2.122,8.8,8.8,0,0,0-.54,3.112,7.252,7.252,0,0,0,1.249,4.361,4.245,4.245,0,0,0,3.641,1.654,4.193,4.193,0,0,0,4.23-2.835l2.7.7a6.975,6.975,0,0,1-2.632,3.465A7.522,7.522,0,0,1,144.27,32.45Zm14.46,0a6.327,6.327,0,0,1-3.041-.664,4.522,4.522,0,0,1-1.845-1.762,4.815,4.815,0,0,1-.619-2.4,4.742,4.742,0,0,1,.484-2.209,4.319,4.319,0,0,1,1.372-1.56,7.122,7.122,0,0,1,2.119-.986q1.155-.307,2.584-.544t2.9-.428q1.47-.191,2.753-.379l-.96.555a4.639,4.639,0,0,0-.866-3.191,3.974,3.974,0,0,0-3.124-1.039,4.868,4.868,0,0,0-2.576.671,3.6,3.6,0,0,0-1.549,2.164l-2.535-.765a5.881,5.881,0,0,1,2.261-3.345,7.4,7.4,0,0,1,4.429-1.215,8.4,8.4,0,0,1,3.78.788,4.692,4.692,0,0,1,2.28,2.377,5.114,5.114,0,0,1,.435,1.628,18.021,18.021,0,0,1,.09,1.837V32h-2.37V28.115l.555.36a6.625,6.625,0,0,1-2.561,2.974A7.547,7.547,0,0,1,158.73,32.45Zm.4-2.235a5.659,5.659,0,0,0,2.5-.514,4.629,4.629,0,0,0,1.7-1.365,4.443,4.443,0,0,0,.84-1.856,6.672,6.672,0,0,0,.244-1.669q.026-.919.026-1.421l.93.405q-1.305.188-2.569.352t-2.389.349a17.874,17.874,0,0,0-2.018.439,6.1,6.1,0,0,0-1.241.544,2.811,2.811,0,0,0-.926.851,2.212,2.212,0,0,0-.353,1.275,2.548,2.548,0,0,0,.334,1.264,2.471,2.471,0,0,0,1.05.971A4.035,4.035,0,0,0,159.135,30.215ZM180.045,32a12.05,12.05,0,0,1-2.846.24,6.365,6.365,0,0,1-2.5-.57,3.493,3.493,0,0,1-1.661-1.62,4.662,4.662,0,0,1-.518-1.935q-.037-.983-.037-2.235V11.3h2.67V25.76q0,1,.022,1.7a2.622,2.622,0,0,0,.308,1.211A2.19,2.19,0,0,0,177.2,29.8a10.084,10.084,0,0,0,2.842-.094ZM169.2,18V15.8h10.845V18Zm14.445-5.07v-2.76h2.67v2.76Zm0,19.065V15.8h2.67V32Zm14.07.45a7.693,7.693,0,0,1-4.17-1.1,7.219,7.219,0,0,1-2.689-3.026,10.021,10.021,0,0,1-.941-4.444,9.88,9.88,0,0,1,.96-4.466,7.2,7.2,0,0,1,2.711-3,8.52,8.52,0,0,1,8.31.019,7.2,7.2,0,0,1,2.693,3.015,9.955,9.955,0,0,1,.941,4.429,10,10,0,0,1-.949,4.47,7.182,7.182,0,0,1-2.7,3.011A7.764,7.764,0,0,1,197.715,32.45Zm0-2.535a4.344,4.344,0,0,0,3.746-1.68,7.167,7.167,0,0,0,1.234-4.35,7.023,7.023,0,0,0-1.245-4.369,4.4,4.4,0,0,0-3.735-1.631,4.779,4.779,0,0,0-2.794.765,4.549,4.549,0,0,0-1.635,2.115,8.41,8.41,0,0,0-.536,3.12,7.029,7.029,0,0,0,1.26,4.384A4.378,4.378,0,0,0,197.715,29.915ZM220.365,32V23.885a11.614,11.614,0,0,0-.206-2.212,5.97,5.97,0,0,0-.709-1.916,3.727,3.727,0,0,0-1.35-1.346,4.17,4.17,0,0,0-2.13-.495,4.716,4.716,0,0,0-1.826.341,3.681,3.681,0,0,0-1.406,1.027,4.784,4.784,0,0,0-.9,1.729,8.424,8.424,0,0,0-.319,2.452l-1.755-.54a8.924,8.924,0,0,1,.848-4.039,6.12,6.12,0,0,1,2.385-2.6,7,7,0,0,1,3.622-.907,6.575,6.575,0,0,1,2.681.5,5.362,5.362,0,0,1,1.849,1.316,6.435,6.435,0,0,1,1.155,1.83,9.245,9.245,0,0,1,.593,2.055,12.131,12.131,0,0,1,.173,1.969V32Zm-11.55,0V15.8h2.4v4.335h.3V32Z" transform="translate(21331.678 -1820.438)" fill="#fff"/>
          <path id="Path_12894" data-name="Path 12894" d="M2.1,0V-21.6h8.535q.315,0,.746.022a6.649,6.649,0,0,1,.844.1,6.213,6.213,0,0,1,2.94,1.2,5.843,5.843,0,0,1,1.8,2.351,7.921,7.921,0,0,1,.6,3.135,7.3,7.3,0,0,1-1.305,4.346,5.752,5.752,0,0,1-3.825,2.3l-1.02.165H4.77V0ZM14.955,0l-4.26-8.79,2.64-.81L18.015,0ZM4.77-10.515h5.775q.285,0,.649-.03a5.2,5.2,0,0,0,.7-.1,3.39,3.39,0,0,0,1.684-.874,3.917,3.917,0,0,0,.952-1.5,5.27,5.27,0,0,0,.3-1.762,5.27,5.27,0,0,0-.3-1.762,3.917,3.917,0,0,0-.952-1.5,3.39,3.39,0,0,0-1.684-.874,4.231,4.231,0,0,0-.7-.109q-.364-.026-.649-.026H4.77ZM28.335.45A8.025,8.025,0,0,1,24.165-.6,7.22,7.22,0,0,1,21.4-3.559a9.5,9.5,0,0,1-.986-4.436,10.169,10.169,0,0,1,.971-4.6,7.144,7.144,0,0,1,2.722-3,7.789,7.789,0,0,1,4.106-1.057,7.416,7.416,0,0,1,4.155,1.125,6.865,6.865,0,0,1,2.584,3.21,11.546,11.546,0,0,1,.739,4.965H33v-.96a7.3,7.3,0,0,0-1.215-4.462,4.17,4.17,0,0,0-3.48-1.477,4.562,4.562,0,0,0-3.769,1.59A7.092,7.092,0,0,0,23.25-8.1a6.843,6.843,0,0,0,1.286,4.44,4.478,4.478,0,0,0,3.679,1.575,5.185,5.185,0,0,0,2.79-.735,5,5,0,0,0,1.86-2.115l2.565.885A7.286,7.286,0,0,1,32.584-.728,7.882,7.882,0,0,1,28.335.45ZM22.35-7.35V-9.495H34.32V-7.35Zm23.235,15a8.171,8.171,0,0,1-2.49-.386A7.11,7.11,0,0,1,40.868,6.09,6.518,6.518,0,0,1,39.18,4.1l2.445-1.29a3.7,3.7,0,0,0,1.7,1.729A5.131,5.131,0,0,0,45.6,5.07a5.241,5.241,0,0,0,2.561-.562,3.445,3.445,0,0,0,1.507-1.673,6.673,6.673,0,0,0,.476-2.76V-4.35h.315V-16.2h2.37V.105q0,.668-.041,1.279a10.347,10.347,0,0,1-.154,1.211A6.053,6.053,0,0,1,51.39,5.438,5.591,5.591,0,0,1,48.99,7.1,9.729,9.729,0,0,1,45.585,7.65ZM45.39.45A6.642,6.642,0,0,1,41.5-.679,7.292,7.292,0,0,1,39-3.746a10.52,10.52,0,0,1-.874-4.369A10.468,10.468,0,0,1,39-12.476a7.247,7.247,0,0,1,2.5-3.052,6.648,6.648,0,0,1,3.874-1.121,6.468,6.468,0,0,1,3.851,1.114,6.877,6.877,0,0,1,2.366,3.045,11.314,11.314,0,0,1,.8,4.376,11.308,11.308,0,0,1-.8,4.361A7.008,7.008,0,0,1,49.23-.683,6.361,6.361,0,0,1,45.39.45ZM45.72-2A4.354,4.354,0,0,0,48.4-2.783a4.592,4.592,0,0,0,1.553-2.171,9.228,9.228,0,0,0,.5-3.161,9.15,9.15,0,0,0-.506-3.169,4.566,4.566,0,0,0-1.541-2.149A4.256,4.256,0,0,0,45.8-14.2a4.391,4.391,0,0,0-2.722.81,4.766,4.766,0,0,0-1.59,2.19,8.746,8.746,0,0,0-.517,3.09A8.74,8.74,0,0,0,41.49-5a4.868,4.868,0,0,0,1.579,2.2A4.223,4.223,0,0,0,45.72-2Zm11.61-17.07v-2.76H60v2.76ZM57.33,0V-16.2H60V0ZM71.4.45a7.693,7.693,0,0,1-4.17-1.1,7.219,7.219,0,0,1-2.689-3.026A10.021,10.021,0,0,1,63.6-8.115a9.88,9.88,0,0,1,.96-4.466,7.2,7.2,0,0,1,2.711-3A7.749,7.749,0,0,1,71.4-16.65a7.747,7.747,0,0,1,4.181,1.091,7.2,7.2,0,0,1,2.692,3.015,9.955,9.955,0,0,1,.941,4.429,10,10,0,0,1-.949,4.47,7.182,7.182,0,0,1-2.7,3.011A7.764,7.764,0,0,1,71.4.45Zm0-2.535a4.344,4.344,0,0,0,3.746-1.68,7.167,7.167,0,0,0,1.234-4.35,7.023,7.023,0,0,0-1.245-4.369A4.4,4.4,0,0,0,71.4-14.115a4.779,4.779,0,0,0-2.794.765,4.549,4.549,0,0,0-1.635,2.115,8.41,8.41,0,0,0-.536,3.12,7.029,7.029,0,0,0,1.26,4.384A4.378,4.378,0,0,0,71.4-2.085ZM94.05,0V-8.115a11.614,11.614,0,0,0-.206-2.212,5.97,5.97,0,0,0-.709-1.916,3.727,3.727,0,0,0-1.35-1.346,4.17,4.17,0,0,0-2.13-.495,4.716,4.716,0,0,0-1.826.341,3.681,3.681,0,0,0-1.406,1.027,4.784,4.784,0,0,0-.9,1.729A8.424,8.424,0,0,0,85.2-8.535l-1.755-.54a8.924,8.924,0,0,1,.848-4.039,6.12,6.12,0,0,1,2.385-2.6A7,7,0,0,1,90.3-16.62a6.575,6.575,0,0,1,2.681.5,5.362,5.362,0,0,1,1.849,1.316,6.435,6.435,0,0,1,1.155,1.83,9.245,9.245,0,0,1,.592,2.055,12.132,12.132,0,0,1,.173,1.969V0ZM82.5,0V-16.2h2.4v4.335h.3V0Z" transform="translate(21880.678 -1788.438)" fill="#fff"/>
          <path id="Path_12895" data-name="Path 12895" d="M10.845.45A10.289,10.289,0,0,1,6.787-.326,8.807,8.807,0,0,1,3.641-2.565,10.124,10.124,0,0,1,1.613-6.109,14.434,14.434,0,0,1,.9-10.8a13.494,13.494,0,0,1,1.226-5.962,9.158,9.158,0,0,1,3.461-3.9,9.825,9.825,0,0,1,5.258-1.376,9.4,9.4,0,0,1,5.85,1.691,8.6,8.6,0,0,1,3.06,4.609l-2.7.555a6.511,6.511,0,0,0-2.224-3.127,6.221,6.221,0,0,0-3.851-1.178,6.894,6.894,0,0,0-4.016,1.076,6.637,6.637,0,0,0-2.407,3.056A12.114,12.114,0,0,0,3.735-10.8a11.631,11.631,0,0,0,.791,4.538A6.658,6.658,0,0,0,6.949-3.214,7.091,7.091,0,0,0,10.98-2.1a6.911,6.911,0,0,0,3.506-.791,5.492,5.492,0,0,0,2.2-2.336A9.645,9.645,0,0,0,17.64-8.91H13.05v-2.2h7.41q.037.307.049.72t.011.555a12.221,12.221,0,0,1-1.1,5.291A8.484,8.484,0,0,1,16.159-.885,9.914,9.914,0,0,1,10.845.45ZM23.52,0V-16.2h2.385v3.915l-.39-.51a5.907,5.907,0,0,1,.743-1.38,4.488,4.488,0,0,1,1.028-1.035,4.571,4.571,0,0,1,1.421-.772,6.3,6.3,0,0,1,1.624-.323,5.557,5.557,0,0,1,1.545.1v2.505a5.2,5.2,0,0,0-1.849-.113,3.743,3.743,0,0,0-1.856.727,3.946,3.946,0,0,0-1.211,1.354,5.749,5.749,0,0,0-.589,1.714A10.671,10.671,0,0,0,26.2-8.13V0ZM41.325.45a7.693,7.693,0,0,1-4.17-1.1,7.219,7.219,0,0,1-2.689-3.026,10.021,10.021,0,0,1-.941-4.444,9.88,9.88,0,0,1,.96-4.466,7.2,7.2,0,0,1,2.711-3,7.749,7.749,0,0,1,4.129-1.073,7.747,7.747,0,0,1,4.181,1.091A7.2,7.2,0,0,1,48.2-12.544a9.955,9.955,0,0,1,.941,4.429,10,10,0,0,1-.949,4.47,7.182,7.182,0,0,1-2.7,3.011A7.764,7.764,0,0,1,41.325.45Zm0-2.535a4.344,4.344,0,0,0,3.746-1.68,7.167,7.167,0,0,0,1.234-4.35,7.023,7.023,0,0,0-1.245-4.369,4.4,4.4,0,0,0-3.735-1.631,4.779,4.779,0,0,0-2.794.765A4.549,4.549,0,0,0,36.9-11.235a8.41,8.41,0,0,0-.536,3.12,7.029,7.029,0,0,0,1.26,4.384A4.378,4.378,0,0,0,41.325-2.085ZM55.29,0,50.34-16.215,53-16.2,56.61-4.35,60.248-16.2H62.6L66.24-4.35,69.87-16.2h2.64L67.56,0H65.34L61.425-12.315,57.51,0ZM84.255,0a12.05,12.05,0,0,1-2.846.24,6.365,6.365,0,0,1-2.5-.57A3.493,3.493,0,0,1,77.25-1.95a4.662,4.662,0,0,1-.518-1.935q-.038-.982-.037-2.235V-20.7h2.67V-6.24q0,1,.022,1.7a2.622,2.622,0,0,0,.308,1.211A2.19,2.19,0,0,0,81.412-2.2,10.084,10.084,0,0,0,84.255-2.3ZM73.41-14v-2.2H84.255V-14ZM99.09,0V-8.115a11.614,11.614,0,0,0-.206-2.212,5.97,5.97,0,0,0-.709-1.916,3.727,3.727,0,0,0-1.35-1.346,4.17,4.17,0,0,0-2.13-.495,4.716,4.716,0,0,0-1.826.341,3.681,3.681,0,0,0-1.406,1.027,4.784,4.784,0,0,0-.9,1.729,8.424,8.424,0,0,0-.319,2.453l-1.755-.54a8.924,8.924,0,0,1,.848-4.039,6.12,6.12,0,0,1,2.385-2.6,7,7,0,0,1,3.623-.908,6.575,6.575,0,0,1,2.681.5,5.362,5.362,0,0,1,1.849,1.316,6.435,6.435,0,0,1,1.155,1.83,9.245,9.245,0,0,1,.592,2.055,12.132,12.132,0,0,1,.173,1.969V0ZM87.54,0V-21.6h2.4V-9.675h.3V0Z" transform="translate(21666.678 -1788.438)" fill="#fff"/>
          <path id="Path_12893" data-name="Path 12893" d="M2.1,0V-21.6h8.535q.315,0,.746.022a6.649,6.649,0,0,1,.844.1,6.213,6.213,0,0,1,2.94,1.2,5.843,5.843,0,0,1,1.8,2.351,7.921,7.921,0,0,1,.6,3.135,7.878,7.878,0,0,1-.608,3.135,5.874,5.874,0,0,1-1.8,2.351,6.206,6.206,0,0,1-2.932,1.2q-.413.06-.848.09t-.742.03H4.77V0ZM4.77-10.515h5.775q.285,0,.649-.03a5.2,5.2,0,0,0,.7-.1,3.39,3.39,0,0,0,1.684-.874,3.917,3.917,0,0,0,.952-1.5,5.27,5.27,0,0,0,.3-1.762,5.27,5.27,0,0,0-.3-1.762,3.917,3.917,0,0,0-.952-1.5,3.39,3.39,0,0,0-1.684-.874,4.231,4.231,0,0,0-.7-.109q-.364-.026-.649-.026H4.77ZM24.57.45a6.327,6.327,0,0,1-3.041-.664,4.522,4.522,0,0,1-1.845-1.763,4.815,4.815,0,0,1-.619-2.4,4.742,4.742,0,0,1,.484-2.209,4.319,4.319,0,0,1,1.372-1.56,7.122,7.122,0,0,1,2.119-.986q1.155-.307,2.584-.544t2.9-.427q1.47-.191,2.753-.379l-.96.555a4.639,4.639,0,0,0-.866-3.191,3.974,3.974,0,0,0-3.124-1.039,4.868,4.868,0,0,0-2.576.671A3.6,3.6,0,0,0,22.2-11.325l-2.535-.765a5.881,5.881,0,0,1,2.261-3.345,7.4,7.4,0,0,1,4.429-1.215,8.4,8.4,0,0,1,3.78.787,4.692,4.692,0,0,1,2.28,2.378,5.114,5.114,0,0,1,.435,1.627,18.02,18.02,0,0,1,.09,1.838V0H30.57V-3.885l.555.36A6.625,6.625,0,0,1,28.564-.551,7.547,7.547,0,0,1,24.57.45Zm.405-2.235a5.659,5.659,0,0,0,2.5-.514,4.629,4.629,0,0,0,1.7-1.365,4.443,4.443,0,0,0,.84-1.856,6.672,6.672,0,0,0,.244-1.669q.026-.919.026-1.421l.93.4q-1.305.188-2.569.352T26.257-7.5a17.874,17.874,0,0,0-2.017.439A6.1,6.1,0,0,0,23-6.521a2.811,2.811,0,0,0-.926.851,2.212,2.212,0,0,0-.353,1.275,2.548,2.548,0,0,0,.334,1.264,2.471,2.471,0,0,0,1.05.971A4.035,4.035,0,0,0,24.975-1.785ZM36.84,0V-16.2h2.385v3.915l-.39-.51a5.907,5.907,0,0,1,.742-1.38,4.488,4.488,0,0,1,1.028-1.035,4.571,4.571,0,0,1,1.421-.772,6.3,6.3,0,0,1,1.624-.323,5.557,5.557,0,0,1,1.545.1v2.505a5.2,5.2,0,0,0-1.849-.113,3.743,3.743,0,0,0-1.856.727,3.946,3.946,0,0,0-1.211,1.354,5.749,5.749,0,0,0-.589,1.714,10.671,10.671,0,0,0-.165,1.883V0ZM57.09,0a12.05,12.05,0,0,1-2.846.24,6.365,6.365,0,0,1-2.5-.57,3.493,3.493,0,0,1-1.661-1.62,4.661,4.661,0,0,1-.517-1.935q-.038-.982-.038-2.235V-20.7H52.2V-6.24q0,1,.022,1.7A2.622,2.622,0,0,0,52.53-3.33,2.19,2.19,0,0,0,54.247-2.2,10.084,10.084,0,0,0,57.09-2.3ZM46.245-14v-2.2H57.09V-14Zm14.445-5.07v-2.76h2.67v2.76ZM60.69,0V-16.2h2.67V0Zm14,.45A7.587,7.587,0,0,1,70.5-.652a7.062,7.062,0,0,1-2.618-3.034A10.567,10.567,0,0,1,66.96-8.1a10.426,10.426,0,0,1,.945-4.455,7.075,7.075,0,0,1,2.648-3.011,7.668,7.668,0,0,1,4.162-1.084,7.651,7.651,0,0,1,4.41,1.26,6.109,6.109,0,0,1,2.49,3.45l-2.64.8a4.395,4.395,0,0,0-1.665-2.19,4.559,4.559,0,0,0-2.625-.78,4.6,4.6,0,0,0-2.745.772,4.569,4.569,0,0,0-1.605,2.13,8.8,8.8,0,0,0-.54,3.112,7.253,7.253,0,0,0,1.249,4.361,4.245,4.245,0,0,0,3.641,1.654,4.515,4.515,0,0,0,2.632-.727,4.493,4.493,0,0,0,1.6-2.108l2.7.705A6.975,6.975,0,0,1,78.982-.75,7.522,7.522,0,0,1,74.685.45ZM84.54-19.065v-2.76h2.67v2.76ZM84.54,0V-16.2h2.67V0ZM99.15.45A6.362,6.362,0,0,1,95.31-.683a7.008,7.008,0,0,1-2.362-3.071,11.308,11.308,0,0,1-.8-4.361,11.314,11.314,0,0,1,.8-4.376,6.877,6.877,0,0,1,2.366-3.045,6.468,6.468,0,0,1,3.851-1.114,6.648,6.648,0,0,1,3.874,1.121,7.248,7.248,0,0,1,2.5,3.052,10.468,10.468,0,0,1,.874,4.361,10.52,10.52,0,0,1-.874,4.369,7.292,7.292,0,0,1-2.5,3.068A6.642,6.642,0,0,1,99.15.45ZM91.695,7.2V-16.2H94.08V-4.275h.3V7.2ZM98.82-2a4.223,4.223,0,0,0,2.651-.81A4.868,4.868,0,0,0,103.05-5a8.74,8.74,0,0,0,.525-3.112,8.69,8.69,0,0,0-.521-3.09,4.8,4.8,0,0,0-1.59-2.19,4.375,4.375,0,0,0-2.719-.81,4.256,4.256,0,0,0-2.618.773,4.566,4.566,0,0,0-1.541,2.149,9.15,9.15,0,0,0-.506,3.169,9.228,9.228,0,0,0,.5,3.161,4.592,4.592,0,0,0,1.552,2.171A4.354,4.354,0,0,0,98.82-2ZM114.315.45a6.327,6.327,0,0,1-3.041-.664,4.522,4.522,0,0,1-1.845-1.763,4.815,4.815,0,0,1-.619-2.4,4.742,4.742,0,0,1,.484-2.209,4.319,4.319,0,0,1,1.373-1.56,7.122,7.122,0,0,1,2.119-.986q1.155-.307,2.584-.544t2.9-.427q1.47-.191,2.753-.379l-.96.555a4.639,4.639,0,0,0-.866-3.191,3.974,3.974,0,0,0-3.124-1.039,4.868,4.868,0,0,0-2.576.671,3.6,3.6,0,0,0-1.549,2.164l-2.535-.765a5.881,5.881,0,0,1,2.261-3.345A7.4,7.4,0,0,1,116.1-16.65a8.4,8.4,0,0,1,3.78.787,4.692,4.692,0,0,1,2.28,2.378,5.115,5.115,0,0,1,.435,1.627,18.021,18.021,0,0,1,.09,1.838V0h-2.37V-3.885l.555.36a6.625,6.625,0,0,1-2.561,2.974A7.547,7.547,0,0,1,114.315.45Zm.4-2.235a5.659,5.659,0,0,0,2.5-.514,4.629,4.629,0,0,0,1.7-1.365,4.443,4.443,0,0,0,.84-1.856A6.672,6.672,0,0,0,120-7.189q.026-.919.026-1.421l.93.4q-1.305.188-2.569.352T116-7.5a17.874,17.874,0,0,0-2.018.439,6.1,6.1,0,0,0-1.241.544,2.811,2.811,0,0,0-.926.851,2.212,2.212,0,0,0-.352,1.275,2.549,2.549,0,0,0,.334,1.264,2.471,2.471,0,0,0,1.05.971A4.035,4.035,0,0,0,114.72-1.785ZM135.63,0a12.05,12.05,0,0,1-2.846.24,6.365,6.365,0,0,1-2.5-.57,3.493,3.493,0,0,1-1.661-1.62,4.662,4.662,0,0,1-.518-1.935q-.037-.982-.037-2.235V-20.7h2.67V-6.24q0,1,.022,1.7a2.622,2.622,0,0,0,.308,1.211A2.19,2.19,0,0,0,132.788-2.2,10.084,10.084,0,0,0,135.63-2.3ZM124.785-14v-2.2H135.63V-14Zm14.445-5.07v-2.76h2.67v2.76ZM139.23,0V-16.2h2.67V0ZM153.3.45a7.693,7.693,0,0,1-4.17-1.1,7.219,7.219,0,0,1-2.689-3.026,10.021,10.021,0,0,1-.941-4.444,9.88,9.88,0,0,1,.96-4.466,7.2,7.2,0,0,1,2.711-3A7.749,7.749,0,0,1,153.3-16.65a7.747,7.747,0,0,1,4.181,1.091,7.2,7.2,0,0,1,2.693,3.015,9.955,9.955,0,0,1,.941,4.429,10,10,0,0,1-.949,4.47,7.182,7.182,0,0,1-2.7,3.011A7.764,7.764,0,0,1,153.3.45Zm0-2.535a4.344,4.344,0,0,0,3.746-1.68,7.167,7.167,0,0,0,1.234-4.35,7.023,7.023,0,0,0-1.245-4.369,4.4,4.4,0,0,0-3.735-1.631,4.779,4.779,0,0,0-2.794.765,4.549,4.549,0,0,0-1.635,2.115,8.41,8.41,0,0,0-.536,3.12,7.029,7.029,0,0,0,1.26,4.384A4.378,4.378,0,0,0,153.3-2.085ZM175.95,0V-8.115a11.614,11.614,0,0,0-.206-2.212,5.97,5.97,0,0,0-.709-1.916,3.727,3.727,0,0,0-1.35-1.346,4.17,4.17,0,0,0-2.13-.495,4.716,4.716,0,0,0-1.826.341,3.681,3.681,0,0,0-1.406,1.027,4.784,4.784,0,0,0-.9,1.729,8.424,8.424,0,0,0-.319,2.453l-1.755-.54a8.924,8.924,0,0,1,.848-4.039,6.12,6.12,0,0,1,2.385-2.6,7,7,0,0,1,3.622-.908,6.575,6.575,0,0,1,2.681.5,5.362,5.362,0,0,1,1.849,1.316,6.435,6.435,0,0,1,1.155,1.83,9.245,9.245,0,0,1,.592,2.055,12.133,12.133,0,0,1,.172,1.969V0ZM164.4,0V-16.2h2.4v4.335h.3V0Z" transform="translate(22089.678 -1788.438)" fill="#fff"/>
          <path id="Path_12897" data-name="Path 12897" d="M2.1,32V10.4H4.53l8.16,17.2,8.115-17.2h2.46V31.985H20.73V16.265L13.4,32H11.97L4.635,16.265V32Zm31.515.42a6.575,6.575,0,0,1-2.681-.495,5.362,5.362,0,0,1-1.849-1.316,6.435,6.435,0,0,1-1.155-1.83,9.245,9.245,0,0,1-.593-2.055,12.132,12.132,0,0,1-.173-1.969V15.8h2.7v8.115a11.632,11.632,0,0,0,.206,2.209,5.97,5.97,0,0,0,.709,1.92,3.727,3.727,0,0,0,1.35,1.346,4.17,4.17,0,0,0,2.13.5,4.716,4.716,0,0,0,1.826-.341,3.681,3.681,0,0,0,1.406-1.028,4.781,4.781,0,0,0,.9-1.733,8.433,8.433,0,0,0,.319-2.449l1.755.54a8.924,8.924,0,0,1-.848,4.039,6.12,6.12,0,0,1-2.385,2.6A7,7,0,0,1,33.615,32.42Zm5.4-.42V27.665h-.3V15.8H41.4V32Zm18.12,0V23.885a11.614,11.614,0,0,0-.206-2.212,5.97,5.97,0,0,0-.709-1.916,3.727,3.727,0,0,0-1.35-1.346,4.17,4.17,0,0,0-2.13-.495,4.716,4.716,0,0,0-1.826.341,3.681,3.681,0,0,0-1.406,1.027,4.784,4.784,0,0,0-.9,1.729,8.424,8.424,0,0,0-.319,2.452l-1.755-.54a8.924,8.924,0,0,1,.847-4.039,6.12,6.12,0,0,1,2.385-2.6,7,7,0,0,1,3.622-.907,6.575,6.575,0,0,1,2.681.5,5.362,5.362,0,0,1,1.849,1.316,6.435,6.435,0,0,1,1.155,1.83,9.245,9.245,0,0,1,.592,2.055,12.132,12.132,0,0,1,.173,1.969V32Zm-11.55,0V15.8h2.4v4.335h.3V32Zm18.45-19.065v-2.76h2.67v2.76Zm0,19.065V15.8h2.67V32Zm14,.45a7.587,7.587,0,0,1-4.185-1.1,7.062,7.062,0,0,1-2.618-3.034,10.567,10.567,0,0,1-.923-4.414,10.426,10.426,0,0,1,.945-4.455A7.075,7.075,0,0,1,73.9,16.434a8.437,8.437,0,0,1,8.572.176,6.109,6.109,0,0,1,2.49,3.45l-2.64.8a4.395,4.395,0,0,0-1.665-2.19,4.56,4.56,0,0,0-6.975,2.122,8.8,8.8,0,0,0-.54,3.112,7.253,7.253,0,0,0,1.249,4.361,4.245,4.245,0,0,0,3.641,1.654,4.193,4.193,0,0,0,4.23-2.835l2.7.7a6.975,6.975,0,0,1-2.633,3.465A7.522,7.522,0,0,1,78.03,32.45Zm9.855-19.515v-2.76h2.67v2.76Zm0,19.065V15.8h2.67V32Zm14.61.45a6.362,6.362,0,0,1-3.84-1.133,7.008,7.008,0,0,1-2.362-3.071,11.308,11.308,0,0,1-.8-4.361,11.314,11.314,0,0,1,.8-4.376,6.877,6.877,0,0,1,2.366-3.045,6.468,6.468,0,0,1,3.851-1.114,6.648,6.648,0,0,1,3.874,1.121,7.248,7.248,0,0,1,2.5,3.052,10.468,10.468,0,0,1,.874,4.361,10.52,10.52,0,0,1-.874,4.369,7.292,7.292,0,0,1-2.5,3.068A6.642,6.642,0,0,1,102.5,32.45ZM95.04,39.2V15.8h2.385V27.725h.3V39.2Zm7.125-9.2a4.223,4.223,0,0,0,2.651-.81A4.868,4.868,0,0,0,106.4,27a8.74,8.74,0,0,0,.525-3.112,8.69,8.69,0,0,0-.521-3.09,4.8,4.8,0,0,0-1.59-2.19,4.375,4.375,0,0,0-2.719-.81,4.256,4.256,0,0,0-2.618.773,4.566,4.566,0,0,0-1.541,2.149,9.15,9.15,0,0,0-.506,3.169,9.228,9.228,0,0,0,.5,3.161,4.592,4.592,0,0,0,1.552,2.171A4.354,4.354,0,0,0,102.165,30Zm15.5,2.445a6.327,6.327,0,0,1-3.041-.664,4.522,4.522,0,0,1-1.845-1.762,4.815,4.815,0,0,1-.619-2.4,4.742,4.742,0,0,1,.484-2.209,4.319,4.319,0,0,1,1.373-1.56,7.122,7.122,0,0,1,2.119-.986q1.155-.307,2.584-.544t2.9-.428q1.47-.191,2.753-.379l-.96.555a4.639,4.639,0,0,0-.866-3.191,3.974,3.974,0,0,0-3.124-1.039,4.868,4.868,0,0,0-2.576.671,3.6,3.6,0,0,0-1.549,2.164l-2.535-.765a5.881,5.881,0,0,1,2.261-3.345,7.4,7.4,0,0,1,4.429-1.215,8.4,8.4,0,0,1,3.78.788,4.692,4.692,0,0,1,2.28,2.377,5.115,5.115,0,0,1,.435,1.628,18.021,18.021,0,0,1,.09,1.837V32h-2.37V28.115l.555.36a6.625,6.625,0,0,1-2.561,2.974A7.547,7.547,0,0,1,117.66,32.45Zm.4-2.235a5.659,5.659,0,0,0,2.5-.514,4.629,4.629,0,0,0,1.7-1.365,4.443,4.443,0,0,0,.84-1.856,6.672,6.672,0,0,0,.244-1.669q.026-.919.026-1.421l.93.405q-1.305.188-2.569.352t-2.389.349a17.874,17.874,0,0,0-2.018.439,6.1,6.1,0,0,0-1.241.544,2.811,2.811,0,0,0-.926.851,2.212,2.212,0,0,0-.352,1.275,2.549,2.549,0,0,0,.334,1.264,2.471,2.471,0,0,0,1.05.971A4.035,4.035,0,0,0,118.065,30.215ZM130.23,32V9.95h2.67V32Zm7.47-19.065v-2.76h2.67v2.76ZM137.7,32V15.8h2.67V32Zm16.215,0a12.05,12.05,0,0,1-2.846.24,6.365,6.365,0,0,1-2.5-.57,3.493,3.493,0,0,1-1.661-1.62,4.662,4.662,0,0,1-.518-1.935q-.037-.983-.037-2.235V11.3h2.67V25.76q0,1,.022,1.7a2.622,2.622,0,0,0,.308,1.211,2.19,2.19,0,0,0,1.717,1.129,10.084,10.084,0,0,0,2.842-.094ZM143.07,18V15.8h10.845V18Zm15.945,21.2,3.135-8.52.045,2.52-7.08-17.4h2.805l5.55,14h-.96l5.205-14h2.715l-8.82,23.4Z" transform="translate(21050.678 -1820.438)" fill="#fff"/>
        </g>
      </g>
    </g>
  </g>
</svg>
