<svg xmlns="http://www.w3.org/2000/svg" xmlns:xlink="http://www.w3.org/1999/xlink" width="1769" height="167" viewBox="0 0 1769 167">
  <defs>
    <clipPath id="clip-path">
      <rect id="Rectangle_5557" data-name="Rectangle 5557" width="1769" height="167" transform="translate(151 965)" fill="#fff" stroke="#707070" stroke-width="1"/>
    </clipPath>
    <linearGradient id="linear-gradient" x1="0.982" y1="0.539" x2="0.135" y2="0.483" gradientUnits="objectBoundingBox">
      <stop offset="0" stop-color="#8668a9"/>
      <stop offset="0.163" stop-color="#4180d2"/>
      <stop offset="0.261" stop-color="#52adde"/>
      <stop offset="0.424" stop-color="#67b364"/>
      <stop offset="0.562" stop-color="#9fcb5f"/>
      <stop offset="0.709" stop-color="#f7c549"/>
      <stop offset="0.852" stop-color="#e6953d"/>
      <stop offset="1" stop-color="#e27270"/>
    </linearGradient>
  </defs>
  <g id="HERO_RIBBON" transform="translate(-151 -965)">
    <g id="Mask_Group_12174" data-name="Mask Group 12174" clip-path="url(#clip-path)">
      <g id="Group_12638" data-name="Group 12638">
        <g id="HERO_RIBBON_BW" transform="translate(-172.381 965.157) rotate(3)" opacity="0.402">
          <g id="Rectangle_5062" data-name="Rectangle 5062" transform="translate(0 0)" fill="none" stroke="#000" stroke-width="1">
            <rect width="2508.998" height="53.45" stroke="none"/>
            <rect x="0.5" y="0.5" width="2507.998" height="52.45" fill="none"/>
          </g>
          <path id="Path_12166" data-name="Path 12166" d="M2.1,32V10.4H4.77V20.54L14.22,10.4h3.36L7.77,20.885,18.345,32h-3.45L4.77,21.44V32Zm23.55.45a6.746,6.746,0,0,1-3.93-1.129,7.238,7.238,0,0,1-2.505-3.064,10.514,10.514,0,0,1-.87-4.358,10.448,10.448,0,0,1,.877-4.369,7.228,7.228,0,0,1,2.528-3.056,6.886,6.886,0,0,1,3.975-1.125,6.162,6.162,0,0,1,3.694,1.091,5.868,5.868,0,0,1,2.156,3l-.45.78V15.8H33.51V32H31.125V27.53l.45.78a5.834,5.834,0,0,1-2.2,3.038A6.3,6.3,0,0,1,25.65,32.45ZM25.98,30a4.27,4.27,0,0,0,2.648-.787,4.613,4.613,0,0,0,1.545-2.171,9.228,9.228,0,0,0,.5-3.161,9.15,9.15,0,0,0-.506-3.169,4.566,4.566,0,0,0-1.541-2.149A4.256,4.256,0,0,0,26.01,17.8a4.441,4.441,0,0,0-2.659.773,4.709,4.709,0,0,0-1.624,2.149A8.571,8.571,0,0,0,21.18,23.9a8.72,8.72,0,0,0,.521,3.094,4.835,4.835,0,0,0,1.586,2.2A4.307,4.307,0,0,0,25.98,30Zm15.8,2.13a5.549,5.549,0,0,1-1.781-.6,3.61,3.61,0,0,1-1.4-1.444,4.172,4.172,0,0,1-.551-1.9q-.034-.971-.034-2.314V15.8h2.67v9.96q0,1.02.015,1.695a2.673,2.673,0,0,0,.315,1.23,2.06,2.06,0,0,0,.81.814,3.007,3.007,0,0,0,1.08.326,10.7,10.7,0,0,0,1.339.022,9.83,9.83,0,0,0,1.331-.142V32a7.462,7.462,0,0,1-1.245.2,12.461,12.461,0,0,1-1.361.038A9.269,9.269,0,0,1,41.783,32.135ZM51.757,32l-5.88-16.2h2.7l4.545,12.8,4.53-12.8h2.715L54.487,32Zm17.61.45a7.679,7.679,0,0,1-4.162-1.1,7.239,7.239,0,0,1-2.693-3.03,9.994,9.994,0,0,1-.945-4.44,9.874,9.874,0,0,1,.96-4.47,7.192,7.192,0,0,1,2.715-2.993,8.533,8.533,0,0,1,8.31.015,7.133,7.133,0,0,1,2.693,3.015,10.013,10.013,0,0,1,.938,4.433,10.018,10.018,0,0,1-.945,4.462,7.182,7.182,0,0,1-2.7,3.015A7.758,7.758,0,0,1,69.368,32.45Zm0-2.535a4.342,4.342,0,0,0,3.75-1.68,7.183,7.183,0,0,0,1.23-4.35A7.019,7.019,0,0,0,73.1,19.513a4.407,4.407,0,0,0-3.735-1.628,4.761,4.761,0,0,0-2.79.765,4.581,4.581,0,0,0-1.635,2.115,8.358,8.358,0,0,0-.54,3.12,7.032,7.032,0,0,0,1.26,4.38A4.374,4.374,0,0,0,69.368,29.915Zm18.795,2.22a5.549,5.549,0,0,1-1.781-.6,3.61,3.61,0,0,1-1.4-1.444,4.172,4.172,0,0,1-.551-1.9q-.034-.971-.034-2.314V18.23h-5.64V15.8h13.95v2.43h-5.64v7.53q0,1.02.015,1.695a2.673,2.673,0,0,0,.315,1.23,2.06,2.06,0,0,0,.81.814,3.007,3.007,0,0,0,1.08.326,10.7,10.7,0,0,0,1.339.022,9.83,9.83,0,0,0,1.331-.142V32a7.457,7.457,0,0,1-1.241.2,12.427,12.427,0,0,1-1.361.038A9.292,9.292,0,0,1,88.162,32.135Zm14.07.315a7.679,7.679,0,0,1-4.162-1.1,7.239,7.239,0,0,1-2.693-3.03,9.994,9.994,0,0,1-.945-4.44,9.874,9.874,0,0,1,.96-4.47,7.192,7.192,0,0,1,2.715-2.993,8.533,8.533,0,0,1,8.31.015,7.133,7.133,0,0,1,2.693,3.015,10.013,10.013,0,0,1,.938,4.433,10.018,10.018,0,0,1-.945,4.462,7.182,7.182,0,0,1-2.7,3.015A7.758,7.758,0,0,1,102.232,32.45Zm0-2.535a4.342,4.342,0,0,0,3.75-1.68,7.183,7.183,0,0,0,1.23-4.35,7.019,7.019,0,0,0-1.245-4.372,4.407,4.407,0,0,0-3.735-1.628,4.761,4.761,0,0,0-2.79.765,4.581,4.581,0,0,0-1.635,2.115,8.358,8.358,0,0,0-.54,3.12,7.032,7.032,0,0,0,1.26,4.38A4.374,4.374,0,0,0,102.232,29.915Zm11.1,9.285V15.8h2.7v8.115a11.633,11.633,0,0,0,.206,2.209,5.97,5.97,0,0,0,.709,1.92,3.727,3.727,0,0,0,1.35,1.346,4.17,4.17,0,0,0,2.13.5,4.716,4.716,0,0,0,1.826-.341,3.681,3.681,0,0,0,1.406-1.028,4.781,4.781,0,0,0,.9-1.733,8.433,8.433,0,0,0,.319-2.449V15.8h2.685V32h-2.385V29.855a5.637,5.637,0,0,1-2.276,1.916,7.3,7.3,0,0,1-3.124.649,5.926,5.926,0,0,1-2.336-.435,4.687,4.687,0,0,1-1.729-1.245V39.2Zm21.21-25.875h-2.175l1.965-4.95h2.175Zm1.3,18.81a5.549,5.549,0,0,1-1.781-.6,3.61,3.61,0,0,1-1.4-1.444,4.173,4.173,0,0,1-.551-1.9q-.034-.971-.034-2.314V15.8h2.67v9.96q0,1.02.015,1.695a2.673,2.673,0,0,0,.315,1.23,2.06,2.06,0,0,0,.81.814,3.007,3.007,0,0,0,1.08.326,10.7,10.7,0,0,0,1.339.022,9.83,9.83,0,0,0,1.331-.142V32a7.462,7.462,0,0,1-1.245.2,12.461,12.461,0,0,1-1.361.038A9.269,9.269,0,0,1,135.84,32.135Zm12.6.315a6.746,6.746,0,0,1-3.93-1.129,7.238,7.238,0,0,1-2.5-3.064,10.514,10.514,0,0,1-.87-4.358,10.448,10.448,0,0,1,.878-4.369,7.228,7.228,0,0,1,2.527-3.056,6.886,6.886,0,0,1,3.975-1.125,6.162,6.162,0,0,1,3.694,1.091,5.868,5.868,0,0,1,2.156,3l-.45.78V15.8H156.3V32h-2.385V27.53l.45.78a5.834,5.834,0,0,1-2.2,3.038A6.3,6.3,0,0,1,148.44,32.45ZM148.77,30a4.27,4.27,0,0,0,2.647-.787,4.613,4.613,0,0,0,1.545-2.171,9.228,9.228,0,0,0,.5-3.161,9.15,9.15,0,0,0-.506-3.169,4.566,4.566,0,0,0-1.541-2.149A4.256,4.256,0,0,0,148.8,17.8a4.441,4.441,0,0,0-2.659.773,4.709,4.709,0,0,0-1.624,2.149,8.571,8.571,0,0,0-.548,3.184,8.721,8.721,0,0,0,.521,3.094,4.835,4.835,0,0,0,1.586,2.2A4.307,4.307,0,0,0,148.77,30Z" transform="translate(460 6.528)"/>
          <path id="Path_12161" data-name="Path 12161" d="M2.1,32V10.4H15.75v2.535H4.77V19.7h9.18v2.535H4.77v7.23H15.75V32Zm19.05,0V18.23h-3V15.8H36.18v2.43h-3V32H30.51V18.23H23.82V32Zm22.1.135a5.549,5.549,0,0,1-1.781-.6,3.61,3.61,0,0,1-1.4-1.444,4.172,4.172,0,0,1-.551-1.9q-.034-.971-.034-2.314V15.8h2.67v9.96q0,1.02.015,1.695a2.673,2.673,0,0,0,.315,1.23,2.06,2.06,0,0,0,.81.814,3.007,3.007,0,0,0,1.08.326,10.7,10.7,0,0,0,1.339.022,9.83,9.83,0,0,0,1.331-.142V32a7.462,7.462,0,0,1-1.245.2,12.461,12.461,0,0,1-1.361.038A9.269,9.269,0,0,1,43.253,32.135ZM50.333,32l.015-16.2h2.7v7.8l6.8-7.8h3.465l-7.155,8.1L64.147,32H60.413l-7.365-7.8V32Zm21.915.45a7.679,7.679,0,0,1-4.162-1.1,7.239,7.239,0,0,1-2.692-3.03,9.994,9.994,0,0,1-.945-4.44,9.874,9.874,0,0,1,.96-4.47,7.192,7.192,0,0,1,2.715-2.993,8.533,8.533,0,0,1,8.31.015,7.133,7.133,0,0,1,2.692,3.015,10.013,10.013,0,0,1,.938,4.433,10.018,10.018,0,0,1-.945,4.462,7.182,7.182,0,0,1-2.7,3.015A7.758,7.758,0,0,1,72.247,32.45Zm0-2.535A4.342,4.342,0,0,0,76,28.235a7.183,7.183,0,0,0,1.23-4.35,7.019,7.019,0,0,0-1.245-4.372,4.407,4.407,0,0,0-3.735-1.628,4.761,4.761,0,0,0-2.79.765,4.581,4.581,0,0,0-1.635,2.115,8.358,8.358,0,0,0-.54,3.12,7.032,7.032,0,0,0,1.26,4.38A4.374,4.374,0,0,0,72.247,29.915Zm15.188,2.22a5.549,5.549,0,0,1-1.781-.6,3.61,3.61,0,0,1-1.4-1.444,4.172,4.172,0,0,1-.551-1.9q-.034-.971-.034-2.314V15.8h2.67v9.96q0,1.02.015,1.695a2.673,2.673,0,0,0,.315,1.23,2.06,2.06,0,0,0,.81.814,3.007,3.007,0,0,0,1.08.326,10.7,10.7,0,0,0,1.339.022A9.83,9.83,0,0,0,91.23,29.7V32a7.462,7.462,0,0,1-1.245.2,12.461,12.461,0,0,1-1.361.038A9.269,9.269,0,0,1,87.435,32.135ZM97.41,32,91.53,15.8h2.7l4.545,12.8,4.53-12.8h2.715L100.14,32Zm15.975.465a5.491,5.491,0,0,1-3.42-1.042,6.289,6.289,0,0,1-2.059-2.824,11.079,11.079,0,0,1-.686-4.009,11.446,11.446,0,0,1,1.249-5.43,9.458,9.458,0,0,1,3.776-3.81l1.74,2.19a8.738,8.738,0,0,0-3.008,2.951,7.912,7.912,0,0,0-.923,3.964,8.947,8.947,0,0,0,.405,2.79,4.358,4.358,0,0,0,1.211,1.954,2.921,2.921,0,0,0,2.014.716,2.274,2.274,0,0,0,1.879-.746,3.991,3.991,0,0,0,.78-1.988,19.465,19.465,0,0,0,.176-2.726V21.71h2.5v2.745a19.465,19.465,0,0,0,.176,2.726,3.991,3.991,0,0,0,.78,1.988,2.274,2.274,0,0,0,1.879.746,2.9,2.9,0,0,0,2.04-.739,4.456,4.456,0,0,0,1.2-1.976,9.022,9.022,0,0,0,.394-2.745,7.876,7.876,0,0,0-.937-4.012,8.694,8.694,0,0,0-2.993-2.9l1.74-2.19a9.312,9.312,0,0,1,3.8,3.851,11.661,11.661,0,0,1,1.223,5.4,10.925,10.925,0,0,1-.7,4.035,6.277,6.277,0,0,1-2.07,2.8,5.482,5.482,0,0,1-3.379,1.024,5.257,5.257,0,0,1-2.91-.836,4.293,4.293,0,0,1-1.755-2.779h.525a4.241,4.241,0,0,1-1.74,2.779A5.257,5.257,0,0,1,113.385,32.465ZM135.4,32l-5.88-16.2h2.7l4.545,12.8,4.53-12.8h2.715L138.135,32ZM149.49,13.325h-2.175l1.965-4.95h2.175Zm1.3,18.81a5.549,5.549,0,0,1-1.781-.6,3.61,3.61,0,0,1-1.4-1.444,4.173,4.173,0,0,1-.551-1.9q-.034-.971-.034-2.314V15.8h2.67v9.96q0,1.02.015,1.695a2.673,2.673,0,0,0,.315,1.23,2.06,2.06,0,0,0,.81.814,3.007,3.007,0,0,0,1.08.326,10.7,10.7,0,0,0,1.339.022,9.83,9.83,0,0,0,1.331-.142V32a7.462,7.462,0,0,1-1.245.2,12.461,12.461,0,0,1-1.361.038A9.269,9.269,0,0,1,150.788,32.135Zm12.6.315a6.746,6.746,0,0,1-3.93-1.129,7.238,7.238,0,0,1-2.5-3.064,10.514,10.514,0,0,1-.87-4.358,10.448,10.448,0,0,1,.878-4.369,7.228,7.228,0,0,1,2.527-3.056,6.886,6.886,0,0,1,3.975-1.125,6.162,6.162,0,0,1,3.694,1.091,5.868,5.868,0,0,1,2.156,3l-.45.78V15.8h2.385V32h-2.385V27.53l.45.78a5.834,5.834,0,0,1-2.2,3.038A6.3,6.3,0,0,1,163.388,32.45Zm.33-2.445a4.27,4.27,0,0,0,2.647-.787,4.613,4.613,0,0,0,1.545-2.171,9.228,9.228,0,0,0,.5-3.161,9.15,9.15,0,0,0-.506-3.169,4.566,4.566,0,0,0-1.541-2.149,4.256,4.256,0,0,0-2.617-.773,4.441,4.441,0,0,0-2.659.773,4.709,4.709,0,0,0-1.624,2.149,8.571,8.571,0,0,0-.548,3.184,8.721,8.721,0,0,0,.521,3.094,4.835,4.835,0,0,0,1.586,2.2A4.307,4.307,0,0,0,163.718,30Z" transform="translate(1646.998 6.225)"/>
          <path id="Path_12165" data-name="Path 12165" d="M2.1,32V10.4H18.96V32H16.29V12.935H4.77V32Zm26.385.45a7.906,7.906,0,0,1-3.143-.6,5.321,5.321,0,0,1-2.246-1.74,4.472,4.472,0,0,1-.836-2.726,5.19,5.19,0,0,1,.322-1.811,4.062,4.062,0,0,1,.971-1.511,3.437,3.437,0,0,1,1.631-.877l-.1.945a5.448,5.448,0,0,1-1.763-1.747,4.363,4.363,0,0,1-.608-2.3,4.242,4.242,0,0,1,.773-2.573,4.822,4.822,0,0,1,2.07-1.605,7.277,7.277,0,0,1,2.858-.547,9.1,9.1,0,0,1,3.592.7,8.7,8.7,0,0,1,2.888,1.987L33.27,19.85a7.375,7.375,0,0,0-2.111-1.418,6.159,6.159,0,0,0-2.584-.562,4.041,4.041,0,0,0-2.194.581,2.007,2.007,0,0,0-.926,1.834,1.8,1.8,0,0,0,.99,1.74,5.6,5.6,0,0,0,2.565.51h1.665v2.2h-1.68a10.259,10.259,0,0,0-2.145.2,2.578,2.578,0,0,0-1.38.709,2.068,2.068,0,0,0-.48,1.466,2.45,2.45,0,0,0,.979,2.051,4.187,4.187,0,0,0,2.621.754A5.514,5.514,0,0,0,31.4,29.2a6.305,6.305,0,0,0,2.111-2.048l2.13,1.38a7.53,7.53,0,0,1-2.9,2.876A8.535,8.535,0,0,1,28.485,32.45Zm9.99,6.75V24.935q0-.81.026-1.511a12.359,12.359,0,0,1,.109-1.279,8.734,8.734,0,0,1,1.185-3.521,6.708,6.708,0,0,1,2.5-2.4,7.479,7.479,0,0,1,3.694-.87,7.219,7.219,0,0,1,4.1,1.117,7.022,7.022,0,0,1,2.535,3.045,10.521,10.521,0,0,1,.862,4.342,10.629,10.629,0,0,1-.874,4.4,7.257,7.257,0,0,1-2.5,3.071,7.252,7.252,0,0,1-6.878.476,5.519,5.519,0,0,1-2.081-1.706V39.2Zm7.44-9.2a4.434,4.434,0,0,0,2.692-.791,4.79,4.79,0,0,0,1.624-2.179,8.624,8.624,0,0,0,.544-3.165,8.6,8.6,0,0,0-.536-3.154,4.666,4.666,0,0,0-1.612-2.145,4.517,4.517,0,0,0-2.711-.776,4.2,4.2,0,0,0-4.26,2.91,9.057,9.057,0,0,0-.51,3.165,9.02,9.02,0,0,0,.521,3.191,4.64,4.64,0,0,0,1.579,2.164A4.378,4.378,0,0,0,45.915,30Zm14.947,2.13a5.549,5.549,0,0,1-1.781-.6,3.61,3.61,0,0,1-1.4-1.444,4.172,4.172,0,0,1-.551-1.9q-.034-.971-.034-2.314V15.8h2.67v9.96q0,1.02.015,1.695a2.673,2.673,0,0,0,.315,1.23,2.06,2.06,0,0,0,.81.814,3.007,3.007,0,0,0,1.08.326,10.7,10.7,0,0,0,1.339.022,9.83,9.83,0,0,0,1.331-.142V32a7.462,7.462,0,0,1-1.245.2,12.461,12.461,0,0,1-1.361.038A9.269,9.269,0,0,1,60.862,32.135ZM74.707,38.75V32.3a7.361,7.361,0,0,1-4.312-.517,6.789,6.789,0,0,1-3.09-2.895,9.873,9.873,0,0,1-1.147-4.972,9.949,9.949,0,0,1,1.147-5,6.78,6.78,0,0,1,3.09-2.9,7.361,7.361,0,0,1,4.313-.517V10.565h2.43V15.5a7.361,7.361,0,0,1,4.313.517,6.78,6.78,0,0,1,3.09,2.9,9.949,9.949,0,0,1,1.148,5,9.873,9.873,0,0,1-1.148,4.972,6.789,6.789,0,0,1-3.09,2.895,7.361,7.361,0,0,1-4.312.517v6.45Zm0-8.9V17.96a5.272,5.272,0,0,0-2.265.068A4.221,4.221,0,0,0,70.6,19.055a5.065,5.065,0,0,0-1.245,1.965,8.344,8.344,0,0,0-.45,2.9,8.171,8.171,0,0,0,.458,2.88,5.023,5.023,0,0,0,1.26,1.958,4.311,4.311,0,0,0,1.853,1.02A5.3,5.3,0,0,0,74.707,29.855Zm2.43,0a5.383,5.383,0,0,0,2.235-.075,4.3,4.3,0,0,0,1.86-1.013,4.913,4.913,0,0,0,1.26-1.957,8.344,8.344,0,0,0,.45-2.9,8.524,8.524,0,0,0-.442-2.91,5,5,0,0,0-1.238-1.965,4.156,4.156,0,0,0-1.853-1.02,5.394,5.394,0,0,0-2.272-.06Zm18.315-16.53H93.277l1.965-4.95h2.175Zm-.84,19.125a7.906,7.906,0,0,1-3.143-.6,5.321,5.321,0,0,1-2.246-1.74,4.472,4.472,0,0,1-.836-2.726,5.19,5.19,0,0,1,.323-1.811,4.062,4.062,0,0,1,.971-1.511,3.437,3.437,0,0,1,1.631-.877l-.105.945a5.448,5.448,0,0,1-1.762-1.747,4.363,4.363,0,0,1-.607-2.3A4.242,4.242,0,0,1,89.61,17.5,4.822,4.822,0,0,1,91.68,15.9a7.277,7.277,0,0,1,2.857-.547,9.1,9.1,0,0,1,3.592.7,8.7,8.7,0,0,1,2.888,1.987L99.4,19.85a7.375,7.375,0,0,0-2.111-1.418A6.159,6.159,0,0,0,94.7,17.87a4.041,4.041,0,0,0-2.194.581,2.007,2.007,0,0,0-.926,1.834,1.8,1.8,0,0,0,.99,1.74,5.6,5.6,0,0,0,2.565.51H96.8v2.2h-1.68a10.259,10.259,0,0,0-2.145.2,2.578,2.578,0,0,0-1.38.709,2.068,2.068,0,0,0-.48,1.466,2.45,2.45,0,0,0,.979,2.051,4.187,4.187,0,0,0,2.621.754,5.514,5.514,0,0,0,2.809-.713,6.305,6.305,0,0,0,2.111-2.048l2.13,1.38a7.53,7.53,0,0,1-2.9,2.876A8.535,8.535,0,0,1,94.613,32.45Zm9.99,6.75V24.935q0-.81.026-1.511a12.358,12.358,0,0,1,.109-1.279,8.734,8.734,0,0,1,1.185-3.521,6.708,6.708,0,0,1,2.5-2.4,7.479,7.479,0,0,1,3.694-.87,7.219,7.219,0,0,1,4.1,1.117,7.022,7.022,0,0,1,2.535,3.045,10.521,10.521,0,0,1,.862,4.342,10.629,10.629,0,0,1-.874,4.4,7.257,7.257,0,0,1-2.5,3.071,7.252,7.252,0,0,1-6.878.476,5.519,5.519,0,0,1-2.081-1.706V39.2Zm7.44-9.2a4.434,4.434,0,0,0,2.692-.791,4.79,4.79,0,0,0,1.624-2.179,8.624,8.624,0,0,0,.544-3.165,8.6,8.6,0,0,0-.536-3.154,4.666,4.666,0,0,0-1.612-2.145,4.517,4.517,0,0,0-2.711-.776,4.2,4.2,0,0,0-4.26,2.91,9.057,9.057,0,0,0-.51,3.165,9.02,9.02,0,0,0,.521,3.191,4.64,4.64,0,0,0,1.579,2.164A4.378,4.378,0,0,0,112.043,30Zm16.2,2.445a7.906,7.906,0,0,1-3.142-.6,5.321,5.321,0,0,1-2.246-1.74,4.472,4.472,0,0,1-.836-2.726,5.19,5.19,0,0,1,.323-1.811,4.062,4.062,0,0,1,.971-1.511,3.437,3.437,0,0,1,1.631-.877l-.105.945a5.448,5.448,0,0,1-1.762-1.747,4.363,4.363,0,0,1-.607-2.3,4.242,4.242,0,0,1,.772-2.573,4.822,4.822,0,0,1,2.07-1.605,7.277,7.277,0,0,1,2.857-.547,9.1,9.1,0,0,1,3.592.7,8.7,8.7,0,0,1,2.887,1.987l-1.62,1.815a7.375,7.375,0,0,0-2.111-1.418,6.159,6.159,0,0,0-2.584-.562,4.041,4.041,0,0,0-2.194.581,2.007,2.007,0,0,0-.926,1.834,1.8,1.8,0,0,0,.99,1.74,5.6,5.6,0,0,0,2.565.51h1.665v2.2h-1.68a10.259,10.259,0,0,0-2.145.2,2.578,2.578,0,0,0-1.38.709,2.068,2.068,0,0,0-.48,1.466,2.45,2.45,0,0,0,.979,2.051,4.187,4.187,0,0,0,2.621.754,5.514,5.514,0,0,0,2.809-.713,6.305,6.305,0,0,0,2.111-2.048l2.13,1.38a7.53,7.53,0,0,1-2.895,2.876A8.535,8.535,0,0,1,128.242,32.45Zm14.078-.315a5.549,5.549,0,0,1-1.781-.6,3.61,3.61,0,0,1-1.4-1.444,4.173,4.173,0,0,1-.551-1.9q-.034-.971-.034-2.314V15.8h2.67v9.96q0,1.02.015,1.695a2.673,2.673,0,0,0,.315,1.23,2.06,2.06,0,0,0,.81.814,3.007,3.007,0,0,0,1.08.326,10.7,10.7,0,0,0,1.339.022,9.83,9.83,0,0,0,1.331-.142V32a7.462,7.462,0,0,1-1.245.2,12.461,12.461,0,0,1-1.361.038A9.269,9.269,0,0,1,142.32,32.135Zm12.6.315a6.746,6.746,0,0,1-3.93-1.129,7.238,7.238,0,0,1-2.5-3.064,10.514,10.514,0,0,1-.87-4.358,10.448,10.448,0,0,1,.878-4.369,7.228,7.228,0,0,1,2.527-3.056,6.886,6.886,0,0,1,3.975-1.125,6.162,6.162,0,0,1,3.694,1.091,5.868,5.868,0,0,1,2.156,3l-.45.78V15.8h2.385V32h-2.385V27.53l.45.78a5.834,5.834,0,0,1-2.2,3.038A6.3,6.3,0,0,1,154.92,32.45ZM155.25,30a4.27,4.27,0,0,0,2.647-.787,4.613,4.613,0,0,0,1.545-2.171,9.228,9.228,0,0,0,.5-3.161,9.15,9.15,0,0,0-.506-3.169,4.566,4.566,0,0,0-1.541-2.149,4.256,4.256,0,0,0-2.617-.773,4.441,4.441,0,0,0-2.659.773A4.709,4.709,0,0,0,151,20.716a8.571,8.571,0,0,0-.548,3.184,8.721,8.721,0,0,0,.521,3.094,4.835,4.835,0,0,0,1.586,2.2A4.307,4.307,0,0,0,155.25,30Z" transform="translate(1104.997 6.658)"/>
          <path id="Path_12164" data-name="Path 12164" d="M.6,32,7.83,10.4h3.72L18.78,32H16.005L9.24,11.96h.84L3.375,32Zm3.48-5.055v-2.5H15.3v2.5ZM24.66,32,18.78,15.8h2.7l4.545,12.8,4.53-12.8H33.27L27.39,32ZM43.38,13.325H41.205l1.965-4.95h2.175Zm-1.6,19.125a6.746,6.746,0,0,1-3.93-1.129,7.238,7.238,0,0,1-2.505-3.064,10.514,10.514,0,0,1-.87-4.358,10.448,10.448,0,0,1,.877-4.369,7.228,7.228,0,0,1,2.528-3.056A6.886,6.886,0,0,1,41.85,15.35a6.162,6.162,0,0,1,3.694,1.091,5.868,5.868,0,0,1,2.156,3l-.45.78V15.8h2.385V32H47.25V27.53l.45.78a5.834,5.834,0,0,1-2.2,3.038A6.3,6.3,0,0,1,41.775,32.45ZM42.1,30a4.27,4.27,0,0,0,2.648-.787A4.613,4.613,0,0,0,46.3,27.046a9.228,9.228,0,0,0,.5-3.161,9.15,9.15,0,0,0-.506-3.169,4.566,4.566,0,0,0-1.541-2.149,4.256,4.256,0,0,0-2.618-.773,4.441,4.441,0,0,0-2.659.773,4.709,4.709,0,0,0-1.624,2.149,8.571,8.571,0,0,0-.548,3.184,8.72,8.72,0,0,0,.521,3.094,4.835,4.835,0,0,0,1.586,2.2A4.307,4.307,0,0,0,42.1,30Zm13.53,2V18.23h-3V15.8h18.03v2.43h-3V32H65V18.23h-6.69V32Zm26.085.135a5.549,5.549,0,0,1-1.781-.6,3.61,3.61,0,0,1-1.4-1.444,4.172,4.172,0,0,1-.551-1.9q-.034-.971-.034-2.314V18.23h-5.64V15.8h13.95v2.43h-5.64v7.53q0,1.02.015,1.695a2.673,2.673,0,0,0,.315,1.23,2.06,2.06,0,0,0,.81.814,3.007,3.007,0,0,0,1.08.326,10.7,10.7,0,0,0,1.339.022,9.83,9.83,0,0,0,1.331-.142V32a7.457,7.457,0,0,1-1.241.2,12.427,12.427,0,0,1-1.361.038A9.292,9.292,0,0,1,81.72,32.135Zm7.545-7.53V15.8h2.7v8.115a11.632,11.632,0,0,0,.206,2.209,5.97,5.97,0,0,0,.709,1.92,3.727,3.727,0,0,0,1.35,1.346,4.83,4.83,0,0,0,4.26,0,3.727,3.727,0,0,0,1.35-1.346,5.97,5.97,0,0,0,.709-1.92,11.632,11.632,0,0,0,.206-2.209V15.8h2.7V24.6a13.822,13.822,0,0,1-.184,2.239,8.415,8.415,0,0,1-.638,2.122,5.567,5.567,0,0,1-3.3,3,10.076,10.076,0,0,1-5.955,0,5.567,5.567,0,0,1-3.3-3,8.415,8.415,0,0,1-.637-2.122A13.822,13.822,0,0,1,89.265,24.6ZM119.445,35.6a4.264,4.264,0,0,0-.33-2.467,2.128,2.128,0,0,0-1.549-.945,17,17,0,0,0-2.8-.187,12.112,12.112,0,0,1-4.808-.8,5.532,5.532,0,0,1-2.666-2.231,6.434,6.434,0,0,1-.836-3.311,6.01,6.01,0,0,1,.848-3.285,4.5,4.5,0,0,1,2.5-1.875,5.844,5.844,0,0,1-1.845-1.98,5.6,5.6,0,0,1-.7-2.85,5.366,5.366,0,0,1,.585-2.584,5.015,5.015,0,0,1,1.586-1.774,7.2,7.2,0,0,1,2.261-1.024A10.18,10.18,0,0,1,114.3,9.95a8.36,8.36,0,0,1,7.35,3.84l-2.055,1.755a6.59,6.59,0,0,0-2.066-2.227,5.738,5.738,0,0,0-3.229-.833,5.367,5.367,0,0,0-3.015.791,2.741,2.741,0,0,0-1.2,2.464,2.884,2.884,0,0,0,1.192,2.49,5.831,5.831,0,0,0,3.188.96q.3.015.78.022t.908.008h.563v2.55h-.289q-.154,0-.619.019t-1.537.056a11.216,11.216,0,0,0-2.61.379,3.386,3.386,0,0,0-1.744,1.08,3.257,3.257,0,0,0-.626,2.126,3.478,3.478,0,0,0,.78,2.385,4.4,4.4,0,0,0,2.22,1.275,13.59,13.59,0,0,0,3.42.405q.42.007.971.026t1.129.079a6.917,6.917,0,0,1,1.08.195,4.483,4.483,0,0,1,1.811.975,3.817,3.817,0,0,1,1.125,1.89,6.531,6.531,0,0,1,0,2.94ZM135.63,32V23.885a11.865,11.865,0,0,0-.2-2.22,5.864,5.864,0,0,0-.705-1.913,3.736,3.736,0,0,0-1.35-1.342,4.187,4.187,0,0,0-2.137-.495,4.734,4.734,0,0,0-1.822.337,3.636,3.636,0,0,0-1.4,1.027,4.867,4.867,0,0,0-.908,1.733,8.332,8.332,0,0,0-.323,2.452l-1.755-.54a8.918,8.918,0,0,1,.848-4.042,6.124,6.124,0,0,1,2.385-2.6,7,7,0,0,1,3.622-.907,6.569,6.569,0,0,1,2.685.5,5.4,5.4,0,0,1,1.845,1.313,6.367,6.367,0,0,1,1.155,1.83,9.323,9.323,0,0,1,.592,2.055,12.1,12.1,0,0,1,.173,1.972V32Zm-11.55,0V15.8h2.4v4.335h.3V32Z" transform="translate(1386.997 6.831)"/>
          <path id="Path_12163" data-name="Path 12163" d="M2.1,32V29.57l8.235-8.37L2.1,12.86V10.4H17.25v2.535H5.685l7.905,8.01v.51l-7.905,8.01h11.28V32Zm19.05-7.4V15.8h2.7v8.115a11.632,11.632,0,0,0,.206,2.209,5.97,5.97,0,0,0,.709,1.92,3.727,3.727,0,0,0,1.35,1.346,4.17,4.17,0,0,0,2.13.5,4.17,4.17,0,0,0,2.13-.5,3.727,3.727,0,0,0,1.35-1.346,5.97,5.97,0,0,0,.709-1.92,11.632,11.632,0,0,0,.206-2.209V15.8h2.7V24.6a13.822,13.822,0,0,1-.184,2.239,8.414,8.414,0,0,1-.637,2.122,5.567,5.567,0,0,1-3.3,3,8.7,8.7,0,0,1-2.978.45,8.7,8.7,0,0,1-2.977-.45,5.567,5.567,0,0,1-3.3-3,8.414,8.414,0,0,1-.638-2.122A13.822,13.822,0,0,1,21.15,24.6ZM39.225,39.2V15.8h2.7v8.115a11.632,11.632,0,0,0,.206,2.209,5.97,5.97,0,0,0,.709,1.92,3.727,3.727,0,0,0,1.35,1.346,4.17,4.17,0,0,0,2.13.5,4.716,4.716,0,0,0,1.826-.341,3.681,3.681,0,0,0,1.406-1.028,4.781,4.781,0,0,0,.9-1.733,8.433,8.433,0,0,0,.319-2.449V15.8H53.46V32H51.075V29.855A5.638,5.638,0,0,1,48.8,31.771a7.3,7.3,0,0,1-3.124.649,5.926,5.926,0,0,1-2.336-.435A4.687,4.687,0,0,1,41.61,30.74V39.2Zm18.42,0V15.8h2.7v8.115a11.632,11.632,0,0,0,.206,2.209,5.97,5.97,0,0,0,.709,1.92,3.727,3.727,0,0,0,1.35,1.346,4.17,4.17,0,0,0,2.13.5,4.716,4.716,0,0,0,1.826-.341,3.681,3.681,0,0,0,1.406-1.028,4.781,4.781,0,0,0,.9-1.733,8.433,8.433,0,0,0,.319-2.449V15.8H71.88V32H69.5V29.855a5.638,5.638,0,0,1-2.276,1.916,7.3,7.3,0,0,1-3.124.649,5.926,5.926,0,0,1-2.336-.435A4.687,4.687,0,0,1,60.03,30.74V39.2Zm23.76-6.75a7.906,7.906,0,0,1-3.143-.6,5.321,5.321,0,0,1-2.246-1.74,4.472,4.472,0,0,1-.836-2.726,5.19,5.19,0,0,1,.323-1.811,4.062,4.062,0,0,1,.971-1.511,3.437,3.437,0,0,1,1.631-.877L78,24.125a5.448,5.448,0,0,1-1.762-1.747,4.363,4.363,0,0,1-.607-2.3A4.242,4.242,0,0,1,76.4,17.5a4.822,4.822,0,0,1,2.07-1.605,7.277,7.277,0,0,1,2.857-.547,9.1,9.1,0,0,1,3.592.7,8.7,8.7,0,0,1,2.888,1.987L86.19,19.85a7.375,7.375,0,0,0-2.111-1.418A6.159,6.159,0,0,0,81.5,17.87a4.041,4.041,0,0,0-2.194.581,2.007,2.007,0,0,0-.926,1.834,1.8,1.8,0,0,0,.99,1.74,5.6,5.6,0,0,0,2.565.51H83.6v2.2h-1.68a10.259,10.259,0,0,0-2.145.2,2.578,2.578,0,0,0-1.38.709,2.068,2.068,0,0,0-.48,1.466,2.45,2.45,0,0,0,.979,2.051,4.187,4.187,0,0,0,2.621.754,5.514,5.514,0,0,0,2.809-.713,6.305,6.305,0,0,0,2.111-2.048l2.13,1.38a7.53,7.53,0,0,1-2.9,2.876A8.535,8.535,0,0,1,81.405,32.45Zm17.685-.315a5.549,5.549,0,0,1-1.781-.6,3.61,3.61,0,0,1-1.4-1.444,4.172,4.172,0,0,1-.551-1.9q-.034-.971-.034-2.314V18.23h-5.64V15.8h13.95v2.43h-5.64v7.53q0,1.02.015,1.695a2.673,2.673,0,0,0,.315,1.23,2.06,2.06,0,0,0,.81.814,3.007,3.007,0,0,0,1.08.326,10.7,10.7,0,0,0,1.339.022,9.83,9.83,0,0,0,1.331-.142V32a7.457,7.457,0,0,1-1.241.2,12.427,12.427,0,0,1-1.361.038A9.292,9.292,0,0,1,99.09,32.135Zm14.07.315a7.679,7.679,0,0,1-4.162-1.1,7.239,7.239,0,0,1-2.693-3.03,9.994,9.994,0,0,1-.945-4.44,9.874,9.874,0,0,1,.96-4.47,7.192,7.192,0,0,1,2.715-2.993,8.533,8.533,0,0,1,8.31.015,7.133,7.133,0,0,1,2.693,3.015,10.013,10.013,0,0,1,.938,4.433,10.018,10.018,0,0,1-.945,4.462,7.182,7.182,0,0,1-2.7,3.015A7.758,7.758,0,0,1,113.16,32.45Zm0-2.535a4.342,4.342,0,0,0,3.75-1.68,7.183,7.183,0,0,0,1.23-4.35,7.019,7.019,0,0,0-1.245-4.372,4.407,4.407,0,0,0-3.735-1.628,4.761,4.761,0,0,0-2.79.765,4.581,4.581,0,0,0-1.635,2.115,8.358,8.358,0,0,0-.54,3.12,7.032,7.032,0,0,0,1.26,4.38A4.374,4.374,0,0,0,113.16,29.915ZM122.1,32l6.195-8.19-6.06-8.01h3.18l4.44,5.94,4.395-5.94h3.18l-6.06,8.01L137.58,32h-3.195l-4.53-6.12L125.3,32Zm21.952.135a5.549,5.549,0,0,1-1.781-.6,3.61,3.61,0,0,1-1.4-1.444,4.173,4.173,0,0,1-.551-1.9q-.034-.971-.034-2.314V15.8h2.67v9.96q0,1.02.015,1.695a2.673,2.673,0,0,0,.315,1.23,2.06,2.06,0,0,0,.81.814,3.007,3.007,0,0,0,1.08.326,10.7,10.7,0,0,0,1.339.022,9.83,9.83,0,0,0,1.331-.142V32a7.462,7.462,0,0,1-1.245.2,12.461,12.461,0,0,1-1.361.038A9.269,9.269,0,0,1,144.053,32.135Zm7.08-.135.015-16.2h2.7v7.8l6.795-7.8h3.465l-7.155,8.1,7.995,8.1h-3.735l-7.365-7.8V32Zm23.01-18.675h-2.175l1.965-4.95h2.175Zm-1.1,19.125a7.679,7.679,0,0,1-4.163-1.1,7.239,7.239,0,0,1-2.692-3.03,9.994,9.994,0,0,1-.945-4.44,9.874,9.874,0,0,1,.96-4.47,7.192,7.192,0,0,1,2.715-2.993,8.533,8.533,0,0,1,8.31.015,7.133,7.133,0,0,1,2.693,3.015,10.013,10.013,0,0,1,.938,4.433,10.018,10.018,0,0,1-.945,4.462,7.182,7.182,0,0,1-2.7,3.015A7.758,7.758,0,0,1,173.048,32.45Zm0-2.535a4.342,4.342,0,0,0,3.75-1.68,7.183,7.183,0,0,0,1.23-4.35,7.019,7.019,0,0,0-1.245-4.372,4.407,4.407,0,0,0-3.735-1.628,4.761,4.761,0,0,0-2.79.765,4.581,4.581,0,0,0-1.635,2.115,8.358,8.358,0,0,0-.54,3.12,7.032,7.032,0,0,0,1.26,4.38A4.374,4.374,0,0,0,173.048,29.915Zm18.795,2.22a5.549,5.549,0,0,1-1.781-.6,3.61,3.61,0,0,1-1.4-1.444,4.173,4.173,0,0,1-.551-1.9q-.034-.971-.034-2.314V18.23h-5.64V15.8h13.95v2.43h-5.64v7.53q0,1.02.015,1.695a2.673,2.673,0,0,0,.315,1.23,2.06,2.06,0,0,0,.81.814,3.007,3.007,0,0,0,1.08.326,10.7,10.7,0,0,0,1.339.022,9.83,9.83,0,0,0,1.331-.142V32a7.457,7.457,0,0,1-1.241.2,12.427,12.427,0,0,1-1.361.038A9.292,9.292,0,0,1,191.842,32.135ZM211.222,32V23.885a11.865,11.865,0,0,0-.2-2.22,5.864,5.864,0,0,0-.705-1.913,3.736,3.736,0,0,0-1.35-1.342,4.187,4.187,0,0,0-2.137-.495,4.734,4.734,0,0,0-1.823.337,3.636,3.636,0,0,0-1.4,1.027,4.867,4.867,0,0,0-.908,1.733,8.332,8.332,0,0,0-.322,2.452l-1.755-.54a8.918,8.918,0,0,1,.848-4.042,6.124,6.124,0,0,1,2.385-2.6,7,7,0,0,1,3.622-.907,6.569,6.569,0,0,1,2.685.5A5.4,5.4,0,0,1,212,17.188a6.367,6.367,0,0,1,1.155,1.83,9.323,9.323,0,0,1,.592,2.055,12.106,12.106,0,0,1,.172,1.972V32Zm-11.55,0V15.8h2.4v4.335h.3V32Zm26.205.135a5.549,5.549,0,0,1-1.781-.6,3.61,3.61,0,0,1-1.4-1.444,4.173,4.173,0,0,1-.551-1.9q-.034-.971-.034-2.314V18.23h-5.64V15.8h13.95v2.43h-5.64v7.53q0,1.02.015,1.695a2.673,2.673,0,0,0,.315,1.23,2.06,2.06,0,0,0,.81.814,3.007,3.007,0,0,0,1.08.326,10.7,10.7,0,0,0,1.339.022,9.83,9.83,0,0,0,1.331-.142V32a7.457,7.457,0,0,1-1.241.2,12.427,12.427,0,0,1-1.361.038A9.292,9.292,0,0,1,225.878,32.135Zm13.575.315a6.746,6.746,0,0,1-3.93-1.129,7.238,7.238,0,0,1-2.5-3.064,10.514,10.514,0,0,1-.87-4.358,10.448,10.448,0,0,1,.878-4.369,7.228,7.228,0,0,1,2.527-3.056,6.886,6.886,0,0,1,3.975-1.125,6.162,6.162,0,0,1,3.694,1.091,5.868,5.868,0,0,1,2.156,3l-.45.78V15.8h2.385V32h-2.385V27.53l.45.78a5.834,5.834,0,0,1-2.2,3.038A6.3,6.3,0,0,1,239.452,32.45Zm.33-2.445a4.27,4.27,0,0,0,2.647-.787,4.613,4.613,0,0,0,1.545-2.171,9.228,9.228,0,0,0,.5-3.161,9.15,9.15,0,0,0-.506-3.169,4.566,4.566,0,0,0-1.541-2.149,4.256,4.256,0,0,0-2.617-.773,4.441,4.441,0,0,0-2.659.773,4.709,4.709,0,0,0-1.624,2.149,8.571,8.571,0,0,0-.548,3.184,8.721,8.721,0,0,0,.521,3.094,4.835,4.835,0,0,0,1.586,2.2A4.307,4.307,0,0,0,239.783,30Z" transform="translate(736.001 6.582)"/>
          <path id="Path_12162" data-name="Path 12162" d="M2.55,32V29.465H16.86V32ZM7.83,10.4h3.72L18.78,32H16.005L9.66,13.235,3.375,32H.6Zm22,2.925H27.66l1.965-4.95H31.8ZM33.015,32V23.885a11.864,11.864,0,0,0-.2-2.22,5.865,5.865,0,0,0-.705-1.913,3.736,3.736,0,0,0-1.35-1.342,4.187,4.187,0,0,0-2.138-.495,4.734,4.734,0,0,0-1.823.337,3.636,3.636,0,0,0-1.4,1.027,4.867,4.867,0,0,0-.907,1.733,8.332,8.332,0,0,0-.323,2.452l-1.755-.54a8.918,8.918,0,0,1,.847-4.042,6.124,6.124,0,0,1,2.385-2.6,7,7,0,0,1,3.623-.907,6.569,6.569,0,0,1,2.685.5,5.4,5.4,0,0,1,1.845,1.313,6.367,6.367,0,0,1,1.155,1.83,9.322,9.322,0,0,1,.593,2.055,12.105,12.105,0,0,1,.172,1.972V32Zm-11.55,0V15.8h2.4v4.335h.3V32ZM39.6,39.2V15.8h2.7v8.115a11.632,11.632,0,0,0,.206,2.209,5.97,5.97,0,0,0,.709,1.92,3.727,3.727,0,0,0,1.35,1.346,4.17,4.17,0,0,0,2.13.5,4.716,4.716,0,0,0,1.826-.341,3.681,3.681,0,0,0,1.406-1.028,4.781,4.781,0,0,0,.9-1.733,8.433,8.433,0,0,0,.319-2.449V15.8h2.685V32H51.45V29.855a5.638,5.638,0,0,1-2.276,1.916,7.3,7.3,0,0,1-3.124.649,5.926,5.926,0,0,1-2.336-.435,4.687,4.687,0,0,1-1.729-1.245V39.2Zm25.335-6.75a7.679,7.679,0,0,1-4.162-1.1,7.239,7.239,0,0,1-2.692-3.03,9.994,9.994,0,0,1-.945-4.44,9.874,9.874,0,0,1,.96-4.47,7.192,7.192,0,0,1,2.715-2.993,8.533,8.533,0,0,1,8.31.015,7.133,7.133,0,0,1,2.692,3.015,10.013,10.013,0,0,1,.938,4.433,10.018,10.018,0,0,1-.945,4.462,7.182,7.182,0,0,1-2.7,3.015A7.758,7.758,0,0,1,64.935,32.45Zm0-2.535a4.342,4.342,0,0,0,3.75-1.68,7.183,7.183,0,0,0,1.23-4.35,7.019,7.019,0,0,0-1.245-4.372,4.407,4.407,0,0,0-3.735-1.628,4.761,4.761,0,0,0-2.79.765,4.581,4.581,0,0,0-1.635,2.115,8.358,8.358,0,0,0-.54,3.12,7.032,7.032,0,0,0,1.26,4.38A4.374,4.374,0,0,0,64.935,29.915ZM86.79,35.6a4.112,4.112,0,0,0-.442-2.471,2.274,2.274,0,0,0-1.586-.9A23.029,23.029,0,0,0,82.11,32a8.2,8.2,0,0,1-2.689-.5,6.293,6.293,0,0,1-1.969-1.185,6.126,6.126,0,0,1-1.324-1.7,7.964,7.964,0,0,1-.743-2.074,10.976,10.976,0,0,1-.236-2.284,11.29,11.29,0,0,1,.926-4.785,6.915,6.915,0,0,1,2.647-3.06,7.678,7.678,0,0,1,4.121-1.065A7.781,7.781,0,0,1,87.3,16.6a6.153,6.153,0,0,1,2.509,3.465l-2.64.8a4.46,4.46,0,0,0-1.661-2.19,4.686,4.686,0,0,0-2.719-.78,4.189,4.189,0,0,0-2.629.788,4.625,4.625,0,0,0-1.519,2.16,9.255,9.255,0,0,0-.5,3.112,9.937,9.937,0,0,0,.173,1.894,5.313,5.313,0,0,0,.679,1.8,3.671,3.671,0,0,0,1.451,1.335,5.4,5.4,0,0,0,2.5.525q.36,0,.96.011t1.26.071a6.342,6.342,0,0,1,1.2.218,3.887,3.887,0,0,1,1.77,1.028,4.048,4.048,0,0,1,1.009,1.927,7.5,7.5,0,0,1,.041,2.85Z" transform="translate(1938.998 6.231)"/>
        </g>
        <g id="HERO_RIBBON_COLOR" transform="translate(17099.791 -13466.766) rotate(-3)">
          <rect id="Rectangle_5062-2" data-name="Rectangle 5062" width="1821.036" height="53.451" transform="translate(-17715.076 13624.994)" fill="url(#linear-gradient)"/>
          <path id="Path_12160" data-name="Path 12160" d="M2.1,32V10.4H4.77V20.54L14.22,10.4h3.36L7.77,20.885,18.345,32h-3.45L4.77,21.44V32Zm23.55.45a6.746,6.746,0,0,1-3.93-1.129,7.238,7.238,0,0,1-2.505-3.064,10.514,10.514,0,0,1-.87-4.358,10.448,10.448,0,0,1,.877-4.369,7.228,7.228,0,0,1,2.528-3.056,6.886,6.886,0,0,1,3.975-1.125,6.162,6.162,0,0,1,3.694,1.091,5.868,5.868,0,0,1,2.156,3l-.45.78V15.8H33.51V32H31.125V27.53l.45.78a5.834,5.834,0,0,1-2.2,3.038A6.3,6.3,0,0,1,25.65,32.45ZM25.98,30a4.27,4.27,0,0,0,2.648-.787,4.613,4.613,0,0,0,1.545-2.171,9.228,9.228,0,0,0,.5-3.161,9.15,9.15,0,0,0-.506-3.169,4.566,4.566,0,0,0-1.541-2.149A4.256,4.256,0,0,0,26.01,17.8a4.441,4.441,0,0,0-2.659.773,4.709,4.709,0,0,0-1.624,2.149A8.571,8.571,0,0,0,21.18,23.9a8.72,8.72,0,0,0,.521,3.094,4.835,4.835,0,0,0,1.586,2.2A4.307,4.307,0,0,0,25.98,30Zm15.8,2.13a5.549,5.549,0,0,1-1.781-.6,3.61,3.61,0,0,1-1.4-1.444,4.172,4.172,0,0,1-.551-1.9q-.034-.971-.034-2.314V15.8h2.67v9.96q0,1.02.015,1.695a2.673,2.673,0,0,0,.315,1.23,2.06,2.06,0,0,0,.81.814,3.007,3.007,0,0,0,1.08.326,10.7,10.7,0,0,0,1.339.022,9.83,9.83,0,0,0,1.331-.142V32a7.462,7.462,0,0,1-1.245.2,12.461,12.461,0,0,1-1.361.038A9.269,9.269,0,0,1,41.783,32.135ZM51.757,32l-5.88-16.2h2.7l4.545,12.8,4.53-12.8h2.715L54.487,32Zm17.61.45a7.679,7.679,0,0,1-4.162-1.1,7.239,7.239,0,0,1-2.693-3.03,9.994,9.994,0,0,1-.945-4.44,9.874,9.874,0,0,1,.96-4.47,7.192,7.192,0,0,1,2.715-2.993,8.533,8.533,0,0,1,8.31.015,7.133,7.133,0,0,1,2.693,3.015,10.013,10.013,0,0,1,.938,4.433,10.018,10.018,0,0,1-.945,4.462,7.182,7.182,0,0,1-2.7,3.015A7.758,7.758,0,0,1,69.368,32.45Zm0-2.535a4.342,4.342,0,0,0,3.75-1.68,7.183,7.183,0,0,0,1.23-4.35A7.019,7.019,0,0,0,73.1,19.513a4.407,4.407,0,0,0-3.735-1.628,4.761,4.761,0,0,0-2.79.765,4.581,4.581,0,0,0-1.635,2.115,8.358,8.358,0,0,0-.54,3.12,7.032,7.032,0,0,0,1.26,4.38A4.374,4.374,0,0,0,69.368,29.915Zm18.795,2.22a5.549,5.549,0,0,1-1.781-.6,3.61,3.61,0,0,1-1.4-1.444,4.172,4.172,0,0,1-.551-1.9q-.034-.971-.034-2.314V18.23h-5.64V15.8h13.95v2.43h-5.64v7.53q0,1.02.015,1.695a2.673,2.673,0,0,0,.315,1.23,2.06,2.06,0,0,0,.81.814,3.007,3.007,0,0,0,1.08.326,10.7,10.7,0,0,0,1.339.022,9.83,9.83,0,0,0,1.331-.142V32a7.457,7.457,0,0,1-1.241.2,12.427,12.427,0,0,1-1.361.038A9.292,9.292,0,0,1,88.162,32.135Zm14.07.315a7.679,7.679,0,0,1-4.162-1.1,7.239,7.239,0,0,1-2.693-3.03,9.994,9.994,0,0,1-.945-4.44,9.874,9.874,0,0,1,.96-4.47,7.192,7.192,0,0,1,2.715-2.993,8.533,8.533,0,0,1,8.31.015,7.133,7.133,0,0,1,2.693,3.015,10.013,10.013,0,0,1,.938,4.433,10.018,10.018,0,0,1-.945,4.462,7.182,7.182,0,0,1-2.7,3.015A7.758,7.758,0,0,1,102.232,32.45Zm0-2.535a4.342,4.342,0,0,0,3.75-1.68,7.183,7.183,0,0,0,1.23-4.35,7.019,7.019,0,0,0-1.245-4.372,4.407,4.407,0,0,0-3.735-1.628,4.761,4.761,0,0,0-2.79.765,4.581,4.581,0,0,0-1.635,2.115,8.358,8.358,0,0,0-.54,3.12,7.032,7.032,0,0,0,1.26,4.38A4.374,4.374,0,0,0,102.232,29.915Zm11.1,9.285V15.8h2.7v8.115a11.633,11.633,0,0,0,.206,2.209,5.97,5.97,0,0,0,.709,1.92,3.727,3.727,0,0,0,1.35,1.346,4.17,4.17,0,0,0,2.13.5,4.716,4.716,0,0,0,1.826-.341,3.681,3.681,0,0,0,1.406-1.028,4.781,4.781,0,0,0,.9-1.733,8.433,8.433,0,0,0,.319-2.449V15.8h2.685V32h-2.385V29.855a5.637,5.637,0,0,1-2.276,1.916,7.3,7.3,0,0,1-3.124.649,5.926,5.926,0,0,1-2.336-.435,4.687,4.687,0,0,1-1.729-1.245V39.2Zm21.21-25.875h-2.175l1.965-4.95h2.175Zm1.3,18.81a5.549,5.549,0,0,1-1.781-.6,3.61,3.61,0,0,1-1.4-1.444,4.173,4.173,0,0,1-.551-1.9q-.034-.971-.034-2.314V15.8h2.67v9.96q0,1.02.015,1.695a2.673,2.673,0,0,0,.315,1.23,2.06,2.06,0,0,0,.81.814,3.007,3.007,0,0,0,1.08.326,10.7,10.7,0,0,0,1.339.022,9.83,9.83,0,0,0,1.331-.142V32a7.462,7.462,0,0,1-1.245.2,12.461,12.461,0,0,1-1.361.038A9.269,9.269,0,0,1,135.84,32.135Zm12.6.315a6.746,6.746,0,0,1-3.93-1.129,7.238,7.238,0,0,1-2.5-3.064,10.514,10.514,0,0,1-.87-4.358,10.448,10.448,0,0,1,.878-4.369,7.228,7.228,0,0,1,2.527-3.056,6.886,6.886,0,0,1,3.975-1.125,6.162,6.162,0,0,1,3.694,1.091,5.868,5.868,0,0,1,2.156,3l-.45.78V15.8H156.3V32h-2.385V27.53l.45.78a5.834,5.834,0,0,1-2.2,3.038A6.3,6.3,0,0,1,148.44,32.45ZM148.77,30a4.27,4.27,0,0,0,2.647-.787,4.613,4.613,0,0,0,1.545-2.171,9.228,9.228,0,0,0,.5-3.161,9.15,9.15,0,0,0-.506-3.169,4.566,4.566,0,0,0-1.541-2.149A4.256,4.256,0,0,0,148.8,17.8a4.441,4.441,0,0,0-2.659.773,4.709,4.709,0,0,0-1.624,2.149,8.571,8.571,0,0,0-.548,3.184,8.721,8.721,0,0,0,.521,3.094,4.835,4.835,0,0,0,1.586,2.2A4.307,4.307,0,0,0,148.77,30Z" transform="translate(-16170 13631.994)" fill="#fff"/>
          <path id="Path_12156" data-name="Path 12156" d="M2.1,32V10.4H15.75v2.535H4.77V19.7h9.18v2.535H4.77v7.23H15.75V32Zm19.05,0V18.23h-3V15.8H36.18v2.43h-3V32H30.51V18.23H23.82V32Zm22.1.135a5.549,5.549,0,0,1-1.781-.6,3.61,3.61,0,0,1-1.4-1.444,4.172,4.172,0,0,1-.551-1.9q-.034-.971-.034-2.314V15.8h2.67v9.96q0,1.02.015,1.695a2.673,2.673,0,0,0,.315,1.23,2.06,2.06,0,0,0,.81.814,3.007,3.007,0,0,0,1.08.326,10.7,10.7,0,0,0,1.339.022,9.83,9.83,0,0,0,1.331-.142V32a7.462,7.462,0,0,1-1.245.2,12.461,12.461,0,0,1-1.361.038A9.269,9.269,0,0,1,43.253,32.135ZM50.333,32l.015-16.2h2.7v7.8l6.8-7.8h3.465l-7.155,8.1L64.147,32H60.413l-7.365-7.8V32Zm21.915.45a7.679,7.679,0,0,1-4.162-1.1,7.239,7.239,0,0,1-2.692-3.03,9.994,9.994,0,0,1-.945-4.44,9.874,9.874,0,0,1,.96-4.47,7.192,7.192,0,0,1,2.715-2.993,8.533,8.533,0,0,1,8.31.015,7.133,7.133,0,0,1,2.692,3.015,10.013,10.013,0,0,1,.938,4.433,10.018,10.018,0,0,1-.945,4.462,7.182,7.182,0,0,1-2.7,3.015A7.758,7.758,0,0,1,72.247,32.45Zm0-2.535A4.342,4.342,0,0,0,76,28.235a7.183,7.183,0,0,0,1.23-4.35,7.019,7.019,0,0,0-1.245-4.372,4.407,4.407,0,0,0-3.735-1.628,4.761,4.761,0,0,0-2.79.765,4.581,4.581,0,0,0-1.635,2.115,8.358,8.358,0,0,0-.54,3.12,7.032,7.032,0,0,0,1.26,4.38A4.374,4.374,0,0,0,72.247,29.915Zm15.188,2.22a5.549,5.549,0,0,1-1.781-.6,3.61,3.61,0,0,1-1.4-1.444,4.172,4.172,0,0,1-.551-1.9q-.034-.971-.034-2.314V15.8h2.67v9.96q0,1.02.015,1.695a2.673,2.673,0,0,0,.315,1.23,2.06,2.06,0,0,0,.81.814,3.007,3.007,0,0,0,1.08.326,10.7,10.7,0,0,0,1.339.022A9.83,9.83,0,0,0,91.23,29.7V32a7.462,7.462,0,0,1-1.245.2,12.461,12.461,0,0,1-1.361.038A9.269,9.269,0,0,1,87.435,32.135ZM97.41,32,91.53,15.8h2.7l4.545,12.8,4.53-12.8h2.715L100.14,32Zm15.975.465a5.491,5.491,0,0,1-3.42-1.042,6.289,6.289,0,0,1-2.059-2.824,11.079,11.079,0,0,1-.686-4.009,11.446,11.446,0,0,1,1.249-5.43,9.458,9.458,0,0,1,3.776-3.81l1.74,2.19a8.738,8.738,0,0,0-3.008,2.951,7.912,7.912,0,0,0-.923,3.964,8.947,8.947,0,0,0,.405,2.79,4.358,4.358,0,0,0,1.211,1.954,2.921,2.921,0,0,0,2.014.716,2.274,2.274,0,0,0,1.879-.746,3.991,3.991,0,0,0,.78-1.988,19.465,19.465,0,0,0,.176-2.726V21.71h2.5v2.745a19.465,19.465,0,0,0,.176,2.726,3.991,3.991,0,0,0,.78,1.988,2.274,2.274,0,0,0,1.879.746,2.9,2.9,0,0,0,2.04-.739,4.456,4.456,0,0,0,1.2-1.976,9.022,9.022,0,0,0,.394-2.745,7.876,7.876,0,0,0-.937-4.012,8.694,8.694,0,0,0-2.993-2.9l1.74-2.19a9.312,9.312,0,0,1,3.8,3.851,11.661,11.661,0,0,1,1.223,5.4,10.925,10.925,0,0,1-.7,4.035,6.277,6.277,0,0,1-2.07,2.8,5.482,5.482,0,0,1-3.379,1.024,5.257,5.257,0,0,1-2.91-.836,4.293,4.293,0,0,1-1.755-2.779h.525a4.241,4.241,0,0,1-1.74,2.779A5.257,5.257,0,0,1,113.385,32.465ZM135.4,32l-5.88-16.2h2.7l4.545,12.8,4.53-12.8h2.715L138.135,32ZM149.49,13.325h-2.175l1.965-4.95h2.175Zm1.3,18.81a5.549,5.549,0,0,1-1.781-.6,3.61,3.61,0,0,1-1.4-1.444,4.173,4.173,0,0,1-.551-1.9q-.034-.971-.034-2.314V15.8h2.67v9.96q0,1.02.015,1.695a2.673,2.673,0,0,0,.315,1.23,2.06,2.06,0,0,0,.81.814,3.007,3.007,0,0,0,1.08.326,10.7,10.7,0,0,0,1.339.022,9.83,9.83,0,0,0,1.331-.142V32a7.462,7.462,0,0,1-1.245.2,12.461,12.461,0,0,1-1.361.038A9.269,9.269,0,0,1,150.788,32.135Zm12.6.315a6.746,6.746,0,0,1-3.93-1.129,7.238,7.238,0,0,1-2.5-3.064,10.514,10.514,0,0,1-.87-4.358,10.448,10.448,0,0,1,.878-4.369,7.228,7.228,0,0,1,2.527-3.056,6.886,6.886,0,0,1,3.975-1.125,6.162,6.162,0,0,1,3.694,1.091,5.868,5.868,0,0,1,2.156,3l-.45.78V15.8h2.385V32h-2.385V27.53l.45.78a5.834,5.834,0,0,1-2.2,3.038A6.3,6.3,0,0,1,163.388,32.45Zm.33-2.445a4.27,4.27,0,0,0,2.647-.787,4.613,4.613,0,0,0,1.545-2.171,9.228,9.228,0,0,0,.5-3.161,9.15,9.15,0,0,0-.506-3.169,4.566,4.566,0,0,0-1.541-2.149,4.256,4.256,0,0,0-2.617-.773,4.441,4.441,0,0,0-2.659.773,4.709,4.709,0,0,0-1.624,2.149,8.571,8.571,0,0,0-.548,3.184,8.721,8.721,0,0,0,.521,3.094,4.835,4.835,0,0,0,1.586,2.2A4.307,4.307,0,0,0,163.718,30Z" transform="translate(-17373 13631.994)" fill="#fff"/>
          <path id="Path_12158" data-name="Path 12158" d="M2.1,32V10.4H18.96V32H16.29V12.935H4.77V32Zm26.385.45a7.906,7.906,0,0,1-3.143-.6,5.321,5.321,0,0,1-2.246-1.74,4.472,4.472,0,0,1-.836-2.726,5.19,5.19,0,0,1,.322-1.811,4.062,4.062,0,0,1,.971-1.511,3.437,3.437,0,0,1,1.631-.877l-.1.945a5.448,5.448,0,0,1-1.763-1.747,4.363,4.363,0,0,1-.608-2.3,4.242,4.242,0,0,1,.773-2.573,4.822,4.822,0,0,1,2.07-1.605,7.277,7.277,0,0,1,2.858-.547,9.1,9.1,0,0,1,3.592.7,8.7,8.7,0,0,1,2.888,1.987L33.27,19.85a7.375,7.375,0,0,0-2.111-1.418,6.159,6.159,0,0,0-2.584-.562,4.041,4.041,0,0,0-2.194.581,2.007,2.007,0,0,0-.926,1.834,1.8,1.8,0,0,0,.99,1.74,5.6,5.6,0,0,0,2.565.51h1.665v2.2h-1.68a10.259,10.259,0,0,0-2.145.2,2.578,2.578,0,0,0-1.38.709,2.068,2.068,0,0,0-.48,1.466,2.45,2.45,0,0,0,.979,2.051,4.187,4.187,0,0,0,2.621.754A5.514,5.514,0,0,0,31.4,29.2a6.305,6.305,0,0,0,2.111-2.048l2.13,1.38a7.53,7.53,0,0,1-2.9,2.876A8.535,8.535,0,0,1,28.485,32.45Zm9.99,6.75V24.935q0-.81.026-1.511a12.359,12.359,0,0,1,.109-1.279,8.734,8.734,0,0,1,1.185-3.521,6.708,6.708,0,0,1,2.5-2.4,7.479,7.479,0,0,1,3.694-.87,7.219,7.219,0,0,1,4.1,1.117,7.022,7.022,0,0,1,2.535,3.045,10.521,10.521,0,0,1,.862,4.342,10.629,10.629,0,0,1-.874,4.4,7.257,7.257,0,0,1-2.5,3.071,7.252,7.252,0,0,1-6.878.476,5.519,5.519,0,0,1-2.081-1.706V39.2Zm7.44-9.2a4.434,4.434,0,0,0,2.692-.791,4.79,4.79,0,0,0,1.624-2.179,8.624,8.624,0,0,0,.544-3.165,8.6,8.6,0,0,0-.536-3.154,4.666,4.666,0,0,0-1.612-2.145,4.517,4.517,0,0,0-2.711-.776,4.2,4.2,0,0,0-4.26,2.91,9.057,9.057,0,0,0-.51,3.165,9.02,9.02,0,0,0,.521,3.191,4.64,4.64,0,0,0,1.579,2.164A4.378,4.378,0,0,0,45.915,30Zm14.947,2.13a5.549,5.549,0,0,1-1.781-.6,3.61,3.61,0,0,1-1.4-1.444,4.172,4.172,0,0,1-.551-1.9q-.034-.971-.034-2.314V15.8h2.67v9.96q0,1.02.015,1.695a2.673,2.673,0,0,0,.315,1.23,2.06,2.06,0,0,0,.81.814,3.007,3.007,0,0,0,1.08.326,10.7,10.7,0,0,0,1.339.022,9.83,9.83,0,0,0,1.331-.142V32a7.462,7.462,0,0,1-1.245.2,12.461,12.461,0,0,1-1.361.038A9.269,9.269,0,0,1,60.862,32.135ZM74.707,38.75V32.3a7.361,7.361,0,0,1-4.312-.517,6.789,6.789,0,0,1-3.09-2.895,9.873,9.873,0,0,1-1.147-4.972,9.949,9.949,0,0,1,1.147-5,6.78,6.78,0,0,1,3.09-2.9,7.361,7.361,0,0,1,4.313-.517V10.565h2.43V15.5a7.361,7.361,0,0,1,4.313.517,6.78,6.78,0,0,1,3.09,2.9,9.949,9.949,0,0,1,1.148,5,9.873,9.873,0,0,1-1.148,4.972,6.789,6.789,0,0,1-3.09,2.895,7.361,7.361,0,0,1-4.312.517v6.45Zm0-8.9V17.96a5.272,5.272,0,0,0-2.265.068A4.221,4.221,0,0,0,70.6,19.055a5.065,5.065,0,0,0-1.245,1.965,8.344,8.344,0,0,0-.45,2.9,8.171,8.171,0,0,0,.458,2.88,5.023,5.023,0,0,0,1.26,1.958,4.311,4.311,0,0,0,1.853,1.02A5.3,5.3,0,0,0,74.707,29.855Zm2.43,0a5.383,5.383,0,0,0,2.235-.075,4.3,4.3,0,0,0,1.86-1.013,4.913,4.913,0,0,0,1.26-1.957,8.344,8.344,0,0,0,.45-2.9,8.524,8.524,0,0,0-.442-2.91,5,5,0,0,0-1.238-1.965,4.156,4.156,0,0,0-1.853-1.02,5.394,5.394,0,0,0-2.272-.06Zm18.315-16.53H93.277l1.965-4.95h2.175Zm-.84,19.125a7.906,7.906,0,0,1-3.143-.6,5.321,5.321,0,0,1-2.246-1.74,4.472,4.472,0,0,1-.836-2.726,5.19,5.19,0,0,1,.323-1.811,4.062,4.062,0,0,1,.971-1.511,3.437,3.437,0,0,1,1.631-.877l-.105.945a5.448,5.448,0,0,1-1.762-1.747,4.363,4.363,0,0,1-.607-2.3A4.242,4.242,0,0,1,89.61,17.5,4.822,4.822,0,0,1,91.68,15.9a7.277,7.277,0,0,1,2.857-.547,9.1,9.1,0,0,1,3.592.7,8.7,8.7,0,0,1,2.888,1.987L99.4,19.85a7.375,7.375,0,0,0-2.111-1.418A6.159,6.159,0,0,0,94.7,17.87a4.041,4.041,0,0,0-2.194.581,2.007,2.007,0,0,0-.926,1.834,1.8,1.8,0,0,0,.99,1.74,5.6,5.6,0,0,0,2.565.51H96.8v2.2h-1.68a10.259,10.259,0,0,0-2.145.2,2.578,2.578,0,0,0-1.38.709,2.068,2.068,0,0,0-.48,1.466,2.45,2.45,0,0,0,.979,2.051,4.187,4.187,0,0,0,2.621.754,5.514,5.514,0,0,0,2.809-.713,6.305,6.305,0,0,0,2.111-2.048l2.13,1.38a7.53,7.53,0,0,1-2.9,2.876A8.535,8.535,0,0,1,94.613,32.45Zm9.99,6.75V24.935q0-.81.026-1.511a12.358,12.358,0,0,1,.109-1.279,8.734,8.734,0,0,1,1.185-3.521,6.708,6.708,0,0,1,2.5-2.4,7.479,7.479,0,0,1,3.694-.87,7.219,7.219,0,0,1,4.1,1.117,7.022,7.022,0,0,1,2.535,3.045,10.521,10.521,0,0,1,.862,4.342,10.629,10.629,0,0,1-.874,4.4,7.257,7.257,0,0,1-2.5,3.071,7.252,7.252,0,0,1-6.878.476,5.519,5.519,0,0,1-2.081-1.706V39.2Zm7.44-9.2a4.434,4.434,0,0,0,2.692-.791,4.79,4.79,0,0,0,1.624-2.179,8.624,8.624,0,0,0,.544-3.165,8.6,8.6,0,0,0-.536-3.154,4.666,4.666,0,0,0-1.612-2.145,4.517,4.517,0,0,0-2.711-.776,4.2,4.2,0,0,0-4.26,2.91,9.057,9.057,0,0,0-.51,3.165,9.02,9.02,0,0,0,.521,3.191,4.64,4.64,0,0,0,1.579,2.164A4.378,4.378,0,0,0,112.043,30Zm16.2,2.445a7.906,7.906,0,0,1-3.142-.6,5.321,5.321,0,0,1-2.246-1.74,4.472,4.472,0,0,1-.836-2.726,5.19,5.19,0,0,1,.323-1.811,4.062,4.062,0,0,1,.971-1.511,3.437,3.437,0,0,1,1.631-.877l-.105.945a5.448,5.448,0,0,1-1.762-1.747,4.363,4.363,0,0,1-.607-2.3,4.242,4.242,0,0,1,.772-2.573,4.822,4.822,0,0,1,2.07-1.605,7.277,7.277,0,0,1,2.857-.547,9.1,9.1,0,0,1,3.592.7,8.7,8.7,0,0,1,2.887,1.987l-1.62,1.815a7.375,7.375,0,0,0-2.111-1.418,6.159,6.159,0,0,0-2.584-.562,4.041,4.041,0,0,0-2.194.581,2.007,2.007,0,0,0-.926,1.834,1.8,1.8,0,0,0,.99,1.74,5.6,5.6,0,0,0,2.565.51h1.665v2.2h-1.68a10.259,10.259,0,0,0-2.145.2,2.578,2.578,0,0,0-1.38.709,2.068,2.068,0,0,0-.48,1.466,2.45,2.45,0,0,0,.979,2.051,4.187,4.187,0,0,0,2.621.754,5.514,5.514,0,0,0,2.809-.713,6.305,6.305,0,0,0,2.111-2.048l2.13,1.38a7.53,7.53,0,0,1-2.895,2.876A8.535,8.535,0,0,1,128.242,32.45Zm14.078-.315a5.549,5.549,0,0,1-1.781-.6,3.61,3.61,0,0,1-1.4-1.444,4.173,4.173,0,0,1-.551-1.9q-.034-.971-.034-2.314V15.8h2.67v9.96q0,1.02.015,1.695a2.673,2.673,0,0,0,.315,1.23,2.06,2.06,0,0,0,.81.814,3.007,3.007,0,0,0,1.08.326,10.7,10.7,0,0,0,1.339.022,9.83,9.83,0,0,0,1.331-.142V32a7.462,7.462,0,0,1-1.245.2,12.461,12.461,0,0,1-1.361.038A9.269,9.269,0,0,1,142.32,32.135Zm12.6.315a6.746,6.746,0,0,1-3.93-1.129,7.238,7.238,0,0,1-2.5-3.064,10.514,10.514,0,0,1-.87-4.358,10.448,10.448,0,0,1,.878-4.369,7.228,7.228,0,0,1,2.527-3.056,6.886,6.886,0,0,1,3.975-1.125,6.162,6.162,0,0,1,3.694,1.091,5.868,5.868,0,0,1,2.156,3l-.45.78V15.8h2.385V32h-2.385V27.53l.45.78a5.834,5.834,0,0,1-2.2,3.038A6.3,6.3,0,0,1,154.92,32.45ZM155.25,30a4.27,4.27,0,0,0,2.647-.787,4.613,4.613,0,0,0,1.545-2.171,9.228,9.228,0,0,0,.5-3.161,9.15,9.15,0,0,0-.506-3.169,4.566,4.566,0,0,0-1.541-2.149,4.256,4.256,0,0,0-2.617-.773,4.441,4.441,0,0,0-2.659.773A4.709,4.709,0,0,0,151,20.716a8.571,8.571,0,0,0-.548,3.184,8.721,8.721,0,0,0,.521,3.094,4.835,4.835,0,0,0,1.586,2.2A4.307,4.307,0,0,0,155.25,30Z" transform="translate(-16821 13631.994)" fill="#fff"/>
          <path id="Path_12157" data-name="Path 12157" d="M.6,32,7.83,10.4h3.72L18.78,32H16.005L9.24,11.96h.84L3.375,32Zm3.48-5.055v-2.5H15.3v2.5ZM24.66,32,18.78,15.8h2.7l4.545,12.8,4.53-12.8H33.27L27.39,32ZM43.38,13.325H41.205l1.965-4.95h2.175Zm-1.6,19.125a6.746,6.746,0,0,1-3.93-1.129,7.238,7.238,0,0,1-2.505-3.064,10.514,10.514,0,0,1-.87-4.358,10.448,10.448,0,0,1,.877-4.369,7.228,7.228,0,0,1,2.528-3.056A6.886,6.886,0,0,1,41.85,15.35a6.162,6.162,0,0,1,3.694,1.091,5.868,5.868,0,0,1,2.156,3l-.45.78V15.8h2.385V32H47.25V27.53l.45.78a5.834,5.834,0,0,1-2.2,3.038A6.3,6.3,0,0,1,41.775,32.45ZM42.1,30a4.27,4.27,0,0,0,2.648-.787A4.613,4.613,0,0,0,46.3,27.046a9.228,9.228,0,0,0,.5-3.161,9.15,9.15,0,0,0-.506-3.169,4.566,4.566,0,0,0-1.541-2.149,4.256,4.256,0,0,0-2.618-.773,4.441,4.441,0,0,0-2.659.773,4.709,4.709,0,0,0-1.624,2.149,8.571,8.571,0,0,0-.548,3.184,8.72,8.72,0,0,0,.521,3.094,4.835,4.835,0,0,0,1.586,2.2A4.307,4.307,0,0,0,42.1,30Zm13.53,2V18.23h-3V15.8h18.03v2.43h-3V32H65V18.23h-6.69V32Zm26.085.135a5.549,5.549,0,0,1-1.781-.6,3.61,3.61,0,0,1-1.4-1.444,4.172,4.172,0,0,1-.551-1.9q-.034-.971-.034-2.314V18.23h-5.64V15.8h13.95v2.43h-5.64v7.53q0,1.02.015,1.695a2.673,2.673,0,0,0,.315,1.23,2.06,2.06,0,0,0,.81.814,3.007,3.007,0,0,0,1.08.326,10.7,10.7,0,0,0,1.339.022,9.83,9.83,0,0,0,1.331-.142V32a7.457,7.457,0,0,1-1.241.2,12.427,12.427,0,0,1-1.361.038A9.292,9.292,0,0,1,81.72,32.135Zm7.545-7.53V15.8h2.7v8.115a11.632,11.632,0,0,0,.206,2.209,5.97,5.97,0,0,0,.709,1.92,3.727,3.727,0,0,0,1.35,1.346,4.83,4.83,0,0,0,4.26,0,3.727,3.727,0,0,0,1.35-1.346,5.97,5.97,0,0,0,.709-1.92,11.632,11.632,0,0,0,.206-2.209V15.8h2.7V24.6a13.822,13.822,0,0,1-.184,2.239,8.415,8.415,0,0,1-.638,2.122,5.567,5.567,0,0,1-3.3,3,10.076,10.076,0,0,1-5.955,0,5.567,5.567,0,0,1-3.3-3,8.415,8.415,0,0,1-.637-2.122A13.822,13.822,0,0,1,89.265,24.6ZM119.445,35.6a4.264,4.264,0,0,0-.33-2.467,2.128,2.128,0,0,0-1.549-.945,17,17,0,0,0-2.8-.187,12.112,12.112,0,0,1-4.808-.8,5.532,5.532,0,0,1-2.666-2.231,6.434,6.434,0,0,1-.836-3.311,6.01,6.01,0,0,1,.848-3.285,4.5,4.5,0,0,1,2.5-1.875,5.844,5.844,0,0,1-1.845-1.98,5.6,5.6,0,0,1-.7-2.85,5.366,5.366,0,0,1,.585-2.584,5.015,5.015,0,0,1,1.586-1.774,7.2,7.2,0,0,1,2.261-1.024A10.18,10.18,0,0,1,114.3,9.95a8.36,8.36,0,0,1,7.35,3.84l-2.055,1.755a6.59,6.59,0,0,0-2.066-2.227,5.738,5.738,0,0,0-3.229-.833,5.367,5.367,0,0,0-3.015.791,2.741,2.741,0,0,0-1.2,2.464,2.884,2.884,0,0,0,1.192,2.49,5.831,5.831,0,0,0,3.188.96q.3.015.78.022t.908.008h.563v2.55h-.289q-.154,0-.619.019t-1.537.056a11.216,11.216,0,0,0-2.61.379,3.386,3.386,0,0,0-1.744,1.08,3.257,3.257,0,0,0-.626,2.126,3.478,3.478,0,0,0,.78,2.385,4.4,4.4,0,0,0,2.22,1.275,13.59,13.59,0,0,0,3.42.405q.42.007.971.026t1.129.079a6.917,6.917,0,0,1,1.08.195,4.483,4.483,0,0,1,1.811.975,3.817,3.817,0,0,1,1.125,1.89,6.531,6.531,0,0,1,0,2.94ZM135.63,32V23.885a11.865,11.865,0,0,0-.2-2.22,5.864,5.864,0,0,0-.705-1.913,3.736,3.736,0,0,0-1.35-1.342,4.187,4.187,0,0,0-2.137-.495,4.734,4.734,0,0,0-1.822.337,3.636,3.636,0,0,0-1.4,1.027,4.867,4.867,0,0,0-.908,1.733,8.332,8.332,0,0,0-.323,2.452l-1.755-.54a8.918,8.918,0,0,1,.848-4.042,6.124,6.124,0,0,1,2.385-2.6,7,7,0,0,1,3.622-.907,6.569,6.569,0,0,1,2.685.5,5.4,5.4,0,0,1,1.845,1.313,6.367,6.367,0,0,1,1.155,1.83,9.323,9.323,0,0,1,.592,2.055,12.1,12.1,0,0,1,.173,1.972V32Zm-11.55,0V15.8h2.4v4.335h.3V32Z" transform="translate(-17081 13631.994)" fill="#fff"/>
          <path id="Path_12159" data-name="Path 12159" d="M2.1,32V29.57l8.235-8.37L2.1,12.86V10.4H17.25v2.535H5.685l7.905,8.01v.51l-7.905,8.01h11.28V32Zm19.05-7.4V15.8h2.7v8.115a11.632,11.632,0,0,0,.206,2.209,5.97,5.97,0,0,0,.709,1.92,3.727,3.727,0,0,0,1.35,1.346,4.17,4.17,0,0,0,2.13.5,4.17,4.17,0,0,0,2.13-.5,3.727,3.727,0,0,0,1.35-1.346,5.97,5.97,0,0,0,.709-1.92,11.632,11.632,0,0,0,.206-2.209V15.8h2.7V24.6a13.822,13.822,0,0,1-.184,2.239,8.414,8.414,0,0,1-.637,2.122,5.567,5.567,0,0,1-3.3,3,8.7,8.7,0,0,1-2.978.45,8.7,8.7,0,0,1-2.977-.45,5.567,5.567,0,0,1-3.3-3,8.414,8.414,0,0,1-.638-2.122A13.822,13.822,0,0,1,21.15,24.6ZM39.225,39.2V15.8h2.7v8.115a11.632,11.632,0,0,0,.206,2.209,5.97,5.97,0,0,0,.709,1.92,3.727,3.727,0,0,0,1.35,1.346,4.17,4.17,0,0,0,2.13.5,4.716,4.716,0,0,0,1.826-.341,3.681,3.681,0,0,0,1.406-1.028,4.781,4.781,0,0,0,.9-1.733,8.433,8.433,0,0,0,.319-2.449V15.8H53.46V32H51.075V29.855A5.638,5.638,0,0,1,48.8,31.771a7.3,7.3,0,0,1-3.124.649,5.926,5.926,0,0,1-2.336-.435A4.687,4.687,0,0,1,41.61,30.74V39.2Zm18.42,0V15.8h2.7v8.115a11.632,11.632,0,0,0,.206,2.209,5.97,5.97,0,0,0,.709,1.92,3.727,3.727,0,0,0,1.35,1.346,4.17,4.17,0,0,0,2.13.5,4.716,4.716,0,0,0,1.826-.341,3.681,3.681,0,0,0,1.406-1.028,4.781,4.781,0,0,0,.9-1.733,8.433,8.433,0,0,0,.319-2.449V15.8H71.88V32H69.5V29.855a5.638,5.638,0,0,1-2.276,1.916,7.3,7.3,0,0,1-3.124.649,5.926,5.926,0,0,1-2.336-.435A4.687,4.687,0,0,1,60.03,30.74V39.2Zm23.76-6.75a7.906,7.906,0,0,1-3.143-.6,5.321,5.321,0,0,1-2.246-1.74,4.472,4.472,0,0,1-.836-2.726,5.19,5.19,0,0,1,.323-1.811,4.062,4.062,0,0,1,.971-1.511,3.437,3.437,0,0,1,1.631-.877L78,24.125a5.448,5.448,0,0,1-1.762-1.747,4.363,4.363,0,0,1-.607-2.3A4.242,4.242,0,0,1,76.4,17.5a4.822,4.822,0,0,1,2.07-1.605,7.277,7.277,0,0,1,2.857-.547,9.1,9.1,0,0,1,3.592.7,8.7,8.7,0,0,1,2.888,1.987L86.19,19.85a7.375,7.375,0,0,0-2.111-1.418A6.159,6.159,0,0,0,81.5,17.87a4.041,4.041,0,0,0-2.194.581,2.007,2.007,0,0,0-.926,1.834,1.8,1.8,0,0,0,.99,1.74,5.6,5.6,0,0,0,2.565.51H83.6v2.2h-1.68a10.259,10.259,0,0,0-2.145.2,2.578,2.578,0,0,0-1.38.709,2.068,2.068,0,0,0-.48,1.466,2.45,2.45,0,0,0,.979,2.051,4.187,4.187,0,0,0,2.621.754,5.514,5.514,0,0,0,2.809-.713,6.305,6.305,0,0,0,2.111-2.048l2.13,1.38a7.53,7.53,0,0,1-2.9,2.876A8.535,8.535,0,0,1,81.405,32.45Zm17.685-.315a5.549,5.549,0,0,1-1.781-.6,3.61,3.61,0,0,1-1.4-1.444,4.172,4.172,0,0,1-.551-1.9q-.034-.971-.034-2.314V18.23h-5.64V15.8h13.95v2.43h-5.64v7.53q0,1.02.015,1.695a2.673,2.673,0,0,0,.315,1.23,2.06,2.06,0,0,0,.81.814,3.007,3.007,0,0,0,1.08.326,10.7,10.7,0,0,0,1.339.022,9.83,9.83,0,0,0,1.331-.142V32a7.457,7.457,0,0,1-1.241.2,12.427,12.427,0,0,1-1.361.038A9.292,9.292,0,0,1,99.09,32.135Zm14.07.315a7.679,7.679,0,0,1-4.162-1.1,7.239,7.239,0,0,1-2.693-3.03,9.994,9.994,0,0,1-.945-4.44,9.874,9.874,0,0,1,.96-4.47,7.192,7.192,0,0,1,2.715-2.993,8.533,8.533,0,0,1,8.31.015,7.133,7.133,0,0,1,2.693,3.015,10.013,10.013,0,0,1,.938,4.433,10.018,10.018,0,0,1-.945,4.462,7.182,7.182,0,0,1-2.7,3.015A7.758,7.758,0,0,1,113.16,32.45Zm0-2.535a4.342,4.342,0,0,0,3.75-1.68,7.183,7.183,0,0,0,1.23-4.35,7.019,7.019,0,0,0-1.245-4.372,4.407,4.407,0,0,0-3.735-1.628,4.761,4.761,0,0,0-2.79.765,4.581,4.581,0,0,0-1.635,2.115,8.358,8.358,0,0,0-.54,3.12,7.032,7.032,0,0,0,1.26,4.38A4.374,4.374,0,0,0,113.16,29.915ZM122.1,32l6.195-8.19-6.06-8.01h3.18l4.44,5.94,4.395-5.94h3.18l-6.06,8.01L137.58,32h-3.195l-4.53-6.12L125.3,32Zm21.952.135a5.549,5.549,0,0,1-1.781-.6,3.61,3.61,0,0,1-1.4-1.444,4.173,4.173,0,0,1-.551-1.9q-.034-.971-.034-2.314V15.8h2.67v9.96q0,1.02.015,1.695a2.673,2.673,0,0,0,.315,1.23,2.06,2.06,0,0,0,.81.814,3.007,3.007,0,0,0,1.08.326,10.7,10.7,0,0,0,1.339.022,9.83,9.83,0,0,0,1.331-.142V32a7.462,7.462,0,0,1-1.245.2,12.461,12.461,0,0,1-1.361.038A9.269,9.269,0,0,1,144.053,32.135Zm7.08-.135.015-16.2h2.7v7.8l6.795-7.8h3.465l-7.155,8.1,7.995,8.1h-3.735l-7.365-7.8V32Zm23.01-18.675h-2.175l1.965-4.95h2.175Zm-1.1,19.125a7.679,7.679,0,0,1-4.163-1.1,7.239,7.239,0,0,1-2.692-3.03,9.994,9.994,0,0,1-.945-4.44,9.874,9.874,0,0,1,.96-4.47,7.192,7.192,0,0,1,2.715-2.993,8.533,8.533,0,0,1,8.31.015,7.133,7.133,0,0,1,2.693,3.015,10.013,10.013,0,0,1,.938,4.433,10.018,10.018,0,0,1-.945,4.462,7.182,7.182,0,0,1-2.7,3.015A7.758,7.758,0,0,1,173.048,32.45Zm0-2.535a4.342,4.342,0,0,0,3.75-1.68,7.183,7.183,0,0,0,1.23-4.35,7.019,7.019,0,0,0-1.245-4.372,4.407,4.407,0,0,0-3.735-1.628,4.761,4.761,0,0,0-2.79.765,4.581,4.581,0,0,0-1.635,2.115,8.358,8.358,0,0,0-.54,3.12,7.032,7.032,0,0,0,1.26,4.38A4.374,4.374,0,0,0,173.048,29.915Zm18.795,2.22a5.549,5.549,0,0,1-1.781-.6,3.61,3.61,0,0,1-1.4-1.444,4.173,4.173,0,0,1-.551-1.9q-.034-.971-.034-2.314V18.23h-5.64V15.8h13.95v2.43h-5.64v7.53q0,1.02.015,1.695a2.673,2.673,0,0,0,.315,1.23,2.06,2.06,0,0,0,.81.814,3.007,3.007,0,0,0,1.08.326,10.7,10.7,0,0,0,1.339.022,9.83,9.83,0,0,0,1.331-.142V32a7.457,7.457,0,0,1-1.241.2,12.427,12.427,0,0,1-1.361.038A9.292,9.292,0,0,1,191.842,32.135ZM211.222,32V23.885a11.865,11.865,0,0,0-.2-2.22,5.864,5.864,0,0,0-.705-1.913,3.736,3.736,0,0,0-1.35-1.342,4.187,4.187,0,0,0-2.137-.495,4.734,4.734,0,0,0-1.823.337,3.636,3.636,0,0,0-1.4,1.027,4.867,4.867,0,0,0-.908,1.733,8.332,8.332,0,0,0-.322,2.452l-1.755-.54a8.918,8.918,0,0,1,.848-4.042,6.124,6.124,0,0,1,2.385-2.6,7,7,0,0,1,3.622-.907,6.569,6.569,0,0,1,2.685.5A5.4,5.4,0,0,1,212,17.188a6.367,6.367,0,0,1,1.155,1.83,9.323,9.323,0,0,1,.592,2.055,12.106,12.106,0,0,1,.172,1.972V32Zm-11.55,0V15.8h2.4v4.335h.3V32Zm26.205.135a5.549,5.549,0,0,1-1.781-.6,3.61,3.61,0,0,1-1.4-1.444,4.173,4.173,0,0,1-.551-1.9q-.034-.971-.034-2.314V18.23h-5.64V15.8h13.95v2.43h-5.64v7.53q0,1.02.015,1.695a2.673,2.673,0,0,0,.315,1.23,2.06,2.06,0,0,0,.81.814,3.007,3.007,0,0,0,1.08.326,10.7,10.7,0,0,0,1.339.022,9.83,9.83,0,0,0,1.331-.142V32a7.457,7.457,0,0,1-1.241.2,12.427,12.427,0,0,1-1.361.038A9.292,9.292,0,0,1,225.878,32.135Zm13.575.315a6.746,6.746,0,0,1-3.93-1.129,7.238,7.238,0,0,1-2.5-3.064,10.514,10.514,0,0,1-.87-4.358,10.448,10.448,0,0,1,.878-4.369,7.228,7.228,0,0,1,2.527-3.056,6.886,6.886,0,0,1,3.975-1.125,6.162,6.162,0,0,1,3.694,1.091,5.868,5.868,0,0,1,2.156,3l-.45.78V15.8h2.385V32h-2.385V27.53l.45.78a5.834,5.834,0,0,1-2.2,3.038A6.3,6.3,0,0,1,239.452,32.45Zm.33-2.445a4.27,4.27,0,0,0,2.647-.787,4.613,4.613,0,0,0,1.545-2.171,9.228,9.228,0,0,0,.5-3.161,9.15,9.15,0,0,0-.506-3.169,4.566,4.566,0,0,0-1.541-2.149,4.256,4.256,0,0,0-2.617-.773,4.441,4.441,0,0,0-2.659.773,4.709,4.709,0,0,0-1.624,2.149,8.571,8.571,0,0,0-.548,3.184,8.721,8.721,0,0,0,.521,3.094,4.835,4.835,0,0,0,1.586,2.2A4.307,4.307,0,0,0,239.783,30Z" transform="translate(-16539 13631.994)" fill="#fff"/>
          <path id="Path_12155" data-name="Path 12155" d="M2.55,32V29.465H16.86V32ZM7.83,10.4h3.72L18.78,32H16.005L9.66,13.235,3.375,32H.6Zm22,2.925H27.66l1.965-4.95H31.8ZM33.015,32V23.885a11.864,11.864,0,0,0-.2-2.22,5.865,5.865,0,0,0-.705-1.913,3.736,3.736,0,0,0-1.35-1.342,4.187,4.187,0,0,0-2.138-.495,4.734,4.734,0,0,0-1.823.337,3.636,3.636,0,0,0-1.4,1.027,4.867,4.867,0,0,0-.907,1.733,8.332,8.332,0,0,0-.323,2.452l-1.755-.54a8.918,8.918,0,0,1,.847-4.042,6.124,6.124,0,0,1,2.385-2.6,7,7,0,0,1,3.623-.907,6.569,6.569,0,0,1,2.685.5,5.4,5.4,0,0,1,1.845,1.313,6.367,6.367,0,0,1,1.155,1.83,9.322,9.322,0,0,1,.593,2.055,12.105,12.105,0,0,1,.172,1.972V32Zm-11.55,0V15.8h2.4v4.335h.3V32ZM39.6,39.2V15.8h2.7v8.115a11.632,11.632,0,0,0,.206,2.209,5.97,5.97,0,0,0,.709,1.92,3.727,3.727,0,0,0,1.35,1.346,4.17,4.17,0,0,0,2.13.5,4.716,4.716,0,0,0,1.826-.341,3.681,3.681,0,0,0,1.406-1.028,4.781,4.781,0,0,0,.9-1.733,8.433,8.433,0,0,0,.319-2.449V15.8h2.685V32H51.45V29.855a5.638,5.638,0,0,1-2.276,1.916,7.3,7.3,0,0,1-3.124.649,5.926,5.926,0,0,1-2.336-.435,4.687,4.687,0,0,1-1.729-1.245V39.2Zm25.335-6.75a7.679,7.679,0,0,1-4.162-1.1,7.239,7.239,0,0,1-2.692-3.03,9.994,9.994,0,0,1-.945-4.44,9.874,9.874,0,0,1,.96-4.47,7.192,7.192,0,0,1,2.715-2.993,8.533,8.533,0,0,1,8.31.015,7.133,7.133,0,0,1,2.692,3.015,10.013,10.013,0,0,1,.938,4.433,10.018,10.018,0,0,1-.945,4.462,7.182,7.182,0,0,1-2.7,3.015A7.758,7.758,0,0,1,64.935,32.45Zm0-2.535a4.342,4.342,0,0,0,3.75-1.68,7.183,7.183,0,0,0,1.23-4.35,7.019,7.019,0,0,0-1.245-4.372,4.407,4.407,0,0,0-3.735-1.628,4.761,4.761,0,0,0-2.79.765,4.581,4.581,0,0,0-1.635,2.115,8.358,8.358,0,0,0-.54,3.12,7.032,7.032,0,0,0,1.26,4.38A4.374,4.374,0,0,0,64.935,29.915ZM86.79,35.6a4.112,4.112,0,0,0-.442-2.471,2.274,2.274,0,0,0-1.586-.9A23.029,23.029,0,0,0,82.11,32a8.2,8.2,0,0,1-2.689-.5,6.293,6.293,0,0,1-1.969-1.185,6.126,6.126,0,0,1-1.324-1.7,7.964,7.964,0,0,1-.743-2.074,10.976,10.976,0,0,1-.236-2.284,11.29,11.29,0,0,1,.926-4.785,6.915,6.915,0,0,1,2.647-3.06,7.678,7.678,0,0,1,4.121-1.065A7.781,7.781,0,0,1,87.3,16.6a6.153,6.153,0,0,1,2.509,3.465l-2.64.8a4.46,4.46,0,0,0-1.661-2.19,4.686,4.686,0,0,0-2.719-.78,4.189,4.189,0,0,0-2.629.788,4.625,4.625,0,0,0-1.519,2.16,9.255,9.255,0,0,0-.5,3.112,9.937,9.937,0,0,0,.173,1.894,5.313,5.313,0,0,0,.679,1.8,3.671,3.671,0,0,0,1.451,1.335,5.4,5.4,0,0,0,2.5.525q.36,0,.96.011t1.26.071a6.342,6.342,0,0,1,1.2.218,3.887,3.887,0,0,1,1.77,1.028,4.048,4.048,0,0,1,1.009,1.927,7.5,7.5,0,0,1,.041,2.85Z" transform="translate(-17581 13631.994)" fill="#fff"/>
        </g>
      </g>
    </g>
  </g>
</svg>
