<svg xmlns="http://www.w3.org/2000/svg" xmlns:xlink="http://www.w3.org/1999/xlink" width="40" height="40" viewBox="0 0 40 40">
  <defs>
    <clipPath id="clip-path">
      <rect id="Rectangle_6005" data-name="Rectangle 6005" width="40" height="40" rx="20" transform="translate(7917 -13379)" fill="none"/>
    </clipPath>
  </defs>
  <g id="popular" transform="translate(-7917 13379)" clip-path="url(#clip-path)">
    <g id="Group_12970" data-name="Group 12970">
      <rect id="Rectangle_6004" data-name="Rectangle 6004" width="40" height="40" rx="20" transform="translate(7917 -13379)" fill="none"/>
      <path id="Path_12943" data-name="Path 12943" d="M5767.038,1409.7l4.559,9.251,10.205,1.487a2.235,2.235,0,0,1,1.237,3.812l-7.383,7.195,1.746,10.163a2.234,2.234,0,0,1-3.238,2.354l-9.132-4.8-9.13,4.8a2.232,2.232,0,0,1-3.239-2.354l1.746-10.163-7.384-7.195a2.235,2.235,0,0,1,1.236-3.812l10.2-1.487,4.559-9.251A2.242,2.242,0,0,1,5767.038,1409.7Z" transform="translate(2171.968 -14786.953)" fill="#f6c649"/>
    </g>
  </g>
</svg>
