<svg xmlns="http://www.w3.org/2000/svg" xmlns:xlink="http://www.w3.org/1999/xlink" width="393" height="21.12" viewBox="0 0 393 21.12">
  <defs>
    <clipPath id="clip-path">
      <rect id="Rectangle_5651" data-name="Rectangle 5651" width="393" height="21.12" transform="translate(0 587)" fill="#fff"/>
    </clipPath>
    <linearGradient id="linear-gradient" x1="0.982" y1="0.539" x2="0.135" y2="0.483" gradientUnits="objectBoundingBox">
      <stop offset="0" stop-color="#8668a9"/>
      <stop offset="0.163" stop-color="#4180d2"/>
      <stop offset="0.261" stop-color="#52adde"/>
      <stop offset="0.424" stop-color="#67b364"/>
      <stop offset="0.562" stop-color="#9fcb5f"/>
      <stop offset="0.709" stop-color="#f7c549"/>
      <stop offset="0.852" stop-color="#e6953d"/>
      <stop offset="1" stop-color="#e27270"/>
    </linearGradient>
  </defs>
  <g id="RIBBON" transform="translate(0 -587)">
    <g id="Mask_Group_12182" data-name="Mask Group 12182" clip-path="url(#clip-path)">
      <g id="Group_12509" data-name="Group 12509" transform="translate(17715.076 -13037.994)">
        <rect id="Rectangle_5062" data-name="Rectangle 5062" width="722.342" height="21.202" transform="translate(-17715.076 13624.994)" fill="url(#linear-gradient)"/>
        <path id="Path_11769" data-name="Path 11769" d="M2.1,17.746V9.178H3.159V13.2L6.908,9.178H8.24L4.349,13.337l4.195,4.409H7.175L3.159,13.557v4.189Zm9.341.178a2.676,2.676,0,0,1-1.559-.448,2.871,2.871,0,0,1-.994-1.215,4.494,4.494,0,0,1,0-3.461,2.867,2.867,0,0,1,1-1.212,2.731,2.731,0,0,1,1.577-.446,2.444,2.444,0,0,1,1.465.433,2.328,2.328,0,0,1,.855,1.191l-.178.309V11.32h.946v6.426h-.946V15.973l.178.309a2.314,2.314,0,0,1-.873,1.2A2.5,2.5,0,0,1,11.441,17.925Zm.131-.97a1.694,1.694,0,0,0,1.05-.312,1.83,1.83,0,0,0,.613-.861,4.039,4.039,0,0,0,0-2.511,1.811,1.811,0,0,0-.611-.852,1.688,1.688,0,0,0-1.038-.306,1.762,1.762,0,0,0-1.055.306,1.868,1.868,0,0,0-.644.852,3.4,3.4,0,0,0-.217,1.263,3.459,3.459,0,0,0,.207,1.227,1.918,1.918,0,0,0,.629.872A1.708,1.708,0,0,0,11.572,16.955Zm6.268.845a2.2,2.2,0,0,1-.707-.237,1.432,1.432,0,0,1-.555-.573,1.655,1.655,0,0,1-.219-.754q-.013-.385-.013-.918v-4h1.059v3.951q0,.4.006.672a1.06,1.06,0,0,0,.125.488.817.817,0,0,0,.321.323,1.193,1.193,0,0,0,.428.129,4.243,4.243,0,0,0,.531.009,3.9,3.9,0,0,0,.528-.057v.91a2.96,2.96,0,0,1-.494.079,4.942,4.942,0,0,1-.54.015A3.677,3.677,0,0,1,17.841,17.8Zm3.957-.054L19.465,11.32h1.071l1.8,5.075,1.8-5.075h1.077L22.88,17.746Zm6.985.178a3.046,3.046,0,0,1-1.651-.434,2.871,2.871,0,0,1-1.068-1.2,3.964,3.964,0,0,1-.375-1.761,3.917,3.917,0,0,1,.381-1.773,2.853,2.853,0,0,1,1.077-1.187,3.385,3.385,0,0,1,3.3.006,2.829,2.829,0,0,1,1.068,1.2,3.972,3.972,0,0,1,.372,1.758,3.974,3.974,0,0,1-.375,1.77,2.849,2.849,0,0,1-1.071,1.2A3.077,3.077,0,0,1,28.783,17.925Zm0-1.006a1.722,1.722,0,0,0,1.487-.666,2.849,2.849,0,0,0,.488-1.725,2.784,2.784,0,0,0-.494-1.734,1.748,1.748,0,0,0-1.482-.646,1.889,1.889,0,0,0-1.107.3,1.817,1.817,0,0,0-.649.839,3.315,3.315,0,0,0-.214,1.238,2.789,2.789,0,0,0,.5,1.737A1.735,1.735,0,0,0,28.783,16.919Zm7.455.881a2.2,2.2,0,0,1-.707-.237,1.432,1.432,0,0,1-.555-.573,1.655,1.655,0,0,1-.219-.754q-.013-.385-.013-.918V12.284H32.507V11.32h5.533v.964H35.8v2.987q0,.4.006.672a1.06,1.06,0,0,0,.125.488.817.817,0,0,0,.321.323,1.193,1.193,0,0,0,.428.129,4.243,4.243,0,0,0,.531.009,3.9,3.9,0,0,0,.528-.057v.91a2.958,2.958,0,0,1-.492.079,4.929,4.929,0,0,1-.54.015A3.686,3.686,0,0,1,36.238,17.8Zm5.581.125a3.046,3.046,0,0,1-1.651-.434,2.871,2.871,0,0,1-1.068-1.2,3.964,3.964,0,0,1-.375-1.761,3.917,3.917,0,0,1,.381-1.773,2.853,2.853,0,0,1,1.077-1.187,3.385,3.385,0,0,1,3.3.006,2.829,2.829,0,0,1,1.068,1.2,3.972,3.972,0,0,1,.372,1.758,3.974,3.974,0,0,1-.375,1.77,2.849,2.849,0,0,1-1.071,1.2A3.077,3.077,0,0,1,41.819,17.925Zm0-1.006a1.722,1.722,0,0,0,1.487-.666,2.849,2.849,0,0,0,.488-1.725,2.784,2.784,0,0,0-.494-1.734,1.748,1.748,0,0,0-1.482-.646,1.889,1.889,0,0,0-1.107.3,1.817,1.817,0,0,0-.649.839,3.315,3.315,0,0,0-.214,1.238,2.789,2.789,0,0,0,.5,1.737A1.735,1.735,0,0,0,41.819,16.919Zm4.4,3.683V11.32h1.071v3.219a4.614,4.614,0,0,0,.082.876,2.368,2.368,0,0,0,.281.762,1.478,1.478,0,0,0,.535.534,1.654,1.654,0,0,0,.845.2,1.871,1.871,0,0,0,.724-.135,1.46,1.46,0,0,0,.558-.408,1.9,1.9,0,0,0,.358-.687,3.345,3.345,0,0,0,.126-.971V11.32h1.065v6.426h-.946V16.9a2.236,2.236,0,0,1-.9.76,2.9,2.9,0,0,1-1.239.257,2.351,2.351,0,0,1-.927-.173,1.859,1.859,0,0,1-.686-.494V20.6Zm8.413-10.264h-.863l.779-1.963h.863ZM55.15,17.8a2.2,2.2,0,0,1-.707-.237,1.432,1.432,0,0,1-.555-.573,1.655,1.655,0,0,1-.219-.754q-.013-.385-.013-.918v-4h1.059v3.951q0,.4.006.672a1.06,1.06,0,0,0,.125.488.817.817,0,0,0,.321.323,1.193,1.193,0,0,0,.428.129,4.243,4.243,0,0,0,.531.009,3.9,3.9,0,0,0,.528-.057v.91a2.96,2.96,0,0,1-.494.079,4.943,4.943,0,0,1-.54.015A3.677,3.677,0,0,1,55.15,17.8Zm5,.125a2.676,2.676,0,0,1-1.559-.448,2.871,2.871,0,0,1-.994-1.215,4.495,4.495,0,0,1,0-3.461,2.867,2.867,0,0,1,1-1.212,2.731,2.731,0,0,1,1.577-.446,2.444,2.444,0,0,1,1.465.433,2.328,2.328,0,0,1,.855,1.191l-.178.309V11.32h.946v6.426H62.32V15.973l.178.309a2.314,2.314,0,0,1-.873,1.2A2.5,2.5,0,0,1,60.148,17.925Zm.131-.97a1.694,1.694,0,0,0,1.05-.312,1.83,1.83,0,0,0,.613-.861,4.039,4.039,0,0,0,0-2.511,1.811,1.811,0,0,0-.611-.852,1.688,1.688,0,0,0-1.038-.306,1.762,1.762,0,0,0-1.055.306,1.868,1.868,0,0,0-.644.852,3.4,3.4,0,0,0-.217,1.263,3.459,3.459,0,0,0,.207,1.227,1.918,1.918,0,0,0,.629.872A1.708,1.708,0,0,0,60.279,16.955Z" transform="translate(-17103.465 13622.718)" fill="#fff"/>
        <path id="Path_11764" data-name="Path 11764" d="M2.1,17.746V9.178H7.514v1.006H3.159v2.683H6.8v1.006H3.159v2.868H7.514v1.006Zm7.556,0V12.284H8.466V11.32h7.152v.964h-1.19v5.462H13.369V12.284H10.716v5.462Zm8.767.054a2.2,2.2,0,0,1-.707-.237,1.432,1.432,0,0,1-.555-.573,1.655,1.655,0,0,1-.219-.754q-.013-.385-.013-.918v-4h1.059v3.951q0,.4.006.672a1.06,1.06,0,0,0,.125.488.817.817,0,0,0,.321.323,1.193,1.193,0,0,0,.428.129,4.243,4.243,0,0,0,.531.009,3.9,3.9,0,0,0,.528-.057v.91a2.96,2.96,0,0,1-.494.079,4.942,4.942,0,0,1-.54.015A3.677,3.677,0,0,1,18.424,17.8Zm2.808-.054.006-6.426h1.071v3.094L25,11.32h1.374l-2.838,3.213,3.171,3.213H25.231l-2.921-3.094v3.094Zm8.693.178a3.046,3.046,0,0,1-1.651-.434,2.871,2.871,0,0,1-1.068-1.2,3.964,3.964,0,0,1-.375-1.761,3.917,3.917,0,0,1,.381-1.773,2.853,2.853,0,0,1,1.077-1.187,3.385,3.385,0,0,1,3.3.006,2.829,2.829,0,0,1,1.068,1.2,3.972,3.972,0,0,1,.372,1.758,3.974,3.974,0,0,1-.375,1.77,2.849,2.849,0,0,1-1.071,1.2A3.077,3.077,0,0,1,29.925,17.925Zm0-1.006a1.722,1.722,0,0,0,1.487-.666,2.849,2.849,0,0,0,.488-1.725,2.784,2.784,0,0,0-.494-1.734,1.748,1.748,0,0,0-1.482-.646,1.889,1.889,0,0,0-1.107.3,1.817,1.817,0,0,0-.649.839,3.315,3.315,0,0,0-.214,1.238,2.789,2.789,0,0,0,.5,1.737A1.735,1.735,0,0,0,29.925,16.919Zm6.024.881a2.2,2.2,0,0,1-.707-.237,1.432,1.432,0,0,1-.555-.573,1.655,1.655,0,0,1-.219-.754q-.013-.385-.013-.918v-4h1.059v3.951q0,.4.006.672a1.06,1.06,0,0,0,.125.488.817.817,0,0,0,.321.323,1.193,1.193,0,0,0,.428.129,4.243,4.243,0,0,0,.531.009,3.9,3.9,0,0,0,.528-.057v.91a2.96,2.96,0,0,1-.494.079,4.942,4.942,0,0,1-.54.015A3.677,3.677,0,0,1,35.949,17.8Zm3.957-.054L37.574,11.32h1.071l1.8,5.075,1.8-5.075h1.077l-2.332,6.426Zm6.337.184a2.178,2.178,0,0,1-1.357-.414,2.494,2.494,0,0,1-.817-1.12,4.395,4.395,0,0,1-.272-1.59,4.54,4.54,0,0,1,.5-2.154,3.752,3.752,0,0,1,1.5-1.511l.69.869a3.466,3.466,0,0,0-1.193,1.171,3.138,3.138,0,0,0-.366,1.572,3.549,3.549,0,0,0,.161,1.107,1.729,1.729,0,0,0,.48.775,1.159,1.159,0,0,0,.8.284.9.9,0,0,0,.745-.3,1.583,1.583,0,0,0,.309-.788,7.722,7.722,0,0,0,.07-1.081V13.665h.994v1.089a7.721,7.721,0,0,0,.07,1.081,1.583,1.583,0,0,0,.309.788.9.9,0,0,0,.745.3,1.148,1.148,0,0,0,.809-.293,1.767,1.767,0,0,0,.475-.784,3.579,3.579,0,0,0,.156-1.089,3.124,3.124,0,0,0-.372-1.592,3.448,3.448,0,0,0-1.187-1.151l.69-.869a3.694,3.694,0,0,1,1.508,1.528,4.626,4.626,0,0,1,.485,2.143,4.334,4.334,0,0,1-.278,1.6,2.49,2.49,0,0,1-.821,1.111,2.174,2.174,0,0,1-1.34.406,2.085,2.085,0,0,1-1.154-.332,1.7,1.7,0,0,1-.7-1.1h.208a1.682,1.682,0,0,1-.69,1.1A2.085,2.085,0,0,1,46.243,17.931Zm8.735-.184L52.645,11.32h1.071l1.8,5.075,1.8-5.075h1.077L56.06,17.746Zm5.587-7.408H59.7l.779-1.963h.863Zm.515,7.461a2.2,2.2,0,0,1-.707-.237,1.432,1.432,0,0,1-.555-.573,1.655,1.655,0,0,1-.219-.754q-.013-.385-.013-.918v-4h1.059v3.951q0,.4.006.672a1.06,1.06,0,0,0,.125.488.817.817,0,0,0,.321.323,1.193,1.193,0,0,0,.428.129,4.243,4.243,0,0,0,.531.009,3.9,3.9,0,0,0,.528-.057v.91a2.96,2.96,0,0,1-.494.079,4.942,4.942,0,0,1-.54.015A3.677,3.677,0,0,1,61.079,17.8Zm5,.125a2.676,2.676,0,0,1-1.559-.448,2.871,2.871,0,0,1-.994-1.215,4.494,4.494,0,0,1,0-3.461,2.867,2.867,0,0,1,1-1.212,2.731,2.731,0,0,1,1.577-.446,2.444,2.444,0,0,1,1.465.433,2.328,2.328,0,0,1,.855,1.191l-.179.309V11.32h.946v6.426h-.946V15.973l.179.309a2.314,2.314,0,0,1-.873,1.2A2.5,2.5,0,0,1,66.077,17.925Zm.131-.97a1.694,1.694,0,0,0,1.05-.312,1.83,1.83,0,0,0,.613-.861,4.039,4.039,0,0,0,0-2.511,1.811,1.811,0,0,0-.611-.852,1.688,1.688,0,0,0-1.038-.306,1.762,1.762,0,0,0-1.055.306,1.868,1.868,0,0,0-.644.852,3.4,3.4,0,0,0-.217,1.263,3.459,3.459,0,0,0,.207,1.227,1.918,1.918,0,0,0,.629.872A1.708,1.708,0,0,0,66.208,16.955Z" transform="translate(-17580.654 13622.718)" fill="#fff"/>
        <path id="Path_11767" data-name="Path 11767" d="M2.1,17.746V9.178H8.788v8.568H7.729V10.184H3.159v7.562Zm10.466.178a3.136,3.136,0,0,1-1.247-.239,2.11,2.11,0,0,1-.891-.69,1.774,1.774,0,0,1-.332-1.081,2.059,2.059,0,0,1,.128-.718,1.611,1.611,0,0,1,.385-.6,1.363,1.363,0,0,1,.647-.348l-.042.375a2.161,2.161,0,0,1-.7-.693,1.73,1.73,0,0,1-.241-.913A1.683,1.683,0,0,1,10.582,12a1.913,1.913,0,0,1,.821-.637,2.887,2.887,0,0,1,1.133-.217,3.608,3.608,0,0,1,1.425.277,3.451,3.451,0,0,1,1.145.788l-.643.72a2.925,2.925,0,0,0-.837-.562,2.443,2.443,0,0,0-1.025-.223,1.6,1.6,0,0,0-.87.231.8.8,0,0,0-.367.727.713.713,0,0,0,.393.69,2.221,2.221,0,0,0,1.017.2h.66v.875h-.666a4.069,4.069,0,0,0-.851.077,1.022,1.022,0,0,0-.547.281.82.82,0,0,0-.19.582.972.972,0,0,0,.388.814,1.661,1.661,0,0,0,1.04.3,2.187,2.187,0,0,0,1.114-.283,2.5,2.5,0,0,0,.837-.812l.845.547a2.987,2.987,0,0,1-1.148,1.141A3.385,3.385,0,0,1,12.566,17.925ZM16.529,20.6V14.944q0-.321.01-.6a4.9,4.9,0,0,1,.043-.507,3.465,3.465,0,0,1,.47-1.4,2.661,2.661,0,0,1,.992-.953,2.967,2.967,0,0,1,1.465-.345,2.864,2.864,0,0,1,1.627.443,2.785,2.785,0,0,1,1.006,1.208,4.173,4.173,0,0,1,.342,1.723,4.216,4.216,0,0,1-.347,1.745,2.879,2.879,0,0,1-.991,1.218,2.876,2.876,0,0,1-2.728.189,2.189,2.189,0,0,1-.826-.677V20.6Zm2.951-3.647a1.759,1.759,0,0,0,1.068-.314,1.9,1.9,0,0,0,.644-.864,3.773,3.773,0,0,0,0-2.506,1.851,1.851,0,0,0-.64-.851,1.792,1.792,0,0,0-1.075-.308,1.667,1.667,0,0,0-1.69,1.154,3.987,3.987,0,0,0,0,2.521,1.841,1.841,0,0,0,.626.858A1.737,1.737,0,0,0,19.48,16.955Zm5.929.845a2.2,2.2,0,0,1-.707-.237,1.432,1.432,0,0,1-.555-.573,1.655,1.655,0,0,1-.219-.754q-.013-.385-.013-.918v-4h1.059v3.951q0,.4.006.672a1.06,1.06,0,0,0,.125.488.817.817,0,0,0,.321.323,1.193,1.193,0,0,0,.428.129,4.243,4.243,0,0,0,.531.009,3.9,3.9,0,0,0,.528-.057v.91a2.96,2.96,0,0,1-.494.079,4.942,4.942,0,0,1-.54.015A3.677,3.677,0,0,1,25.409,17.8ZM30.9,20.424V17.865a2.92,2.92,0,0,1-1.711-.205,2.693,2.693,0,0,1-1.226-1.148,3.916,3.916,0,0,1-.455-1.972,3.946,3.946,0,0,1,.455-1.981,2.689,2.689,0,0,1,1.226-1.151A2.92,2.92,0,0,1,30.9,11.2V9.244h.964V11.2a2.92,2.92,0,0,1,1.711.205A2.689,2.689,0,0,1,34.8,12.558a3.946,3.946,0,0,1,.455,1.981,3.916,3.916,0,0,1-.455,1.972,2.693,2.693,0,0,1-1.226,1.148,2.92,2.92,0,0,1-1.711.205v2.558Zm0-3.528V12.177a2.091,2.091,0,0,0-.9.027,1.674,1.674,0,0,0-.732.408,2.009,2.009,0,0,0-.494.779,3.31,3.31,0,0,0-.178,1.148,3.241,3.241,0,0,0,.181,1.142,1.992,1.992,0,0,0,.5.776,1.71,1.71,0,0,0,.735.4A2.1,2.1,0,0,0,30.9,16.9Zm.964,0a2.135,2.135,0,0,0,.887-.03,1.705,1.705,0,0,0,.738-.4,1.949,1.949,0,0,0,.5-.776,3.31,3.31,0,0,0,.179-1.148,3.381,3.381,0,0,0-.176-1.154,1.982,1.982,0,0,0-.491-.779,1.648,1.648,0,0,0-.735-.4,2.14,2.14,0,0,0-.9-.024Zm7.265-6.557h-.863l.779-1.963h.863ZM38.8,17.925a3.136,3.136,0,0,1-1.247-.239,2.11,2.11,0,0,1-.891-.69,1.774,1.774,0,0,1-.332-1.081,2.059,2.059,0,0,1,.128-.718,1.611,1.611,0,0,1,.385-.6,1.363,1.363,0,0,1,.647-.348l-.042.375a2.161,2.161,0,0,1-.7-.693,1.73,1.73,0,0,1-.241-.913A1.683,1.683,0,0,1,36.812,12a1.913,1.913,0,0,1,.821-.637,2.887,2.887,0,0,1,1.133-.217,3.608,3.608,0,0,1,1.425.277,3.451,3.451,0,0,1,1.145.788l-.643.72a2.925,2.925,0,0,0-.837-.562,2.443,2.443,0,0,0-1.025-.223,1.6,1.6,0,0,0-.87.231.8.8,0,0,0-.367.727.713.713,0,0,0,.393.69,2.221,2.221,0,0,0,1.017.2h.66v.875H39a4.069,4.069,0,0,0-.851.077,1.022,1.022,0,0,0-.547.281.82.82,0,0,0-.19.582.972.972,0,0,0,.388.814,1.661,1.661,0,0,0,1.04.3,2.187,2.187,0,0,0,1.114-.283,2.5,2.5,0,0,0,.837-.812l.845.547a2.987,2.987,0,0,1-1.148,1.141A3.385,3.385,0,0,1,38.8,17.925ZM42.759,20.6V14.944q0-.321.01-.6a4.9,4.9,0,0,1,.043-.507,3.465,3.465,0,0,1,.47-1.4,2.661,2.661,0,0,1,.992-.953,2.967,2.967,0,0,1,1.465-.345,2.864,2.864,0,0,1,1.627.443,2.785,2.785,0,0,1,1.006,1.208,4.173,4.173,0,0,1,.342,1.723,4.216,4.216,0,0,1-.347,1.745,2.879,2.879,0,0,1-.991,1.218,2.876,2.876,0,0,1-2.728.189,2.189,2.189,0,0,1-.826-.677V20.6Zm2.951-3.647a1.759,1.759,0,0,0,1.068-.314,1.9,1.9,0,0,0,.644-.864,3.773,3.773,0,0,0,0-2.506,1.851,1.851,0,0,0-.64-.851,1.792,1.792,0,0,0-1.075-.308,1.667,1.667,0,0,0-1.69,1.154,3.988,3.988,0,0,0,0,2.521,1.841,1.841,0,0,0,.626.858A1.737,1.737,0,0,0,45.71,16.955Zm6.426.97a3.136,3.136,0,0,1-1.247-.239A2.11,2.11,0,0,1,50,17a1.774,1.774,0,0,1-.332-1.081A2.059,2.059,0,0,1,49.8,15.2a1.611,1.611,0,0,1,.385-.6,1.363,1.363,0,0,1,.647-.348l-.042.375a2.161,2.161,0,0,1-.7-.693,1.73,1.73,0,0,1-.241-.913A1.683,1.683,0,0,1,50.152,12a1.913,1.913,0,0,1,.821-.637,2.887,2.887,0,0,1,1.133-.217,3.608,3.608,0,0,1,1.425.277,3.451,3.451,0,0,1,1.145.788l-.643.72a2.925,2.925,0,0,0-.837-.562,2.443,2.443,0,0,0-1.025-.223,1.6,1.6,0,0,0-.87.231.8.8,0,0,0-.367.727.713.713,0,0,0,.393.69,2.221,2.221,0,0,0,1.017.2h.66v.875h-.666a4.069,4.069,0,0,0-.851.077,1.022,1.022,0,0,0-.547.281.82.82,0,0,0-.19.582.972.972,0,0,0,.388.814,1.661,1.661,0,0,0,1.04.3,2.187,2.187,0,0,0,1.114-.283,2.5,2.5,0,0,0,.837-.812l.845.547a2.987,2.987,0,0,1-1.148,1.141A3.385,3.385,0,0,1,52.136,17.925ZM57.72,17.8a2.2,2.2,0,0,1-.707-.237,1.432,1.432,0,0,1-.555-.573,1.655,1.655,0,0,1-.219-.754q-.013-.385-.013-.918v-4h1.059v3.951q0,.4.006.672a1.06,1.06,0,0,0,.125.488.817.817,0,0,0,.321.323,1.193,1.193,0,0,0,.428.129,4.243,4.243,0,0,0,.531.009,3.9,3.9,0,0,0,.528-.057v.91a2.96,2.96,0,0,1-.494.079,4.942,4.942,0,0,1-.54.015A3.677,3.677,0,0,1,57.72,17.8Zm5,.125a2.676,2.676,0,0,1-1.559-.448,2.871,2.871,0,0,1-.994-1.215,4.494,4.494,0,0,1,0-3.461,2.867,2.867,0,0,1,1-1.212,2.731,2.731,0,0,1,1.577-.446,2.444,2.444,0,0,1,1.465.433,2.328,2.328,0,0,1,.855,1.191l-.179.309V11.32h.946v6.426H64.89V15.973l.179.309a2.314,2.314,0,0,1-.873,1.2A2.5,2.5,0,0,1,62.718,17.925Zm.131-.97a1.694,1.694,0,0,0,1.05-.312,1.83,1.83,0,0,0,.613-.861,4.039,4.039,0,0,0,0-2.511,1.811,1.811,0,0,0-.611-.852,1.688,1.688,0,0,0-1.038-.306,1.762,1.762,0,0,0-1.055.306,1.868,1.868,0,0,0-.644.852,3.4,3.4,0,0,0-.217,1.263,3.459,3.459,0,0,0,.207,1.227,1.918,1.918,0,0,0,.629.872A1.708,1.708,0,0,0,62.849,16.955Z" transform="translate(-17361.695 13622.718)" fill="#fff"/>
        <path id="Path_11766" data-name="Path 11766" d="M.6,17.746,3.468,9.178H4.943l2.868,8.568h-1.1L4.027,9.8H4.36L1.7,17.746Zm1.38-2.005v-.994H6.431v.994Zm8.163,2.005L7.811,11.32H8.882l1.8,5.075,1.8-5.075h1.077l-2.332,6.426Zm7.426-7.408h-.863l.779-1.963h.863Zm-.637,7.586a2.676,2.676,0,0,1-1.559-.448,2.871,2.871,0,0,1-.994-1.215,4.495,4.495,0,0,1,0-3.461,2.867,2.867,0,0,1,1-1.212,2.731,2.731,0,0,1,1.577-.446,2.444,2.444,0,0,1,1.465.433,2.328,2.328,0,0,1,.855,1.191l-.179.309V11.32h.946v6.426H19.1V15.973l.179.309a2.314,2.314,0,0,1-.873,1.2A2.5,2.5,0,0,1,16.933,17.925Zm.131-.97a1.694,1.694,0,0,0,1.05-.312,1.83,1.83,0,0,0,.613-.861,4.039,4.039,0,0,0,0-2.511,1.811,1.811,0,0,0-.611-.852,1.688,1.688,0,0,0-1.038-.306,1.762,1.762,0,0,0-1.055.306,1.868,1.868,0,0,0-.644.852,3.4,3.4,0,0,0-.217,1.263,3.459,3.459,0,0,0,.207,1.227,1.918,1.918,0,0,0,.629.872A1.708,1.708,0,0,0,17.064,16.955Zm5.367.791V12.284H21.24V11.32h7.152v.964H27.2v5.462H26.143V12.284H23.49v5.462Zm10.347.054a2.2,2.2,0,0,1-.707-.237,1.432,1.432,0,0,1-.555-.573,1.655,1.655,0,0,1-.219-.754q-.013-.385-.013-.918V12.284H29.047V11.32H34.58v.964H32.343v2.987q0,.4.006.672a1.06,1.06,0,0,0,.125.488.817.817,0,0,0,.321.323,1.193,1.193,0,0,0,.428.129,4.243,4.243,0,0,0,.531.009,3.9,3.9,0,0,0,.528-.057v.91a2.958,2.958,0,0,1-.492.079,4.929,4.929,0,0,1-.54.015A3.686,3.686,0,0,1,32.778,17.8Zm2.993-2.987V11.32h1.071v3.219a4.614,4.614,0,0,0,.082.876,2.368,2.368,0,0,0,.281.762,1.478,1.478,0,0,0,.535.534,1.916,1.916,0,0,0,1.69,0,1.478,1.478,0,0,0,.535-.534,2.368,2.368,0,0,0,.281-.762,4.614,4.614,0,0,0,.082-.876V11.32H41.4v3.493a5.483,5.483,0,0,1-.073.888,3.338,3.338,0,0,1-.253.842,2.208,2.208,0,0,1-1.308,1.191,4,4,0,0,1-2.362,0A2.208,2.208,0,0,1,36.1,16.543a3.338,3.338,0,0,1-.253-.842A5.483,5.483,0,0,1,35.77,14.813Zm11.971,4.361a1.691,1.691,0,0,0-.131-.979A.844.844,0,0,0,47,17.821a6.743,6.743,0,0,0-1.111-.074,4.8,4.8,0,0,1-1.907-.318,2.194,2.194,0,0,1-1.058-.885,2.552,2.552,0,0,1-.332-1.313,2.384,2.384,0,0,1,.336-1.3,1.785,1.785,0,0,1,.991-.744,2.318,2.318,0,0,1-.732-.785,2.223,2.223,0,0,1-.28-1.13,2.128,2.128,0,0,1,.232-1.025,1.989,1.989,0,0,1,.629-.7,2.854,2.854,0,0,1,.9-.406A4.038,4.038,0,0,1,45.7,9a3.316,3.316,0,0,1,2.915,1.523l-.815.7a2.614,2.614,0,0,0-.82-.884,2.276,2.276,0,0,0-1.281-.33,2.129,2.129,0,0,0-1.2.314,1.087,1.087,0,0,0-.476.977,1.144,1.144,0,0,0,.473.988,2.313,2.313,0,0,0,1.264.381q.119.006.309.009l.36,0h.223v1.011h-.115q-.061,0-.245.007l-.61.022a4.449,4.449,0,0,0-1.035.15,1.343,1.343,0,0,0-.692.428,1.292,1.292,0,0,0-.248.843,1.38,1.38,0,0,0,.309.946,1.746,1.746,0,0,0,.881.506,5.391,5.391,0,0,0,1.357.161q.167,0,.385.01t.448.031a2.744,2.744,0,0,1,.428.077,1.778,1.778,0,0,1,.718.387,1.514,1.514,0,0,1,.446.75,2.591,2.591,0,0,1,0,1.166Zm6.42-1.428V14.527a4.706,4.706,0,0,0-.08-.881,2.326,2.326,0,0,0-.28-.759,1.482,1.482,0,0,0-.535-.533,1.661,1.661,0,0,0-.848-.2,1.878,1.878,0,0,0-.723.134,1.442,1.442,0,0,0-.556.408,1.93,1.93,0,0,0-.36.687,3.305,3.305,0,0,0-.128.973l-.7-.214a3.538,3.538,0,0,1,.336-1.6,2.429,2.429,0,0,1,.946-1.029,2.775,2.775,0,0,1,1.437-.36,2.606,2.606,0,0,1,1.065.2,2.14,2.14,0,0,1,.732.521,2.525,2.525,0,0,1,.458.726,3.7,3.7,0,0,1,.235.815,4.8,4.8,0,0,1,.068.782v3.552Zm-4.581,0V11.32h.952v1.72h.119v4.706Z" transform="translate(-17463.922 13622.718)" fill="#fff"/>
        <path id="Path_11768" data-name="Path 11768" d="M2.1,17.746v-.964l3.267-3.32L2.1,10.154V9.178H8.109v1.006H3.522l3.136,3.177v.2L3.522,16.741H8v1.006Zm7.556-2.933V11.32h1.071v3.219a4.614,4.614,0,0,0,.082.876,2.368,2.368,0,0,0,.281.762,1.478,1.478,0,0,0,.535.534,1.916,1.916,0,0,0,1.69,0,1.478,1.478,0,0,0,.535-.534,2.368,2.368,0,0,0,.281-.762,4.614,4.614,0,0,0,.082-.876V11.32h1.071v3.493a5.483,5.483,0,0,1-.073.888,3.338,3.338,0,0,1-.253.842,2.208,2.208,0,0,1-1.308,1.191,3.451,3.451,0,0,1-1.181.178,3.451,3.451,0,0,1-1.181-.178,2.208,2.208,0,0,1-1.308-1.191,3.338,3.338,0,0,1-.253-.842A5.483,5.483,0,0,1,9.656,14.813Zm7.17,5.789V11.32H17.9v3.219a4.614,4.614,0,0,0,.082.876,2.368,2.368,0,0,0,.281.762,1.478,1.478,0,0,0,.535.534,1.654,1.654,0,0,0,.845.2,1.871,1.871,0,0,0,.724-.135,1.46,1.46,0,0,0,.558-.408,1.9,1.9,0,0,0,.358-.687,3.345,3.345,0,0,0,.126-.971V11.32h1.065v6.426h-.946V16.9a2.236,2.236,0,0,1-.9.76,2.9,2.9,0,0,1-1.239.257,2.351,2.351,0,0,1-.927-.173,1.859,1.859,0,0,1-.686-.494V20.6Zm7.307,0V11.32H25.2v3.219a4.614,4.614,0,0,0,.082.876,2.368,2.368,0,0,0,.281.762,1.478,1.478,0,0,0,.535.534,1.654,1.654,0,0,0,.845.2,1.871,1.871,0,0,0,.724-.135,1.46,1.46,0,0,0,.558-.408,1.9,1.9,0,0,0,.358-.687,3.345,3.345,0,0,0,.126-.971V11.32h1.065v6.426h-.946V16.9a2.236,2.236,0,0,1-.9.76,2.9,2.9,0,0,1-1.239.257,2.351,2.351,0,0,1-.927-.173,1.859,1.859,0,0,1-.686-.494V20.6Zm9.425-2.677a3.136,3.136,0,0,1-1.247-.239A2.11,2.11,0,0,1,31.42,17a1.774,1.774,0,0,1-.332-1.081,2.059,2.059,0,0,1,.128-.718,1.611,1.611,0,0,1,.385-.6,1.363,1.363,0,0,1,.647-.348l-.042.375a2.161,2.161,0,0,1-.7-.693,1.73,1.73,0,0,1-.241-.913A1.683,1.683,0,0,1,31.573,12a1.913,1.913,0,0,1,.821-.637,2.887,2.887,0,0,1,1.133-.217,3.608,3.608,0,0,1,1.425.277,3.451,3.451,0,0,1,1.145.788l-.643.72a2.925,2.925,0,0,0-.837-.562,2.443,2.443,0,0,0-1.025-.223,1.6,1.6,0,0,0-.87.231.8.8,0,0,0-.367.727.713.713,0,0,0,.393.69,2.221,2.221,0,0,0,1.017.2h.66v.875H33.76a4.069,4.069,0,0,0-.851.077,1.022,1.022,0,0,0-.547.281.82.82,0,0,0-.19.582.972.972,0,0,0,.388.814,1.661,1.661,0,0,0,1.04.3,2.187,2.187,0,0,0,1.114-.283,2.5,2.5,0,0,0,.837-.812l.845.547a2.987,2.987,0,0,1-1.148,1.141A3.385,3.385,0,0,1,33.558,17.925Zm7.015-.125a2.2,2.2,0,0,1-.707-.237,1.432,1.432,0,0,1-.555-.573,1.655,1.655,0,0,1-.219-.754q-.013-.385-.013-.918V12.284H36.842V11.32h5.533v.964H40.138v2.987q0,.4.006.672a1.06,1.06,0,0,0,.125.488.817.817,0,0,0,.321.323,1.193,1.193,0,0,0,.428.129,4.243,4.243,0,0,0,.531.009,3.9,3.9,0,0,0,.528-.057v.91a2.958,2.958,0,0,1-.492.079,4.929,4.929,0,0,1-.54.015A3.686,3.686,0,0,1,40.573,17.8Zm5.581.125A3.046,3.046,0,0,1,44.5,17.49a2.871,2.871,0,0,1-1.068-1.2,3.964,3.964,0,0,1-.375-1.761,3.917,3.917,0,0,1,.381-1.773,2.853,2.853,0,0,1,1.077-1.187,3.385,3.385,0,0,1,3.3.006,2.829,2.829,0,0,1,1.068,1.2,3.972,3.972,0,0,1,.372,1.758,3.974,3.974,0,0,1-.375,1.77,2.849,2.849,0,0,1-1.071,1.2A3.077,3.077,0,0,1,46.154,17.925Zm0-1.006a1.722,1.722,0,0,0,1.487-.666,2.849,2.849,0,0,0,.488-1.725,2.784,2.784,0,0,0-.494-1.734,1.748,1.748,0,0,0-1.482-.646,1.889,1.889,0,0,0-1.107.3,1.817,1.817,0,0,0-.649.839,3.315,3.315,0,0,0-.214,1.238,2.789,2.789,0,0,0,.5,1.737A1.735,1.735,0,0,0,46.154,16.919Zm3.546.827L52.157,14.5l-2.4-3.177h1.261l1.761,2.356,1.743-2.356h1.261l-2.4,3.177,2.463,3.249H54.573l-1.8-2.428-1.809,2.428Zm8.708.054a2.2,2.2,0,0,1-.707-.237,1.432,1.432,0,0,1-.555-.573,1.655,1.655,0,0,1-.219-.754q-.013-.385-.013-.918v-4h1.059v3.951q0,.4.006.672a1.06,1.06,0,0,0,.125.488.817.817,0,0,0,.321.323,1.193,1.193,0,0,0,.428.129,4.243,4.243,0,0,0,.531.009,3.9,3.9,0,0,0,.528-.057v.91a2.96,2.96,0,0,1-.494.079,4.943,4.943,0,0,1-.54.015A3.677,3.677,0,0,1,58.408,17.8Zm2.808-.054.006-6.426h1.071v3.094l2.7-3.094h1.374l-2.838,3.213L66.7,17.746H65.214l-2.921-3.094v3.094Zm9.127-7.408h-.863l.779-1.963h.863Zm-.434,7.586a3.046,3.046,0,0,1-1.651-.434,2.871,2.871,0,0,1-1.068-1.2,3.964,3.964,0,0,1-.375-1.761,3.917,3.917,0,0,1,.381-1.773,2.853,2.853,0,0,1,1.077-1.187,3.385,3.385,0,0,1,3.3.006,2.829,2.829,0,0,1,1.068,1.2,3.972,3.972,0,0,1,.372,1.758,3.974,3.974,0,0,1-.375,1.77,2.849,2.849,0,0,1-1.071,1.2A3.077,3.077,0,0,1,69.909,17.925Zm0-1.006a1.722,1.722,0,0,0,1.487-.666,2.849,2.849,0,0,0,.488-1.725,2.784,2.784,0,0,0-.494-1.734,1.748,1.748,0,0,0-1.482-.646,1.889,1.889,0,0,0-1.107.3,1.817,1.817,0,0,0-.649.839,3.315,3.315,0,0,0-.214,1.238,2.789,2.789,0,0,0,.5,1.737A1.735,1.735,0,0,0,69.909,16.919Zm7.455.881a2.2,2.2,0,0,1-.707-.237,1.432,1.432,0,0,1-.555-.573,1.655,1.655,0,0,1-.219-.754q-.013-.385-.013-.918V12.284H73.634V11.32h5.533v.964H76.93v2.987q0,.4.006.672a1.06,1.06,0,0,0,.125.488.817.817,0,0,0,.321.323,1.193,1.193,0,0,0,.428.129,4.243,4.243,0,0,0,.531.009,3.9,3.9,0,0,0,.528-.057v.91a2.958,2.958,0,0,1-.492.079,4.929,4.929,0,0,1-.54.015A3.686,3.686,0,0,1,77.364,17.8Zm7.687-.054V14.527a4.706,4.706,0,0,0-.08-.881,2.326,2.326,0,0,0-.28-.759,1.482,1.482,0,0,0-.535-.533,1.661,1.661,0,0,0-.848-.2,1.878,1.878,0,0,0-.723.134,1.442,1.442,0,0,0-.556.408,1.931,1.931,0,0,0-.36.687,3.305,3.305,0,0,0-.128.973l-.7-.214a3.537,3.537,0,0,1,.336-1.6,2.429,2.429,0,0,1,.946-1.029,2.775,2.775,0,0,1,1.437-.36,2.606,2.606,0,0,1,1.065.2,2.14,2.14,0,0,1,.732.521,2.525,2.525,0,0,1,.458.726,3.7,3.7,0,0,1,.235.815,4.8,4.8,0,0,1,.068.782v3.552Zm-4.581,0V11.32h.952v1.72h.119v4.706Zm10.395.054a2.2,2.2,0,0,1-.707-.237,1.432,1.432,0,0,1-.555-.573,1.655,1.655,0,0,1-.219-.754q-.013-.385-.013-.918V12.284H87.134V11.32h5.533v.964H90.43v2.987q0,.4.006.672a1.06,1.06,0,0,0,.125.488.817.817,0,0,0,.321.323,1.193,1.193,0,0,0,.428.129,4.243,4.243,0,0,0,.531.009,3.9,3.9,0,0,0,.528-.057v.91a2.958,2.958,0,0,1-.492.079,4.929,4.929,0,0,1-.54.015A3.686,3.686,0,0,1,90.865,17.8Zm5.385.125a2.676,2.676,0,0,1-1.559-.448,2.871,2.871,0,0,1-.994-1.215,4.495,4.495,0,0,1,0-3.461,2.867,2.867,0,0,1,1-1.212,2.731,2.731,0,0,1,1.577-.446,2.444,2.444,0,0,1,1.465.433,2.328,2.328,0,0,1,.855,1.191l-.178.309V11.32h.946v6.426h-.946V15.973l.178.309a2.314,2.314,0,0,1-.873,1.2A2.5,2.5,0,0,1,96.25,17.925Zm.131-.97a1.694,1.694,0,0,0,1.05-.312,1.83,1.83,0,0,0,.613-.861,4.039,4.039,0,0,0,0-2.511,1.811,1.811,0,0,0-.611-.852,1.688,1.688,0,0,0-1.038-.306,1.762,1.762,0,0,0-1.055.306,1.868,1.868,0,0,0-.644.852,3.4,3.4,0,0,0-.217,1.263,3.459,3.459,0,0,0,.207,1.227,1.918,1.918,0,0,0,.629.872A1.708,1.708,0,0,0,96.38,16.955Z" transform="translate(-17249.834 13622.718)" fill="#fff"/>
        <path id="Path_11765" data-name="Path 11765" d="M1.373,17.746V16.741H7.05v1.006ZM3.468,9.178H4.943l2.868,8.568h-1.1L4.194,10.3,1.7,17.746H.6Zm8.729,1.16h-.863l.779-1.963h.863Zm1.261,7.408V14.527a4.706,4.706,0,0,0-.08-.881,2.326,2.326,0,0,0-.28-.759,1.482,1.482,0,0,0-.535-.533,1.661,1.661,0,0,0-.848-.2,1.878,1.878,0,0,0-.723.134,1.442,1.442,0,0,0-.556.408,1.931,1.931,0,0,0-.36.687,3.305,3.305,0,0,0-.128.973l-.7-.214a3.538,3.538,0,0,1,.336-1.6,2.429,2.429,0,0,1,.946-1.029,2.775,2.775,0,0,1,1.437-.36,2.606,2.606,0,0,1,1.065.2,2.14,2.14,0,0,1,.732.521,2.525,2.525,0,0,1,.458.726,3.7,3.7,0,0,1,.235.815,4.8,4.8,0,0,1,.068.782v3.552Zm-4.581,0V11.32h.952v1.72h.119v4.706ZM16.07,20.6V11.32h1.071v3.219a4.614,4.614,0,0,0,.082.876,2.368,2.368,0,0,0,.281.762,1.478,1.478,0,0,0,.535.534,1.654,1.654,0,0,0,.845.2,1.871,1.871,0,0,0,.724-.135,1.46,1.46,0,0,0,.558-.408,1.9,1.9,0,0,0,.358-.687,3.345,3.345,0,0,0,.126-.971V11.32h1.065v6.426H20.77V16.9a2.236,2.236,0,0,1-.9.76,2.9,2.9,0,0,1-1.239.257,2.351,2.351,0,0,1-.927-.173,1.859,1.859,0,0,1-.686-.494V20.6Zm10.05-2.677a3.046,3.046,0,0,1-1.651-.434,2.872,2.872,0,0,1-1.068-1.2,3.964,3.964,0,0,1-.375-1.761,3.917,3.917,0,0,1,.381-1.773,2.853,2.853,0,0,1,1.077-1.187,3.385,3.385,0,0,1,3.3.006,2.829,2.829,0,0,1,1.068,1.2,3.972,3.972,0,0,1,.372,1.758,3.974,3.974,0,0,1-.375,1.77,2.849,2.849,0,0,1-1.071,1.2A3.077,3.077,0,0,1,26.119,17.925Zm0-1.006a1.722,1.722,0,0,0,1.487-.666,2.849,2.849,0,0,0,.488-1.725,2.784,2.784,0,0,0-.494-1.734,1.748,1.748,0,0,0-1.482-.646,1.889,1.889,0,0,0-1.107.3,1.817,1.817,0,0,0-.649.839,3.315,3.315,0,0,0-.214,1.238,2.789,2.789,0,0,0,.5,1.737A1.735,1.735,0,0,0,26.119,16.919Zm8.669,2.255a1.631,1.631,0,0,0-.176-.98.9.9,0,0,0-.629-.357,9.135,9.135,0,0,0-1.052-.091,3.254,3.254,0,0,1-1.067-.2,2.5,2.5,0,0,1-.781-.47,2.43,2.43,0,0,1-.525-.674,3.159,3.159,0,0,1-.295-.823,4.354,4.354,0,0,1-.094-.906,4.479,4.479,0,0,1,.367-1.9,2.743,2.743,0,0,1,1.05-1.214,3.046,3.046,0,0,1,1.635-.422,3.087,3.087,0,0,1,1.766.494,2.441,2.441,0,0,1,1,1.374l-1.047.315a1.769,1.769,0,0,0-.659-.869,1.859,1.859,0,0,0-1.078-.309,1.661,1.661,0,0,0-1.043.312,1.834,1.834,0,0,0-.6.857,3.671,3.671,0,0,0-.2,1.235,3.942,3.942,0,0,0,.068.751,2.108,2.108,0,0,0,.269.713,1.456,1.456,0,0,0,.576.53,2.142,2.142,0,0,0,.991.208q.143,0,.381,0t.5.028a2.516,2.516,0,0,1,.476.086,1.542,1.542,0,0,1,.7.408,1.606,1.606,0,0,1,.4.765,2.976,2.976,0,0,1,.016,1.13Z" transform="translate(-17662.254 13622.718)" fill="#fff"/>
      </g>
    </g>
  </g>
</svg>
