<svg xmlns="http://www.w3.org/2000/svg" width="20.828" height="21" viewBox="0 0 20.828 21">
  <g id="CP_FOOTER" transform="translate(-382.106 -2454.764)">
    <path id="Path_97" data-name="Path 97" d="M132.77,152.889q-4.029,0-4.027-4.058a2.924,2.924,0,0,1,.6-1.91,1.852,1.852,0,0,1,1.5-.733,1.786,1.786,0,0,1,1.47.6,2.237,2.237,0,0,1,.485,1.5,1.428,1.428,0,0,1-.507,1.14,1.734,1.734,0,0,1-1.157.438,1.781,1.781,0,0,1-.577-.1l-.274-.2c-.09.024-.153.137-.185.34a1.688,1.688,0,0,0-.014.541,2.03,2.03,0,0,0,.892,1.468,3.415,3.415,0,0,0,1.783.423v.55Z" transform="translate(256.991 2313.272)" fill="#fff"/>
    <path id="Path_98" data-name="Path 98" d="M147.229,158.346q-7.3,0-7.3-7.357A5.332,5.332,0,0,1,141,147.524a3.366,3.366,0,0,1,2.731-1.318,3.278,3.278,0,0,1,2.669,1.061,4.07,4.07,0,0,1,.893,2.69,2.577,2.577,0,0,1-.924,2.062,3.137,3.137,0,0,1-2.084.792,3.458,3.458,0,0,1-1.046-.183l-.485-.364c-.163.041-.274.244-.333.6a3.261,3.261,0,0,0-.034.978,3.732,3.732,0,0,0,1.642,2.666,6.181,6.181,0,0,0,3.2.787v1.042Z" transform="translate(250.351 2313.259)" fill="#fff"/>
    <path id="Path_99" data-name="Path 99" d="M130.237,135.757a9.39,9.39,0,1,1-9.31,9.392,9.352,9.352,0,0,1,9.31-9.392m0-1.113a10.5,10.5,0,1,0,10.411,10.5v0a10.457,10.457,0,0,0-10.411-10.5" transform="translate(262.285 2320.12)" fill="#fff"/>
  </g>
</svg>
