<svg xmlns="http://www.w3.org/2000/svg" xmlns:xlink="http://www.w3.org/1999/xlink" width="29" height="29" viewBox="0 0 29 29">
  <defs>
    <linearGradient id="linear-gradient" x1="0.854" y1="0.149" x2="0.142" y2="0.841" gradientUnits="objectBoundingBox">
      <stop offset="0" stop-color="#00a7dc"/>
      <stop offset="1" stop-color="#825aa2"/>
    </linearGradient>
  </defs>
  <g id="MAP_INDEX_COLLABS" transform="translate(-4160.207 -665)">
    <circle id="Ellipse_367" data-name="Ellipse 367" cx="14.5" cy="14.5" r="14.5" transform="translate(4160.207 665)" fill="url(#linear-gradient)"/>
    <path id="Polygon_5" data-name="Polygon 5" d="M9.224.654a.3.3,0,0,1,.553,0l2.41,5.7a.3.3,0,0,0,.244.181l5.926.651a.3.3,0,0,1,.173.516l-4.45,4.209a.3.3,0,0,0-.088.278l1.244,6.139a.3.3,0,0,1-.45.316L9.656,15.526a.3.3,0,0,0-.312,0L4.215,18.644a.3.3,0,0,1-.45-.316l1.244-6.139a.3.3,0,0,0-.088-.278L.471,7.7a.3.3,0,0,1,.173-.516L6.57,6.535a.3.3,0,0,0,.244-.181Z" transform="translate(4165.327 669)" fill="#fff"/>
  </g>
</svg>
