<svg xmlns="http://www.w3.org/2000/svg" width="69.634" height="55.608" viewBox="0 0 69.634 55.608">
  <g id="LOGO_CROWDAPPS_SMALL" transform="translate(-7.586 8)">
    <g id="Layer_2-2" data-name="Layer 2-2" transform="translate(7.586 -8)">
      <path id="Path_10527" data-name="Path 10527" d="M322.921,86.189A34.807,34.807,0,0,0,295.014,141.8h5.567a30.548,30.548,0,1,1,44.7,0h5.561a34.8,34.8,0,0,0-27.919-55.608" transform="translate(-288.114 -86.189)"/>
      <path id="Path_10528" data-name="Path 10528" d="M351.733,129.7a7.267,7.267,0,0,0-5.621,2.314,8.48,8.48,0,0,0-2.12,6.009,8.876,8.876,0,0,0,2.036,6.112,6.476,6.476,0,0,0,2.683,1.817l-1.818,11.231h9.741l-1.853-11.243a6.586,6.586,0,0,0,2.647-1.769,10.123,10.123,0,0,0,.036-12.224,7.35,7.35,0,0,0-5.712-2.229" transform="translate(-316.926 -108.624)"/>
    </g>
  </g>
</svg>
