<svg id="MENU_YT" xmlns="http://www.w3.org/2000/svg" width="25" height="25" viewBox="0 0 25 25">
  <path id="youtube-square-brands" d="M10.424,41.492l5.312,3.019L10.424,47.53ZM25,34.679V54.321A2.679,2.679,0,0,1,22.321,57H2.679A2.679,2.679,0,0,1,0,54.321V34.679A2.679,2.679,0,0,1,2.679,32H22.321A2.679,2.679,0,0,1,25,34.679Zm-2.344,9.838a26.814,26.814,0,0,0-.424-4.922,2.547,2.547,0,0,0-1.8-1.808c-1.579-.43-7.935-.43-7.935-.43s-6.356,0-7.935.43a2.547,2.547,0,0,0-1.8,1.808,28.772,28.772,0,0,0,0,9.844,2.51,2.51,0,0,0,1.8,1.78c1.579.424,7.935.424,7.935.424s6.356,0,7.935-.43a2.51,2.51,0,0,0,1.8-1.78,26.732,26.732,0,0,0,.424-4.916Z" transform="translate(0 -32)" fill="#22afe3"/>
</svg>
