<svg xmlns="http://www.w3.org/2000/svg" xmlns:xlink="http://www.w3.org/1999/xlink" width="1367" height="354" viewBox="0 0 1367 354">
  <defs>
    <clipPath id="clip-path">
      <rect id="Rectangle_213" data-name="Rectangle 213" width="1367" height="354" transform="translate(257)" fill="#fff"/>
    </clipPath>
    <linearGradient id="linear-gradient" x1="1" y1="0.028" x2="-0.05" y2="1.054" gradientUnits="objectBoundingBox">
      <stop offset="0" stop-color="#fff" stop-opacity="0"/>
      <stop offset="1" stop-color="#fff"/>
    </linearGradient>
  </defs>
  <g id="BOTAKIS_BG" transform="translate(-269.744 -274.758)">
    <g id="BOTAKIS_BG-2" data-name="BOTAKIS_BG" transform="translate(12.744 274.758)" clip-path="url(#clip-path)">
      <g id="Path_11137" data-name="Path 11137" transform="translate(257)" fill="#d1ec57">
        <path d="M 1317 353.5 L 50 353.5 C 43.31733322143555 353.5 36.83483505249023 352.1913452148438 30.73250007629395 349.6101684570312 C 24.83816719055176 347.1171569824219 19.54433250427246 343.5480041503906 14.99816703796387 339.0018310546875 C 10.45199966430664 334.4556579589844 6.882833480834961 329.1618347167969 4.389833450317383 323.2674865722656 C 1.808666706085205 317.1651611328125 0.5 310.6826782226562 0.5 304 L 0.5 50 C 0.5 43.31733322143555 1.808666706085205 36.83483505249023 4.389833450317383 30.73250007629395 C 6.882833480834961 24.83816719055176 10.45199966430664 19.54433250427246 14.99816703796387 14.99816703796387 C 19.54433250427246 10.45199966430664 24.83816719055176 6.882833480834961 30.73250007629395 4.389833450317383 C 36.83483505249023 1.808666706085205 43.31733322143555 0.5 50 0.5 L 1317 0.5 C 1323.6826171875 0.5 1330.165161132812 1.808666706085205 1336.267456054688 4.389833450317383 C 1342.161865234375 6.882833480834961 1347.455688476562 10.45199966430664 1352.001831054688 14.99816703796387 C 1356.547973632812 19.54433250427246 1360.1171875 24.83816719055176 1362.6103515625 30.73250007629395 C 1365.191284179688 36.83483505249023 1366.5 43.31733322143555 1366.5 50 L 1366.5 304 C 1366.5 310.6826782226562 1365.191284179688 317.1651611328125 1362.6103515625 323.2674865722656 C 1360.1171875 329.1618347167969 1356.547973632812 334.4556579589844 1352.001831054688 339.0018310546875 C 1347.455688476562 343.5480041503906 1342.161865234375 347.1171569824219 1336.267456054688 349.6101684570312 C 1330.165161132812 352.1913452148438 1323.6826171875 353.5 1317 353.5 Z" stroke="none"/>
        <path d="M 50 1 C 43.384521484375 1 36.967529296875 2.295318603515625 30.9273681640625 4.850341796875 C 25.092529296875 7.31817626953125 19.8521728515625 10.851318359375 15.3516845703125 15.35183715820312 C 10.851318359375 19.8521728515625 7.318115234375 25.09249877929688 4.8502197265625 30.92733764648438 C 2.2952880859375 36.96768188476562 1 43.38467407226562 1 50 L 1 304 C 1 310.6153259277344 2.2952880859375 317.0323486328125 4.8502197265625 323.0726623535156 C 7.318115234375 328.9075012207031 10.851318359375 334.1478271484375 15.3516845703125 338.6481628417969 C 19.8521728515625 343.148681640625 25.092529296875 346.6818237304688 30.9273681640625 349.149658203125 C 36.967529296875 351.7046813964844 43.384521484375 353 50 353 L 1317 353 C 1323.615356445312 353 1330.032348632812 351.7046813964844 1336.072631835938 349.149658203125 C 1341.907470703125 346.6818237304688 1347.147827148438 343.148681640625 1351.648193359375 338.6481628417969 C 1356.148681640625 334.1478271484375 1359.681884765625 328.9075012207031 1362.149658203125 323.0726623535156 C 1364.704711914062 317.0323486328125 1366 310.6153259277344 1366 304 L 1366 50 C 1366 43.38467407226562 1364.704711914062 36.96768188476562 1362.149658203125 30.92733764648438 C 1359.681884765625 25.09249877929688 1356.148681640625 19.8521728515625 1351.648193359375 15.35183715820312 C 1347.147827148438 10.851318359375 1341.907470703125 7.31817626953125 1336.072631835938 4.850341796875 C 1330.032348632812 2.295318603515625 1323.615356445312 1 1317 1 L 50 1 M 50 0 L 1317 0 C 1344.614135742188 0 1367 22.38583374023438 1367 50 L 1367 304 C 1367 331.6141662597656 1344.614135742188 354 1317 354 L 50 354 C 22.3856201171875 354 0 331.6141662597656 0 304 L 0 50 C 0 22.38583374023438 22.3856201171875 0 50 0 Z" stroke="none" fill="#000"/>
      </g>
    </g>
    <path id="BOTAKIS_BG_LINES" d="M-247.885-2688.313l-200.949-126.144-1.206,1.5,147.929,124.648h-7.082l-143.712-121.095-3.712,4.6,93.936,116.492h-5.861l-91-112.857-91,112.857h-5.862l93.936-116.492-3.712-4.6L-609.9-2688.313h-7.082l147.929-124.648-1.206-1.5-200.949,126.144H-679.8l206.648-129.722-21.2-26.3-39.414-33.211a2.223,2.223,0,0,1-.244-3.188,2.339,2.339,0,0,1,1.877-.779,2.341,2.341,0,0,1,1.393.549l21.372,18.008-48.656-60.339a2.228,2.228,0,0,1-.223-2.493l-731.51,170.474a2.32,2.32,0,0,1-.529.061,2.359,2.359,0,0,1-2.281-1.75,2.223,2.223,0,0,1,1.663-2.731l761.643-177.5a2.363,2.363,0,0,1,1.491.144,2.347,2.347,0,0,1,1.319,1.545,2.223,2.223,0,0,1-1.665,2.73l-26.824,6.251a2.341,2.341,0,0,1,.537.487l63.321,78.525,22.406,18.88a2.217,2.217,0,0,1,.319-.743,2.332,2.332,0,0,1,1.75-1.031,2.347,2.347,0,0,1,1.455.348l5.6,3.515,5.6-3.515a2.352,2.352,0,0,1,1.457-.348,2.337,2.337,0,0,1,1.75,1.031,2.217,2.217,0,0,1,.319.743l22.4-18.877,63.323-78.529a2.346,2.346,0,0,1,.538-.487l-26.823-6.251a2.223,2.223,0,0,1-1.665-2.73,2.342,2.342,0,0,1,1.319-1.545,2.364,2.364,0,0,1,1.491-.144l220.58,51.4v4.686l-191.595-44.65a2.229,2.229,0,0,1-.222,2.493l-48.656,60.339,21.372-18.008a2.343,2.343,0,0,1,1.392-.549,2.334,2.334,0,0,1,1.876.779,2.222,2.222,0,0,1-.242,3.188l-39.414,33.211-21.206,26.3L-239.3-2688.313ZM-462.7-2812.35l3.152,3.909,3.153-3.909-3.152-2.656Zm6.693-5.639,2.476,2.086.8-1-2.621-1.644Zm-10.363,1.088.8,1,2.477-2.087-.661-.556Zm14.688-4.733,1.841,1.156,6.809-8.443Zm-17.573,1.156,1.841-1.156-8.651-7.29Zm9.563-.616.143.121.143-.12-.143-.09ZM-765-2688.313l235.579-131.22a2.356,2.356,0,0,1,1.472-.272,2.33,2.33,0,0,1,1.693,1.121,2.224,2.224,0,0,1-.847,3.084L-755.62-2688.313Zm-145.483,0,336.895-150.829a2.351,2.351,0,0,1,1.49-.142,2.333,2.333,0,0,1,1.589,1.263,2.223,2.223,0,0,1-1.112,3l-327.693,146.71Zm-124.076,0,460.995-178.052a2.344,2.344,0,0,1,1.5-.063,2.332,2.332,0,0,1,1.521,1.344,2.221,2.221,0,0,1-1.268,2.935l-450.078,173.836Zm-282.6-4.613a2.223,2.223,0,0,1,1.567-2.787l754.984-203.969a2.349,2.349,0,0,1,1.494.094,2.336,2.336,0,0,1,1.373,1.5,2.224,2.224,0,0,1-1.568,2.786l-754.985,203.968a2.339,2.339,0,0,1-.61.081A2.353,2.353,0,0,1-1317.16-2692.926ZM-391.995-2815.6a2.225,2.225,0,0,1-.849-3.084,2.338,2.338,0,0,1,1.695-1.121,2.349,2.349,0,0,1,1.472.272l207.191,115.407q-.621.667-1.268,1.315-1.041,1.042-2.135,2.014Zm44.518-19.423a2.223,2.223,0,0,1-1.111-3,2.328,2.328,0,0,1,1.589-1.263,2.341,2.341,0,0,1,1.491.142l176.253,78.91v5Zm.194-27.126a2.222,2.222,0,0,1-1.267-2.935,2.337,2.337,0,0,1,1.521-1.346,2.351,2.351,0,0,1,1.495.065l176.279,68.085v4.892Zm-1000.1,39.493a2.224,2.224,0,0,1,1.851-2.608L-573.361-2949.2a2.352,2.352,0,0,1,1.477.248,2.331,2.331,0,0,1,1.208,1.632,2.221,2.221,0,0,1-1.85,2.607L-1344.7-2820.778a2.249,2.249,0,0,1-.371.03A2.36,2.36,0,0,1-1347.381-2822.656Zm987.594-72.649a2.222,2.222,0,0,1-1.568-2.786,2.336,2.336,0,0,1,1.372-1.5,2.365,2.365,0,0,1,1.5-.094l189.231,51.123v4.728Zm-978.617,15.612a2.222,2.222,0,0,1,1.941-2.542l776.022-96.909a2.351,2.351,0,0,1,1.467.3,2.329,2.329,0,0,1,1.15,1.673,2.22,2.22,0,0,1-1.94,2.541l-776.023,96.911a2.44,2.44,0,0,1-.29.018A2.359,2.359,0,0,1-1338.4-2879.693Zm991.834-65.019a2.221,2.221,0,0,1-1.851-2.607,2.332,2.332,0,0,1,1.209-1.632,2.35,2.35,0,0,1,1.477-.248l176.479,28.325v4.621Zm-1025.5-1.475a2.221,2.221,0,0,1,2.071-2.435l780.033-56.164a2.341,2.341,0,0,1,1.449.374,2.335,2.335,0,0,1,1.061,1.733,2.222,2.222,0,0,1-2.071,2.435l-780.033,56.164c-.056,0-.112.006-.167.006A2.362,2.362,0,0,1-1372.066-2946.187Zm1012.732-28.445a2.222,2.222,0,0,1-1.941-2.541,2.33,2.33,0,0,1,1.152-1.673,2.356,2.356,0,0,1,1.467-.3l189.4,23.653v4.6Zm29.761-25.611a2.221,2.221,0,0,1-2.071-2.435,2.34,2.34,0,0,1,1.06-1.733,2.342,2.342,0,0,1,1.45-.374l159.857,11.51q.021.73.021,1.463v3.113Zm-1042.476,1.615a2.222,2.222,0,0,1,2.154-2.363l781.517-28.907a2.364,2.364,0,0,1,1.436.426,2.336,2.336,0,0,1,1,1.768,2.222,2.222,0,0,1-2.155,2.363l-781.516,28.907-.084,0A2.361,2.361,0,0,1-1372.049-2998.628ZM-331-3025.342a2.222,2.222,0,0,1-2.154-2.363,2.341,2.341,0,0,1,1-1.768,2.364,2.364,0,0,1,1.436-.426l149.245,5.52a49.4,49.4,0,0,1,3.641,4.7Z" transform="translate(1805.5 3316.571)" opacity="0.3" fill="url(#linear-gradient)"/>
  </g>
</svg>
