<svg xmlns="http://www.w3.org/2000/svg" width="193.877" height="75.407" viewBox="0 0 193.877 75.407">
  <g id="BOTAKIS_LOGO" transform="translate(153 -1492.593)">
    <g id="Group_12448" data-name="Group 12448" transform="translate(-153 1492.593)">
      <g id="Group_15" data-name="Group 15" transform="translate(81.557 1.42)">
        <path id="Path_3" data-name="Path 3" d="M935.951,144.585a10.708,10.708,0,0,1-1.814,6.628,6.01,6.01,0,0,1-5.067,2.378,5.521,5.521,0,0,1-4.593-2.207l-.212,1.88h-4.25V128.157h4.724v9.007a5.379,5.379,0,0,1,4.3-1.913,6.059,6.059,0,0,1,5.075,2.378,10.725,10.725,0,0,1,1.839,6.694Zm-4.724-.343a7.038,7.038,0,0,0-.85-3.915,2.874,2.874,0,0,0-2.533-1.234,3.116,3.116,0,0,0-3.106,1.847v6.98a3.158,3.158,0,0,0,3.138,1.863,2.917,2.917,0,0,0,3.008-2.256A11.637,11.637,0,0,0,931.226,144.242Z" transform="translate(-920.013 -128.157)"/>
        <path id="Path_4" data-name="Path 4" d="M971.448,155.607a10.487,10.487,0,0,1,1.014-4.691,7.42,7.42,0,0,1,2.918-3.187A8.511,8.511,0,0,1,979.8,146.6a8.054,8.054,0,0,1,5.844,2.19,8.792,8.792,0,0,1,2.526,5.95l.033,1.209a9.246,9.246,0,0,1-2.272,6.53,8.806,8.806,0,0,1-12.2.008,9.407,9.407,0,0,1-2.28-6.669Zm4.724.335a6.606,6.606,0,0,0,.948,3.855,3.406,3.406,0,0,0,5.394.017,7.236,7.236,0,0,0,.964-4.216,6.547,6.547,0,0,0-.964-3.831,3.136,3.136,0,0,0-2.714-1.359,3.083,3.083,0,0,0-2.681,1.351A7.354,7.354,0,0,0,976.172,155.942Z" transform="translate(-951.663 -139.506)"/>
        <path id="Path_5" data-name="Path 5" d="M1029.935,136.146v4.348h3.024v3.465h-3.024v8.827a2.107,2.107,0,0,0,.376,1.406,1.887,1.887,0,0,0,1.438.425,7.542,7.542,0,0,0,1.39-.115v3.58a9.721,9.721,0,0,1-2.861.425q-4.969,0-5.067-5.018v-9.53h-2.583v-3.465h2.583v-4.348Z" transform="translate(-983.156 -133.073)"/>
        <path id="Path_6" data-name="Path 6" d="M1072.6,164.613a12.266,12.266,0,0,1-.327-3.237,7.1,7.1,0,0,1-2.86,2.632,8.851,8.851,0,0,1-4.1.932,5.713,5.713,0,0,1-3.947-1.332,4.431,4.431,0,0,1-1.5-3.474,4.484,4.484,0,0,1,2.2-3.9,10.575,10.575,0,0,1,5.844-1.5h4.364v-2.583a4.345,4.345,0,0,0-1.4-3.449,5.874,5.874,0,0,0-4-1.226,6.438,6.438,0,0,0-4.037,1.242,3.746,3.746,0,0,0-1.618,3.073l-.882-.033a4.527,4.527,0,0,1,1.9-3.662,7.238,7.238,0,0,1,4.642-1.5,6.789,6.789,0,0,1,4.544,1.43,5.135,5.135,0,0,1,1.733,4.029v8.451a11.344,11.344,0,0,0,.458,3.956v.147Zm-7.29-.556a7.938,7.938,0,0,0,4.274-1.111,6.887,6.887,0,0,0,2.689-3.122v-4.2h-4.086a9.569,9.569,0,0,0-5.8,1.5,3.693,3.693,0,0,0-1.634,3.057,3.514,3.514,0,0,0,1.291,2.746A4.79,4.79,0,0,0,1065.312,164.057Z" transform="translate(-1006.071 -139.506)"/>
        <path id="Path_7" data-name="Path 7" d="M1117.038,143.7l-.033.033-2.566,2.207v7.323h-.883V128.157h.883v16.82l2.076-1.962,8.042-7.437h1.259l-8.124,7.535,8.631,10.151h-1.144Z" transform="translate(-1039.107 -128.157)"/>
        <path id="Path_8" data-name="Path 8" d="M1158.447,131.622a.9.9,0,0,1,.262-.646.854.854,0,0,1,.638-.27.92.92,0,0,1,.915.915.854.854,0,0,1-.27.637.9.9,0,0,1-.646.262.893.893,0,0,1-.9-.9Zm1.341,23.211h-.883V137.147h.883Z" transform="translate(-1066.729 -129.726)"/>
        <path id="Path_9" data-name="Path 9" d="M1190.6,160.281q0-3.22-5.492-4.381a10.8,10.8,0,0,1-4.593-1.806,3.776,3.776,0,0,1-1.291-3.032,3.872,3.872,0,0,1,1.643-3.2,6.834,6.834,0,0,1,4.274-1.259,7.216,7.216,0,0,1,4.593,1.365,4.447,4.447,0,0,1,1.733,3.686h-.9a3.655,3.655,0,0,0-1.5-2.975,6.125,6.125,0,0,0-3.923-1.194,6.013,6.013,0,0,0-3.678,1.014,3.27,3.27,0,0,0-.85,4.405,4.371,4.371,0,0,0,1.651,1.226,16.9,16.9,0,0,0,3.335,1.054,14.231,14.231,0,0,1,3.465,1.193,4.686,4.686,0,0,1,1.847,1.626,4.342,4.342,0,0,1,.572,2.3,4,4,0,0,1-1.716,3.367,7.353,7.353,0,0,1-4.5,1.275,7.871,7.871,0,0,1-4.8-1.349,4.141,4.141,0,0,1-1.823-3.474h.883a3.656,3.656,0,0,0,1.643,2.9,7.127,7.127,0,0,0,4.095,1.038,6.278,6.278,0,0,0,3.85-1.1A3.253,3.253,0,0,0,1190.6,160.281Z" transform="translate(-1079.161 -139.506)"/>
      </g>
      <path id="Path_10" data-name="Path 10" d="M773.248,147.737c-2.908,3.32-7.466,5-13.547,5-11.031,0-15.554-3.638-17.409-6.658-1.854,3.02-6.378,6.658-17.41,6.658-6.081,0-10.639-1.684-13.545-5A14.9,14.9,0,0,1,708.07,136.8a1.287,1.287,0,0,1,2.563.213c0,.475.188,2.93,4.282,3.025l.041,0c1.832,0,3.776-3.077,5.656-6.05,2.824-4.466,6.025-9.527,11.313-9.527,5.827,0,8.885,2.624,10.366,4.619,1.481-1.993,4.539-4.619,10.366-4.619,5.289,0,8.489,5.061,11.313,9.527,1.88,2.973,3.825,6.05,5.656,6.048h.042c4.092-.1,4.283-2.55,4.279-3.04a1.281,1.281,0,0,1,1.181-1.319,1.3,1.3,0,0,1,1.384,1.121,14.9,14.9,0,0,1-3.265,10.934Zm0,0" transform="translate(-707.993 -124.466)"/>
    </g>
    <g id="Group_12449" data-name="Group 12449" transform="translate(-153 1531.612)">
      <path id="Path_11631" data-name="Path 11631" d="M-98.789-3.979h-.522V-10.16h.522Zm2.477-4.594.017.785a1.824,1.824,0,0,1,.645-.647,1.677,1.677,0,0,1,.853-.223,1.378,1.378,0,0,1,1.1.416,1.876,1.876,0,0,1,.365,1.248v3.014h-.505V-7a1.4,1.4,0,0,0-.261-.917,1.023,1.023,0,0,0-.821-.3,1.285,1.285,0,0,0-.834.3,1.729,1.729,0,0,0-.537.8v3.146H-96.8V-8.573ZM-90.8-9.749v1.176h.951v.416H-90.8V-5.1a.957.957,0,0,0,.138.569.535.535,0,0,0,.461.187,3.16,3.16,0,0,0,.412-.042l.021.416a1.646,1.646,0,0,1-.543.072.906.906,0,0,1-.76-.3,1.429,1.429,0,0,1-.238-.894V-8.157h-.845v-.416h.845V-9.749Zm4.217,5.854a1.994,1.994,0,0,1-1.059-.289,1.967,1.967,0,0,1-.737-.8,2.508,2.508,0,0,1-.263-1.157v-.183a2.7,2.7,0,0,1,.257-1.193,2.043,2.043,0,0,1,.715-.834,1.765,1.765,0,0,1,.993-.3,1.659,1.659,0,0,1,1.327.571,2.316,2.316,0,0,1,.49,1.56v.284h-3.277v.1a1.923,1.923,0,0,0,.448,1.3,1.425,1.425,0,0,0,1.127.52,1.655,1.655,0,0,0,.72-.149,1.6,1.6,0,0,0,.567-.475l.318.242A1.853,1.853,0,0,1-86.578-3.894Zm-.093-4.33a1.27,1.27,0,0,0-.966.42,1.942,1.942,0,0,0-.478,1.129h2.755V-6.73a1.686,1.686,0,0,0-.378-1.078A1.171,1.171,0,0,0-86.672-8.224Zm3.81,4.245h-.509V-10.5h.509Zm2.383,0h-.509V-10.5h.509Zm2.383,0H-78.6V-8.573h.509Zm-.6-5.922a.344.344,0,0,1,.093-.244.332.332,0,0,1,.255-.1.339.339,0,0,1,.257.1.34.34,0,0,1,.1.244.332.332,0,0,1-.1.242.343.343,0,0,1-.257.1.336.336,0,0,1-.255-.1A.336.336,0,0,1-78.694-9.9Zm2.209,3.583a2.765,2.765,0,0,1,.478-1.709,1.541,1.541,0,0,1,1.3-.63,1.6,1.6,0,0,1,1.426.747l.025-.662h.475v4.5a1.945,1.945,0,0,1-.5,1.405,1.777,1.777,0,0,1-1.346.518,2.044,2.044,0,0,1-.915-.214,1.777,1.777,0,0,1-.686-.571l.284-.306a1.61,1.61,0,0,0,1.282.662,1.3,1.3,0,0,0,.993-.376A1.5,1.5,0,0,0-73.3-4v-.577a1.642,1.642,0,0,1-1.422.679A1.532,1.532,0,0,1-76-4.531a2.775,2.775,0,0,1-.484-1.719Zm.514.089a2.4,2.4,0,0,0,.352,1.386,1.14,1.14,0,0,0,.993.507A1.358,1.358,0,0,0-73.3-5.176V-7.312a1.449,1.449,0,0,0-.514-.673,1.385,1.385,0,0,0-.807-.231,1.153,1.153,0,0,0-1,.5A2.56,2.56,0,0,0-75.971-6.229Zm6.726,2.335A1.994,1.994,0,0,1-70.3-4.183a1.967,1.967,0,0,1-.737-.8A2.508,2.508,0,0,1-71.3-6.144v-.183a2.7,2.7,0,0,1,.257-1.193,2.044,2.044,0,0,1,.715-.834,1.765,1.765,0,0,1,.993-.3,1.659,1.659,0,0,1,1.327.571,2.316,2.316,0,0,1,.49,1.56v.284H-70.8v.1a1.923,1.923,0,0,0,.448,1.3,1.425,1.425,0,0,0,1.127.52,1.655,1.655,0,0,0,.72-.149,1.6,1.6,0,0,0,.567-.475l.318.242A1.853,1.853,0,0,1-69.244-3.894Zm-.093-4.33a1.27,1.27,0,0,0-.966.42,1.942,1.942,0,0,0-.478,1.129h2.755V-6.73A1.686,1.686,0,0,0-68.4-7.808,1.171,1.171,0,0,0-69.338-8.224Zm3.725-.348.017.785a1.824,1.824,0,0,1,.645-.647,1.677,1.677,0,0,1,.853-.223,1.378,1.378,0,0,1,1.1.416,1.876,1.876,0,0,1,.365,1.248v3.014h-.505V-7a1.4,1.4,0,0,0-.261-.917,1.023,1.023,0,0,0-.821-.3,1.285,1.285,0,0,0-.834.3,1.729,1.729,0,0,0-.537.8v3.146H-66.1V-8.573ZM-60.1-9.749v1.176h.951v.416H-60.1V-5.1a.957.957,0,0,0,.138.569.535.535,0,0,0,.461.187,3.161,3.161,0,0,0,.412-.042l.021.416a1.646,1.646,0,0,1-.543.072.906.906,0,0,1-.76-.3,1.429,1.429,0,0,1-.238-.894V-8.157h-.845v-.416h.845V-9.749Zm5.8-.412,2.28,5.455,2.288-5.455h.7v6.181h-.522V-6.671l.042-2.76-2.3,5.451h-.4l-2.293-5.43.042,2.721v2.709h-.522V-10.16Zm10.1,5.6a1.651,1.651,0,0,1-1.465.667,1.421,1.421,0,0,1-1.117-.427,1.869,1.869,0,0,1-.391-1.263V-8.573h.505v2.925q0,1.312,1.061,1.312a1.3,1.3,0,0,0,1.4-.913V-8.573h.509v4.594h-.492Zm2.825.582h-.509V-10.5h.509Zm2.6-5.769v1.176h.951v.416h-.951V-5.1a.957.957,0,0,0,.138.569.535.535,0,0,0,.461.187,3.161,3.161,0,0,0,.412-.042l.021.416a1.646,1.646,0,0,1-.543.072.906.906,0,0,1-.76-.3,1.429,1.429,0,0,1-.238-.894V-8.157h-.845v-.416h.845V-9.749Zm3.007,5.769h-.509V-8.573h.509Zm-.6-5.922a.344.344,0,0,1,.093-.244.332.332,0,0,1,.255-.1.339.339,0,0,1,.257.1.34.34,0,0,1,.1.244.332.332,0,0,1-.1.242.343.343,0,0,1-.257.1.336.336,0,0,1-.255-.1A.337.337,0,0,1-36.359-9.9Zm4.111,5.578a1.341,1.341,0,0,0,.889-.3A1.053,1.053,0,0,0-30.97-5.4h.488a1.438,1.438,0,0,1-.263.766,1.649,1.649,0,0,1-.643.541,1.938,1.938,0,0,1-.86.2,1.775,1.775,0,0,1-1.433-.628,2.54,2.54,0,0,1-.529-1.69v-.153a2.872,2.872,0,0,1,.238-1.2,1.832,1.832,0,0,1,.681-.807,1.881,1.881,0,0,1,1.038-.284,1.771,1.771,0,0,1,1.246.45,1.641,1.641,0,0,1,.524,1.184h-.488a1.249,1.249,0,0,0-.388-.87,1.258,1.258,0,0,0-.894-.331,1.267,1.267,0,0,0-1.068.5,2.247,2.247,0,0,0-.38,1.392v.149a2.2,2.2,0,0,0,.38,1.371A1.275,1.275,0,0,0-32.247-4.323ZM-28.527-7.8a1.794,1.794,0,0,1,.641-.637,1.68,1.68,0,0,1,.853-.225,1.378,1.378,0,0,1,1.1.416,1.876,1.876,0,0,1,.365,1.248v3.014h-.505V-7a1.4,1.4,0,0,0-.261-.917,1.023,1.023,0,0,0-.821-.3,1.285,1.285,0,0,0-.834.3,1.728,1.728,0,0,0-.537.8v3.146h-.505V-10.5h.505Zm7.6,3.817a2.4,2.4,0,0,1-.1-.641,1.772,1.772,0,0,1-.681.537,2.087,2.087,0,0,1-.877.189,1.54,1.54,0,0,1-1.072-.369,1.2,1.2,0,0,1-.41-.934A1.229,1.229,0,0,1-23.5-6.259a2.682,2.682,0,0,1,1.556-.391h.921v-.522a1.006,1.006,0,0,0-.3-.775,1.255,1.255,0,0,0-.885-.282,1.385,1.385,0,0,0-.879.272.807.807,0,0,0-.348.654l-.509,0a1.181,1.181,0,0,1,.509-.949,1.962,1.962,0,0,1,1.252-.4,1.789,1.789,0,0,1,1.212.384A1.379,1.379,0,0,1-20.522-7.2v2.174a2.7,2.7,0,0,0,.14,1v.051Zm-1.6-.365a1.706,1.706,0,0,0,.911-.246,1.449,1.449,0,0,0,.584-.658v-1.01h-.909a2.276,2.276,0,0,0-1.189.278.835.835,0,0,0-.429.741.821.821,0,0,0,.287.641A1.08,1.08,0,0,0-22.522-4.344Zm4.273-4.228.017.785a1.824,1.824,0,0,1,.645-.647,1.677,1.677,0,0,1,.853-.223,1.378,1.378,0,0,1,1.1.416,1.876,1.876,0,0,1,.365,1.248v3.014h-.505V-7a1.4,1.4,0,0,0-.261-.917,1.023,1.023,0,0,0-.821-.3,1.285,1.285,0,0,0-.834.3,1.728,1.728,0,0,0-.537.8v3.146h-.505V-8.573Zm5.211,0,.017.785a1.824,1.824,0,0,1,.645-.647,1.677,1.677,0,0,1,.853-.223,1.378,1.378,0,0,1,1.1.416,1.876,1.876,0,0,1,.365,1.248v3.014h-.505V-7a1.4,1.4,0,0,0-.261-.917,1.023,1.023,0,0,0-.821-.3,1.285,1.285,0,0,0-.834.3,1.728,1.728,0,0,0-.537.8v3.146h-.505V-8.573Zm6.506,4.678a1.994,1.994,0,0,1-1.059-.289,1.967,1.967,0,0,1-.737-.8,2.508,2.508,0,0,1-.263-1.157v-.183A2.7,2.7,0,0,1-8.335-7.52a2.043,2.043,0,0,1,.715-.834,1.765,1.765,0,0,1,.993-.3A1.659,1.659,0,0,1-5.3-8.086a2.316,2.316,0,0,1,.49,1.56v.284H-8.087v.1a1.923,1.923,0,0,0,.448,1.3,1.425,1.425,0,0,0,1.127.52,1.655,1.655,0,0,0,.72-.149,1.6,1.6,0,0,0,.567-.475l.318.242A1.853,1.853,0,0,1-6.533-3.894Zm-.093-4.33a1.27,1.27,0,0,0-.966.42A1.942,1.942,0,0,0-8.07-6.675h2.755V-6.73a1.686,1.686,0,0,0-.378-1.078A1.171,1.171,0,0,0-6.626-8.224Zm3.81,4.245h-.509V-10.5h.509ZM5-5.711H2.2L1.56-3.979H1.012L3.351-10.16h.5L6.187-3.979H5.644ZM2.358-6.157H4.837L3.6-9.524Zm4.85-.161a2.765,2.765,0,0,1,.478-1.709,1.541,1.541,0,0,1,1.3-.63,1.6,1.6,0,0,1,1.426.747l.025-.662h.475v4.5a1.945,1.945,0,0,1-.5,1.405,1.777,1.777,0,0,1-1.346.518,2.044,2.044,0,0,1-.915-.214,1.777,1.777,0,0,1-.686-.571l.284-.306a1.61,1.61,0,0,0,1.282.662,1.3,1.3,0,0,0,.993-.376A1.5,1.5,0,0,0,10.4-4v-.577a1.642,1.642,0,0,1-1.422.679,1.532,1.532,0,0,1-1.282-.637A2.775,2.775,0,0,1,7.208-6.25Zm.514.089a2.4,2.4,0,0,0,.352,1.386,1.14,1.14,0,0,0,.993.507A1.358,1.358,0,0,0,10.4-5.176V-7.312a1.449,1.449,0,0,0-.514-.673,1.385,1.385,0,0,0-.807-.231,1.153,1.153,0,0,0-1,.5A2.56,2.56,0,0,0,7.721-6.229Zm6.726,2.335a1.994,1.994,0,0,1-1.059-.289,1.967,1.967,0,0,1-.737-.8,2.508,2.508,0,0,1-.263-1.157v-.183a2.7,2.7,0,0,1,.257-1.193,2.043,2.043,0,0,1,.715-.834,1.765,1.765,0,0,1,.993-.3,1.659,1.659,0,0,1,1.327.571,2.316,2.316,0,0,1,.49,1.56v.284H12.894v.1a1.923,1.923,0,0,0,.448,1.3,1.425,1.425,0,0,0,1.127.52,1.655,1.655,0,0,0,.72-.149,1.6,1.6,0,0,0,.567-.475l.318.242A1.853,1.853,0,0,1,14.448-3.894Zm-.093-4.33a1.27,1.27,0,0,0-.966.42,1.942,1.942,0,0,0-.478,1.129h2.755V-6.73a1.686,1.686,0,0,0-.378-1.078A1.171,1.171,0,0,0,14.354-8.224Zm3.725-.348.017.785a1.824,1.824,0,0,1,.645-.647,1.677,1.677,0,0,1,.853-.223,1.378,1.378,0,0,1,1.1.416,1.876,1.876,0,0,1,.365,1.248v3.014h-.505V-7a1.4,1.4,0,0,0-.261-.917,1.023,1.023,0,0,0-.821-.3,1.285,1.285,0,0,0-.834.3,1.729,1.729,0,0,0-.537.8v3.146H17.6V-8.573ZM23.6-9.749v1.176h.951v.416H23.6V-5.1a.957.957,0,0,0,.138.569.535.535,0,0,0,.461.187,3.161,3.161,0,0,0,.412-.042l.021.416a1.646,1.646,0,0,1-.543.072.906.906,0,0,1-.76-.3,1.429,1.429,0,0,1-.238-.894V-8.157h-.845v-.416h.845V-9.749Z" transform="translate(132.641 10.5)"/>
      <path id="Line_18" data-name="Line 18" d="M18.262.114H0V-.471H18.262Z" transform="translate(0 4.445)"/>
      <path id="Line_19" data-name="Line 19" d="M18.262.114H0V-.471H18.262Z" transform="translate(175.615 4.445)"/>
    </g>
    <g id="Group_12450" data-name="Group 12450" transform="translate(-108.478 1549.817)">
      <g id="Group_19" data-name="Group 19" transform="translate(56.398 0)">
        <path id="Path_11" data-name="Path 11" d="M983.046,277.83q-3.516,0-3.517-3.517a2.528,2.528,0,0,1,.516-1.654,1.632,1.632,0,0,1,1.314-.63,1.588,1.588,0,0,1,1.285.508,1.933,1.933,0,0,1,.427,1.293,1.232,1.232,0,0,1-.446.987,1.521,1.521,0,0,1-1.011.378,1.694,1.694,0,0,1-.505-.087l-.239-.176q-.117.029-.162.292a1.5,1.5,0,0,0-.014.468,1.769,1.769,0,0,0,.792,1.273,3.007,3.007,0,0,0,1.552.365l.008.5Z" transform="translate(-976.363 -267.958)"/>
        <path id="Path_12" data-name="Path 12" d="M992.315,282.545q-6.374,0-6.375-6.375a4.576,4.576,0,0,1,.938-3,2.953,2.953,0,0,1,2.384-1.141,2.879,2.879,0,0,1,2.331.919,3.5,3.5,0,0,1,.775,2.344,2.236,2.236,0,0,1-.808,1.789,2.75,2.75,0,0,1-1.83.684,3.026,3.026,0,0,1-.916-.157l-.43-.316c-.141.035-.238.214-.292.53a2.773,2.773,0,0,0-.027.849,3.228,3.228,0,0,0,1.433,2.308,5.42,5.42,0,0,0,2.814.662l0,.9Z" transform="translate(-978.803 -267.958)"/>
        <path id="Path_13" data-name="Path 13" d="M983.509,266.419a8.129,8.129,0,1,1-8.129,8.129,8.138,8.138,0,0,1,8.129-8.129m0-.963a9.091,9.091,0,1,0,9.092,9.091,9.093,9.093,0,0,0-9.092-9.091" transform="translate(-974.418 -265.456)"/>
        <g id="Group_18" data-name="Group 18" transform="translate(21.545 5.166)">
          <path id="Path_14" data-name="Path 14" d="M1011.812,274.048l-.26.522a.934.934,0,0,0-.681-.211.877.877,0,0,0-.73.374,1.509,1.509,0,0,0-.284.943,1.429,1.429,0,0,0,.264.906.849.849,0,0,0,.7.335.944.944,0,0,0,.787-.359l.295.511a1.484,1.484,0,0,1-1.133.411,1.427,1.427,0,0,1-1.157-.489,2.024,2.024,0,0,1-.414-1.341,1.946,1.946,0,0,1,.457-1.319,1.487,1.487,0,0,1,1.173-.532,1.7,1.7,0,0,1,.979.251" transform="translate(-1009.203 -273.797)"/>
          <path id="Path_15" data-name="Path 15" d="M1016.4,277.432l-.949-1.471c-.094,0-.23-.008-.4-.016v1.487h-.656v-3.558c.035,0,.173-.006.411-.019s.43-.019.576-.019q1.355,0,1.355,1.049a.976.976,0,0,1-.187.576,1.012,1.012,0,0,1-.47.368l1.052,1.6Zm-1.352-3.009v.989c.117.011.206.014.268.014a1.159,1.159,0,0,0,.578-.111.469.469,0,0,0,.184-.435.379.379,0,0,0-.2-.368,1.379,1.379,0,0,0-.619-.105,1.462,1.462,0,0,0-.214.016" transform="translate(-1011.178 -273.812)"/>
          <path id="Path_16" data-name="Path 16" d="M1019.024,275.608a2.009,2.009,0,0,1,.416-1.287,1.345,1.345,0,0,1,1.114-.524,1.459,1.459,0,0,1,1.173.476,1.993,1.993,0,0,1,.406,1.335,2.054,2.054,0,0,1-.424,1.365,1.483,1.483,0,0,1-1.2.505,1.306,1.306,0,0,1-1.1-.5,2.22,2.22,0,0,1-.381-1.371m.654,0a1.857,1.857,0,0,0,.21.967.678.678,0,0,0,.614.344.837.837,0,0,0,.722-.336,1.622,1.622,0,0,0,.249-.973c0-.832-.309-1.252-.922-1.252a.739.739,0,0,0-.649.338,1.629,1.629,0,0,0-.224.911" transform="translate(-1012.941 -273.797)"/>
          <path id="Path_17" data-name="Path 17" d="M1027.6,277.5h-.26l-.779-2.244-.754,2.244h-.262l-1.168-3.606h.66l.668,2.146.722-2.146h.276l.724,2.146.665-2.146h.66Z" transform="translate(-1014.977 -273.835)"/>
          <path id="Path_18" data-name="Path 18" d="M1032.833,277.44h-.79v-3.555c.5-.019.819-.027.949-.027a1.664,1.664,0,0,1,1.233.454,1.633,1.633,0,0,1,.455,1.208q0,1.918-1.846,1.919m-.16-3v2.427a3.075,3.075,0,0,0,.33.014.9.9,0,0,0,.749-.349,1.547,1.547,0,0,0,.27-.971c0-.762-.354-1.141-1.062-1.141a2.787,2.787,0,0,0-.287.019" transform="translate(-1017.896 -273.82)"/>
          <path id="Path_19" data-name="Path 19" d="M1010.307,282.866v1.308h-.632v-3.555c.422-.019.668-.027.738-.027a2.277,2.277,0,0,1,1.233.26.9.9,0,0,1,.389.808q0,1.225-1.444,1.225c-.07,0-.165-.008-.284-.019m0-1.7V282.3c.109.01.192.016.251.016a1.1,1.1,0,0,0,.632-.143.545.545,0,0,0,.2-.471c0-.37-.3-.554-.892-.554a1.493,1.493,0,0,0-.192.013" transform="translate(-1009.383 -276.383)"/>
          <path id="Path_20" data-name="Path 20" d="M1014.236,282.342a2.006,2.006,0,0,1,.416-1.286,1.344,1.344,0,0,1,1.114-.525,1.461,1.461,0,0,1,1.173.476,1.994,1.994,0,0,1,.406,1.335,2.052,2.052,0,0,1-.424,1.365,1.482,1.482,0,0,1-1.2.506,1.307,1.307,0,0,1-1.1-.5,2.22,2.22,0,0,1-.381-1.371m.654,0a1.856,1.856,0,0,0,.211.968.682.682,0,0,0,.614.343.838.838,0,0,0,.722-.335,1.622,1.622,0,0,0,.249-.973c0-.833-.308-1.252-.922-1.252a.738.738,0,0,0-.649.338,1.633,1.633,0,0,0-.224.911" transform="translate(-1011.119 -276.36)"/>
          <path id="Path_21" data-name="Path 21" d="M1020.276,284.189v-3.558h.633v3h1.609v.56Z" transform="translate(-1013.418 -276.398)"/>
          <rect id="Rectangle_20" data-name="Rectangle 20" width="0.633" height="3.558" transform="translate(9.695 4.233)"/>
          <path id="Path_22" data-name="Path 22" d="M1029.526,280.784l-.26.522a.935.935,0,0,0-.681-.211.878.878,0,0,0-.73.373,1.511,1.511,0,0,0-.284.943,1.414,1.414,0,0,0,.265.906.853.853,0,0,0,.7.335.943.943,0,0,0,.787-.36l.295.511a1.484,1.484,0,0,1-1.133.411,1.425,1.425,0,0,1-1.159-.492,2.007,2.007,0,0,1-.414-1.338,1.946,1.946,0,0,1,.457-1.319,1.475,1.475,0,0,1,1.171-.53,1.7,1.7,0,0,1,.984.249" transform="translate(-1015.944 -276.362)"/>
          <path id="Path_23" data-name="Path 23" d="M1033.489,282.729v1.46h-.633v-1.46l-1.2-2.1h.671l.841,1.517.846-1.517h.668Z" transform="translate(-1017.75 -276.398)"/>
        </g>
      </g>
      <path id="Path_11632" data-name="Path 11632" d="M-40.12-2.07A2.545,2.545,0,0,1-40.557-.5a1.393,1.393,0,0,1-1.172.58,1.564,1.564,0,0,1-1.328-.609V1.625h-.465V-4.227h.434l.023.6A1.5,1.5,0,0,1-41.741-4.3a1.406,1.406,0,0,1,1.189.574,2.6,2.6,0,0,1,.432,1.594Zm-.469-.082A2.174,2.174,0,0,0-40.92-3.43a1.071,1.071,0,0,0-.926-.469,1.294,1.294,0,0,0-.738.207,1.3,1.3,0,0,0-.473.6v2.027a1.241,1.241,0,0,0,.48.555,1.386,1.386,0,0,0,.738.191,1.061,1.061,0,0,0,.92-.471A2.367,2.367,0,0,0-40.588-2.152Zm1.646-.023a2.487,2.487,0,0,1,.236-1.1,1.8,1.8,0,0,1,.668-.76,1.8,1.8,0,0,1,.979-.271,1.739,1.739,0,0,1,1.367.592,2.28,2.28,0,0,1,.523,1.568v.1a2.509,2.509,0,0,1-.236,1.1,1.765,1.765,0,0,1-.666.756,1.826,1.826,0,0,1-.98.266,1.74,1.74,0,0,1-1.365-.592,2.275,2.275,0,0,1-.525-1.568Zm.469.129A1.918,1.918,0,0,0-38.081-.8a1.259,1.259,0,0,0,1.029.486A1.255,1.255,0,0,0-36.026-.8a1.981,1.981,0,0,0,.393-1.283v-.09a2.15,2.15,0,0,0-.18-.887,1.444,1.444,0,0,0-.5-.623,1.288,1.288,0,0,0-.742-.221,1.249,1.249,0,0,0-1.02.49,1.984,1.984,0,0,0-.395,1.283Zm5.681,1.074.07.363.094-.383,1.016-3.234h.4l1,3.207.109.445.09-.41.867-3.242h.484L-29.89,0h-.4l-1.086-3.352-.051-.23-.051.234L-32.542,0h-.4l-1.227-4.227h.48ZM-25.736.078a1.835,1.835,0,0,1-.975-.266,1.81,1.81,0,0,1-.678-.74,2.308,2.308,0,0,1-.242-1.064V-2.16a2.487,2.487,0,0,1,.236-1.1,1.88,1.88,0,0,1,.658-.768,1.624,1.624,0,0,1,.914-.279,1.526,1.526,0,0,1,1.221.525,2.131,2.131,0,0,1,.451,1.436v.262h-3.016v.09a1.77,1.77,0,0,0,.412,1.2,1.311,1.311,0,0,0,1.037.479,1.523,1.523,0,0,0,.662-.137,1.468,1.468,0,0,0,.521-.437l.293.223A1.705,1.705,0,0,1-25.736.078Zm-.086-3.984a1.169,1.169,0,0,0-.889.387A1.787,1.787,0,0,0-27.15-2.48h2.535v-.051a1.551,1.551,0,0,0-.348-.992A1.077,1.077,0,0,0-25.822-3.906Zm4.935.078a1.746,1.746,0,0,0-.316-.027,1.142,1.142,0,0,0-.74.244,1.337,1.337,0,0,0-.432.709V0h-.465V-4.227h.457l.008.672a1.243,1.243,0,0,1,1.191-.75.769.769,0,0,1,.309.051ZM-18.112.078a1.835,1.835,0,0,1-.975-.266,1.81,1.81,0,0,1-.678-.74,2.308,2.308,0,0,1-.242-1.064V-2.16a2.487,2.487,0,0,1,.236-1.1,1.88,1.88,0,0,1,.658-.768A1.624,1.624,0,0,1-18.2-4.3a1.526,1.526,0,0,1,1.221.525,2.131,2.131,0,0,1,.451,1.436v.262h-3.016v.09a1.77,1.77,0,0,0,.412,1.2,1.311,1.311,0,0,0,1.037.479,1.523,1.523,0,0,0,.662-.137,1.468,1.468,0,0,0,.521-.437l.293.223A1.705,1.705,0,0,1-18.112.078ZM-18.2-3.906a1.169,1.169,0,0,0-.889.387,1.787,1.787,0,0,0-.439,1.039h2.535v-.051a1.551,1.551,0,0,0-.348-.992A1.077,1.077,0,0,0-18.2-3.906ZM-15.4-2.152a2.548,2.548,0,0,1,.439-1.568A1.414,1.414,0,0,1-13.77-4.3a1.47,1.47,0,0,1,1.3.676V-6H-12V0h-.437l-.02-.562a1.51,1.51,0,0,1-1.32.641A1.409,1.409,0,0,1-14.956-.51,2.561,2.561,0,0,1-15.4-2.1Zm.473.082a2.2,2.2,0,0,0,.324,1.275,1.049,1.049,0,0,0,.914.467,1.258,1.258,0,0,0,1.227-.762V-3.074A1.249,1.249,0,0,0-13.684-3.9a1.061,1.061,0,0,0-.918.463A2.355,2.355,0,0,0-14.93-2.07Zm10.308,0A2.545,2.545,0,0,1-5.06-.5a1.4,1.4,0,0,1-1.176.58A1.519,1.519,0,0,1-7.572-.578L-7.591,0h-.437V-6h.465v2.387A1.469,1.469,0,0,1-6.244-4.3a1.41,1.41,0,0,1,1.186.572,2.576,2.576,0,0,1,.436,1.592Zm-.469-.082a2.2,2.2,0,0,0-.324-1.291A1.057,1.057,0,0,0-6.33-3.9a1.287,1.287,0,0,0-.762.221,1.342,1.342,0,0,0-.473.646v1.906a1.252,1.252,0,0,0,1.242.8,1.049,1.049,0,0,0,.9-.457A2.354,2.354,0,0,0-5.091-2.152Zm3.24,1.48L-.617-4.227h.5L-1.918.719l-.094.219a1.135,1.135,0,0,1-1.074.77,1.311,1.311,0,0,1-.359-.055l0-.387.242.023a.865.865,0,0,0,.557-.17A1.29,1.29,0,0,0-2.289.535l.207-.57L-3.676-4.227h.512Z" transform="translate(53 11.026)"/>
    </g>
  </g>
</svg>
