<svg xmlns="http://www.w3.org/2000/svg" width="105.698" height="101.229" viewBox="0 0 105.698 101.229">
  <g id="BOTAKIS_LEFTLINE" transform="translate(-270.244 -419.312)">
    <path id="Intersection_3" data-name="Intersection 3" d="M-1330.233-3144.3a19.057,19.057,0,0,1-4.96-2.519,16.346,16.346,0,0,1-3.629-3.594,22.159,22.159,0,0,1-3.759-9.558c-1.222-7.061-.446-15.627.375-24.7.549-6.065,1.117-12.336,1.1-18.4a54.019,54.019,0,0,0-2.367-17.018,28.423,28.423,0,0,0-9.174-13.479,34.763,34.763,0,0,0-8.312-4.911,50.119,50.119,0,0,0-7.039-2.357v-3.1c14.427,3.537,23.4,11.052,27.369,22.888a56.917,56.917,0,0,1,2.523,17.962c.021,6.2-.554,12.544-1.11,18.677-.8,8.867-1.562,17.242-.407,23.914a19.266,19.266,0,0,0,3.222,8.293,14.227,14.227,0,0,0,7.143,5.052,26.862,26.862,0,0,0,11.721,1.275,36.142,36.142,0,0,0,11.468-3.4c6.686-3.161,13.644-8.409,20.68-15.6a146.536,146.536,0,0,0,14.73-17.858c3.51-4.972,5.543-8.445,5.563-8.48a1.5,1.5,0,0,1,2.051-.54,1.5,1.5,0,0,1,.54,2.052c-.085.145-2.12,3.621-5.7,8.7a152.051,152.051,0,0,1-15.037,18.227c-7.286,7.445-14.534,12.9-21.542,16.214a36.966,36.966,0,0,1-15.821,3.85A29.479,29.479,0,0,1-1330.233-3144.3Z" transform="translate(1638.245 3663.241)"/>
  </g>
</svg>
