<svg id="main_logo" xmlns="http://www.w3.org/2000/svg" xmlns:xlink="http://www.w3.org/1999/xlink" width="149.419" height="96.448" viewBox="0 0 149.419 96.448">
  <defs>
    <clipPath id="clip-path">
      <rect id="Rectangle_5504" data-name="Rectangle 5504" width="149.419" height="96.448" fill="none"/>
    </clipPath>
  </defs>
  <g id="Group_12564" data-name="Group 12564" clip-path="url(#clip-path)">
    <g id="Group_12563" data-name="Group 12563" clip-path="url(#clip-path)">
      <path id="Path_12037" data-name="Path 12037" d="M0,21.512A21.583,21.583,0,0,1,37.148,6.631l-9.72,9.833a7.72,7.72,0,1,0-5.84,12.81,7.508,7.508,0,0,0,5.727-2.637l9.871,9.8A21.609,21.609,0,0,1,0,21.512" fill="#fff"/>
      <rect id="Rectangle_5502" data-name="Rectangle 5502" width="13.977" height="41.819" transform="translate(41.028 0.64)" fill="#fff"/>
      <path id="Path_12038" data-name="Path 12038" d="M28.105,11.246H15.71V.17H54.515V11.246H42.083V41.989H28.105Z" transform="translate(43.478 0.47)" fill="#fff"/>
      <path id="Path_12039" data-name="Path 12039" d="M44.522,26.58,26.25.17H43.2L51.266,13.7h.49L59.818.17H76.772L58.5,26.58V41.989H44.522Z" transform="translate(72.647 0.47)" fill="#fff"/>
      <path id="Path_12040" data-name="Path 12040" d="M22.88,14.51H36.82L53.434,36.249h.414V14.51H67.826V56.292H53.849L37.31,35.269h-.49V56.292H22.88Z" transform="translate(63.321 40.157)" fill="#fff"/>
      <path id="Subtraction_7" data-name="Subtraction 7" d="M-5687.856,969.291h-31.271a20.275,20.275,0,0,1-7.937-1.6,20.291,20.291,0,0,1-6.478-4.366,20.293,20.293,0,0,1-4.367-6.478,20.28,20.28,0,0,1-1.6-7.937,20.278,20.278,0,0,1,1.6-7.937,20.3,20.3,0,0,1,4.367-6.478,20.29,20.29,0,0,1,6.478-4.366,20.276,20.276,0,0,1,7.937-1.6h31.271a20.272,20.272,0,0,1,7.937,1.6,20.283,20.283,0,0,1,6.478,4.366,20.294,20.294,0,0,1,4.366,6.478,20.278,20.278,0,0,1,1.6,7.937,20.279,20.279,0,0,1-1.6,7.937,20.293,20.293,0,0,1-4.366,6.478,20.284,20.284,0,0,1-6.478,4.366A20.275,20.275,0,0,1-5687.856,969.291Zm-.264-35.377a15.012,15.012,0,0,0-10.658,4.389,14.861,14.861,0,0,0-4.413,10.605,14.973,14.973,0,0,0,4.413,10.672,14.984,14.984,0,0,0,10.658,4.4,15.087,15.087,0,0,0,15.07-15.07,14.862,14.862,0,0,0-4.413-10.605A15.011,15.011,0,0,0-5688.12,933.914Z" transform="translate(5746.292 -873.107)" fill="#fff"/>
    </g>
  </g>
</svg>
