<svg id="city_works_crowdapps_branding2020_outlined" data-name="city_works_crowdapps branding2020_outlined" xmlns="http://www.w3.org/2000/svg" width="153.865" height="153.865" viewBox="0 0 153.865 153.865">
  <ellipse id="Ellipse_403" data-name="Ellipse 403" cx="44.381" cy="44.381" rx="44.381" ry="44.381" transform="translate(0 0)" fill="#91ce4c"/>
  <ellipse id="Ellipse_404" data-name="Ellipse 404" cx="65.102" cy="65.103" rx="65.102" ry="65.103" transform="translate(23.66 23.66)" fill="none"/>
  <g id="Group_12570" data-name="Group 12570" transform="translate(45.059 29.952)">
    <path id="Path_12051" data-name="Path 12051" d="M48.035,95.658l-2.26-2.637C42.61,89.328,14.73,56.551,14.73,39.936,14.73,22.3,29.687,7.95,48.035,7.95s33.3,14.354,33.3,31.986c0,16.652-27.88,49.43-31.044,53.084Zm0-81.717C32.965,13.94,20.72,25.582,20.72,39.9c0,11.189,18.009,35.226,27.314,46.491C57.34,75.125,75.349,51.126,75.349,39.9,75.349,25.582,63.1,13.94,48.035,13.94Z" transform="translate(-4.294 -7.95)" fill="#fff"/>
    <path id="Path_12052" data-name="Path 12052" d="M38.874,48.14c-3.466,0-20.834-.377-20.834-8.1s17.368-8.1,20.834-8.1,20.834.377,20.834,8.1S42.34,48.14,38.874,48.14ZM25.01,40.04c2.147.942,6.97,2.11,13.864,2.11s11.717-1.168,13.864-2.11c-2.147-.942-6.97-2.11-13.864-2.11S27.157,39.1,25.01,40.04Z" transform="translate(4.866 58.442)" fill="#fff"/>
    <rect id="Rectangle_5505" data-name="Rectangle 5505" width="26.749" height="5.99" transform="translate(60.619 95.469)" fill="#fff"/>
    <rect id="Rectangle_5506" data-name="Rectangle 5506" width="26.749" height="5.99" transform="translate(0 95.469)" fill="#fff"/>
  </g>
</svg>
