<svg xmlns="http://www.w3.org/2000/svg" xmlns:xlink="http://www.w3.org/1999/xlink" width="1770" height="228" viewBox="0 0 1770 228">
  <defs>
    <clipPath id="clip-path">
      <rect id="Rectangle_5558" data-name="Rectangle 5558" width="1770" height="228" transform="translate(150 8339)" fill="#fff" stroke="#707070" stroke-width="1"/>
    </clipPath>
  </defs>
  <g id="NEWS_RIBBON" transform="translate(-150 -8339)" clip-path="url(#clip-path)">
    <g id="NEWS_RIBBON-2" data-name="NEWS_RIBBON" transform="matrix(0.996, -0.087, 0.087, 0.996, 18370.137, -12792.453)" opacity="0.397">
      <g id="Rectangle_5062" data-name="Rectangle 5062" transform="translate(-20434.498 19620.619)" fill="none" stroke="#fff" stroke-width="1">
        <rect width="2508.998" height="53.45" stroke="none"/>
        <rect x="0.5" y="0.5" width="2507.998" height="52.45" fill="none"/>
      </g>
      <path id="Path_12178" data-name="Path 12178" d="M2.1,32V10.4H4.8L16.065,27.275V10.4h2.7V32h-2.7L4.8,15.11V32ZM29.13,13.325H26.955l1.965-4.95h2.175ZM28.29,32.45a7.906,7.906,0,0,1-3.143-.6,5.321,5.321,0,0,1-2.246-1.74,4.472,4.472,0,0,1-.836-2.726,5.19,5.19,0,0,1,.322-1.811,4.062,4.062,0,0,1,.971-1.511,3.437,3.437,0,0,1,1.631-.877l-.1.945a5.448,5.448,0,0,1-1.763-1.747,4.363,4.363,0,0,1-.608-2.3,4.242,4.242,0,0,1,.773-2.573,4.822,4.822,0,0,1,2.07-1.605,7.277,7.277,0,0,1,2.858-.547,9.1,9.1,0,0,1,3.592.7,8.7,8.7,0,0,1,2.888,1.987l-1.62,1.815a7.375,7.375,0,0,0-2.111-1.418,6.159,6.159,0,0,0-2.584-.562,4.041,4.041,0,0,0-2.194.581,2.007,2.007,0,0,0-.926,1.834,1.8,1.8,0,0,0,.99,1.74,5.6,5.6,0,0,0,2.565.51H30.48v2.2H28.8a10.259,10.259,0,0,0-2.145.2,2.578,2.578,0,0,0-1.38.709,2.068,2.068,0,0,0-.48,1.466,2.45,2.45,0,0,0,.979,2.051,4.187,4.187,0,0,0,2.621.754A5.514,5.514,0,0,0,31.2,29.2a6.305,6.305,0,0,0,2.111-2.048l2.13,1.38a7.53,7.53,0,0,1-2.9,2.876A8.535,8.535,0,0,1,28.29,32.45Zm15.81,0a6.746,6.746,0,0,1-3.93-1.129,7.238,7.238,0,0,1-2.505-3.064A10.514,10.514,0,0,1,36.8,23.9a10.448,10.448,0,0,1,.877-4.369A7.228,7.228,0,0,1,40.2,16.475a6.886,6.886,0,0,1,3.975-1.125,6.162,6.162,0,0,1,3.694,1.091,5.868,5.868,0,0,1,2.156,3l-.45.78V15.8H51.96V32H49.575V27.53l.45.78a5.834,5.834,0,0,1-2.2,3.038A6.3,6.3,0,0,1,44.1,32.45ZM44.43,30a4.27,4.27,0,0,0,2.647-.787,4.613,4.613,0,0,0,1.545-2.171,9.228,9.228,0,0,0,.5-3.161,9.15,9.15,0,0,0-.506-3.169,4.566,4.566,0,0,0-1.541-2.149A4.256,4.256,0,0,0,44.46,17.8a4.441,4.441,0,0,0-2.659.773,4.709,4.709,0,0,0-1.624,2.149A8.571,8.571,0,0,0,39.63,23.9a8.72,8.72,0,0,0,.521,3.094,4.835,4.835,0,0,0,1.586,2.2A4.307,4.307,0,0,0,44.43,30Z" transform="translate(-19974.498 19627)" fill="#fff"/>
      <path id="Path_12177" data-name="Path 12177" d="M2.1,32V10.4H4.8L16.065,27.275V10.4h2.7V32h-2.7L4.8,15.11V32ZM29.13,13.325H26.955l1.965-4.95h2.175ZM28.29,32.45a7.906,7.906,0,0,1-3.143-.6,5.321,5.321,0,0,1-2.246-1.74,4.472,4.472,0,0,1-.836-2.726,5.19,5.19,0,0,1,.322-1.811,4.062,4.062,0,0,1,.971-1.511,3.437,3.437,0,0,1,1.631-.877l-.1.945a5.448,5.448,0,0,1-1.763-1.747,4.363,4.363,0,0,1-.608-2.3,4.242,4.242,0,0,1,.773-2.573,4.822,4.822,0,0,1,2.07-1.605,7.277,7.277,0,0,1,2.858-.547,9.1,9.1,0,0,1,3.592.7,8.7,8.7,0,0,1,2.888,1.987l-1.62,1.815a7.375,7.375,0,0,0-2.111-1.418,6.159,6.159,0,0,0-2.584-.562,4.041,4.041,0,0,0-2.194.581,2.007,2.007,0,0,0-.926,1.834,1.8,1.8,0,0,0,.99,1.74,5.6,5.6,0,0,0,2.565.51H30.48v2.2H28.8a10.259,10.259,0,0,0-2.145.2,2.578,2.578,0,0,0-1.38.709,2.068,2.068,0,0,0-.48,1.466,2.45,2.45,0,0,0,.979,2.051,4.187,4.187,0,0,0,2.621.754A5.514,5.514,0,0,0,31.2,29.2a6.305,6.305,0,0,0,2.111-2.048l2.13,1.38a7.53,7.53,0,0,1-2.9,2.876A8.535,8.535,0,0,1,28.29,32.45Zm15.81,0a6.746,6.746,0,0,1-3.93-1.129,7.238,7.238,0,0,1-2.505-3.064A10.514,10.514,0,0,1,36.8,23.9a10.448,10.448,0,0,1,.877-4.369A7.228,7.228,0,0,1,40.2,16.475a6.886,6.886,0,0,1,3.975-1.125,6.162,6.162,0,0,1,3.694,1.091,5.868,5.868,0,0,1,2.156,3l-.45.78V15.8H51.96V32H49.575V27.53l.45.78a5.834,5.834,0,0,1-2.2,3.038A6.3,6.3,0,0,1,44.1,32.45ZM44.43,30a4.27,4.27,0,0,0,2.647-.787,4.613,4.613,0,0,0,1.545-2.171,9.228,9.228,0,0,0,.5-3.161,9.15,9.15,0,0,0-.506-3.169,4.566,4.566,0,0,0-1.541-2.149A4.256,4.256,0,0,0,44.46,17.8a4.441,4.441,0,0,0-2.659.773,4.709,4.709,0,0,0-1.624,2.149A8.571,8.571,0,0,0,39.63,23.9a8.72,8.72,0,0,0,.521,3.094,4.835,4.835,0,0,0,1.586,2.2A4.307,4.307,0,0,0,44.43,30Z" transform="translate(-19668.502 19627)" fill="#fff"/>
      <path id="Path_12176" data-name="Path 12176" d="M2.1,32V10.4H4.8L16.065,27.275V10.4h2.7V32h-2.7L4.8,15.11V32ZM29.13,13.325H26.955l1.965-4.95h2.175ZM28.29,32.45a7.906,7.906,0,0,1-3.143-.6,5.321,5.321,0,0,1-2.246-1.74,4.472,4.472,0,0,1-.836-2.726,5.19,5.19,0,0,1,.322-1.811,4.062,4.062,0,0,1,.971-1.511,3.437,3.437,0,0,1,1.631-.877l-.1.945a5.448,5.448,0,0,1-1.763-1.747,4.363,4.363,0,0,1-.608-2.3,4.242,4.242,0,0,1,.773-2.573,4.822,4.822,0,0,1,2.07-1.605,7.277,7.277,0,0,1,2.858-.547,9.1,9.1,0,0,1,3.592.7,8.7,8.7,0,0,1,2.888,1.987l-1.62,1.815a7.375,7.375,0,0,0-2.111-1.418,6.159,6.159,0,0,0-2.584-.562,4.041,4.041,0,0,0-2.194.581,2.007,2.007,0,0,0-.926,1.834,1.8,1.8,0,0,0,.99,1.74,5.6,5.6,0,0,0,2.565.51H30.48v2.2H28.8a10.259,10.259,0,0,0-2.145.2,2.578,2.578,0,0,0-1.38.709,2.068,2.068,0,0,0-.48,1.466,2.45,2.45,0,0,0,.979,2.051,4.187,4.187,0,0,0,2.621.754A5.514,5.514,0,0,0,31.2,29.2a6.305,6.305,0,0,0,2.111-2.048l2.13,1.38a7.53,7.53,0,0,1-2.9,2.876A8.535,8.535,0,0,1,28.29,32.45Zm15.81,0a6.746,6.746,0,0,1-3.93-1.129,7.238,7.238,0,0,1-2.505-3.064A10.514,10.514,0,0,1,36.8,23.9a10.448,10.448,0,0,1,.877-4.369A7.228,7.228,0,0,1,40.2,16.475a6.886,6.886,0,0,1,3.975-1.125,6.162,6.162,0,0,1,3.694,1.091,5.868,5.868,0,0,1,2.156,3l-.45.78V15.8H51.96V32H49.575V27.53l.45.78a5.834,5.834,0,0,1-2.2,3.038A6.3,6.3,0,0,1,44.1,32.45ZM44.43,30a4.27,4.27,0,0,0,2.647-.787,4.613,4.613,0,0,0,1.545-2.171,9.228,9.228,0,0,0,.5-3.161,9.15,9.15,0,0,0-.506-3.169,4.566,4.566,0,0,0-1.541-2.149A4.256,4.256,0,0,0,44.46,17.8a4.441,4.441,0,0,0-2.659.773,4.709,4.709,0,0,0-1.624,2.149A8.571,8.571,0,0,0,39.63,23.9a8.72,8.72,0,0,0,.521,3.094,4.835,4.835,0,0,0,1.586,2.2A4.307,4.307,0,0,0,44.43,30Z" transform="translate(-19362.506 19627)" fill="#fff"/>
      <path id="Path_12175" data-name="Path 12175" d="M2.1,32V10.4H4.8L16.065,27.275V10.4h2.7V32h-2.7L4.8,15.11V32ZM29.13,13.325H26.955l1.965-4.95h2.175ZM28.29,32.45a7.906,7.906,0,0,1-3.143-.6,5.321,5.321,0,0,1-2.246-1.74,4.472,4.472,0,0,1-.836-2.726,5.19,5.19,0,0,1,.322-1.811,4.062,4.062,0,0,1,.971-1.511,3.437,3.437,0,0,1,1.631-.877l-.1.945a5.448,5.448,0,0,1-1.763-1.747,4.363,4.363,0,0,1-.608-2.3,4.242,4.242,0,0,1,.773-2.573,4.822,4.822,0,0,1,2.07-1.605,7.277,7.277,0,0,1,2.858-.547,9.1,9.1,0,0,1,3.592.7,8.7,8.7,0,0,1,2.888,1.987l-1.62,1.815a7.375,7.375,0,0,0-2.111-1.418,6.159,6.159,0,0,0-2.584-.562,4.041,4.041,0,0,0-2.194.581,2.007,2.007,0,0,0-.926,1.834,1.8,1.8,0,0,0,.99,1.74,5.6,5.6,0,0,0,2.565.51H30.48v2.2H28.8a10.259,10.259,0,0,0-2.145.2,2.578,2.578,0,0,0-1.38.709,2.068,2.068,0,0,0-.48,1.466,2.45,2.45,0,0,0,.979,2.051,4.187,4.187,0,0,0,2.621.754A5.514,5.514,0,0,0,31.2,29.2a6.305,6.305,0,0,0,2.111-2.048l2.13,1.38a7.53,7.53,0,0,1-2.9,2.876A8.535,8.535,0,0,1,28.29,32.45Zm15.81,0a6.746,6.746,0,0,1-3.93-1.129,7.238,7.238,0,0,1-2.505-3.064A10.514,10.514,0,0,1,36.8,23.9a10.448,10.448,0,0,1,.877-4.369A7.228,7.228,0,0,1,40.2,16.475a6.886,6.886,0,0,1,3.975-1.125,6.162,6.162,0,0,1,3.694,1.091,5.868,5.868,0,0,1,2.156,3l-.45.78V15.8H51.96V32H49.575V27.53l.45.78a5.834,5.834,0,0,1-2.2,3.038A6.3,6.3,0,0,1,44.1,32.45ZM44.43,30a4.27,4.27,0,0,0,2.647-.787,4.613,4.613,0,0,0,1.545-2.171,9.228,9.228,0,0,0,.5-3.161,9.15,9.15,0,0,0-.506-3.169,4.566,4.566,0,0,0-1.541-2.149A4.256,4.256,0,0,0,44.46,17.8a4.441,4.441,0,0,0-2.659.773,4.709,4.709,0,0,0-1.624,2.149A8.571,8.571,0,0,0,39.63,23.9a8.72,8.72,0,0,0,.521,3.094,4.835,4.835,0,0,0,1.586,2.2A4.307,4.307,0,0,0,44.43,30Z" transform="translate(-19056.51 19627)" fill="#fff"/>
      <path id="Path_12174" data-name="Path 12174" d="M2.1,32V10.4H4.8L16.065,27.275V10.4h2.7V32h-2.7L4.8,15.11V32ZM29.13,13.325H26.955l1.965-4.95h2.175ZM28.29,32.45a7.906,7.906,0,0,1-3.143-.6,5.321,5.321,0,0,1-2.246-1.74,4.472,4.472,0,0,1-.836-2.726,5.19,5.19,0,0,1,.322-1.811,4.062,4.062,0,0,1,.971-1.511,3.437,3.437,0,0,1,1.631-.877l-.1.945a5.448,5.448,0,0,1-1.763-1.747,4.363,4.363,0,0,1-.608-2.3,4.242,4.242,0,0,1,.773-2.573,4.822,4.822,0,0,1,2.07-1.605,7.277,7.277,0,0,1,2.858-.547,9.1,9.1,0,0,1,3.592.7,8.7,8.7,0,0,1,2.888,1.987l-1.62,1.815a7.375,7.375,0,0,0-2.111-1.418,6.159,6.159,0,0,0-2.584-.562,4.041,4.041,0,0,0-2.194.581,2.007,2.007,0,0,0-.926,1.834,1.8,1.8,0,0,0,.99,1.74,5.6,5.6,0,0,0,2.565.51H30.48v2.2H28.8a10.259,10.259,0,0,0-2.145.2,2.578,2.578,0,0,0-1.38.709,2.068,2.068,0,0,0-.48,1.466,2.45,2.45,0,0,0,.979,2.051,4.187,4.187,0,0,0,2.621.754A5.514,5.514,0,0,0,31.2,29.2a6.305,6.305,0,0,0,2.111-2.048l2.13,1.38a7.53,7.53,0,0,1-2.9,2.876A8.535,8.535,0,0,1,28.29,32.45Zm15.81,0a6.746,6.746,0,0,1-3.93-1.129,7.238,7.238,0,0,1-2.505-3.064A10.514,10.514,0,0,1,36.8,23.9a10.448,10.448,0,0,1,.877-4.369A7.228,7.228,0,0,1,40.2,16.475a6.886,6.886,0,0,1,3.975-1.125,6.162,6.162,0,0,1,3.694,1.091,5.868,5.868,0,0,1,2.156,3l-.45.78V15.8H51.96V32H49.575V27.53l.45.78a5.834,5.834,0,0,1-2.2,3.038A6.3,6.3,0,0,1,44.1,32.45ZM44.43,30a4.27,4.27,0,0,0,2.647-.787,4.613,4.613,0,0,0,1.545-2.171,9.228,9.228,0,0,0,.5-3.161,9.15,9.15,0,0,0-.506-3.169,4.566,4.566,0,0,0-1.541-2.149A4.256,4.256,0,0,0,44.46,17.8a4.441,4.441,0,0,0-2.659.773,4.709,4.709,0,0,0-1.624,2.149A8.571,8.571,0,0,0,39.63,23.9a8.72,8.72,0,0,0,.521,3.094,4.835,4.835,0,0,0,1.586,2.2A4.307,4.307,0,0,0,44.43,30Z" transform="translate(-18750.514 19627)" fill="#fff"/>
      <path id="Path_12173" data-name="Path 12173" d="M2.1,32V10.4H4.8L16.065,27.275V10.4h2.7V32h-2.7L4.8,15.11V32ZM29.13,13.325H26.955l1.965-4.95h2.175ZM28.29,32.45a7.906,7.906,0,0,1-3.143-.6,5.321,5.321,0,0,1-2.246-1.74,4.472,4.472,0,0,1-.836-2.726,5.19,5.19,0,0,1,.322-1.811,4.062,4.062,0,0,1,.971-1.511,3.437,3.437,0,0,1,1.631-.877l-.1.945a5.448,5.448,0,0,1-1.763-1.747,4.363,4.363,0,0,1-.608-2.3,4.242,4.242,0,0,1,.773-2.573,4.822,4.822,0,0,1,2.07-1.605,7.277,7.277,0,0,1,2.858-.547,9.1,9.1,0,0,1,3.592.7,8.7,8.7,0,0,1,2.888,1.987l-1.62,1.815a7.375,7.375,0,0,0-2.111-1.418,6.159,6.159,0,0,0-2.584-.562,4.041,4.041,0,0,0-2.194.581,2.007,2.007,0,0,0-.926,1.834,1.8,1.8,0,0,0,.99,1.74,5.6,5.6,0,0,0,2.565.51H30.48v2.2H28.8a10.259,10.259,0,0,0-2.145.2,2.578,2.578,0,0,0-1.38.709,2.068,2.068,0,0,0-.48,1.466,2.45,2.45,0,0,0,.979,2.051,4.187,4.187,0,0,0,2.621.754A5.514,5.514,0,0,0,31.2,29.2a6.305,6.305,0,0,0,2.111-2.048l2.13,1.38a7.53,7.53,0,0,1-2.9,2.876A8.535,8.535,0,0,1,28.29,32.45Zm15.81,0a6.746,6.746,0,0,1-3.93-1.129,7.238,7.238,0,0,1-2.505-3.064A10.514,10.514,0,0,1,36.8,23.9a10.448,10.448,0,0,1,.877-4.369A7.228,7.228,0,0,1,40.2,16.475a6.886,6.886,0,0,1,3.975-1.125,6.162,6.162,0,0,1,3.694,1.091,5.868,5.868,0,0,1,2.156,3l-.45.78V15.8H51.96V32H49.575V27.53l.45.78a5.834,5.834,0,0,1-2.2,3.038A6.3,6.3,0,0,1,44.1,32.45ZM44.43,30a4.27,4.27,0,0,0,2.647-.787,4.613,4.613,0,0,0,1.545-2.171,9.228,9.228,0,0,0,.5-3.161,9.15,9.15,0,0,0-.506-3.169,4.566,4.566,0,0,0-1.541-2.149A4.256,4.256,0,0,0,44.46,17.8a4.441,4.441,0,0,0-2.659.773,4.709,4.709,0,0,0-1.624,2.149A8.571,8.571,0,0,0,39.63,23.9a8.72,8.72,0,0,0,.521,3.094,4.835,4.835,0,0,0,1.586,2.2A4.307,4.307,0,0,0,44.43,30Z" transform="translate(-18444.518 19627)" fill="#fff"/>
      <path id="Path_12172" data-name="Path 12172" d="M2.1,32V10.4H15.75v2.535H4.77V19.7h9.18v2.535H4.77v7.23H15.75V32Zm29.34,3.6a4.264,4.264,0,0,0-.33-2.467,2.128,2.128,0,0,0-1.549-.945A17,17,0,0,0,26.76,32a12.112,12.112,0,0,1-4.808-.8,5.532,5.532,0,0,1-2.666-2.231,6.434,6.434,0,0,1-.836-3.311A6.01,6.01,0,0,1,19.3,22.37a4.5,4.5,0,0,1,2.5-1.875,5.844,5.844,0,0,1-1.845-1.98,5.6,5.6,0,0,1-.7-2.85,5.366,5.366,0,0,1,.585-2.584,5.015,5.015,0,0,1,1.586-1.774,7.2,7.2,0,0,1,2.261-1.024A10.18,10.18,0,0,1,26.3,9.95a8.36,8.36,0,0,1,7.35,3.84L31.59,15.545a6.59,6.59,0,0,0-2.066-2.227,5.738,5.738,0,0,0-3.229-.833,5.367,5.367,0,0,0-3.015.791,2.741,2.741,0,0,0-1.2,2.464,2.884,2.884,0,0,0,1.192,2.49,5.831,5.831,0,0,0,3.188.96q.3.015.78.022t.907.008h.563v2.55h-.289q-.154,0-.619.019t-1.538.056a11.216,11.216,0,0,0-2.61.379,3.386,3.386,0,0,0-1.744,1.08,3.257,3.257,0,0,0-.626,2.126,3.478,3.478,0,0,0,.78,2.385,4.4,4.4,0,0,0,2.22,1.275,13.59,13.59,0,0,0,3.42.405q.42.007.971.026t1.129.079a6.917,6.917,0,0,1,1.08.195,4.483,4.483,0,0,1,1.811.975,3.817,3.817,0,0,1,1.125,1.89,6.531,6.531,0,0,1,0,2.94Zm9.975-3.15a7.906,7.906,0,0,1-3.142-.6,5.321,5.321,0,0,1-2.246-1.74,4.472,4.472,0,0,1-.836-2.726,5.19,5.19,0,0,1,.322-1.811,4.062,4.062,0,0,1,.971-1.511,3.437,3.437,0,0,1,1.631-.877l-.1.945a5.448,5.448,0,0,1-1.763-1.747,4.363,4.363,0,0,1-.607-2.3,4.242,4.242,0,0,1,.772-2.573,4.822,4.822,0,0,1,2.07-1.605,7.277,7.277,0,0,1,2.858-.547,9.1,9.1,0,0,1,3.592.7,8.7,8.7,0,0,1,2.887,1.987L46.2,19.85a7.375,7.375,0,0,0-2.111-1.418,6.159,6.159,0,0,0-2.584-.562,4.041,4.041,0,0,0-2.194.581,2.007,2.007,0,0,0-.926,1.834,1.8,1.8,0,0,0,.99,1.74,5.6,5.6,0,0,0,2.565.51h1.665v2.2h-1.68a10.259,10.259,0,0,0-2.145.2,2.578,2.578,0,0,0-1.38.709,2.068,2.068,0,0,0-.48,1.466,2.45,2.45,0,0,0,.979,2.051,4.187,4.187,0,0,0,2.621.754,5.514,5.514,0,0,0,2.809-.713,6.305,6.305,0,0,0,2.111-2.048l2.13,1.38a7.53,7.53,0,0,1-2.895,2.876A8.535,8.535,0,0,1,41.415,32.45Zm7.9-.45L55.2,15.8a17.835,17.835,0,0,0-.885-1.969A2.859,2.859,0,0,0,53.25,12.68a3.528,3.528,0,0,0-1.77-.375h-.765V9.95H51.75q.285,0,.877.026a5.82,5.82,0,0,1,1.118.154,3.584,3.584,0,0,1,1.95,1.114,7.353,7.353,0,0,1,1.256,2.04q.506,1.2.979,2.516L63.81,32H61.1l-4.53-12.8L52.02,32ZM69.285,13.325H67.11l1.965-4.95H71.25Zm1.3,18.81a5.549,5.549,0,0,1-1.781-.6,3.61,3.61,0,0,1-1.4-1.444,4.172,4.172,0,0,1-.551-1.9q-.034-.971-.034-2.314V15.8h2.67v9.96q0,1.02.015,1.695a2.673,2.673,0,0,0,.315,1.23,2.06,2.06,0,0,0,.81.814,3.007,3.007,0,0,0,1.08.326,10.7,10.7,0,0,0,1.339.022,9.83,9.83,0,0,0,1.331-.142V32a7.462,7.462,0,0,1-1.245.2,12.461,12.461,0,0,1-1.361.038A9.269,9.269,0,0,1,70.583,32.135ZM89.768,35.6a4.264,4.264,0,0,0-.33-2.467,2.128,2.128,0,0,0-1.549-.945,17,17,0,0,0-2.8-.187,12.112,12.112,0,0,1-4.808-.8,5.532,5.532,0,0,1-2.666-2.231,6.434,6.434,0,0,1-.836-3.311,6.01,6.01,0,0,1,.848-3.285,4.5,4.5,0,0,1,2.5-1.875,5.844,5.844,0,0,1-1.845-1.98,5.6,5.6,0,0,1-.7-2.85,5.366,5.366,0,0,1,.585-2.584,5.015,5.015,0,0,1,1.586-1.774A7.2,7.2,0,0,1,82,10.284a10.18,10.18,0,0,1,2.618-.334,8.36,8.36,0,0,1,7.35,3.84l-2.055,1.755a6.59,6.59,0,0,0-2.066-2.227,5.738,5.738,0,0,0-3.229-.833,5.367,5.367,0,0,0-3.015.791,2.741,2.741,0,0,0-1.2,2.464A2.884,2.884,0,0,0,81.6,18.23a5.831,5.831,0,0,0,3.188.96q.3.015.78.022t.908.008h.563v2.55h-.289q-.154,0-.619.019t-1.537.056a11.216,11.216,0,0,0-2.61.379,3.386,3.386,0,0,0-1.744,1.08,3.257,3.257,0,0,0-.626,2.126,3.478,3.478,0,0,0,.78,2.385,4.4,4.4,0,0,0,2.22,1.275,13.59,13.59,0,0,0,3.42.405q.42.007.971.026t1.129.079a6.917,6.917,0,0,1,1.08.195,4.483,4.483,0,0,1,1.811.975,3.817,3.817,0,0,1,1.125,1.89,6.531,6.531,0,0,1,0,2.94Zm9.975-3.15a7.906,7.906,0,0,1-3.143-.6,5.321,5.321,0,0,1-2.246-1.74,4.472,4.472,0,0,1-.836-2.726,5.19,5.19,0,0,1,.323-1.811,4.062,4.062,0,0,1,.971-1.511,3.437,3.437,0,0,1,1.631-.877l-.105.945a5.448,5.448,0,0,1-1.762-1.747,4.363,4.363,0,0,1-.607-2.3A4.242,4.242,0,0,1,94.74,17.5,4.822,4.822,0,0,1,96.81,15.9a7.277,7.277,0,0,1,2.857-.547,9.1,9.1,0,0,1,3.592.7,8.7,8.7,0,0,1,2.888,1.987l-1.62,1.815a7.375,7.375,0,0,0-2.111-1.418,6.159,6.159,0,0,0-2.584-.562,4.041,4.041,0,0,0-2.194.581,2.007,2.007,0,0,0-.926,1.834,1.8,1.8,0,0,0,.99,1.74,5.6,5.6,0,0,0,2.565.51h1.665v2.2h-1.68a10.259,10.259,0,0,0-2.145.2,2.578,2.578,0,0,0-1.38.709,2.068,2.068,0,0,0-.48,1.466,2.45,2.45,0,0,0,.979,2.051,4.187,4.187,0,0,0,2.621.754,5.514,5.514,0,0,0,2.809-.713,6.305,6.305,0,0,0,2.111-2.048l2.13,1.38a7.53,7.53,0,0,1-2.9,2.876A8.535,8.535,0,0,1,99.743,32.45Zm14.077-.315a5.549,5.549,0,0,1-1.781-.6,3.61,3.61,0,0,1-1.4-1.444,4.172,4.172,0,0,1-.551-1.9q-.034-.971-.034-2.314V15.8h2.67v9.96q0,1.02.015,1.695a2.673,2.673,0,0,0,.315,1.23,2.06,2.06,0,0,0,.81.814,3.007,3.007,0,0,0,1.08.326,10.7,10.7,0,0,0,1.339.022,9.83,9.83,0,0,0,1.331-.142V32a7.462,7.462,0,0,1-1.245.2,12.461,12.461,0,0,1-1.361.038A9.269,9.269,0,0,1,113.82,32.135ZM130.755,35.6a4.112,4.112,0,0,0-.443-2.471,2.274,2.274,0,0,0-1.586-.9A23.029,23.029,0,0,0,126.075,32a8.2,8.2,0,0,1-2.689-.5,6.293,6.293,0,0,1-1.969-1.185,6.126,6.126,0,0,1-1.324-1.7,7.964,7.964,0,0,1-.743-2.074,10.976,10.976,0,0,1-.236-2.284,11.29,11.29,0,0,1,.926-4.785,6.915,6.915,0,0,1,2.647-3.06,7.678,7.678,0,0,1,4.121-1.065,7.781,7.781,0,0,1,4.451,1.245,6.153,6.153,0,0,1,2.509,3.465l-2.64.8a4.46,4.46,0,0,0-1.661-2.19,4.686,4.686,0,0,0-2.719-.78,4.189,4.189,0,0,0-2.629.788,4.625,4.625,0,0,0-1.519,2.16,9.255,9.255,0,0,0-.5,3.112,9.937,9.937,0,0,0,.173,1.894,5.313,5.313,0,0,0,.679,1.8A3.671,3.671,0,0,0,124.4,28.97a5.4,5.4,0,0,0,2.5.525q.36,0,.96.011t1.26.071a6.342,6.342,0,0,1,1.2.218,3.887,3.887,0,0,1,1.77,1.028A4.048,4.048,0,0,1,133.1,32.75a7.5,7.5,0,0,1,.041,2.85Z" transform="translate(-19861 19627)" fill="#fff"/>
      <path id="Path_12171" data-name="Path 12171" d="M2.1,32V10.4H15.75v2.535H4.77V19.7h9.18v2.535H4.77v7.23H15.75V32Zm29.34,3.6a4.264,4.264,0,0,0-.33-2.467,2.128,2.128,0,0,0-1.549-.945A17,17,0,0,0,26.76,32a12.112,12.112,0,0,1-4.808-.8,5.532,5.532,0,0,1-2.666-2.231,6.434,6.434,0,0,1-.836-3.311A6.01,6.01,0,0,1,19.3,22.37a4.5,4.5,0,0,1,2.5-1.875,5.844,5.844,0,0,1-1.845-1.98,5.6,5.6,0,0,1-.7-2.85,5.366,5.366,0,0,1,.585-2.584,5.015,5.015,0,0,1,1.586-1.774,7.2,7.2,0,0,1,2.261-1.024A10.18,10.18,0,0,1,26.3,9.95a8.36,8.36,0,0,1,7.35,3.84L31.59,15.545a6.59,6.59,0,0,0-2.066-2.227,5.738,5.738,0,0,0-3.229-.833,5.367,5.367,0,0,0-3.015.791,2.741,2.741,0,0,0-1.2,2.464,2.884,2.884,0,0,0,1.192,2.49,5.831,5.831,0,0,0,3.188.96q.3.015.78.022t.907.008h.563v2.55h-.289q-.154,0-.619.019t-1.538.056a11.216,11.216,0,0,0-2.61.379,3.386,3.386,0,0,0-1.744,1.08,3.257,3.257,0,0,0-.626,2.126,3.478,3.478,0,0,0,.78,2.385,4.4,4.4,0,0,0,2.22,1.275,13.59,13.59,0,0,0,3.42.405q.42.007.971.026t1.129.079a6.917,6.917,0,0,1,1.08.195,4.483,4.483,0,0,1,1.811.975,3.817,3.817,0,0,1,1.125,1.89,6.531,6.531,0,0,1,0,2.94Zm9.975-3.15a7.906,7.906,0,0,1-3.142-.6,5.321,5.321,0,0,1-2.246-1.74,4.472,4.472,0,0,1-.836-2.726,5.19,5.19,0,0,1,.322-1.811,4.062,4.062,0,0,1,.971-1.511,3.437,3.437,0,0,1,1.631-.877l-.1.945a5.448,5.448,0,0,1-1.763-1.747,4.363,4.363,0,0,1-.607-2.3,4.242,4.242,0,0,1,.772-2.573,4.822,4.822,0,0,1,2.07-1.605,7.277,7.277,0,0,1,2.858-.547,9.1,9.1,0,0,1,3.592.7,8.7,8.7,0,0,1,2.887,1.987L46.2,19.85a7.375,7.375,0,0,0-2.111-1.418,6.159,6.159,0,0,0-2.584-.562,4.041,4.041,0,0,0-2.194.581,2.007,2.007,0,0,0-.926,1.834,1.8,1.8,0,0,0,.99,1.74,5.6,5.6,0,0,0,2.565.51h1.665v2.2h-1.68a10.259,10.259,0,0,0-2.145.2,2.578,2.578,0,0,0-1.38.709,2.068,2.068,0,0,0-.48,1.466,2.45,2.45,0,0,0,.979,2.051,4.187,4.187,0,0,0,2.621.754,5.514,5.514,0,0,0,2.809-.713,6.305,6.305,0,0,0,2.111-2.048l2.13,1.38a7.53,7.53,0,0,1-2.895,2.876A8.535,8.535,0,0,1,41.415,32.45Zm7.9-.45L55.2,15.8a17.835,17.835,0,0,0-.885-1.969A2.859,2.859,0,0,0,53.25,12.68a3.528,3.528,0,0,0-1.77-.375h-.765V9.95H51.75q.285,0,.877.026a5.82,5.82,0,0,1,1.118.154,3.584,3.584,0,0,1,1.95,1.114,7.353,7.353,0,0,1,1.256,2.04q.506,1.2.979,2.516L63.81,32H61.1l-4.53-12.8L52.02,32ZM69.285,13.325H67.11l1.965-4.95H71.25Zm1.3,18.81a5.549,5.549,0,0,1-1.781-.6,3.61,3.61,0,0,1-1.4-1.444,4.172,4.172,0,0,1-.551-1.9q-.034-.971-.034-2.314V15.8h2.67v9.96q0,1.02.015,1.695a2.673,2.673,0,0,0,.315,1.23,2.06,2.06,0,0,0,.81.814,3.007,3.007,0,0,0,1.08.326,10.7,10.7,0,0,0,1.339.022,9.83,9.83,0,0,0,1.331-.142V32a7.462,7.462,0,0,1-1.245.2,12.461,12.461,0,0,1-1.361.038A9.269,9.269,0,0,1,70.583,32.135ZM89.768,35.6a4.264,4.264,0,0,0-.33-2.467,2.128,2.128,0,0,0-1.549-.945,17,17,0,0,0-2.8-.187,12.112,12.112,0,0,1-4.808-.8,5.532,5.532,0,0,1-2.666-2.231,6.434,6.434,0,0,1-.836-3.311,6.01,6.01,0,0,1,.848-3.285,4.5,4.5,0,0,1,2.5-1.875,5.844,5.844,0,0,1-1.845-1.98,5.6,5.6,0,0,1-.7-2.85,5.366,5.366,0,0,1,.585-2.584,5.015,5.015,0,0,1,1.586-1.774A7.2,7.2,0,0,1,82,10.284a10.18,10.18,0,0,1,2.618-.334,8.36,8.36,0,0,1,7.35,3.84l-2.055,1.755a6.59,6.59,0,0,0-2.066-2.227,5.738,5.738,0,0,0-3.229-.833,5.367,5.367,0,0,0-3.015.791,2.741,2.741,0,0,0-1.2,2.464A2.884,2.884,0,0,0,81.6,18.23a5.831,5.831,0,0,0,3.188.96q.3.015.78.022t.908.008h.563v2.55h-.289q-.154,0-.619.019t-1.537.056a11.216,11.216,0,0,0-2.61.379,3.386,3.386,0,0,0-1.744,1.08,3.257,3.257,0,0,0-.626,2.126,3.478,3.478,0,0,0,.78,2.385,4.4,4.4,0,0,0,2.22,1.275,13.59,13.59,0,0,0,3.42.405q.42.007.971.026t1.129.079a6.917,6.917,0,0,1,1.08.195,4.483,4.483,0,0,1,1.811.975,3.817,3.817,0,0,1,1.125,1.89,6.531,6.531,0,0,1,0,2.94Zm9.975-3.15a7.906,7.906,0,0,1-3.143-.6,5.321,5.321,0,0,1-2.246-1.74,4.472,4.472,0,0,1-.836-2.726,5.19,5.19,0,0,1,.323-1.811,4.062,4.062,0,0,1,.971-1.511,3.437,3.437,0,0,1,1.631-.877l-.105.945a5.448,5.448,0,0,1-1.762-1.747,4.363,4.363,0,0,1-.607-2.3A4.242,4.242,0,0,1,94.74,17.5,4.822,4.822,0,0,1,96.81,15.9a7.277,7.277,0,0,1,2.857-.547,9.1,9.1,0,0,1,3.592.7,8.7,8.7,0,0,1,2.888,1.987l-1.62,1.815a7.375,7.375,0,0,0-2.111-1.418,6.159,6.159,0,0,0-2.584-.562,4.041,4.041,0,0,0-2.194.581,2.007,2.007,0,0,0-.926,1.834,1.8,1.8,0,0,0,.99,1.74,5.6,5.6,0,0,0,2.565.51h1.665v2.2h-1.68a10.259,10.259,0,0,0-2.145.2,2.578,2.578,0,0,0-1.38.709,2.068,2.068,0,0,0-.48,1.466,2.45,2.45,0,0,0,.979,2.051,4.187,4.187,0,0,0,2.621.754,5.514,5.514,0,0,0,2.809-.713,6.305,6.305,0,0,0,2.111-2.048l2.13,1.38a7.53,7.53,0,0,1-2.9,2.876A8.535,8.535,0,0,1,99.743,32.45Zm14.077-.315a5.549,5.549,0,0,1-1.781-.6,3.61,3.61,0,0,1-1.4-1.444,4.172,4.172,0,0,1-.551-1.9q-.034-.971-.034-2.314V15.8h2.67v9.96q0,1.02.015,1.695a2.673,2.673,0,0,0,.315,1.23,2.06,2.06,0,0,0,.81.814,3.007,3.007,0,0,0,1.08.326,10.7,10.7,0,0,0,1.339.022,9.83,9.83,0,0,0,1.331-.142V32a7.462,7.462,0,0,1-1.245.2,12.461,12.461,0,0,1-1.361.038A9.269,9.269,0,0,1,113.82,32.135ZM130.755,35.6a4.112,4.112,0,0,0-.443-2.471,2.274,2.274,0,0,0-1.586-.9A23.029,23.029,0,0,0,126.075,32a8.2,8.2,0,0,1-2.689-.5,6.293,6.293,0,0,1-1.969-1.185,6.126,6.126,0,0,1-1.324-1.7,7.964,7.964,0,0,1-.743-2.074,10.976,10.976,0,0,1-.236-2.284,11.29,11.29,0,0,1,.926-4.785,6.915,6.915,0,0,1,2.647-3.06,7.678,7.678,0,0,1,4.121-1.065,7.781,7.781,0,0,1,4.451,1.245,6.153,6.153,0,0,1,2.509,3.465l-2.64.8a4.46,4.46,0,0,0-1.661-2.19,4.686,4.686,0,0,0-2.719-.78,4.189,4.189,0,0,0-2.629.788,4.625,4.625,0,0,0-1.519,2.16,9.255,9.255,0,0,0-.5,3.112,9.937,9.937,0,0,0,.173,1.894,5.313,5.313,0,0,0,.679,1.8A3.671,3.671,0,0,0,124.4,28.97a5.4,5.4,0,0,0,2.5.525q.36,0,.96.011t1.26.071a6.342,6.342,0,0,1,1.2.218,3.887,3.887,0,0,1,1.77,1.028A4.048,4.048,0,0,1,133.1,32.75a7.5,7.5,0,0,1,.041,2.85Z" transform="translate(-19555.004 19627)" fill="#fff"/>
      <path id="Path_12170" data-name="Path 12170" d="M2.1,32V10.4H15.75v2.535H4.77V19.7h9.18v2.535H4.77v7.23H15.75V32Zm29.34,3.6a4.264,4.264,0,0,0-.33-2.467,2.128,2.128,0,0,0-1.549-.945A17,17,0,0,0,26.76,32a12.112,12.112,0,0,1-4.808-.8,5.532,5.532,0,0,1-2.666-2.231,6.434,6.434,0,0,1-.836-3.311A6.01,6.01,0,0,1,19.3,22.37a4.5,4.5,0,0,1,2.5-1.875,5.844,5.844,0,0,1-1.845-1.98,5.6,5.6,0,0,1-.7-2.85,5.366,5.366,0,0,1,.585-2.584,5.015,5.015,0,0,1,1.586-1.774,7.2,7.2,0,0,1,2.261-1.024A10.18,10.18,0,0,1,26.3,9.95a8.36,8.36,0,0,1,7.35,3.84L31.59,15.545a6.59,6.59,0,0,0-2.066-2.227,5.738,5.738,0,0,0-3.229-.833,5.367,5.367,0,0,0-3.015.791,2.741,2.741,0,0,0-1.2,2.464,2.884,2.884,0,0,0,1.192,2.49,5.831,5.831,0,0,0,3.188.96q.3.015.78.022t.907.008h.563v2.55h-.289q-.154,0-.619.019t-1.538.056a11.216,11.216,0,0,0-2.61.379,3.386,3.386,0,0,0-1.744,1.08,3.257,3.257,0,0,0-.626,2.126,3.478,3.478,0,0,0,.78,2.385,4.4,4.4,0,0,0,2.22,1.275,13.59,13.59,0,0,0,3.42.405q.42.007.971.026t1.129.079a6.917,6.917,0,0,1,1.08.195,4.483,4.483,0,0,1,1.811.975,3.817,3.817,0,0,1,1.125,1.89,6.531,6.531,0,0,1,0,2.94Zm9.975-3.15a7.906,7.906,0,0,1-3.142-.6,5.321,5.321,0,0,1-2.246-1.74,4.472,4.472,0,0,1-.836-2.726,5.19,5.19,0,0,1,.322-1.811,4.062,4.062,0,0,1,.971-1.511,3.437,3.437,0,0,1,1.631-.877l-.1.945a5.448,5.448,0,0,1-1.763-1.747,4.363,4.363,0,0,1-.607-2.3,4.242,4.242,0,0,1,.772-2.573,4.822,4.822,0,0,1,2.07-1.605,7.277,7.277,0,0,1,2.858-.547,9.1,9.1,0,0,1,3.592.7,8.7,8.7,0,0,1,2.887,1.987L46.2,19.85a7.375,7.375,0,0,0-2.111-1.418,6.159,6.159,0,0,0-2.584-.562,4.041,4.041,0,0,0-2.194.581,2.007,2.007,0,0,0-.926,1.834,1.8,1.8,0,0,0,.99,1.74,5.6,5.6,0,0,0,2.565.51h1.665v2.2h-1.68a10.259,10.259,0,0,0-2.145.2,2.578,2.578,0,0,0-1.38.709,2.068,2.068,0,0,0-.48,1.466,2.45,2.45,0,0,0,.979,2.051,4.187,4.187,0,0,0,2.621.754,5.514,5.514,0,0,0,2.809-.713,6.305,6.305,0,0,0,2.111-2.048l2.13,1.38a7.53,7.53,0,0,1-2.895,2.876A8.535,8.535,0,0,1,41.415,32.45Zm7.9-.45L55.2,15.8a17.835,17.835,0,0,0-.885-1.969A2.859,2.859,0,0,0,53.25,12.68a3.528,3.528,0,0,0-1.77-.375h-.765V9.95H51.75q.285,0,.877.026a5.82,5.82,0,0,1,1.118.154,3.584,3.584,0,0,1,1.95,1.114,7.353,7.353,0,0,1,1.256,2.04q.506,1.2.979,2.516L63.81,32H61.1l-4.53-12.8L52.02,32ZM69.285,13.325H67.11l1.965-4.95H71.25Zm1.3,18.81a5.549,5.549,0,0,1-1.781-.6,3.61,3.61,0,0,1-1.4-1.444,4.172,4.172,0,0,1-.551-1.9q-.034-.971-.034-2.314V15.8h2.67v9.96q0,1.02.015,1.695a2.673,2.673,0,0,0,.315,1.23,2.06,2.06,0,0,0,.81.814,3.007,3.007,0,0,0,1.08.326,10.7,10.7,0,0,0,1.339.022,9.83,9.83,0,0,0,1.331-.142V32a7.462,7.462,0,0,1-1.245.2,12.461,12.461,0,0,1-1.361.038A9.269,9.269,0,0,1,70.583,32.135ZM89.768,35.6a4.264,4.264,0,0,0-.33-2.467,2.128,2.128,0,0,0-1.549-.945,17,17,0,0,0-2.8-.187,12.112,12.112,0,0,1-4.808-.8,5.532,5.532,0,0,1-2.666-2.231,6.434,6.434,0,0,1-.836-3.311,6.01,6.01,0,0,1,.848-3.285,4.5,4.5,0,0,1,2.5-1.875,5.844,5.844,0,0,1-1.845-1.98,5.6,5.6,0,0,1-.7-2.85,5.366,5.366,0,0,1,.585-2.584,5.015,5.015,0,0,1,1.586-1.774A7.2,7.2,0,0,1,82,10.284a10.18,10.18,0,0,1,2.618-.334,8.36,8.36,0,0,1,7.35,3.84l-2.055,1.755a6.59,6.59,0,0,0-2.066-2.227,5.738,5.738,0,0,0-3.229-.833,5.367,5.367,0,0,0-3.015.791,2.741,2.741,0,0,0-1.2,2.464A2.884,2.884,0,0,0,81.6,18.23a5.831,5.831,0,0,0,3.188.96q.3.015.78.022t.908.008h.563v2.55h-.289q-.154,0-.619.019t-1.537.056a11.216,11.216,0,0,0-2.61.379,3.386,3.386,0,0,0-1.744,1.08,3.257,3.257,0,0,0-.626,2.126,3.478,3.478,0,0,0,.78,2.385,4.4,4.4,0,0,0,2.22,1.275,13.59,13.59,0,0,0,3.42.405q.42.007.971.026t1.129.079a6.917,6.917,0,0,1,1.08.195,4.483,4.483,0,0,1,1.811.975,3.817,3.817,0,0,1,1.125,1.89,6.531,6.531,0,0,1,0,2.94Zm9.975-3.15a7.906,7.906,0,0,1-3.143-.6,5.321,5.321,0,0,1-2.246-1.74,4.472,4.472,0,0,1-.836-2.726,5.19,5.19,0,0,1,.323-1.811,4.062,4.062,0,0,1,.971-1.511,3.437,3.437,0,0,1,1.631-.877l-.105.945a5.448,5.448,0,0,1-1.762-1.747,4.363,4.363,0,0,1-.607-2.3A4.242,4.242,0,0,1,94.74,17.5,4.822,4.822,0,0,1,96.81,15.9a7.277,7.277,0,0,1,2.857-.547,9.1,9.1,0,0,1,3.592.7,8.7,8.7,0,0,1,2.888,1.987l-1.62,1.815a7.375,7.375,0,0,0-2.111-1.418,6.159,6.159,0,0,0-2.584-.562,4.041,4.041,0,0,0-2.194.581,2.007,2.007,0,0,0-.926,1.834,1.8,1.8,0,0,0,.99,1.74,5.6,5.6,0,0,0,2.565.51h1.665v2.2h-1.68a10.259,10.259,0,0,0-2.145.2,2.578,2.578,0,0,0-1.38.709,2.068,2.068,0,0,0-.48,1.466,2.45,2.45,0,0,0,.979,2.051,4.187,4.187,0,0,0,2.621.754,5.514,5.514,0,0,0,2.809-.713,6.305,6.305,0,0,0,2.111-2.048l2.13,1.38a7.53,7.53,0,0,1-2.9,2.876A8.535,8.535,0,0,1,99.743,32.45Zm14.077-.315a5.549,5.549,0,0,1-1.781-.6,3.61,3.61,0,0,1-1.4-1.444,4.172,4.172,0,0,1-.551-1.9q-.034-.971-.034-2.314V15.8h2.67v9.96q0,1.02.015,1.695a2.673,2.673,0,0,0,.315,1.23,2.06,2.06,0,0,0,.81.814,3.007,3.007,0,0,0,1.08.326,10.7,10.7,0,0,0,1.339.022,9.83,9.83,0,0,0,1.331-.142V32a7.462,7.462,0,0,1-1.245.2,12.461,12.461,0,0,1-1.361.038A9.269,9.269,0,0,1,113.82,32.135ZM130.755,35.6a4.112,4.112,0,0,0-.443-2.471,2.274,2.274,0,0,0-1.586-.9A23.029,23.029,0,0,0,126.075,32a8.2,8.2,0,0,1-2.689-.5,6.293,6.293,0,0,1-1.969-1.185,6.126,6.126,0,0,1-1.324-1.7,7.964,7.964,0,0,1-.743-2.074,10.976,10.976,0,0,1-.236-2.284,11.29,11.29,0,0,1,.926-4.785,6.915,6.915,0,0,1,2.647-3.06,7.678,7.678,0,0,1,4.121-1.065,7.781,7.781,0,0,1,4.451,1.245,6.153,6.153,0,0,1,2.509,3.465l-2.64.8a4.46,4.46,0,0,0-1.661-2.19,4.686,4.686,0,0,0-2.719-.78,4.189,4.189,0,0,0-2.629.788,4.625,4.625,0,0,0-1.519,2.16,9.255,9.255,0,0,0-.5,3.112,9.937,9.937,0,0,0,.173,1.894,5.313,5.313,0,0,0,.679,1.8A3.671,3.671,0,0,0,124.4,28.97a5.4,5.4,0,0,0,2.5.525q.36,0,.96.011t1.26.071a6.342,6.342,0,0,1,1.2.218,3.887,3.887,0,0,1,1.77,1.028A4.048,4.048,0,0,1,133.1,32.75a7.5,7.5,0,0,1,.041,2.85Z" transform="translate(-19249.008 19627)" fill="#fff"/>
      <path id="Path_12169" data-name="Path 12169" d="M2.1,32V10.4H15.75v2.535H4.77V19.7h9.18v2.535H4.77v7.23H15.75V32Zm29.34,3.6a4.264,4.264,0,0,0-.33-2.467,2.128,2.128,0,0,0-1.549-.945A17,17,0,0,0,26.76,32a12.112,12.112,0,0,1-4.808-.8,5.532,5.532,0,0,1-2.666-2.231,6.434,6.434,0,0,1-.836-3.311A6.01,6.01,0,0,1,19.3,22.37a4.5,4.5,0,0,1,2.5-1.875,5.844,5.844,0,0,1-1.845-1.98,5.6,5.6,0,0,1-.7-2.85,5.366,5.366,0,0,1,.585-2.584,5.015,5.015,0,0,1,1.586-1.774,7.2,7.2,0,0,1,2.261-1.024A10.18,10.18,0,0,1,26.3,9.95a8.36,8.36,0,0,1,7.35,3.84L31.59,15.545a6.59,6.59,0,0,0-2.066-2.227,5.738,5.738,0,0,0-3.229-.833,5.367,5.367,0,0,0-3.015.791,2.741,2.741,0,0,0-1.2,2.464,2.884,2.884,0,0,0,1.192,2.49,5.831,5.831,0,0,0,3.188.96q.3.015.78.022t.907.008h.563v2.55h-.289q-.154,0-.619.019t-1.538.056a11.216,11.216,0,0,0-2.61.379,3.386,3.386,0,0,0-1.744,1.08,3.257,3.257,0,0,0-.626,2.126,3.478,3.478,0,0,0,.78,2.385,4.4,4.4,0,0,0,2.22,1.275,13.59,13.59,0,0,0,3.42.405q.42.007.971.026t1.129.079a6.917,6.917,0,0,1,1.08.195,4.483,4.483,0,0,1,1.811.975,3.817,3.817,0,0,1,1.125,1.89,6.531,6.531,0,0,1,0,2.94Zm9.975-3.15a7.906,7.906,0,0,1-3.142-.6,5.321,5.321,0,0,1-2.246-1.74,4.472,4.472,0,0,1-.836-2.726,5.19,5.19,0,0,1,.322-1.811,4.062,4.062,0,0,1,.971-1.511,3.437,3.437,0,0,1,1.631-.877l-.1.945a5.448,5.448,0,0,1-1.763-1.747,4.363,4.363,0,0,1-.607-2.3,4.242,4.242,0,0,1,.772-2.573,4.822,4.822,0,0,1,2.07-1.605,7.277,7.277,0,0,1,2.858-.547,9.1,9.1,0,0,1,3.592.7,8.7,8.7,0,0,1,2.887,1.987L46.2,19.85a7.375,7.375,0,0,0-2.111-1.418,6.159,6.159,0,0,0-2.584-.562,4.041,4.041,0,0,0-2.194.581,2.007,2.007,0,0,0-.926,1.834,1.8,1.8,0,0,0,.99,1.74,5.6,5.6,0,0,0,2.565.51h1.665v2.2h-1.68a10.259,10.259,0,0,0-2.145.2,2.578,2.578,0,0,0-1.38.709,2.068,2.068,0,0,0-.48,1.466,2.45,2.45,0,0,0,.979,2.051,4.187,4.187,0,0,0,2.621.754,5.514,5.514,0,0,0,2.809-.713,6.305,6.305,0,0,0,2.111-2.048l2.13,1.38a7.53,7.53,0,0,1-2.895,2.876A8.535,8.535,0,0,1,41.415,32.45Zm7.9-.45L55.2,15.8a17.835,17.835,0,0,0-.885-1.969A2.859,2.859,0,0,0,53.25,12.68a3.528,3.528,0,0,0-1.77-.375h-.765V9.95H51.75q.285,0,.877.026a5.82,5.82,0,0,1,1.118.154,3.584,3.584,0,0,1,1.95,1.114,7.353,7.353,0,0,1,1.256,2.04q.506,1.2.979,2.516L63.81,32H61.1l-4.53-12.8L52.02,32ZM69.285,13.325H67.11l1.965-4.95H71.25Zm1.3,18.81a5.549,5.549,0,0,1-1.781-.6,3.61,3.61,0,0,1-1.4-1.444,4.172,4.172,0,0,1-.551-1.9q-.034-.971-.034-2.314V15.8h2.67v9.96q0,1.02.015,1.695a2.673,2.673,0,0,0,.315,1.23,2.06,2.06,0,0,0,.81.814,3.007,3.007,0,0,0,1.08.326,10.7,10.7,0,0,0,1.339.022,9.83,9.83,0,0,0,1.331-.142V32a7.462,7.462,0,0,1-1.245.2,12.461,12.461,0,0,1-1.361.038A9.269,9.269,0,0,1,70.583,32.135ZM89.768,35.6a4.264,4.264,0,0,0-.33-2.467,2.128,2.128,0,0,0-1.549-.945,17,17,0,0,0-2.8-.187,12.112,12.112,0,0,1-4.808-.8,5.532,5.532,0,0,1-2.666-2.231,6.434,6.434,0,0,1-.836-3.311,6.01,6.01,0,0,1,.848-3.285,4.5,4.5,0,0,1,2.5-1.875,5.844,5.844,0,0,1-1.845-1.98,5.6,5.6,0,0,1-.7-2.85,5.366,5.366,0,0,1,.585-2.584,5.015,5.015,0,0,1,1.586-1.774A7.2,7.2,0,0,1,82,10.284a10.18,10.18,0,0,1,2.618-.334,8.36,8.36,0,0,1,7.35,3.84l-2.055,1.755a6.59,6.59,0,0,0-2.066-2.227,5.738,5.738,0,0,0-3.229-.833,5.367,5.367,0,0,0-3.015.791,2.741,2.741,0,0,0-1.2,2.464A2.884,2.884,0,0,0,81.6,18.23a5.831,5.831,0,0,0,3.188.96q.3.015.78.022t.908.008h.563v2.55h-.289q-.154,0-.619.019t-1.537.056a11.216,11.216,0,0,0-2.61.379,3.386,3.386,0,0,0-1.744,1.08,3.257,3.257,0,0,0-.626,2.126,3.478,3.478,0,0,0,.78,2.385,4.4,4.4,0,0,0,2.22,1.275,13.59,13.59,0,0,0,3.42.405q.42.007.971.026t1.129.079a6.917,6.917,0,0,1,1.08.195,4.483,4.483,0,0,1,1.811.975,3.817,3.817,0,0,1,1.125,1.89,6.531,6.531,0,0,1,0,2.94Zm9.975-3.15a7.906,7.906,0,0,1-3.143-.6,5.321,5.321,0,0,1-2.246-1.74,4.472,4.472,0,0,1-.836-2.726,5.19,5.19,0,0,1,.323-1.811,4.062,4.062,0,0,1,.971-1.511,3.437,3.437,0,0,1,1.631-.877l-.105.945a5.448,5.448,0,0,1-1.762-1.747,4.363,4.363,0,0,1-.607-2.3A4.242,4.242,0,0,1,94.74,17.5,4.822,4.822,0,0,1,96.81,15.9a7.277,7.277,0,0,1,2.857-.547,9.1,9.1,0,0,1,3.592.7,8.7,8.7,0,0,1,2.888,1.987l-1.62,1.815a7.375,7.375,0,0,0-2.111-1.418,6.159,6.159,0,0,0-2.584-.562,4.041,4.041,0,0,0-2.194.581,2.007,2.007,0,0,0-.926,1.834,1.8,1.8,0,0,0,.99,1.74,5.6,5.6,0,0,0,2.565.51h1.665v2.2h-1.68a10.259,10.259,0,0,0-2.145.2,2.578,2.578,0,0,0-1.38.709,2.068,2.068,0,0,0-.48,1.466,2.45,2.45,0,0,0,.979,2.051,4.187,4.187,0,0,0,2.621.754,5.514,5.514,0,0,0,2.809-.713,6.305,6.305,0,0,0,2.111-2.048l2.13,1.38a7.53,7.53,0,0,1-2.9,2.876A8.535,8.535,0,0,1,99.743,32.45Zm14.077-.315a5.549,5.549,0,0,1-1.781-.6,3.61,3.61,0,0,1-1.4-1.444,4.172,4.172,0,0,1-.551-1.9q-.034-.971-.034-2.314V15.8h2.67v9.96q0,1.02.015,1.695a2.673,2.673,0,0,0,.315,1.23,2.06,2.06,0,0,0,.81.814,3.007,3.007,0,0,0,1.08.326,10.7,10.7,0,0,0,1.339.022,9.83,9.83,0,0,0,1.331-.142V32a7.462,7.462,0,0,1-1.245.2,12.461,12.461,0,0,1-1.361.038A9.269,9.269,0,0,1,113.82,32.135ZM130.755,35.6a4.112,4.112,0,0,0-.443-2.471,2.274,2.274,0,0,0-1.586-.9A23.029,23.029,0,0,0,126.075,32a8.2,8.2,0,0,1-2.689-.5,6.293,6.293,0,0,1-1.969-1.185,6.126,6.126,0,0,1-1.324-1.7,7.964,7.964,0,0,1-.743-2.074,10.976,10.976,0,0,1-.236-2.284,11.29,11.29,0,0,1,.926-4.785,6.915,6.915,0,0,1,2.647-3.06,7.678,7.678,0,0,1,4.121-1.065,7.781,7.781,0,0,1,4.451,1.245,6.153,6.153,0,0,1,2.509,3.465l-2.64.8a4.46,4.46,0,0,0-1.661-2.19,4.686,4.686,0,0,0-2.719-.78,4.189,4.189,0,0,0-2.629.788,4.625,4.625,0,0,0-1.519,2.16,9.255,9.255,0,0,0-.5,3.112,9.937,9.937,0,0,0,.173,1.894,5.313,5.313,0,0,0,.679,1.8A3.671,3.671,0,0,0,124.4,28.97a5.4,5.4,0,0,0,2.5.525q.36,0,.96.011t1.26.071a6.342,6.342,0,0,1,1.2.218,3.887,3.887,0,0,1,1.77,1.028A4.048,4.048,0,0,1,133.1,32.75a7.5,7.5,0,0,1,.041,2.85Z" transform="translate(-18943.012 19627)" fill="#fff"/>
      <path id="Path_12168" data-name="Path 12168" d="M2.1,32V10.4H15.75v2.535H4.77V19.7h9.18v2.535H4.77v7.23H15.75V32Zm29.34,3.6a4.264,4.264,0,0,0-.33-2.467,2.128,2.128,0,0,0-1.549-.945A17,17,0,0,0,26.76,32a12.112,12.112,0,0,1-4.808-.8,5.532,5.532,0,0,1-2.666-2.231,6.434,6.434,0,0,1-.836-3.311A6.01,6.01,0,0,1,19.3,22.37a4.5,4.5,0,0,1,2.5-1.875,5.844,5.844,0,0,1-1.845-1.98,5.6,5.6,0,0,1-.7-2.85,5.366,5.366,0,0,1,.585-2.584,5.015,5.015,0,0,1,1.586-1.774,7.2,7.2,0,0,1,2.261-1.024A10.18,10.18,0,0,1,26.3,9.95a8.36,8.36,0,0,1,7.35,3.84L31.59,15.545a6.59,6.59,0,0,0-2.066-2.227,5.738,5.738,0,0,0-3.229-.833,5.367,5.367,0,0,0-3.015.791,2.741,2.741,0,0,0-1.2,2.464,2.884,2.884,0,0,0,1.192,2.49,5.831,5.831,0,0,0,3.188.96q.3.015.78.022t.907.008h.563v2.55h-.289q-.154,0-.619.019t-1.538.056a11.216,11.216,0,0,0-2.61.379,3.386,3.386,0,0,0-1.744,1.08,3.257,3.257,0,0,0-.626,2.126,3.478,3.478,0,0,0,.78,2.385,4.4,4.4,0,0,0,2.22,1.275,13.59,13.59,0,0,0,3.42.405q.42.007.971.026t1.129.079a6.917,6.917,0,0,1,1.08.195,4.483,4.483,0,0,1,1.811.975,3.817,3.817,0,0,1,1.125,1.89,6.531,6.531,0,0,1,0,2.94Zm9.975-3.15a7.906,7.906,0,0,1-3.142-.6,5.321,5.321,0,0,1-2.246-1.74,4.472,4.472,0,0,1-.836-2.726,5.19,5.19,0,0,1,.322-1.811,4.062,4.062,0,0,1,.971-1.511,3.437,3.437,0,0,1,1.631-.877l-.1.945a5.448,5.448,0,0,1-1.763-1.747,4.363,4.363,0,0,1-.607-2.3,4.242,4.242,0,0,1,.772-2.573,4.822,4.822,0,0,1,2.07-1.605,7.277,7.277,0,0,1,2.858-.547,9.1,9.1,0,0,1,3.592.7,8.7,8.7,0,0,1,2.887,1.987L46.2,19.85a7.375,7.375,0,0,0-2.111-1.418,6.159,6.159,0,0,0-2.584-.562,4.041,4.041,0,0,0-2.194.581,2.007,2.007,0,0,0-.926,1.834,1.8,1.8,0,0,0,.99,1.74,5.6,5.6,0,0,0,2.565.51h1.665v2.2h-1.68a10.259,10.259,0,0,0-2.145.2,2.578,2.578,0,0,0-1.38.709,2.068,2.068,0,0,0-.48,1.466,2.45,2.45,0,0,0,.979,2.051,4.187,4.187,0,0,0,2.621.754,5.514,5.514,0,0,0,2.809-.713,6.305,6.305,0,0,0,2.111-2.048l2.13,1.38a7.53,7.53,0,0,1-2.895,2.876A8.535,8.535,0,0,1,41.415,32.45Zm7.9-.45L55.2,15.8a17.835,17.835,0,0,0-.885-1.969A2.859,2.859,0,0,0,53.25,12.68a3.528,3.528,0,0,0-1.77-.375h-.765V9.95H51.75q.285,0,.877.026a5.82,5.82,0,0,1,1.118.154,3.584,3.584,0,0,1,1.95,1.114,7.353,7.353,0,0,1,1.256,2.04q.506,1.2.979,2.516L63.81,32H61.1l-4.53-12.8L52.02,32ZM69.285,13.325H67.11l1.965-4.95H71.25Zm1.3,18.81a5.549,5.549,0,0,1-1.781-.6,3.61,3.61,0,0,1-1.4-1.444,4.172,4.172,0,0,1-.551-1.9q-.034-.971-.034-2.314V15.8h2.67v9.96q0,1.02.015,1.695a2.673,2.673,0,0,0,.315,1.23,2.06,2.06,0,0,0,.81.814,3.007,3.007,0,0,0,1.08.326,10.7,10.7,0,0,0,1.339.022,9.83,9.83,0,0,0,1.331-.142V32a7.462,7.462,0,0,1-1.245.2,12.461,12.461,0,0,1-1.361.038A9.269,9.269,0,0,1,70.583,32.135ZM89.768,35.6a4.264,4.264,0,0,0-.33-2.467,2.128,2.128,0,0,0-1.549-.945,17,17,0,0,0-2.8-.187,12.112,12.112,0,0,1-4.808-.8,5.532,5.532,0,0,1-2.666-2.231,6.434,6.434,0,0,1-.836-3.311,6.01,6.01,0,0,1,.848-3.285,4.5,4.5,0,0,1,2.5-1.875,5.844,5.844,0,0,1-1.845-1.98,5.6,5.6,0,0,1-.7-2.85,5.366,5.366,0,0,1,.585-2.584,5.015,5.015,0,0,1,1.586-1.774A7.2,7.2,0,0,1,82,10.284a10.18,10.18,0,0,1,2.618-.334,8.36,8.36,0,0,1,7.35,3.84l-2.055,1.755a6.59,6.59,0,0,0-2.066-2.227,5.738,5.738,0,0,0-3.229-.833,5.367,5.367,0,0,0-3.015.791,2.741,2.741,0,0,0-1.2,2.464A2.884,2.884,0,0,0,81.6,18.23a5.831,5.831,0,0,0,3.188.96q.3.015.78.022t.908.008h.563v2.55h-.289q-.154,0-.619.019t-1.537.056a11.216,11.216,0,0,0-2.61.379,3.386,3.386,0,0,0-1.744,1.08,3.257,3.257,0,0,0-.626,2.126,3.478,3.478,0,0,0,.78,2.385,4.4,4.4,0,0,0,2.22,1.275,13.59,13.59,0,0,0,3.42.405q.42.007.971.026t1.129.079a6.917,6.917,0,0,1,1.08.195,4.483,4.483,0,0,1,1.811.975,3.817,3.817,0,0,1,1.125,1.89,6.531,6.531,0,0,1,0,2.94Zm9.975-3.15a7.906,7.906,0,0,1-3.143-.6,5.321,5.321,0,0,1-2.246-1.74,4.472,4.472,0,0,1-.836-2.726,5.19,5.19,0,0,1,.323-1.811,4.062,4.062,0,0,1,.971-1.511,3.437,3.437,0,0,1,1.631-.877l-.105.945a5.448,5.448,0,0,1-1.762-1.747,4.363,4.363,0,0,1-.607-2.3A4.242,4.242,0,0,1,94.74,17.5,4.822,4.822,0,0,1,96.81,15.9a7.277,7.277,0,0,1,2.857-.547,9.1,9.1,0,0,1,3.592.7,8.7,8.7,0,0,1,2.888,1.987l-1.62,1.815a7.375,7.375,0,0,0-2.111-1.418,6.159,6.159,0,0,0-2.584-.562,4.041,4.041,0,0,0-2.194.581,2.007,2.007,0,0,0-.926,1.834,1.8,1.8,0,0,0,.99,1.74,5.6,5.6,0,0,0,2.565.51h1.665v2.2h-1.68a10.259,10.259,0,0,0-2.145.2,2.578,2.578,0,0,0-1.38.709,2.068,2.068,0,0,0-.48,1.466,2.45,2.45,0,0,0,.979,2.051,4.187,4.187,0,0,0,2.621.754,5.514,5.514,0,0,0,2.809-.713,6.305,6.305,0,0,0,2.111-2.048l2.13,1.38a7.53,7.53,0,0,1-2.9,2.876A8.535,8.535,0,0,1,99.743,32.45Zm14.077-.315a5.549,5.549,0,0,1-1.781-.6,3.61,3.61,0,0,1-1.4-1.444,4.172,4.172,0,0,1-.551-1.9q-.034-.971-.034-2.314V15.8h2.67v9.96q0,1.02.015,1.695a2.673,2.673,0,0,0,.315,1.23,2.06,2.06,0,0,0,.81.814,3.007,3.007,0,0,0,1.08.326,10.7,10.7,0,0,0,1.339.022,9.83,9.83,0,0,0,1.331-.142V32a7.462,7.462,0,0,1-1.245.2,12.461,12.461,0,0,1-1.361.038A9.269,9.269,0,0,1,113.82,32.135ZM130.755,35.6a4.112,4.112,0,0,0-.443-2.471,2.274,2.274,0,0,0-1.586-.9A23.029,23.029,0,0,0,126.075,32a8.2,8.2,0,0,1-2.689-.5,6.293,6.293,0,0,1-1.969-1.185,6.126,6.126,0,0,1-1.324-1.7,7.964,7.964,0,0,1-.743-2.074,10.976,10.976,0,0,1-.236-2.284,11.29,11.29,0,0,1,.926-4.785,6.915,6.915,0,0,1,2.647-3.06,7.678,7.678,0,0,1,4.121-1.065,7.781,7.781,0,0,1,4.451,1.245,6.153,6.153,0,0,1,2.509,3.465l-2.64.8a4.46,4.46,0,0,0-1.661-2.19,4.686,4.686,0,0,0-2.719-.78,4.189,4.189,0,0,0-2.629.788,4.625,4.625,0,0,0-1.519,2.16,9.255,9.255,0,0,0-.5,3.112,9.937,9.937,0,0,0,.173,1.894,5.313,5.313,0,0,0,.679,1.8A3.671,3.671,0,0,0,124.4,28.97a5.4,5.4,0,0,0,2.5.525q.36,0,.96.011t1.26.071a6.342,6.342,0,0,1,1.2.218,3.887,3.887,0,0,1,1.77,1.028A4.048,4.048,0,0,1,133.1,32.75a7.5,7.5,0,0,1,.041,2.85Z" transform="translate(-18637.016 19627)" fill="#fff"/>
      <path id="Path_12167" data-name="Path 12167" d="M2.1,32V10.4H15.75v2.535H4.77V19.7h9.18v2.535H4.77v7.23H15.75V32Zm29.34,3.6a4.264,4.264,0,0,0-.33-2.467,2.128,2.128,0,0,0-1.549-.945A17,17,0,0,0,26.76,32a12.112,12.112,0,0,1-4.808-.8,5.532,5.532,0,0,1-2.666-2.231,6.434,6.434,0,0,1-.836-3.311A6.01,6.01,0,0,1,19.3,22.37a4.5,4.5,0,0,1,2.5-1.875,5.844,5.844,0,0,1-1.845-1.98,5.6,5.6,0,0,1-.7-2.85,5.366,5.366,0,0,1,.585-2.584,5.015,5.015,0,0,1,1.586-1.774,7.2,7.2,0,0,1,2.261-1.024A10.18,10.18,0,0,1,26.3,9.95a8.36,8.36,0,0,1,7.35,3.84L31.59,15.545a6.59,6.59,0,0,0-2.066-2.227,5.738,5.738,0,0,0-3.229-.833,5.367,5.367,0,0,0-3.015.791,2.741,2.741,0,0,0-1.2,2.464,2.884,2.884,0,0,0,1.192,2.49,5.831,5.831,0,0,0,3.188.96q.3.015.78.022t.907.008h.563v2.55h-.289q-.154,0-.619.019t-1.538.056a11.216,11.216,0,0,0-2.61.379,3.386,3.386,0,0,0-1.744,1.08,3.257,3.257,0,0,0-.626,2.126,3.478,3.478,0,0,0,.78,2.385,4.4,4.4,0,0,0,2.22,1.275,13.59,13.59,0,0,0,3.42.405q.42.007.971.026t1.129.079a6.917,6.917,0,0,1,1.08.195,4.483,4.483,0,0,1,1.811.975,3.817,3.817,0,0,1,1.125,1.89,6.531,6.531,0,0,1,0,2.94Zm9.975-3.15a7.906,7.906,0,0,1-3.142-.6,5.321,5.321,0,0,1-2.246-1.74,4.472,4.472,0,0,1-.836-2.726,5.19,5.19,0,0,1,.322-1.811,4.062,4.062,0,0,1,.971-1.511,3.437,3.437,0,0,1,1.631-.877l-.1.945a5.448,5.448,0,0,1-1.763-1.747,4.363,4.363,0,0,1-.607-2.3,4.242,4.242,0,0,1,.772-2.573,4.822,4.822,0,0,1,2.07-1.605,7.277,7.277,0,0,1,2.858-.547,9.1,9.1,0,0,1,3.592.7,8.7,8.7,0,0,1,2.887,1.987L46.2,19.85a7.375,7.375,0,0,0-2.111-1.418,6.159,6.159,0,0,0-2.584-.562,4.041,4.041,0,0,0-2.194.581,2.007,2.007,0,0,0-.926,1.834,1.8,1.8,0,0,0,.99,1.74,5.6,5.6,0,0,0,2.565.51h1.665v2.2h-1.68a10.259,10.259,0,0,0-2.145.2,2.578,2.578,0,0,0-1.38.709,2.068,2.068,0,0,0-.48,1.466,2.45,2.45,0,0,0,.979,2.051,4.187,4.187,0,0,0,2.621.754,5.514,5.514,0,0,0,2.809-.713,6.305,6.305,0,0,0,2.111-2.048l2.13,1.38a7.53,7.53,0,0,1-2.895,2.876A8.535,8.535,0,0,1,41.415,32.45Zm7.9-.45L55.2,15.8a17.835,17.835,0,0,0-.885-1.969A2.859,2.859,0,0,0,53.25,12.68a3.528,3.528,0,0,0-1.77-.375h-.765V9.95H51.75q.285,0,.877.026a5.82,5.82,0,0,1,1.118.154,3.584,3.584,0,0,1,1.95,1.114,7.353,7.353,0,0,1,1.256,2.04q.506,1.2.979,2.516L63.81,32H61.1l-4.53-12.8L52.02,32ZM69.285,13.325H67.11l1.965-4.95H71.25Zm1.3,18.81a5.549,5.549,0,0,1-1.781-.6,3.61,3.61,0,0,1-1.4-1.444,4.172,4.172,0,0,1-.551-1.9q-.034-.971-.034-2.314V15.8h2.67v9.96q0,1.02.015,1.695a2.673,2.673,0,0,0,.315,1.23,2.06,2.06,0,0,0,.81.814,3.007,3.007,0,0,0,1.08.326,10.7,10.7,0,0,0,1.339.022,9.83,9.83,0,0,0,1.331-.142V32a7.462,7.462,0,0,1-1.245.2,12.461,12.461,0,0,1-1.361.038A9.269,9.269,0,0,1,70.583,32.135ZM89.768,35.6a4.264,4.264,0,0,0-.33-2.467,2.128,2.128,0,0,0-1.549-.945,17,17,0,0,0-2.8-.187,12.112,12.112,0,0,1-4.808-.8,5.532,5.532,0,0,1-2.666-2.231,6.434,6.434,0,0,1-.836-3.311,6.01,6.01,0,0,1,.848-3.285,4.5,4.5,0,0,1,2.5-1.875,5.844,5.844,0,0,1-1.845-1.98,5.6,5.6,0,0,1-.7-2.85,5.366,5.366,0,0,1,.585-2.584,5.015,5.015,0,0,1,1.586-1.774A7.2,7.2,0,0,1,82,10.284a10.18,10.18,0,0,1,2.618-.334,8.36,8.36,0,0,1,7.35,3.84l-2.055,1.755a6.59,6.59,0,0,0-2.066-2.227,5.738,5.738,0,0,0-3.229-.833,5.367,5.367,0,0,0-3.015.791,2.741,2.741,0,0,0-1.2,2.464A2.884,2.884,0,0,0,81.6,18.23a5.831,5.831,0,0,0,3.188.96q.3.015.78.022t.908.008h.563v2.55h-.289q-.154,0-.619.019t-1.537.056a11.216,11.216,0,0,0-2.61.379,3.386,3.386,0,0,0-1.744,1.08,3.257,3.257,0,0,0-.626,2.126,3.478,3.478,0,0,0,.78,2.385,4.4,4.4,0,0,0,2.22,1.275,13.59,13.59,0,0,0,3.42.405q.42.007.971.026t1.129.079a6.917,6.917,0,0,1,1.08.195,4.483,4.483,0,0,1,1.811.975,3.817,3.817,0,0,1,1.125,1.89,6.531,6.531,0,0,1,0,2.94Zm9.975-3.15a7.906,7.906,0,0,1-3.143-.6,5.321,5.321,0,0,1-2.246-1.74,4.472,4.472,0,0,1-.836-2.726,5.19,5.19,0,0,1,.323-1.811,4.062,4.062,0,0,1,.971-1.511,3.437,3.437,0,0,1,1.631-.877l-.105.945a5.448,5.448,0,0,1-1.762-1.747,4.363,4.363,0,0,1-.607-2.3A4.242,4.242,0,0,1,94.74,17.5,4.822,4.822,0,0,1,96.81,15.9a7.277,7.277,0,0,1,2.857-.547,9.1,9.1,0,0,1,3.592.7,8.7,8.7,0,0,1,2.888,1.987l-1.62,1.815a7.375,7.375,0,0,0-2.111-1.418,6.159,6.159,0,0,0-2.584-.562,4.041,4.041,0,0,0-2.194.581,2.007,2.007,0,0,0-.926,1.834,1.8,1.8,0,0,0,.99,1.74,5.6,5.6,0,0,0,2.565.51h1.665v2.2h-1.68a10.259,10.259,0,0,0-2.145.2,2.578,2.578,0,0,0-1.38.709,2.068,2.068,0,0,0-.48,1.466,2.45,2.45,0,0,0,.979,2.051,4.187,4.187,0,0,0,2.621.754,5.514,5.514,0,0,0,2.809-.713,6.305,6.305,0,0,0,2.111-2.048l2.13,1.38a7.53,7.53,0,0,1-2.9,2.876A8.535,8.535,0,0,1,99.743,32.45Zm14.077-.315a5.549,5.549,0,0,1-1.781-.6,3.61,3.61,0,0,1-1.4-1.444,4.172,4.172,0,0,1-.551-1.9q-.034-.971-.034-2.314V15.8h2.67v9.96q0,1.02.015,1.695a2.673,2.673,0,0,0,.315,1.23,2.06,2.06,0,0,0,.81.814,3.007,3.007,0,0,0,1.08.326,10.7,10.7,0,0,0,1.339.022,9.83,9.83,0,0,0,1.331-.142V32a7.462,7.462,0,0,1-1.245.2,12.461,12.461,0,0,1-1.361.038A9.269,9.269,0,0,1,113.82,32.135ZM130.755,35.6a4.112,4.112,0,0,0-.443-2.471,2.274,2.274,0,0,0-1.586-.9A23.029,23.029,0,0,0,126.075,32a8.2,8.2,0,0,1-2.689-.5,6.293,6.293,0,0,1-1.969-1.185,6.126,6.126,0,0,1-1.324-1.7,7.964,7.964,0,0,1-.743-2.074,10.976,10.976,0,0,1-.236-2.284,11.29,11.29,0,0,1,.926-4.785,6.915,6.915,0,0,1,2.647-3.06,7.678,7.678,0,0,1,4.121-1.065,7.781,7.781,0,0,1,4.451,1.245,6.153,6.153,0,0,1,2.509,3.465l-2.64.8a4.46,4.46,0,0,0-1.661-2.19,4.686,4.686,0,0,0-2.719-.78,4.189,4.189,0,0,0-2.629.788,4.625,4.625,0,0,0-1.519,2.16,9.255,9.255,0,0,0-.5,3.112,9.937,9.937,0,0,0,.173,1.894,5.313,5.313,0,0,0,.679,1.8A3.671,3.671,0,0,0,124.4,28.97a5.4,5.4,0,0,0,2.5.525q.36,0,.96.011t1.26.071a6.342,6.342,0,0,1,1.2.218,3.887,3.887,0,0,1,1.77,1.028A4.048,4.048,0,0,1,133.1,32.75a7.5,7.5,0,0,1,.041,2.85Z" transform="translate(-18331.02 19627)" fill="#fff"/>
    </g>
  </g>
</svg>
